<?xml version="1.0" encoding="utf-8"?>
<!-- Generator: Adobe Illustrator 24.3.0, SVG Export Plug-In . SVG Version: 6.00 Build 0)  -->
<svg version="1.1" id="Layer_1" xmlns="http://www.w3.org/2000/svg" xmlns:xlink="http://www.w3.org/1999/xlink" x="0px" y="0px"
	 viewBox="0 0 750 500" style="enable-background:new 0 0 750 500;" xml:space="preserve">
<style type="text/css">
	.st0{fill:#EBEBEB;}
	.st1{fill:#FFFFFF;}
	.st2{fill:#DBDBDB;}
	.st3{fill:#263339;}
	.st4{fill:#FDC72A;}
	.st5{fill:#37474F;}
	.st6{fill:#465B65;}
	.st7{fill:#C8C7C7;}
	.st8{fill:#A6A6A6;}
	.st9{fill:#AD645A;}
	.st10{opacity:0.1;fill:#020303;enable-background:new    ;}
	.st11{fill:#F29ABB;}
	.st12{opacity:0.1;fill:#020203;enable-background:new    ;}
	.st13{fill:#D3766A;}
	.st14{opacity:0.5;fill:#020203;enable-background:new    ;}
	.st15{opacity:0.5;}
	.st16{fill:#020203;}
</style>
<g>
	<g id="freepik--background-complete--inject-244">
		<rect x="15.17" y="284.08" class="st0" width="719.81" height="14.67"/>
		<path class="st0" d="M722.95,343.12c-10.15,0.17-24.1,0.52-34.1,0.51h-0.51v-0.51v-12.62v-0.56h0.56l17.05,0.08
			c5.78,0,11.56,0.14,17.34,0.2v0.28l-0.28,12.62H722.95z M722.95,343.12l-0.29-12.62l0.29,0.29c-5.64,0.07-11.37,0.18-17.05,0.2
			l-17.05,0.07l0.56-0.56v12.62l-0.51-0.51c9.79,0,24.14,0.33,34.1,0.51H722.95z"/>
		<path class="st0" d="M703.92,359.03c-10.15,0.17-24.1,0.52-34.1,0.51h-0.44v-0.51l-0.06-12.62v-0.56h0.56l17.05,0.08
			c5.78,0,11.57,0.14,17.34,0.2v0.28l-0.29,12.62H703.92z M703.92,359.03l-0.29-12.62l0.29,0.29c-5.64,0.07-11.37,0.18-17.05,0.2
			l-17.05,0.07l0.56-0.56v12.62l-0.51-0.51c9.79,0,24.15,0.33,34.1,0.51H703.92z"/>
		<path class="st0" d="M741.96,359.03c-10.15,0.17-24.1,0.52-34.09,0.51h-0.51v-0.51v-12.62v-0.56h0.56l17.05,0.08
			c5.77,0,11.56,0.14,17.34,0.2v0.28l-0.29,12.62H741.96z M741.96,359.03l-0.29-12.62l0.29,0.29c-5.64,0.07-11.37,0.18-17.04,0.2
			l-17.05,0.07l0.56-0.56v12.62l-0.51-0.51c9.78,0,24.14,0.33,34.09,0.51H741.96z"/>
		<path class="st0" d="M383.07,74.07c-10.15,0.17-24.1,0.52-34.1,0.51h-0.51v-0.51V61.45v-0.56h0.56l17.03,0.07
			c5.78,0,11.56,0.15,17.34,0.2v0.29l-0.29,12.62H383.07z M383.07,74.07l-0.29-12.62l0.29,0.29c-5.64,0-11.37,0.17-17.05,0.19
			l-17.05,0.08l0.56-0.56l-0.06,12.62l-0.51-0.51C358.76,73.56,373.11,73.88,383.07,74.07z"/>
		<path class="st0" d="M364.05,89.98c-10.15,0.17-24.1,0.52-34.09,0.51h-0.51v-0.51V77.36V76.8h0.52l17.04,0.07
			c5.78,0,11.57,0.15,17.34,0.2v0.29l-0.29,12.62H364.05z M364.05,89.98l-0.25-12.62l0.29,0.28c-5.64,0.07-11.37,0.18-17.05,0.2
			L330,77.93l0.55-0.56v12.62l-0.51-0.51c9.78,0,24.14,0.32,34.09,0.51H364.05z"/>
		<path class="st0" d="M402.14,89.98c-10.15,0.17-24.1,0.52-34.09,0.51h-0.51v-0.51V77.36V76.8h0.56l17.05,0.07
			c5.77,0,11.56,0.15,17.34,0.2v0.29L402.14,89.98z M402.14,89.98l-0.28-12.62l0.28,0.28c-5.64,0.07-11.36,0.18-17.04,0.2
			l-17.05,0.08l0.56-0.56l-0.06,12.62l-0.51-0.51C377.82,89.48,392.19,89.79,402.14,89.98L402.14,89.98z"/>
		<path class="st0" d="M61.81,276.47c-10.15,0.16-24.1,0.52-34.1,0.51H27.2v-0.51v-12.62v-0.58h0.56l17.05,0.07
			c5.78,0,11.56,0.15,17.34,0.2v0.29l-0.29,12.62L61.81,276.47z M61.81,276.47l-0.29-12.62l0.29,0.28
			c-5.64,0.07-11.37,0.18-17.05,0.2l-16.99,0.07l0.56-0.55v12.62l-0.51-0.52c9.79,0,24.14,0.33,34.1,0.52H61.81z"/>
		<path class="st0" d="M566.53,165.67c-10.15,0.17-24.1,0.52-34.09,0.51h-0.51v-0.51l-0.06-12.62v-0.56h0.56l17.05,0.07
			c5.77,0,11.56,0.15,17.34,0.2v0.29l-0.29,12.62L566.53,165.67z M566.53,165.67l-0.28-12.62l0.28,0.28
			c-5.64,0.07-11.36,0.18-17.04,0.2l-17.05,0.08l0.56-0.56v12.62l-0.51-0.51c9.79,0,24.14,0.32,34.09,0.51H566.53z"/>
		<path class="st0" d="M720.97,22.82c-10.15,0.17-24.1,0.52-34.1,0.51h-0.51v-0.51V10.2V9.64h0.56l17.05,0.08
			c5.78,0,11.56,0.14,17.34,0.19v0.29l-0.29,12.62L720.97,22.82z M720.97,22.82l-0.29-12.62l0.29,0.29
			c-5.64,0-11.37,0.18-17.05,0.19l-17.05,0.08l0.56-0.56v12.62l-0.51-0.51c9.79,0,24.14,0.33,34.1,0.51L720.97,22.82z"/>
		<path class="st0" d="M739.98,38.73c-10.15,0.17-24.1,0.52-34.09,0.51h-0.51v-0.51V26.11v-0.56h0.56L723,25.63
			c5.77,0,11.56,0.14,17.34,0.19v0.29l-0.29,12.62H739.98z M739.98,38.73l-0.28-12.62l0.28,0.29c-5.64,0-11.36,0.18-17.04,0.19
			l-17.05,0.08l0.56-0.56v12.62l-0.51-0.51c9.79,0,24.14,0.33,34.09,0.51H739.98z"/>
		<path class="st0" d="M42.28,22.83C32.13,23,18.18,23.35,8.19,23.34H7.68v-0.51V10.21V9.65h0.56l17.04,0.08
			c5.78,0,11.57,0.14,17.35,0.2v0.28l-0.29,12.62H42.28z M42.28,22.83l-0.29-12.62l0.29,0.29c-5.64,0.07-11.37,0.18-17.05,0.2
			L8.19,10.78l0.56-0.56v12.62l-0.51-0.51c9.78,0,24.14,0.33,34.09,0.51H42.28z"/>
		<path class="st0" d="M37,14.69v200.33h130.21V14.69H37z M162.4,210.22H41.8V19.49h120.66L162.4,210.22z"/>
		<rect x="41.8" y="19.49" class="st1" width="120.6" height="190.73"/>
		<rect x="41.8" y="112.46" class="st0" width="120.6" height="4.8"/>
		<rect x="28.16" y="215.03" class="st2" width="147.9" height="13.79"/>
		<path class="st2" d="M41.8,19.49h120.66v123.4H41.8V19.49z M157.95,23.94H46.25v114.5h111.7V23.94z"/>
		<rect x="121.51" y="19.49" class="st2" width="2.4" height="118.94"/>
		<rect x="80.29" y="19.49" class="st2" width="2.4" height="118.94"/>
		<path class="st0" d="M582.94,14.69v200.33h130.22V14.69H582.94z M708.36,210.22H587.7V19.49h120.66V210.22z"/>
		<rect x="587.74" y="19.49" class="st1" width="120.6" height="190.73"/>
		<rect x="587.74" y="112.46" class="st0" width="120.6" height="4.8"/>
		<rect x="574.1" y="215.03" class="st2" width="147.9" height="13.79"/>
		<path class="st2" d="M587.74,19.49h120.6v123.4h-120.6V19.49z M703.89,23.94H592.2v114.5h111.7L703.89,23.94z"/>
		<rect x="667.46" y="19.49" class="st2" width="2.4" height="118.94"/>
		<rect x="626.24" y="19.49" class="st2" width="2.4" height="118.94"/>
		<path class="st0" d="M414.36,14.69v200.33h130.22V14.69H414.36z M539.77,210.22h-120.6V19.49h120.6V210.22z"/>
		<rect x="419.17" y="19.49" class="st1" width="120.6" height="190.73"/>
		<rect x="419.17" y="112.46" class="st0" width="120.6" height="4.8"/>
		<rect x="405.52" y="215.03" class="st2" width="147.9" height="13.79"/>
		<path class="st2" d="M419.16,19.49h120.6v123.4h-120.6V19.49z M535.31,23.94H423.62v114.5h111.7L535.31,23.94z"/>
		<rect x="498.88" y="19.49" class="st2" width="2.4" height="118.94"/>
		<rect x="457.66" y="19.49" class="st2" width="2.4" height="118.94"/>
	</g>
	<g id="freepik--Floor--inject-244">
		<path class="st3" d="M11.33,471.1c233.04-0.69,494.44-0.69,727.48,0C505.78,471.8,244.37,471.79,11.33,471.1z"/>
	</g>
	<g id="freepik--Plant--inject-244">
		<path class="st3" d="M286.34,322.42c-5.02-4.92-11.5-10.86-19.17-8.74c-7.22,2-9.98,9.88-11.28,16.44
			c-1.67,8.46-2.95,17-4.31,25.53c-1.35,8.52-2.63,17.22-3.87,25.83c-0.7,4.87-1.39,9.74-2.06,14.6c-0.35,2.44-0.69,4.87-1.01,7.3
			c-0.34,2.39-0.73,4.78-0.87,7.18c0.01,0.37,0.33,0.66,0.7,0.65c0.3-0.01,0.55-0.22,0.63-0.5c0.94-4.06,1.32-8.28,1.92-12.4
			c0.6-4.13,1.2-8.29,1.8-12.4c1.2-8.23,2.45-16.45,3.69-24.67c1.24-8.22,2.53-16.45,3.83-24.67c1.13-6.97,1.64-15.63,7.81-20.22
			c3.38-2.53,7.71-2.55,11.56-1.13c4.06,1.56,7.31,4.51,10.49,7.35C286.3,322.67,286.44,322.51,286.34,322.42z"/>
		<path class="st4" d="M279.47,317.39c0,0-10.26-3.69-15.32,3.8c-5.06,7.49,0.99,26.53,47.71,37.28
			c-1.39-14.61-5.2-28.88-11.28-42.23C290.6,294.4,272.75,302.66,279.47,317.39z"/>
		<path class="st3" d="M309.17,355.35c-0.71-1.31-1.5-2.57-2.36-3.79c-0.78-1.2-1.57-2.4-2.37-3.59c-0.6-0.9-1.21-1.79-1.83-2.68
			c0-0.21,0.06-0.44,0.09-0.67c0.06-0.41,0.1-0.81,0.16-1.22c0.11-0.87,0.24-1.75,0.37-2.62c0.14-0.87,0.27-1.74,0.44-2.6
			c0.11-0.94,0.31-1.86,0.61-2.75c0-0.14-0.18-0.2-0.2,0c-0.1,0.52-0.24,1.04-0.42,1.54c-0.11,0.39-0.21,0.79-0.32,1.18
			c-0.23,0.88-0.44,1.77-0.64,2.66s-0.34,1.65-0.47,2.48c-0.07,0.41-0.14,0.8-0.18,1.2c-0.83-1.18-1.68-2.36-2.56-3.52
			c-2.48-3.26-5.11-6.4-7.83-9.47c0,0,0,0,0-0.09c0.25-4.91,0.12-9.77,1.22-14.59c0-0.14-0.17-0.2-0.2-0.08
			c-1.03,4.51-2.04,9.29-1.75,13.97c-0.97-1.13-1.95-2.17-2.95-3.24c-2.26-2.44-4.57-4.85-6.96-7.22c-0.09-0.09-0.25,0-0.16,0.15
			c3.94,4.24,7.68,8.65,11.28,13.15c-2.85-0.05-5.7,0.05-8.54,0.32c-3.17,0.23-6.31,0.63-9.46,1.07c-0.06,0-0.1,0.05-0.1,0.1
			c0,0.06,0.05,0.1,0.1,0.1c3.13-0.44,6.29-0.73,9.45-0.85c3.04-0.12,6.08,0,9.12,0c1.96,2.45,3.91,4.91,5.83,7.37h-0.43
			c-0.72,0-1.43,0-2.15,0c-1.42,0-2.84,0.12-4.25,0.24c-2.9,0.23-5.78,0.67-8.63,1.3c-0.14,0-0.09,0.21,0,0.2
			c2.88-0.33,5.75-0.6,8.64-0.7c1.38,0,2.75,0,4.14,0h2.14c0.4,0.04,0.8,0.01,1.18-0.11c1.25,1.64,2.51,3.26,3.76,4.91
			c0.99,1.29,1.97,2.61,2.93,3.95c0.98,1.35,1.87,2.84,2.97,4.1C309.08,355.57,309.22,355.46,309.17,355.35z"/>
		<path class="st3" d="M283.94,327.98c-1.66-0.21-3.33-0.29-5-0.24c-1.67,0-3.38,0-5,0.1c-0.06-0.02-0.12,0.01-0.14,0.07
			c-0.02,0.06,0.01,0.12,0.07,0.14c0.02,0.01,0.05,0.01,0.07,0c1.69-0.12,3.38-0.16,5.07-0.12c1.69,0.03,3.27,0.18,4.91,0.14
			C283.99,328.09,283.99,327.98,283.94,327.98z"/>
		<path class="st3" d="M298.61,331.77c0.19-1.59,0.38-3.19,0.72-4.77c0-0.06-0.04-0.1-0.1-0.1c-0.06,0-0.1,0.04-0.1,0.1c0,0,0,0,0,0
			c-0.24,1.58-0.54,3.13-0.78,4.7c-0.11,0.79-0.21,1.58-0.32,2.37c-0.14,0.74-0.21,1.5-0.19,2.26c0,0.14,0.24,0.15,0.27,0
			c0.15-0.74,0.23-1.5,0.25-2.26C298.39,333.29,298.52,332.49,298.61,331.77z"/>
		<path class="st3" d="M295.53,314.1c-0.41,1.54-0.81,3.12-1.13,4.7c-0.14,0.8-0.26,1.6-0.37,2.41c-0.15,0.78-0.2,1.57-0.16,2.36
			c0.01,0.03,0.05,0.05,0.09,0.03c0.02-0.01,0.03-0.02,0.03-0.03c0.19-0.74,0.31-1.49,0.37-2.26c0.1-0.77,0.21-1.54,0.35-2.32
			c0.29-1.62,0.58-3.24,0.99-4.84C295.77,314.03,295.56,313.96,295.53,314.1z"/>
		<path class="st3" d="M235.39,409.39c-0.26-2.95-0.54-5.89-0.86-8.82c-0.61-5.82-1.32-11.63-2.1-17.43
			c-0.78-5.81-1.52-11.57-2.46-17.33c-0.34-2.68-0.94-5.32-1.78-7.89c-0.61-2.22-2.22-4.04-4.35-4.92c-5.5-1.91-9.21,3.8-11.42,7.83
			c-0.03,0.05-0.01,0.11,0.04,0.14c0.05,0.03,0.11,0.01,0.14-0.04l0,0c1.33-1.91,5-7.27,9.17-7.01c2.81,0.17,5.05,2.15,6.39,9.15
			c3.38,17.43,6.38,52.81,6.77,55.12c0.18,1.23,1.05,1.13,1.06-0.14C235.98,415.17,235.64,412.27,235.39,409.39z"/>
		<path class="st4" d="M213.9,358.69c0,0,4.8-16.91-5.82-8.48c-17.68,14.12-18.3,44.83-18.3,44.83s31.43-18.26,35.32-30.3
			C230.93,346.81,213.9,358.69,213.9,358.69z"/>
		<path class="st3" d="M219.84,367.02c-2.46,0.5-4.96,0.82-7.45,1.18l-3.54,0.5l-2.4,0.28c2.35-3.23,4.7-6.44,6.95-9.73
			c0.09-0.12-0.1-0.26-0.2-0.15c-1.86,1.92-3.62,3.94-5.25,6.06l-1.4-3.94c-0.53-1.52-1.13-3.03-1.49-4.6c0-0.12-0.24-0.07-0.2,0.07
			c0.43,1.56,0.73,3.13,1.13,4.7c0.39,1.57,0.86,2.99,1.39,4.45c-1.13,1.49-2.26,3.02-3.33,4.57c-0.54-1.53-1.21-3.01-1.68-4.57
			c0-0.14-0.25-0.07-0.2,0.06c0.56,1.73,0.86,3.52,1.39,5.24c-0.72,1.06-1.44,2.11-2.13,3.17c-1.26,1.96-2.46,3.96-3.63,5.98
			c-0.19,0.08-0.3,0.27-0.27,0.47c-1.98,3.38-3.88,6.91-5.74,10.43c-0.03,0.05-0.01,0.11,0.04,0.14c0.05,0.03,0.11,0.01,0.14-0.04
			l0,0c1.87-3.47,3.95-6.84,6.1-10.15l0,0c0.36-0.1,0.74-0.16,1.12-0.17l1.13-0.24c0.81-0.17,1.62-0.38,2.42-0.59
			c1.6-0.39,3.18-0.77,4.79-1.05c0.14,0,0.08-0.23,0-0.2c-1.91,0.36-3.81,0.58-5.74,0.8c-0.9,0.1-1.8,0.23-2.71,0.36h-0.14
			c1.13-1.71,2.27-3.42,3.44-5.11c1.13-1.66,2.26-3.29,3.5-4.92c1.13-0.16,2.17-0.44,3.25-0.65c1.08-0.21,2.44-0.46,3.64-0.71
			c2.44-0.47,4.86-1.03,7.31-1.43C220.05,367.19,219.98,366.98,219.84,367.02z"/>
		<path class="st3" d="M200.97,368.69c-0.15-0.45-0.28-0.9-0.43-1.35c-0.29-0.93-0.53-1.88-0.72-2.84c0-0.14-0.23-0.07-0.2,0.06
			c0.2,0.96,0.43,1.92,0.65,2.88c0.2,0.96,0.47,1.9,0.81,2.82c0.05,0.09,0.16,0.13,0.26,0.08c0.07-0.04,0.11-0.12,0.1-0.2
			C201.32,369.7,201.13,369.17,200.97,368.69z"/>
		<path class="st3" d="M223.07,363.08c-1.43,0.21-2.89,0.32-4.33,0.44c-1.44,0.12-2.88,0.34-4.32,0.55c-0.03-0.01-0.07,0-0.09,0.03
			c-0.01,0.03,0,0.07,0.03,0.09c0.02,0.01,0.04,0.01,0.05,0c1.44-0.1,2.88-0.21,4.32-0.41c1.44-0.19,2.88-0.39,4.32-0.5
			C223.2,363.29,223.19,363.06,223.07,363.08z"/>
		<path class="st3" d="M250.47,387.91c-0.56-12.48-1.35-24.95-2.6-37.39c-0.63-6.2-1.33-12.4-2.2-18.56
			c-0.78-6.06-1.97-12.06-3.57-17.95c-1.29-4.51-2.98-9.02-5.99-12.66c-2.84-3.73-7.41-5.72-12.08-5.27
			c-5.46,0.68-9.87,4.12-13.67,7.89c-4.27,4.19-8.19,8.78-12.14,13.27l-2.98,3.38c-0.09,0.1,0.07,0.25,0.16,0.15
			c3.87-4.44,7.89-8.76,12.09-12.89c3.89-3.81,7.89-7.98,13.27-9.56c2.5-0.8,5.18-0.87,7.71-0.18c2.02,0.65,3.83,1.82,5.27,3.38
			c3.02,3.15,4.72,7.42,5.94,11.55c3.38,11.48,4.51,23.52,5.81,35.37c1.26,12.04,2.12,24.13,2.73,36.22
			c0.61,12.09,1.13,24.33,2.26,36.46c0.15,1.5,0.34,2.99,0.53,4.51c0.12,1,1.68,1,1.6,0C251.61,413,251.03,400.46,250.47,387.91z"/>
		<path class="st4" d="M209.67,305.29c0,0,7.13-13.2-1.3-17.43c-8.42-4.23-36.64,27.24-44.88,73.3c0,0,45.56-20.15,61.03-40.23
			C239.99,300.84,222.46,296.41,209.67,305.29z"/>
		<path class="st3" d="M216.37,316.03c-5.12,0-10.23-0.39-15.35-0.35c0.96-1.13,1.92-2.26,2.89-3.3c1.43-1.46,2.76-3.02,3.99-4.65
			c0.08-0.1-0.08-0.26-0.18-0.18c-1.38,1.2-2.68,2.5-3.88,3.89l-3.82,4.14c-1.96,2.12-3.88,4.27-5.78,6.43c0-0.21,0-0.42,0-0.62
			v-2.7c0-1.74,0-3.47,0-5.21c0-3.52,0-7.06,0.27-10.57c0-0.14-0.2-0.14-0.21,0c-0.24,3.53-0.61,7.05-0.78,10.59
			c-0.09,1.74-0.12,3.47-0.15,5.21c0,0.9,0,1.79,0,2.7c0,0.48,0,1,0,1.5c-0.29,0.34-0.61,0.67-0.9,1
			c-4.08,4.68-7.97,9.51-11.75,14.42c0-0.27,0-0.55-0.07-0.82c-0.06-0.54-0.12-1.13-0.18-1.62c-0.14-1.13-0.29-2.35-0.47-3.51
			c-0.18-1.16-0.34-2.2-0.52-3.29c-0.18-1.09-0.51-2.48-0.61-3.72c0-0.06-0.04-0.1-0.1-0.1c-0.06,0-0.1,0.04-0.1,0.1c0,0,0,0,0,0
			c0.22,1.24,0.36,2.49,0.43,3.74c0.11,1.13,0.21,2.26,0.32,3.38c0.1,1.13,0.2,2.26,0.32,3.38c0,0.54,0.1,1.13,0.17,1.62
			c0,0.27,0.06,0.54,0.09,0.81c0.03,0.23,0.11,0.45,0.23,0.64c-0.65,0.85-1.31,1.69-1.95,2.55c-2.58,3.38-5.12,6.88-7.66,10.33
			c-0.08,0.1,0.07,0.25,0.16,0.15c2.4-3.13,4.87-6.21,7.37-9.26c1.87,0.08,3.79-0.06,5.64-0.09c1.85-0.03,3.95,0,5.93,0
			c0.14,0,0.12-0.21,0-0.21c-1.97,0-3.95,0.07-5.92,0.07c-1.8,0-3.64-0.08-5.45,0c2.2-2.68,4.43-5.34,6.66-7.99l2.45-2.9
			c0.75,0.1,1.5,0.12,2.26,0.08h2.7c1.68,0,3.38,0,5.04-0.07c3.48-0.06,6.96-0.17,10.43-0.18c0.06,0,0.1-0.04,0.1-0.1
			c0-0.06-0.04-0.1-0.1-0.1c0,0,0,0,0,0c-3.48,0-6.96-0.2-10.44-0.28c-1.69,0-3.38-0.1-5.05-0.12h-2.7c-0.52,0-1.04,0-1.56,0
			c1.91-2.26,3.81-4.51,5.74-6.77c0.05-0.03,0.08-0.07,0.1-0.12c1.87-2.26,3.73-4.41,5.64-6.59l0.78-0.89
			c5.31,0.16,10.61-0.19,15.91-0.08c0.09,0.02,0.19-0.04,0.21-0.13S216.46,316.05,216.37,316.03z"/>
		<path class="st3" d="M213.75,325.08h-1.24c-0.05,0-0.09,0.04-0.09,0.09c0,0.05,0.04,0.09,0.09,0.09l0,0h1.24
			c0.05-0.03,0.07-0.09,0.04-0.14C213.79,325.11,213.77,325.09,213.75,325.08z"/>
		<path class="st3" d="M210.99,325.09c-1.64,0-3.28-0.06-4.92-0.1l-2.47-0.08c-0.75-0.09-1.51-0.09-2.26,0c-0.08,0,0,0.14,0,0.16
			c0.74,0.15,1.5,0.2,2.26,0.16h2.46c1.65,0,3.28,0,4.92,0C211.01,325.19,211.02,325.14,210.99,325.09z"/>
		<path class="st3" d="M196.67,340.46c-3.33-0.55-6.7-0.85-10.08-0.9v0.07c3.38,0.33,6.7,0.51,10.01,1.05
			C196.75,340.7,196.81,340.49,196.67,340.46z"/>
		<path class="st3" d="M182.97,325.81c0-0.29,0-0.59-0.1-0.88c-0.08-0.67-0.19-1.32-0.29-1.97c-0.19-1.25-0.42-2.5-0.65-3.74
			c0-0.06-0.05-0.1-0.1-0.1c-0.06,0-0.1,0.05-0.1,0.1c0.16,1.29,0.29,2.57,0.42,3.87c0,0.63,0.1,1.26,0.16,1.89
			c-0.02,0.62,0.07,1.23,0.26,1.82c0.08,0.11,0.24,0.14,0.35,0.06c0.05-0.03,0.08-0.08,0.09-0.13
			C183.05,326.42,183.04,326.11,182.97,325.81z"/>
		<path class="st3" d="M252.89,291.9c-1.62-3.03-3.7-7.05-7.77-6.77c-3.38,0.2-4.88,3.63-5.64,6.47c-2.26,8.76-2.38,18.04-2.81,27
			c-0.91,18.99-1.74,38-1.86,57.01c0,5.27,0,10.54,0,15.79c0,5.24,0,20.3,0.38,25.7c0,0.22,0.18,0.39,0.4,0.39
			c0.22,0,0.39-0.18,0.39-0.39c0-4.6-0.14-18.76-0.16-23.35c-0.02-4.59,0-9.02,0.09-13.46c0.15-9.09,0.39-18.17,0.73-27.25
			c0.33-9.02,0.73-18.04,1.13-27.06c0.19-4.51,0.37-9.02,0.58-13.53c0.2-4.51,0.39-8.74,0.89-13.09c0.28-2.44,0.64-4.87,1.13-7.26
			c0.25-1.78,0.98-3.46,2.1-4.87c1.6-1.59,4.13-1.77,5.94-0.43c1.85,1.34,3.31,3.15,4.21,5.25
			C252.78,292.13,252.96,292.02,252.89,291.9z"/>
		<path class="st4" d="M251.8,290.45c0,0-3.38-11.82,4.05-5.91c12.31,9.84,12.75,31.24,12.75,31.24s-21.9-12.72-24.62-21.1
			C239.93,282.19,251.8,290.45,251.8,290.45z"/>
		<path class="st3" d="M263.99,307.01c-0.19-0.33-0.41-0.64-0.62-0.97c0.03-0.33,0.03-0.67,0-1c0-0.51,0-1.01,0-1.52
			c0-1,0.06-2,0.1-3c0-0.14-0.2-0.12-0.2,0c-0.06,0.97-0.09,1.95-0.12,2.93c0,0.48,0,0.98,0,1.47c0,0.19,0,0.42,0,0.63
			c-0.86-1.33-1.75-2.65-2.66-3.95c-0.26-0.38-0.54-0.74-0.81-1.13c-0.11-1.28-0.11-2.57,0-3.86c0-1.38,0-2.75,0.08-4.13
			c0-0.14-0.2-0.12-0.21,0c0,1.42-0.11,2.85-0.18,4.28c-0.08,1.02-0.11,2.04-0.08,3.06c-2.12-2.88-4.36-5.64-6.63-8.41
			c-0.08-0.09-0.24,0-0.17,0.14c1.41,1.78,2.76,3.61,4.08,5.46c-2.58-0.61-5.2-0.95-7.81-1.33c-0.14,0-0.19,0.18-0.06,0.2
			c2.77,0.42,5.49,1.13,8.23,1.73l0,0c1.04,1.5,2.08,2.98,3.11,4.44l1.24,1.83h-0.11l-0.86-0.11c-0.61-0.08-1.21-0.12-1.82-0.17
			c-1.26-0.1-2.53-0.17-3.79-0.24c-0.06,0.02-0.09,0.08-0.07,0.14c0.01,0.03,0.04,0.06,0.07,0.07c1.24,0,2.48,0.12,3.72,0.26
			c0.65,0.07,1.31,0.16,1.95,0.24c0.29,0,0.58,0.06,0.86,0.1h0.26l2.1,3.1c1.24,1.83,2.35,3.79,3.66,5.55c0.04,0.04,0.1,0.04,0.14,0
			c0.03-0.03,0.04-0.07,0.03-0.1C266.39,310.74,265.24,308.84,263.99,307.01z"/>
		<path class="st3" d="M258.54,293.65c0-0.45,0-0.91,0-1.38c-0.03-0.97,0.01-1.94,0.11-2.9c0-0.15-0.2-0.17-0.2,0
			c0,0.96-0.11,1.92-0.16,2.88c0,0.47,0,0.96,0,1.43v0.67c-0.02,0.23,0,0.46,0.06,0.69c0,0.05,0.04,0.09,0.09,0.09
			c0.05,0,0.09-0.04,0.09-0.09c0.04-0.21,0.04-0.42,0-0.63L258.54,293.65z"/>
		<path class="st3" d="M255.84,298.55c-0.81-0.14-1.65-0.18-2.47-0.25s-1.8-0.16-2.71-0.27c-0.06-0.02-0.12,0.01-0.14,0.07
			c-0.02,0.06,0.01,0.12,0.07,0.14c0.02,0.01,0.05,0.01,0.07,0c1.73,0.1,3.45,0.42,5.18,0.47c0.05-0.02,0.07-0.07,0.05-0.12
			C255.88,298.58,255.86,298.56,255.84,298.55z"/>
		<path class="st3" d="M262.72,298.66c0.07,0.09,0,0.35,0,0.45v0.38c0,0.27,0,0.55,0,0.82v0.83c-0.05,0.24-0.05,0.48,0,0.72
			c0.02,0.02,0.05,0.03,0.08,0.01c0,0,0.01-0.01,0.01-0.01c0.02-0.11,0.02-0.23,0-0.34v-0.38c0-0.27,0-0.55,0-0.82v-1.21
			c0-0.11,0-0.36,0-0.46C262.81,298.56,262.57,298.42,262.72,298.66z"/>
		<path class="st3" d="M259.31,361.18c-4.6-3.45-8.74-8.42-14.93-8.66c-5.11-0.2-8.69,3.64-10.74,7.89
			c-1.03,2.28-1.88,4.64-2.51,7.06c-0.91,3.24-1.79,6.48-2.6,9.74c-1.6,6.43-2.97,12.9-4.09,19.43c-0.63,3.63-1.21,7.28-1.67,10.94
			c-0.61,3.71-0.98,7.45-1.13,11.21c0.02,0.32,0.29,0.56,0.61,0.54c0.25-0.01,0.45-0.18,0.52-0.42c0.63-3.06,0.89-6.21,1.34-9.31
			c0.45-3.1,0.92-6.21,1.44-9.31c1.06-6.2,2.26-12.4,3.66-18.52c1.33-5.8,2.63-11.67,4.51-17.32c1.34-4.04,3.5-8.76,7.89-10.22
			c6.64-2.26,12.67,3.38,17.55,7.07C259.28,361.41,259.42,361.26,259.31,361.18z"/>
		<path class="st4" d="M254.55,357.87c0,0-4.24-12.12,1.89-14.49c9.2-3.56,33.28,23.56,28.56,65.1c0,0-18.61-10.24-32.34-21.77
			c-13.73-11.54-17.25-26.59-11.2-30.45C247.53,352.4,254.55,357.87,254.55,357.87z"/>
		<path class="st3" d="M282.22,399.58c-0.64-1.45-1.4-2.86-2.26-4.19c-0.79-1.42-1.58-2.84-2.4-4.24c-1.6-2.74-3.19-5.48-4.83-8.19
			c-0.26-0.44-0.54-0.88-0.8-1.32c0-0.16,0.06-0.32,0.09-0.48c0.1-0.39,0.19-0.8,0.28-1.2c0.2-0.9,0.36-1.82,0.53-2.73
			c0.33-1.77,0.64-3.57,1.13-5.32c0-0.12-0.18-0.17-0.2,0c-0.38,1.77-0.94,3.53-1.47,5.27c-0.26,0.86-0.53,1.7-0.77,2.57
			c-0.07,0.29-0.15,0.6-0.23,0.89c-1.98-3.24-3.99-6.47-6.16-9.58c0.14-0.43,0.21-0.88,0.21-1.33c0-0.61,0.14-1.22,0.2-1.83
			c0.17-1.36,0.33-2.73,0.52-4.09c0.35-2.68,0.84-5.33,1.47-7.96c0-0.14-0.18-0.17-0.21,0c-0.65,2.62-1.38,5.23-1.87,7.89
			c-0.25,1.3-0.47,2.6-0.65,3.92c-0.09,0.65-0.16,1.31-0.23,1.97c0,0.19,0,0.39-0.08,0.59c-0.67-0.94-1.33-1.88-2.03-2.8
			c-2.12-2.8-4.33-5.53-6.55-8.24c-0.08-0.1-0.26,0-0.17,0.12c3.81,4.87,7.3,9.97,10.46,15.28c0.61,0.97,1.21,1.95,1.8,2.93
			l-0.6-0.08c-0.78-0.09-1.57-0.15-2.35-0.21c-1.57-0.15-3.12-0.28-4.69-0.41c-3.13-0.25-6.28-0.44-9.4-0.78
			c-0.14,0-0.18,0.19,0,0.2c3.17,0.36,6.33,0.88,9.48,1.32c1.56,0.23,3.1,0.43,4.66,0.63c1.18,0.24,2.38,0.36,3.59,0.37
			c1.23,2,2.47,3.99,3.7,6c-0.28-0.02-0.56-0.02-0.83,0h-4.51c-2.02,0-4.04,0-6.06,0c-0.14,0-0.11,0.2,0,0.2
			c2.04,0,4.08,0.14,6.12,0.24l2.91,0.18l1.45,0.1c0.42,0.09,0.85,0.09,1.27,0c1.04,1.7,2.1,3.38,3.15,5.1
			c1.05,1.71,1.93,3.13,2.92,4.69c0.93,1.65,1.99,3.24,3.16,4.74C282.11,399.78,282.28,399.71,282.22,399.58z"/>
		<path class="st3" d="M273.36,365.99c-0.18,1.34-0.46,2.66-0.82,3.96c-0.35,1.34-0.74,2.67-1.13,3.99
			c-0.04,0.06-0.02,0.15,0.04,0.19c0.06,0.04,0.15,0.02,0.19-0.04c0.01-0.02,0.02-0.05,0.02-0.07c0.41-1.31,0.78-2.63,1.13-3.96
			c0.35-1.33,0.53-2.7,0.86-4.03C273.59,365.9,273.38,365.86,273.36,365.99z"/>
		<path class="st3" d="M259.69,374.11c-0.28-0.24-0.64-0.38-1.01-0.37l-1.75-0.25c-1.13-0.15-2.19-0.26-3.28-0.39
			c-2.26-0.26-4.51-0.48-6.77-0.77c-0.14,0-0.17,0.19,0,0.2c2.14,0.26,4.26,0.59,6.4,0.87c1.04,0.14,2.09,0.28,3.13,0.41l1.51,0.17
			c0.59,0,1.17,0.1,1.73,0.29C259.69,374.33,259.77,374.21,259.69,374.11z"/>
		<path class="st3" d="M273.33,392.39c-1.06-0.09-2.14-0.12-3.21-0.16l-1.62-0.06h-0.78c-0.34,0.02-0.68,0-1.01-0.06
			c-0.16,0-0.17,0.23,0,0.2c0.31-0.03,0.63-0.03,0.95,0h0.85l1.62,0.1c1.07,0.07,2.14,0.12,3.23,0.14
			C273.45,392.62,273.46,392.4,273.33,392.39z"/>
		<path class="st3" d="M279.89,387.74c0.12-0.61,0.24-1.22,0.35-1.83c0.23-1.2,0.44-2.39,0.67-3.59c-0.02-0.06-0.08-0.09-0.14-0.07
			c-0.03,0.01-0.06,0.04-0.07,0.07c-0.26,1.13-0.53,2.33-0.79,3.51c-0.14,0.59-0.26,1.13-0.38,1.75l-0.17,0.81
			c-0.08,0.28-0.12,0.57-0.09,0.86c0,0.1,0.16,0.18,0.23,0.08C279.72,388.83,279.85,388.29,279.89,387.74z"/>
		<polygon class="st5" points="261.05,418.39 260.25,431.72 257.87,471.1 217.49,471.1 215.12,431.72 214.31,418.39 		"/>
		<polygon class="st3" points="261.05,418.39 260.25,431.72 215.12,431.72 214.31,418.39 		"/>
		<rect x="210.59" y="408.95" class="st5" width="54.18" height="13.35"/>
	</g>
	<g id="freepik--Board--inject-244">
		<rect x="221.89" y="25.49" class="st2" width="143.02" height="159.56"/>
		<rect x="231.3" y="34.92" class="st0" width="124.17" height="140.81"/>
		<rect x="242.53" y="59.82" class="st1" width="43.77" height="51.86"/>
		<path class="st6" d="M265.99,63.34c0.01,0.87-0.7,1.58-1.57,1.59c-0.87,0.01-1.58-0.7-1.59-1.57s0.7-1.58,1.57-1.59
			c0.01,0,0.01,0,0.02,0C265.28,61.78,265.98,62.47,265.99,63.34z"/>
		<path class="st0" d="M250.85,70.2c4.43-0.34,8.85-0.36,13.28-0.42c4.43-0.06,8.85,0.07,13.27,0.42
			c-4.42,0.34-8.85,0.36-13.27,0.41C259.72,70.66,255.29,70.54,250.85,70.2z"/>
		<path class="st0" d="M250.85,74.26c4.8-0.54,9.64-0.54,14.43,0c-2.39,0.3-4.8,0.44-7.22,0.42
			C255.66,74.69,253.25,74.55,250.85,74.26z"/>
		<path class="st0" d="M250.85,78.4c3.08-0.33,6.16-0.39,9.22-0.42c3.07-0.02,6.15,0.09,9.22,0.42c-3.08,0.32-6.15,0.39-9.22,0.41
			S253.93,78.77,250.85,78.4z"/>
		<path class="st0" d="M250.85,82.5c3.85-0.32,7.7-0.39,11.55-0.41s7.69,0.09,11.54,0.41c-3.85,0.33-7.69,0.41-11.54,0.42
			C258.56,82.92,254.7,82.82,250.85,82.5z"/>
		<path class="st0" d="M250.85,86.6c3.38-0.33,6.69-0.39,10.02-0.42c3.34-0.02,6.69,0.09,10.02,0.42
			c-3.38,0.32-6.68,0.39-10.02,0.41C257.53,87.02,254.2,86.92,250.85,86.6z"/>
		<path class="st0" d="M250.85,90.69c4.28-0.34,8.56-0.36,12.83-0.41s8.56,0.07,12.83,0.41c-4.27,0.35-8.55,0.37-12.83,0.42
			C259.4,91.16,255.14,91.03,250.85,90.69z"/>
		<path class="st0" d="M250.85,94.8c5.51-0.56,11.06-0.56,16.58,0C261.92,95.34,256.37,95.34,250.85,94.8z"/>
		<path class="st0" d="M250.85,98.89c4.43-0.34,8.85-0.36,13.28-0.41c4.43-0.05,8.85,0.07,13.27,0.41
			c-4.42,0.35-8.85,0.36-13.27,0.42C259.72,99.36,255.29,99.23,250.85,98.89z"/>
		<path class="st0" d="M250.85,103c4.43-0.34,8.85-0.36,13.28-0.42c4.43-0.06,8.85,0.07,13.27,0.42c-4.42,0.34-8.85,0.36-13.27,0.41
			C259.72,103.45,255.29,103.33,250.85,103z"/>
		<rect x="292.96" y="92.15" class="st1" width="51.79" height="61.37"/>
		<path class="st6" d="M320.43,100.44c0,0.87-0.71,1.58-1.58,1.58c-0.87,0-1.58-0.71-1.58-1.58c0-0.87,0.71-1.58,1.58-1.58
			c0,0,0.01,0,0.01,0c0.87,0,1.57,0.7,1.57,1.57C320.43,100.43,320.43,100.43,320.43,100.44z"/>
		<path class="st0" d="M300.21,107.46c1.9-0.29,3.82-0.42,5.74-0.41c1.92-0.02,3.85,0.11,5.75,0.41
			C307.89,108.02,304.02,108.02,300.21,107.46z"/>
		<path class="st0" d="M300.21,112.08c4.94-0.54,9.93-0.54,14.87,0C310.14,112.64,305.15,112.64,300.21,112.08z"/>
		<path class="st0" d="M300.21,116.72c4.58-0.56,9.2-0.56,13.78,0C309.41,117.26,304.79,117.26,300.21,116.72z"/>
		<path class="st0" d="M300.21,121.34c4.58-0.54,9.2-0.54,13.78,0C309.41,121.9,304.79,121.9,300.21,121.34z"/>
		<path class="st0" d="M300.21,125.98c3.97-0.56,8-0.56,11.96,0C308.2,126.52,304.18,126.52,300.21,125.98z"/>
		<path class="st0" d="M300.21,130.64c5.09-0.56,10.23-0.56,15.32,0C310.44,131.19,305.3,131.19,300.21,130.64z"/>
		<path class="st0" d="M300.21,135.22c4.2-0.54,8.44-0.54,12.64,0C308.66,135.78,304.41,135.78,300.21,135.22z"/>
		<path class="st0" d="M300.21,139.86c2.62-0.29,5.26-0.43,7.89-0.42c2.64-0.02,5.27,0.12,7.89,0.42c-5.27,0.54-10.58,0.54-15.85,0
			H300.21z"/>
		<path class="st0" d="M300.21,144.48c5.27-0.56,10.58-0.56,15.85,0c-2.62,0.29-5.26,0.43-7.89,0.41
			C305.51,144.9,302.85,144.77,300.21,144.48z"/>
		<path class="st0" d="M322.84,107.46c2.5-0.29,5.01-0.42,7.52-0.41c2.52-0.02,5.03,0.11,7.53,0.41
			C332.89,108.02,327.84,108.02,322.84,107.46z"/>
		<path class="st0" d="M322.84,112.08c3.27-0.54,6.62-0.54,9.89,0C329.46,112.64,326.11,112.64,322.84,112.08z"/>
		<path class="st0" d="M322.84,116.72c4.7-0.56,9.46-0.56,14.16,0C332.3,117.26,327.55,117.26,322.84,116.72z"/>
		<path class="st0" d="M322.84,121.34c4.58-0.54,9.2-0.54,13.78,0C332.04,121.9,327.42,121.9,322.84,121.34z"/>
		<path class="st0" d="M322.84,125.98c5-0.56,10.05-0.56,15.05,0C332.89,126.52,327.84,126.52,322.84,125.98z"/>
		<path class="st0" d="M322.84,130.64c3.97-0.56,8-0.56,11.96,0C330.84,131.19,326.81,131.19,322.84,130.64z"/>
		<path class="st0" d="M322.84,135.22c4.71-0.54,9.46-0.54,14.16,0C332.3,135.78,327.55,135.78,322.84,135.22z"/>
		<path class="st0" d="M322.84,139.86c1.81-0.29,3.65-0.43,5.48-0.42c1.83-0.02,3.66,0.12,5.47,0.42
			C330.16,140.4,326.47,140.4,322.84,139.86z"/>
		<path class="st0" d="M322.84,144.48c3.48-0.56,7.03-0.56,10.51,0c-1.74,0.29-3.49,0.43-5.25,0.41
			C326.34,144.9,324.58,144.77,322.84,144.48z"/>
		<rect x="282.27" y="45.55" class="st4" width="26.33" height="26.33"/>
		<path class="st6" d="M297.01,48.23c0.01,0.87-0.7,1.58-1.57,1.59c-0.87,0.01-1.58-0.7-1.59-1.57s0.7-1.58,1.57-1.59
			c0.01,0,0.01,0,0.02,0C296.3,46.67,297,47.36,297.01,48.23z"/>
		<rect x="351.81" y="34.92" class="st7" width="3.55" height="140.95"/>
	</g>
	<g id="freepik--character-3--inject-244">
		<polygon class="st2" points="534.98,326.68 531.88,345.24 510.91,471.56 507.52,471.56 522.78,345.24 525.04,326.68 		"/>
		<polygon class="st8" points="525.04,326.68 534.98,326.68 531.88,345.24 522.78,345.24 		"/>
		<polygon class="st2" points="600.85,471.56 597.46,471.56 576.49,345.24 573.39,326.68 583.33,326.68 585.59,345.24 		"/>
		<polygon class="st8" points="583.33,326.68 585.59,345.24 576.49,345.24 573.39,326.68 		"/>
		<polygon class="st2" points="663.75,471.56 660.36,471.56 639.4,345.24 636.3,326.68 646.25,326.68 648.5,345.24 		"/>
		<polygon class="st8" points="648.5,345.24 639.4,345.24 636.3,326.68 646.25,326.68 		"/>
		<polygon class="st2" points="658.39,335.41 504.71,335.41 504.71,319.22 562.24,319.22 581.58,206.71 652.53,206.71 		"/>
		<polygon class="st8" points="658.39,335.41 650.01,335.41 644.55,206.71 652.53,206.71 		"/>
		<rect x="512.27" y="267.25" class="st2" width="10.51" height="51.96"/>
		<rect x="512.27" y="267.25" class="st8" width="10.51" height="8.82"/>
		<path class="st9" d="M497.35,489.99c2.98,0.28,84.11-19.17,86.66-21.76c0.32-0.29-1.29-7.67-3.64-17.73v-0.19
			c-1.48-6.38-25.17-57.93-25.17-57.93l-52.58,14.72l23.95,47.83c0,0-9.93,7.15-18.44,14.01l0,0c-5.23,4.17-9.75,7.89-10.71,9.13
			C494.94,481.2,494.38,489.73,497.35,489.99z"/>
		<path class="st1" d="M497.35,489.99c2.98,0.28,84.1-19.17,86.66-21.76c0.32-0.29-1.3-7.67-3.64-17.73v-0.19
			c-0.54-2.37-4.19-11.04-8.54-20.96c-8.66,2.33-39.67,10.75-50.95,14.24l5.64,11.34c0,0-9.9,7.16-18.39,14.01l0,0
			c-5.23,4.17-9.75,7.89-10.71,9.13C494.94,481.21,494.37,489.74,497.35,489.99z"/>
		<path class="st4" d="M497.08,490.36c3.07,0.27,84.25-19.37,86.83-22.08c1-1.01-0.81-13.82-5.27-27.4l-52.32,12.72
			c0,0-26.71,21.19-29.32,24.47C494.4,481.35,494.02,490.11,497.08,490.36z"/>
		<path class="st3" d="M497.47,486.84c13.53-3.62,68.42-16.97,82.08-19.52c0.11,0,0.12,0,0,0.08
			c-13.34,3.89-68.35,16.79-82.06,19.67C497.23,487.13,497.17,486.98,497.47,486.84z"/>
		<path class="st3" d="M501.62,473.89c3.04-0.82,6.28-0.33,8.94,1.35c2.38,1.48,4.09,3.82,4.79,6.53c0,0.08-0.12,0.12-0.16,0
			c-2.29-5.3-7.8-8.46-13.53-7.75c-0.05-0.02-0.07-0.07-0.06-0.11C501.61,473.91,501.61,473.9,501.62,473.89z"/>
		<path class="st3" d="M522.42,456.01c5.44-1.4,12.21-1,16.68,2.64c0.17,0.14,0,0.38-0.21,0.34c-5.37-1.34-10.87-2.09-16.4-2.26
			c-0.2,0.02-0.38-0.13-0.39-0.33C522.07,456.21,522.22,456.03,522.42,456.01z"/>
		<path class="st3" d="M518.61,458.66c5.44-1.39,12.21-0.99,16.68,2.64c0.17,0.15,0,0.38-0.21,0.34
			c-5.37-1.33-10.86-2.09-16.38-2.26c-0.2,0.02-0.38-0.12-0.4-0.32C518.27,458.86,518.41,458.68,518.61,458.66z"/>
		<path class="st3" d="M514.81,461.32c5.42-1.4,12.2-1,16.67,2.64c0.17,0.14,0,0.38-0.21,0.34c-5.37-1.33-10.86-2.09-16.38-2.26
			c-0.2,0.02-0.38-0.13-0.39-0.33C514.46,461.52,514.61,461.34,514.81,461.32z"/>
		<path class="st3" d="M511,463.97c5.42-1.39,12.21-0.99,16.67,2.64c0.18,0.15,0,0.39-0.2,0.35c-5.37-1.34-10.87-2.09-16.4-2.26
			c-0.2,0.02-0.38-0.13-0.4-0.33C510.65,464.17,510.8,463.99,511,463.97z"/>
		<path class="st3" d="M572.95,455.23c6.12-1.47,8.4,8.04,2.26,9.51C569.06,466.2,566.83,456.69,572.95,455.23z"/>
		<path class="st3" d="M515.38,450.78c3.86,3.08,8.92,4.39,13.44,6.12c0.36,0.11,0.73-0.1,0.84-0.46c0.02-0.07,0.03-0.15,0.03-0.22
			c0.07,0.01,0.14-0.05,0.15-0.12c0-0.02,0-0.05-0.01-0.07c-1.6-4.9-4.47-9.29-8.31-12.73c-2.26-1.96-6.29-3.38-8.5-0.41
			C510.81,445.87,513.14,448.97,515.38,450.78z M514.04,446.38c-0.89-6.06,5.56-2.8,7.17-1.29c1.04,1,2,2.06,2.89,3.19
			c1.87,2.31,3.38,4.85,5.02,7.33c-2.18-0.99-4.41-1.79-6.62-2.71C519.87,451.77,514.54,449.66,514.04,446.38z"/>
		<path class="st3" d="M548.33,447.88c-1.29-3.45-5.53-3.24-8.27-2c-4.65,2.23-8.64,5.64-11.56,9.89c-0.07,0.1,0,0.18,0.08,0.23
			c-0.12,0.35,0.07,0.74,0.43,0.86c0.07,0.02,0.14,0.03,0.22,0.03c4.84-0.41,10.06-0.24,14.66-2.11
			C546.47,453.69,549.55,451.15,548.33,447.88z M536.44,454.78c-2.37,0.26-4.75,0.39-7.1,0.73c2.2-2,4.49-3.88,6.88-5.64
			c1.16-0.84,2.38-1.59,3.65-2.26c1.98-0.99,9.08-2.31,6.53,3.25C544.98,453.95,539.27,454.48,536.44,454.78L536.44,454.78z"/>
		<path class="st3" d="M520.54,450.55l56.38-16.91c0,0-46.44-96.76-44.97-101.69c0.97-3.28,70.59-3.51,91-21.83
			c21.12-18.97,4.67-56.21,4.67-56.21l-58.52-0.3c0,0,1,12.21-1.23,14.12c-1.48,1.26-81.51,8.31-96.83,37.73
			C457.11,332.17,520.54,450.55,520.54,450.55z"/>
		<path class="st3" d="M531.93,331.96c-0.25,0.83,0.88,4.31,2.94,9.51l-42.07,51.69c-15-34.2-29.1-73.65-21.79-87.7
			c15.34-29.42,95.35-36.47,96.84-37.73c2.26-1.89,1.22-14.12,1.22-14.12l37.21,0.19l-61.75,75.84
			C537.05,330.46,532.19,331.1,531.93,331.96z"/>
		<path class="st6" d="M519.17,438.63c1.49-0.67,3.02-1.25,4.59-1.71c1.62-0.55,3.25-1.13,4.88-1.64c3.21-1.03,6.44-2.02,9.7-2.94
			c6.54-1.85,13.09-3.65,19.68-5.33c3.38-0.87,10.8-2.77,11.28-2.71c0.14,0.04,0.22,0.18,0.19,0.32c-0.02,0.07-0.06,0.12-0.12,0.16
			c-6.36,2.26-12.83,4.23-19.29,6.2s-12.92,3.91-19.46,5.56c-1.82,0.46-3.64,0.87-5.46,1.3c-1.89,0.56-3.83,0.97-5.78,1.24
			C519.15,439.1,518.97,438.74,519.17,438.63z"/>
		<path class="st6" d="M624.47,265.07c-0.18-1.96-0.41-3.91-0.62-5.86c0-0.23-0.38-0.21-0.36,0c0.78,7.89,1.58,16.02,0.12,23.91
			c-1.33,7.28-5,13.93-10.45,18.94c-11.61,10.84-27.85,14.02-42.99,16.6c-8.66,1.5-17.37,2.66-26.13,3.46
			c-4.28,0.42-8.58,0.76-12.88,1.03c-4.25,0.27-8.52,0.32-12.78,0.55c-1.35,0.07-2.55,0.69-2.33,2.26c0.21,0.94,0.55,1.84,1.01,2.68
			l1.38,3.11c1.7,3.87,3.42,7.73,5.15,11.58c3.56,7.95,7.18,15.87,10.85,23.77c7.27,15.7,14.81,31.26,22.63,46.68
			c0.97,1.92,1.94,3.83,2.92,5.75c0,0.12,0.24,0,0.18-0.11c-7.46-15.63-14.84-31.3-22.12-47.01c-3.61-7.82-7.19-15.63-10.76-23.44
			c-1.78-3.92-3.56-7.83-5.32-11.74l-2.68-5.86l-1.32-2.94c-0.36-0.81-1.68-2.76-0.77-3.53c0.61-0.51,1.87-0.34,2.6-0.35l3.38-0.11
			c2.15-0.08,4.31-0.16,6.45-0.27c4.36-0.21,8.71-0.52,13.06-0.89c8.5-0.75,16.97-1.81,25.42-3.18
			c15.03-2.41,31.38-5.14,43.42-15.23c5.41-4.39,9.44-10.24,11.6-16.86C625.41,280.62,625.17,272.73,624.47,265.07z"/>
		<path class="st9" d="M373.57,415.81c2.12,2.12,76.98,38.9,80.64,38.51c0.42,0,3.89-6.77,8.49-15.98l0.09-0.18
			c2.93-5.84,29.57-55.04,29.57-55.04l-46.58-23.57l-27.37,47.87c0,0-12.19-0.79-23.05-0.97l0,0c-6.7-0.12-12.56-0.11-14.07,0.2
			C377.33,407.52,371.44,413.68,373.57,415.81z"/>
		<path class="st1" d="M373.57,415.81c2.12,2.12,76.98,38.91,80.64,38.51c0.43,0,3.89-6.77,8.49-15.97l0.09-0.18l0.63-1.24
			c0.15-0.29,0.3-0.6,0.47-0.88c0.17-0.28,0.45-0.88,0.69-1.32c2.03-3.86,5.37-10.07,9.02-16.91l-47.5-23.93l-7.71,13.53
			c0,0-12.19-0.79-23.05-0.97l0,0c-6.7-0.12-12.56-0.12-14.07,0.2C377.33,407.52,371.44,413.68,373.57,415.81z"/>
		<path class="st4" d="M373.12,415.93c2.19,2.15,77.24,38.8,81,38.4c1.42-0.15,8.2-11.17,13.42-24.47l-48.42-23.57
			c0,0-34.09-0.72-38.15,0.17C376.91,407.35,370.92,413.78,373.12,415.93z"/>
		<path class="st3" d="M375.66,413.47c12.73,5.84,63.54,30.57,75.69,37.31c0.09,0,0.06,0.11,0,0.08
			c-12.74-5.51-63.35-30.66-75.74-37.21C375.3,413.53,375.39,413.34,375.66,413.47z"/>
		<path class="st3" d="M387.12,406.14c2.87,1.31,5.06,3.77,6.03,6.77c0.89,2.66,0.72,5.56-0.47,8.1c0,0.07-0.18,0-0.15-0.08
			c1.62-5.55-0.62-11.5-5.49-14.6c-0.05-0.02-0.07-0.08-0.05-0.13S387.07,406.11,387.12,406.14z"/>
		<path class="st3" d="M414.54,405.64c5.07,2.38,10.05,7.01,11.16,12.66c0,0.21-0.27,0.27-0.38,0.12
			c-3.27-4.46-7.02-8.55-11.16-12.21c-0.14-0.13-0.15-0.35-0.02-0.49C414.24,405.61,414.4,405.57,414.54,405.64z"/>
		<path class="st3" d="M409.93,405.26c5.07,2.38,10.04,7.01,11.16,12.66c0,0.21-0.27,0.27-0.38,0.12
			c-3.27-4.48-7.02-8.59-11.17-12.26c-0.11-0.16-0.07-0.38,0.09-0.49C409.71,405.24,409.83,405.22,409.93,405.26z"/>
		<path class="st3" d="M405.3,404.87c5.06,2.39,10.04,7.01,11.15,12.66c0,0.21-0.27,0.27-0.38,0.12
			c-3.27-4.46-7.02-8.55-11.16-12.21c-0.15-0.12-0.18-0.34-0.06-0.49C404.96,404.82,405.15,404.78,405.3,404.87z"/>
		<path class="st3" d="M400.67,404.49c5.07,2.39,10.05,7.01,11.16,12.66c0,0.21-0.27,0.27-0.38,0.12
			c-3.27-4.46-7.02-8.55-11.16-12.21c-0.14-0.13-0.15-0.35-0.02-0.49C400.37,404.46,400.53,404.42,400.67,404.49z"/>
		<path class="st3" d="M454.01,437.26c5.64,2.77,1.34,11.55-4.32,8.77S448.37,434.47,454.01,437.26z"/>
		<path class="st3" d="M412.48,397.11c1,4.84,4.06,9.02,6.44,13.29c0.21,0.31,0.63,0.4,0.94,0.19c0.08-0.05,0.14-0.11,0.19-0.19
			c0.06,0.05,0.16,0.04,0.21-0.03c0.01-0.01,0.02-0.02,0.02-0.04c1.89-4.8,2.48-10.01,1.71-15.11c-0.5-2.97-2.71-6.6-6.28-5.73
			C412.29,390.36,411.89,394.3,412.48,397.11z M414.28,392.83c3.17-5.23,6.06,1.39,6.34,3.59c0.16,1.43,0.22,2.86,0.18,4.3
			c-0.11,2.96-0.38,5.92-0.8,8.85c-1.04-2.15-2.26-4.19-3.38-6.3C415.3,400.75,412.52,395.72,414.28,392.83L414.28,392.83z"/>
		<path class="st3" d="M439.7,415.93c1.21-3.48-2.2-6.02-5.1-6.77c-5-1.25-10.24-1.16-15.2,0.25c-0.07,0.01-0.13,0.08-0.12,0.15
			c0,0.02,0.01,0.04,0.03,0.06c-0.32,0.2-0.43,0.62-0.23,0.95c0.04,0.07,0.1,0.13,0.16,0.18c3.98,2.77,7.89,6.22,12.61,7.7
			C434.6,419.22,438.55,419.19,439.7,415.93z M426.17,413.68c-2-1.31-3.9-2.72-5.94-3.96c2.96-0.15,5.93-0.15,8.89,0
			c1.43,0.1,2.85,0.3,4.25,0.6c2.17,0.5,8.48,4.01,2.95,6.66c-3.07,1.45-7.8-1.79-10.18-3.3H426.17z"/>
		<path class="st3" d="M418.63,399.66l56.17,28.07c0,0,43.84-89.08,48.66-94.87c6.42-7.66,89.93,3.15,109.62-21.57
			c20.38-25.57,2.92-57.33,2.92-57.33h-63.58c0,0-0.18,7.05,3.48,17.37c0,0-72.7-4.33-93.27,15.66
			C466.85,302.29,418.63,399.66,418.63,399.66z"/>
		<path class="st6" d="M587.48,277.7c-3.27-2.24-6.65-4.31-10.15-6.18c-2.45-1.28-5.01-2.32-7.66-3.1
			c-1.85-0.44-2.66-0.58-0.92,0.24c0.99,0.47,2.9,1.39,4.68,2.26h-0.99c-1.24-0.07-2.49-0.1-3.74-0.14c-2.45-0.07-4.89,0-7.34-0.07
			c-4.96,0-9.87,0.44-14.82,0.69c-0.14,0-0.12,0.21,0,0.2c4.94-0.16,9.9,0.1,14.84,0.09c2.45,0,4.89,0.06,7.34,0.1l3.59,0.07
			c1.01,0.05,2.02,0.05,3.03,0l1.36,0.64c3.6,1.69,7.18,3.46,10.64,5.41C587.48,277.9,587.59,277.77,587.48,277.7z"/>
		<path class="st6" d="M570.92,251.54c0.65,3,1.21,6.02,1.95,9.02c0.35,1.36,0.69,2.75,1.13,4.08c0.39,1.13,1.01,2.41,2.26,2.7
			c1.48,0.34,1.94-0.91,1.86-2.13c-0.08-1.22-0.39-2.74-0.62-4.09c-0.26-1.56-0.52-3.11-0.74-4.67c-0.11-0.78-0.24-1.56-0.34-2.35
			c0-0.19-0.12-1.68-0.21-2.11c0,0.04-0.04,0.06-0.07,0.06c-0.01,0-0.01,0-0.02,0l0,0c-0.05,0-0.08-0.03-0.09-0.08
			c0-0.11,0-0.14,0.08-0.21c0.04-0.03,0.09-0.03,0.14,0c0.28,0.17,0.29,0.55,0.37,0.85c0.21,0.76,0.43,1.52,0.63,2.26
			c0.36,1.43,0.71,2.86,1.03,4.31c0.32,1.44,0.62,2.9,0.92,4.34c0.33,1.07,0.39,2.21,0.17,3.32c-0.31,1.08-1.28,1.82-2.4,1.83
			c0.06,0.09,0.11,0.19,0.15,0.29c0.12,0.3,0.22,0.6,0.3,0.91c0.11,0.31,0.21,0.63,0.28,0.95c0.03,0.15,0.06,0.31,0.07,0.46
			c0,0.17,0,0.34,0,0.51c0.01,0.14-0.09,0.26-0.22,0.27c-0.1,0.01-0.19-0.04-0.24-0.12c-0.08-0.15-0.19-0.27-0.27-0.42
			c-0.08-0.16-0.14-0.33-0.19-0.51c-0.09-0.3-0.17-0.6-0.24-0.91c-0.07-0.32-0.15-0.61-0.19-0.91c-0.05-0.3,0-0.36,0-0.55
			c-0.62-0.07-1.21-0.32-1.69-0.71c-0.82-0.74-1.41-1.71-1.69-2.77c-0.41-1.25-0.71-2.55-1.01-3.82c-0.81-3.17-1.34-6.4-1.58-9.65
			C570.37,251.3,570.85,251.19,570.92,251.54z"/>
		<path class="st6" d="M601.57,260.09c0.23,1.48,0.35,2.98,0.63,4.45c0.28,1.48,0.63,2.89,1.06,4.3c0.38,1.37,0.94,2.68,1.68,3.89
			c0.78,1.14,1.72,2.17,2.79,3.04c2.05,1.74,4.36,3.13,6.86,4.12c1.25,0.51,2.54,0.93,3.85,1.27c0.68,0.18,1.37,0.32,2.06,0.43
			c0.58,0.04,1.14,0.19,1.66,0.44c0.15,0.12,0.18,0.34,0.06,0.49c-0.03,0.04-0.07,0.07-0.12,0.1c-1.01,0.27-2.08,0.27-3.09,0
			c-1.11-0.14-2.21-0.37-3.28-0.69c-2.17-0.65-4.24-1.61-6.15-2.84c-1.93-1.18-3.65-2.68-5.07-4.44c-1.33-1.84-2.21-3.96-2.58-6.2
			c-0.6-2.73-0.81-5.54-0.63-8.33c0.01-0.08,0.09-0.13,0.17-0.12C601.51,260,601.55,260.04,601.57,260.09z"/>
		<path class="st6" d="M430.03,389.45c1.55,0.53,3.06,1.17,4.51,1.92c1.57,0.71,3.13,1.42,4.68,2.17c3.04,1.45,6.07,2.94,9.02,4.51
			c6.02,3.15,12.03,6.33,17.97,9.63c3.1,1.73,9.75,5.39,10.04,5.76c0.15,0.17-0.08,0.47-0.27,0.38c-6.19-2.71-12.23-5.73-18.29-8.74
			c-6.06-3.01-12.08-6.02-17.96-9.31c-1.64-0.91-3.24-1.87-4.86-2.8c-1.76-0.9-3.45-1.93-5.06-3.08
			C429.71,389.77,429.82,389.38,430.03,389.45z"/>
		<path class="st6" d="M635.95,268.75c-0.03-0.12-0.14-0.19-0.26-0.16c-0.08,0.02-0.14,0.08-0.16,0.16
			c0.11,13.8-2.02,29.24-12.64,39.14c-11.65,10.86-28.45,12.16-43.58,12.03c-8.68-0.08-17.34-0.29-26.03,0
			c-8.68,0.29-17.52,0.71-26.18,1.82c-3.38,0.31-6.53,1.82-8.9,4.25c-2.28,2.59-4.26,5.43-5.9,8.47
			c-4.37,7.24-8.6,14.55-12.69,21.94c-8.13,14.69-15.65,29.7-22.55,45.03c-0.86,1.89-1.71,3.8-2.55,5.71
			c-0.06,0.12,0.12,0.24,0.19,0.11c7.02-15.37,14.59-30.47,22.7-45.31c4.04-7.42,8.21-14.77,12.52-22.05
			c2.03-3.38,3.99-6.91,6.25-10.15c2-2.89,4.51-5.64,7.96-6.65c2.12-0.53,4.28-0.84,6.46-0.94c2.26-0.2,4.48-0.39,6.66-0.55
			c4.32-0.32,8.66-0.55,12.99-0.71c8.75-0.32,17.49-0.21,26.25,0c15.19,0.27,31.8-0.26,44.39-9.92c5.39-4.22,9.45-9.9,11.72-16.36
			c2.23-6.62,3.37-13.56,3.38-20.55C636,272.22,636,270.47,635.95,268.75z"/>
		<path class="st6" d="M544.97,329.2c-3.1,0.06-6.2,0.19-9.29,0.29c-2.58-0.05-5.17,0.18-7.7,0.69c-2.35,0.58-4.21,0.87-6.12,3.48
			c-2.4,3.28-15.45,28.5-20.93,39.65c-1.5,3.1-3.01,6.21-4.51,9.33c-1.51,3.21-2.86,6.52-4.38,9.73c0,0.12,0.11,0.23,0.18,0.1
			c1.34-2.7,2.83-5.31,4.22-7.98c1.39-2.67,2.74-5.38,4.08-8.07c2.72-5.44,5.45-10.87,8.18-16.32c2.71-5.38,6-10.63,8.75-16
			c2.32-4.51,5.47-10.67,7.68-11.58c3.08-1.21,6.31-1.99,9.6-2.32c3.38-0.25,6.83-0.45,10.25-0.74c0.07,0,0.12-0.06,0.12-0.12
			C545.1,329.25,545.04,329.2,544.97,329.2z"/>
		<path class="st9" d="M573.66,186.72c-19.58,19.53-44.33,60.73-39.84,69.17c5,9.39,32.25-17.99,32.16-19.6
			c-0.07-1.22,9.65-26.3,17-44.53S578.51,181.9,573.66,186.72z"/>
		<path class="st4" d="M566.16,236.33c0.86-2.68,14.06-35.75,17.84-46.23s0.38-13.72-10.26-4.21
			c-10.64,9.52-34.05,41.43-39.47,58.42c-5.22,16.36,3.23,16.43,14.42,8.95C557.86,247.16,566.16,236.33,566.16,236.33z"/>
		<path class="st10" d="M584.01,190.12c-3.79,10.46-17,43.53-17.84,46.23c0,0-8.31,10.85-17.48,16.91
			c-3.99,2.66-7.65,4.36-10.44,4.72l44.45-77.73C585.94,179.88,586.36,183.64,584.01,190.12z"/>
		<path class="st4" d="M559.78,269.53c1.92,1.8,83.3,9.73,83.68,9.18s-17.3-76.78-38.18-96.14c-6.18-5.74-17.72-6.28-22.72-2.26
			C567.77,192.2,558.57,268.4,559.78,269.53z"/>
		<path class="st9" d="M583.84,192.18c5.64,2.26,13.86-3.94,17.39-9.33c0.24-0.37,0-4.51-0.15-9.51c0-3.04,0-6.44,0.21-9.54
			l-19.78,3.21c0.81,3.96,1.13,8,0.96,12.03c-0.04,0.42-0.12,0.84-0.24,1.25c0,0.06,0,0.14,0,0.21
			C581.62,182.9,579.64,190.51,583.84,192.18z"/>
		<path class="st3" d="M581.53,167.02c0.8,3.96,1.12,8,0.95,12.03c-0.03,0.42-0.11,0.84-0.23,1.25c-0.01,0.07-0.01,0.14,0,0.2
			c0.65,0.16,1.32,0.25,1.98,0.27c11.85,0.38,15.4-13.01,16.18-16.81L581.53,167.02z"/>
		<path class="st9" d="M606.24,143.27c0.82,7.17-6.37,26.12-12.01,29.6c-8.16,5.05-19.74,3.55-23.58-5.85
			c-3.72-9.12,6.1-33.66,12.22-36.64C591.87,126,605,132.69,606.24,143.27z"/>
		<path class="st3" d="M584.29,151.79c0,0,0.08,0.1,0.06,0.16c-0.51,1.25-0.88,2.79,0.11,3.63l0,0
			C583.1,154.92,583.61,152.9,584.29,151.79z"/>
		<path class="st3" d="M585.94,150.94c2.11,0.6,0.76,4.76-1.2,4.21C582.79,154.6,584.16,150.38,585.94,150.94z"/>
		<path class="st3" d="M576.72,149.33c0,0-0.11,0-0.14,0.08c-0.37,1.3-1.03,2.73-2.33,2.79v0.07
			C575.72,152.53,576.57,150.63,576.72,149.33z"/>
		<path class="st3" d="M576.01,147.56c-2.03-0.82-3.53,3.28-1.66,4.05C576.22,152.37,577.7,148.3,576.01,147.56z"/>
		<path class="st3" d="M587.32,150.39c-0.52-0.33-0.95-0.72-1.43-1.13s-1.01-0.71-1.24-1.39c-0.09-0.41,0.11-0.83,0.48-1.03
			c0.78-0.26,1.65-0.08,2.26,0.48c0.7,0.47,1.19,1.17,1.4,1.98c0.12,0.54-0.22,1.06-0.76,1.18
			C587.78,150.55,587.53,150.51,587.32,150.39z"/>
		<path class="st3" d="M575.07,144.99c0.6,0.07,1.19,0.1,1.79,0.1c0.63,0.13,1.28,0.04,1.86-0.24c0.34-0.26,0.47-0.73,0.29-1.13
			c-0.42-0.73-1.2-1.16-2.04-1.13c-0.83-0.11-1.67,0.1-2.36,0.59c-0.45,0.31-0.57,0.93-0.26,1.38
			C574.52,144.8,574.78,144.96,575.07,144.99z"/>
		<path class="st3" d="M581.97,163.63c-0.36,0.28-0.73,0.68-1.23,0.67c-0.5-0.07-0.98-0.25-1.41-0.52c0,0-0.09,0-0.07,0.07
			c0.33,0.58,0.95,0.94,1.62,0.94c0.6-0.09,1.08-0.54,1.21-1.13C582.12,163.64,582.02,163.59,581.97,163.63z"/>
		<path class="st3" d="M581.54,159.4c-1,0.81-2.29,1.18-3.56,1c-0.55-0.07-1.09-0.22-1.6-0.44c-0.1,0-0.46-0.21-0.56-0.27
			c-0.13-0.08-0.19-0.23-0.16-0.37l0,0l0.98-2.73c-0.43,0.07-2.55,0.3-2.35-0.21c1.57-4.44,3.57-8.71,6-12.74
			c0.08-0.12,0.29,0,0.23,0.11c-1.42,4.12-3.55,7.89-5.05,12.05c0.75-0.11,1.51-0.11,2.26,0c0.07,0-1.29,3.32-1.29,3.38
			c1.59,0.7,3.4,0.72,5.01,0.06C581.58,159.2,581.65,159.32,581.54,159.4z"/>
		<path class="st3" d="M577.17,159.58c0.32,0.88,0.86,1.65,1.57,2.26c0.4,0.32,0.88,0.5,1.39,0.53c1.13,0.06,1.42-0.88,1.49-1.74
			c0.03-0.46,0.01-0.92-0.07-1.38C580.15,159.82,578.62,159.94,577.17,159.58z"/>
		<path class="st11" d="M578.73,161.84c0.4,0.32,0.88,0.5,1.39,0.53c1.13,0.06,1.42-0.88,1.49-1.74
			C580.49,160.32,579.3,160.82,578.73,161.84z"/>
		<path class="st3" d="M601.52,158.67c-3.45-0.86-1.52-9.34-1.52-9.34s-5.15-1.94-6.39-9.73c0,0-7.66,3.02-13.2,0.91
			c-8.71-3.32-6.28-14.97-2.47-16.73c5.4-2.49,13,4.01,13,4.01s13.53-1.18,15.79,8.23c3.4,0.91,5.54,4.28,4.91,7.75
			C610.82,150.19,604.09,159.3,601.52,158.67z"/>
		<path class="st3" d="M601.06,150.57c-2.5-0.93-4.63-2.66-6.04-4.93c-1.52-2.5-1.74-5.58-0.59-8.27c0.08-0.14-0.16-0.24-0.21-0.09
			c-1.36,2.77-1.42,5.99-0.16,8.81c1.3,2.71,3.94,4.51,6.93,4.74C601.14,150.83,601.21,150.63,601.06,150.57z"/>
		<path class="st3" d="M612.75,140.14c-1.35-2.58-3.99-3.38-6.69-3.85c-0.16,0-0.19,0.24,0,0.24c2.73,0.41,5.03,2.27,5.99,4.86
			c0.95,2.37,0.15,4.97-0.82,7.21c-1.87,4.32-5.27,7.79-9.55,9.75c-0.07,0,0,0.14,0,0.1c4.86-1.93,8.72-5.77,10.66-10.63
			C613.26,145.45,614.01,142.52,612.75,140.14z"/>
		<path class="st3" d="M591.21,128.29c-0.79-2.04-2.3-3.72-4.24-4.71c-2.37-1.15-5.08-1.37-7.61-0.63
			c-2.06,0.67-3.61,2.39-4.06,4.51c-0.45,2.42-0.05,4.93,1.13,7.09 M576.52,134.55c-0.89-2-1.14-4.23-0.72-6.38
			c0.46-2.08,2.06-3.72,4.13-4.24c3.99-0.96,9.35,0.33,11.07,4.51c0.05,0.09,0.27-0.05,0.2-0.15L576.52,134.55z"/>
		<path class="st9" d="M598.11,158.72c0,0,5.72-5.41,8.27-3.25c2.55,2.17-2.66,10.64-6.28,11.21c-1.88,0.42-3.75-0.76-4.18-2.64
			c-0.01-0.05-0.02-0.09-0.03-0.14L598.11,158.72z"/>
		<path class="st3" d="M604.82,157.87c0,0,0,0.09,0,0.1c-2.56,0.47-4.25,2.4-5.64,4.51c0.72-0.79,1.95-0.85,2.74-0.13
			c0.07,0.06,0.13,0.13,0.19,0.2c0.06,0,0,0.15-0.09,0.11c-0.79-0.45-1.79-0.34-2.47,0.26c-0.55,0.49-1.05,1.05-1.49,1.65
			c-0.16,0.19-0.52,0-0.38-0.23v-0.06C598.34,161.24,601.52,157.52,604.82,157.87z"/>
		<path class="st9" d="M533.82,255.89c4.32,6.28,16.2,7.58,45.84,13.62c4.1,0.83,17.79-26.51,13.46-27.63
			c-5.46-1.41-26.95-5.64-28.55-5.81C550.98,235.1,530.89,251.63,533.82,255.89z"/>
		<path class="st9" d="M587.19,240.49c0,0,12.56,2,18.83,5.09c6.44,3.39,11.96,8.28,16.09,14.26c4.51,6.45,10.85,25.13,5.8,27.91
			c-4.59,2.51-10.15-16.91-10.15-16.91s8.93,18.87,2.86,20.88s-11.28-20.91-11.28-20.91s8.74,19.6,2.15,20.68
			c-4.98,0.81-10.83-19.68-10.83-19.68s7.4,16.91,2.26,17.95c-5.64,1.13-12.2-17.4-12.2-17.4c-13.37,0.52-19.96-4.7-24.21-9.02
			C565.64,262.35,587.19,240.49,587.19,240.49z"/>
		<path class="st3" d="M615.1,264.1c1.13,2.19,2.26,4.39,3.22,6.65c0.97,2.27,1.78,4.58,2.49,6.92c1,3.05,1.65,6.21,1.92,9.4
			c-0.9-5.64-4.12-13.82-5.04-16.09c-0.92-2.27-1.75-4.58-2.67-6.86C614.99,264.08,615.08,264.05,615.1,264.1z"/>
		<path class="st3" d="M606.83,267.32c1.33,2.84,2.74,5.64,3.94,8.51c1.2,2.88,2.07,5.74,3.06,8.71c0.08,0.23-0.07,0.19-0.16,0
			c-1.13-2.92-2.35-5.54-3.5-8.45c-1.15-2.91-2.16-5.86-3.38-8.72C606.76,267.3,606.82,267.28,606.83,267.32z"/>
		<path class="st3" d="M599.25,268.8c2.14,4.33,3.82,8.86,5.02,13.53c0.07,0.23-0.11,0.16-0.19-0.07c-1.59-4.51-2.8-8.07-4.97-13.35
			C599.07,268.8,599.2,268.71,599.25,268.8z"/>
		<path class="st4" d="M589.82,240.51l-26.24,28.74c0,0-26.24-6.25-30.06-13.02c-2.51-4.45,17.44-22.21,32.37-19.99L589.82,240.51z"
			/>
		<path class="st3" d="M548.01,240.83c5.19-3.68,11.56-5.31,17.88-4.59c0.08,0,0.08,0.14,0,0.12c-6.53-0.24-15.36,3.11-17.83,4.57
			C547.99,240.97,547.94,240.87,548.01,240.83z"/>
		<path class="st3" d="M556.51,264.35c2.72-3.32,5.64-6.48,8.5-9.64c2.86-3.16,5.8-6.33,8.77-9.42c1.69-1.75,3.38-3.51,5.11-5.19
			c0,0,0.12,0,0.09,0.07c-2.72,3.32-5.64,6.5-8.47,9.66c-2.83,3.17-5.8,6.34-8.74,9.46c-1.66,1.77-3.38,3.5-5.1,5.19
			C556.62,264.57,556.43,264.45,556.51,264.35z"/>
		<path class="st3" d="M589.82,240.51c-5.82-0.72-14.17-2.26-20.04-3.2c-3.3-0.58-6.6-1.24-9.95-0.69
			c-3.33,0.53-6.57,1.49-9.65,2.85c2.98-1.67,6.2-2.85,9.55-3.5c3.38-0.71,6.84,0,10.15,0.5c6.68,1.18,13.29,2.53,19.9,4.04H589.82z
			"/>
		<path class="st6" d="M555.04,220.58c0,0-2.91,6.44,1.65,8.06c4.56,1.62,6.37-5.2,6.37-5.2L555.04,220.58z"/>
		<path class="st6" d="M579.65,176.95L579.65,176.95l-0.97-6.84l-0.29-2.26l-1.69,1.54l-5.07,4.7l0,0l-16.68,46.76l8.03,2.86
			l16.67-46.76L579.65,176.95z"/>
		<polygon class="st5" points="578.69,170.1 578.37,167.83 576.69,169.39 		"/>
		
			<rect x="558.25" y="216.59" transform="matrix(0.3358 -0.9419 0.9419 0.3358 162.7594 673.9374)" class="st5" width="1.97" height="9.95"/>
		
			<rect x="558.9" y="214.61" transform="matrix(0.3359 -0.9419 0.9419 0.3359 164.974 673.1588)" class="st5" width="1.97" height="9.95"/>
		<polygon class="st5" points="555.58,216.94 558.59,218.02 562.97,200.51 561.83,200.17 		"/>
		<path class="st9" d="M613.45,192.08c18.72,23.76,35.59,57.87,32.01,70.14c-1.32,4.51-9.49,11.89-21.66,7.75
			c-13.7-4.67-30.74-16-46.59-28.02c-3.38-2.56,24.55-23.39,28.19-20.73c1.69,1.25,6.31,5.64,7.01,5.3
			c1.06-0.5-4.43-12.17-9.02-30.45C598.55,176.88,605.31,181.75,613.45,192.08z"/>
		<path class="st9" d="M565.88,189.6c-2.59,3.11,5.64,8.84,5.64,8.84c-1.73-0.19-3.48,0.24-4.93,1.21c-2.48,1.83-0.7,6.51-0.7,6.51
			c-1.84,0.18-3.58,0.91-5,2.1c-2.2,1.98-1.13,6.97-1.13,6.97c-1.6,1.1-2.75,2.73-3.24,4.61c-1.13,5.06,4.58,10.59,8.14,14.14
			c3.56,3.55,17.02,10.26,19.44,11.81l22.99-22.67c0,0-11.47-20.46-16.26-24.03C586.81,196.05,569.84,184.85,565.88,189.6z"/>
		<path class="st3" d="M571.63,198.4c5.06,2.18,9.58,5.55,13.91,8.86c0.1,0.07,0,0.23-0.11,0.15c-4.27-3.38-9.54-5.64-13.93-8.78
			c-0.05-0.05-0.05-0.14,0.01-0.19C571.54,198.41,571.59,198.4,571.63,198.4z"/>
		<path class="st3" d="M566.24,205.93c1.1,0.62,2.12,1.38,3.02,2.26c1.01,0.86,2.01,1.74,3,2.63c1.97,1.78,3.91,3.62,5.78,5.5
			c0.09,0.08,0,0.23-0.11,0.15c-1.97-1.77-3.97-3.52-6.01-5.21c-1.03-0.85-2.05-1.69-3.09-2.51c-1.03-0.72-1.97-1.55-2.82-2.48
			c-0.09-0.06-0.11-0.19-0.05-0.28C566.03,205.89,566.15,205.86,566.24,205.93z"/>
		<path class="st3" d="M559.87,215.28c0.99,0.56,1.87,1.28,2.62,2.14l2.66,2.48c1.79,1.65,3.57,3.29,5.41,4.87
			c0.09,0.08,0,0.23-0.11,0.15c-1.88-1.59-3.78-3.17-5.64-4.78l-2.73-2.39c-0.89-0.65-1.65-1.46-2.26-2.38
			C559.81,215.34,559.83,215.3,559.87,215.28C559.86,215.29,559.87,215.29,559.87,215.28z"/>
		<path class="st4" d="M611.65,225.17c0,0-5.02-15.1-8.46-27.36c-3.44-12.26-4.51-23.61,8.43-9.7
			c12.95,13.91,35.84,54.75,35.37,70.76c-0.14,4.66-5.21,13.53-18.04,13.19c-12.83-0.34-47.79-21.97-47.79-21.97l26.19-28.12
			L611.65,225.17z"/>
		<path class="st3" d="M589.12,252.33c2.72-3.32,5.64-6.48,8.51-9.64c2.88-3.16,5.78-6.34,8.77-9.43c1.68-1.74,3.38-3.5,5.1-5.19
			c0,0,0.12,0,0.09,0.08c-2.72,3.3-5.64,6.5-8.47,9.66c-2.83,3.17-5.78,6.34-8.73,9.46c-1.67,1.76-3.38,3.5-5.11,5.19
			C589.21,252.54,589.04,252.43,589.12,252.33z"/>
		<path class="st3" d="M604.07,206.68c0.5,0.75,0.96,1.53,1.39,2.32l-0.43-1.22c-0.56-1.67-1.13-3.38-1.62-5.01
			c0-0.11,0.15-0.18,0.18-0.08c0.58,1.44,1.18,2.89,1.74,4.33c0.55,1.44,1.07,2.89,1.61,4.32c1.13,2.91,2.15,5.81,3.16,8.74
			c0.56,1.67,1.13,3.38,1.56,5.03c0,0.07-0.09,0.11-0.12,0c-1.26-2.82-2.37-5.72-3.38-8.63c-0.68-1.89-1.35-3.8-2.02-5.71
			c-0.74-1.34-1.45-2.71-2.1-4.1C603.98,206.67,604.05,206.64,604.07,206.68z"/>
		<path class="st3" d="M606.97,222.49c0,0,0.41-0.32,0.43-0.34c1.27,1.13,2.66,2.12,3.98,3.19c0.7,0.58,5.9,4.77,7.68,6.29
			c4.22,3.62,8.33,7.39,12.4,11.28c2.01,1.92,3.98,3.88,5.93,5.86c1.95,1.98,3.94,3.99,5.8,6.09c0,0,0.11,0,0.07-0.06
			c-2.02-2.44-4.04-4.87-6.16-7.22c-3.73-4.17-7.71-8.12-11.91-11.82c-2.1-1.85-4.25-3.64-6.43-5.39c-1.44-1.13-6.21-4.89-6.9-5.42
			c-1.41-1.07-2.82-2.26-4.25-3.2c-0.24,0.22-0.46,0.46-0.67,0.71C606.85,222.47,606.94,222.55,606.97,222.49z"/>
		<path class="st3" d="M626.77,271.85c5.08,0.32,10.14-0.83,14.58-3.3C637.39,272.09,631.88,273.34,626.77,271.85z"/>
		<rect x="465.2" y="261.28" class="st2" width="105.49" height="5.98"/>
		<rect x="472.83" y="258.62" class="st4" width="43.2" height="2.99"/>
		<path class="st0" d="M475.11,258.62h40.92v-2.88c0,0-0.42-0.32-1.21-0.79c-0.56-0.34-1.29-0.73-2.18-1.13
			c-3.55-1.75-7.43-2.71-11.39-2.8c-8.49-0.12-21.81,4.34-21.81,4.34L475.11,258.62z"/>
		<path class="st0" d="M516.03,256.56c-2.11-3.01-5.16-5.22-8.67-6.29c-3.34-1.08-6.87-1.41-10.35-0.96
			c-3.44,0.39-6.84,1.1-10.15,2.11l-4.95,1.54c-1.62,0.59-3.27,1.13-4.89,1.75c3.38-0.55,6.77-1.35,10.08-2.06
			c3.31-0.75,6.66-1.31,10.04-1.69c3.32-0.43,6.7-0.25,9.96,0.53c1.65,0.41,3.24,1.04,4.74,1.85
			C513.4,254.15,514.83,255.24,516.03,256.56z"/>
		<path class="st2" d="M516.03,256.83c-2.71-1.58-5.64-2.76-8.69-3.5c-3-0.8-6.11-1.1-9.2-0.88c-3.08,0.26-6.13,0.75-9.13,1.48
			c-3.02,0.7-5.99,1.58-8.91,2.63c1.5-0.38,3.01-0.73,4.51-1.05c1.5-0.34,3-0.67,4.51-0.95c2.98-0.63,5.99-1.06,9.02-1.3
			c3.02-0.24,6.07-0.01,9.02,0.67c1.51,0.31,2.99,0.71,4.45,1.18C513.12,255.57,514.6,256.15,516.03,256.83z"/>
		<path class="st2" d="M516.03,257.15c-3.1-0.77-6.24-1.36-9.4-1.79c-1.58-0.23-3.17-0.35-4.77-0.37c-1.6,0-3.19,0.06-4.78,0.16
			c-3.17,0.26-6.33,0.63-9.47,1.13c-3.14,0.5-6.28,1.07-9.4,1.73l9.46-1.13c3.16-0.34,6.3-0.72,9.46-0.91
			c1.58-0.14,3.16-0.21,4.74-0.24c1.57,0,3.15,0.14,4.72,0.26C509.73,256.29,512.89,256.69,516.03,257.15z"/>
		<rect x="516.04" y="258.62" class="st4" width="43.2" height="2.99"/>
		<path class="st0" d="M556.95,258.62h-40.92v-2.88c0,0,0.42-0.32,1.21-0.79c0.56-0.34,1.29-0.73,2.18-1.13
			c3.55-1.75,7.43-2.71,11.39-2.8c8.49-0.12,21.81,4.34,21.81,4.34L556.95,258.62z"/>
		<path class="st0" d="M516.03,256.56c2.11-3.01,5.16-5.22,8.67-6.29c3.34-1.08,6.87-1.41,10.35-0.96c3.44,0.39,6.84,1.1,10.15,2.11
			l4.95,1.54c1.62,0.59,3.27,1.13,4.89,1.75c-3.38-0.55-6.77-1.35-10.08-2.06c-3.31-0.74-6.66-1.31-10.04-1.69
			c-3.32-0.43-6.7-0.25-9.96,0.53c-1.65,0.41-3.24,1.04-4.74,1.85C518.65,254.15,517.23,255.24,516.03,256.56z"/>
		<path class="st2" d="M516.03,256.83c2.71-1.58,5.64-2.76,8.69-3.5c3-0.8,6.11-1.1,9.2-0.88c3.08,0.26,6.13,0.75,9.13,1.48
			c3.02,0.7,5.99,1.58,8.91,2.63c-1.5-0.38-3.01-0.73-4.51-1.05c-1.5-0.34-3-0.67-4.51-0.95c-2.98-0.63-5.99-1.06-9.02-1.3
			c-3.02-0.24-6.07-0.01-9.02,0.67c-1.51,0.31-2.99,0.71-4.45,1.18C518.93,255.57,517.45,256.14,516.03,256.83z"/>
		<path class="st2" d="M516.03,257.15c3.1-0.77,6.24-1.36,9.4-1.79c1.58-0.23,3.17-0.35,4.77-0.37c1.59,0,3.19,0.06,4.77,0.16
			c3.18,0.26,6.34,0.63,9.48,1.13s6.28,1.07,9.4,1.73l-9.46-1.13c-3.16-0.34-6.3-0.72-9.47-0.91c-1.57-0.14-3.15-0.21-4.72-0.24
			c-1.58-0.02-3.15,0.14-4.72,0.26C522.33,256.29,519.17,256.69,516.03,257.15z"/>
	</g>
	<g id="freepik--Backpack--inject-244">
		<path class="st4" d="M623.5,358.48c0.7-0.7-3.27-10.88-6.16-12.52s-20.13-0.39-21.86,3.08c-1.74,3.47,1.83,13.77,3.08,13.87
			c1.25,0.1,4.51-0.48,5.11-1.25c0.6-0.77-1.85-7.24-0.99-8.5c1.13-1.66,10.92-2.31,11.92-1.38s2.53,6.77,2.75,7.08
			C617.57,359.18,622.37,359.61,623.5,358.48z"/>
		<path class="st5" d="M580.84,456.15c4.23,6.93,17.72,15.4,25.43,16.18c7.71,0.78,58.55,3.85,65.88-7.33
			c6.66-10.15-12.63-78.11-28.59-98.95c-1.21-1.66-2.63-3.15-4.23-4.43l-0.33-0.24c-14.44-10.22-41.15-2.26-44.5-1.07
			c-5.2,1.88-12.32,7.03-15.4,17.43C576.03,388.15,576.6,449.21,580.84,456.15z"/>
		<path class="st4" d="M609.16,449.58c1.13,5.02,10.01,16.38,19.64,18.7c9.63,2.31,43.35-3.28,50.46-10.49
			c0.96-1.31,1.48-2.89,1.48-4.51c1.41-15.43-11.48-60.89-23.29-74.16c-1.05-1.27-2.34-2.32-3.8-3.09
			c-1.65-0.77-3.36-1.39-5.12-1.85c-9.79-2.32-20.02-2.03-29.67,0.83c-5.82,1.85-10.46,4.71-12.4,8.54
			C601.5,393.24,608,444.59,609.16,449.58z"/>
		<path class="st12" d="M609.16,449.58c1.13,5.02,10.01,16.38,19.64,18.7c9.63,2.31,43.35-3.28,50.46-10.49
			c0.96-1.31,1.48-2.89,1.48-4.51c-5.8,3.96-12.42,6.56-19.37,7.6c-5.03,0.8-10.13,1.16-15.22,1.06
			c-5.05-0.08-10.27-0.78-14.66-3.63c-8.22-5.37-11.75-16.51-13.53-25.94c-1.89-10.25-2.01-20.92-1.87-31.33
			c-0.02-8.76,0.89-17.5,2.72-26.07c-5.82,1.85-10.46,4.71-12.4,8.54C601.5,393.24,608,444.59,609.16,449.58z"/>
		<path class="st3" d="M614.03,428.79l2.26-0.29c-1.35-10.63-3.82-39.47,1.06-45.5c4.88-6.03,24.81-8.12,33.36-6.1
			c2.32,0.54,4.59,1.29,6.77,2.26c-1.05-1.27-2.34-2.33-3.8-3.1c-1.65-0.77-3.36-1.39-5.12-1.85c-10.27-1.29-28.02,1.32-32.96,7.39
			C609.08,389.51,613.83,427.21,614.03,428.79z"/>
		<path class="st3" d="M586.13,421.57l2.31-0.09c-1.54-43.04,0.37-44.76,8.45-52.01l0.27-0.25c7.89-7.06,27.58-7.62,35.36-6.77
			c3.89,0.4,7.65,1.62,11.04,3.57c-1.21-1.66-2.63-3.15-4.23-4.43c-2.13-0.71-4.32-1.2-6.55-1.44c-5.47-0.59-27.81-1.04-37.16,7.37
			l-0.28,0.24C586.83,375.43,584.54,377.48,586.13,421.57z"/>
		<path class="st6" d="M574.57,455.3c1.66,5.5,15.54,15.79,22.16,17.7c1.33,0.39,12.4,1.85,12.57-2.57c0-0.29,0-0.6,0-0.9
			c0.11-11.56-6.38-36.16-7.77-39.47c-1.65-3.87-14.49-10.5-21.95-11.52c-1.32-0.27-2.68-0.2-3.96,0.2
			C570.39,421,573.54,451.8,574.57,455.3z"/>
		<path class="st5" d="M574.57,455.3c1.66,5.5,15.54,15.79,22.16,17.7c1.33,0.39,12.4,1.85,12.57-2.57c0-0.29,0-0.6,0-0.9
			c-8.07-0.1-19.51-2.97-24.95-12.08c-5.15-8.59-5.33-27.99-4.77-38.88c-1.32-0.27-2.68-0.2-3.96,0.2
			C570.39,421,573.54,451.8,574.57,455.3z"/>
	</g>
	<g id="freepik--character-1--inject-244">
		<path class="st13" d="M207.17,470.16c-2.86,0.92-87.54-0.14-90.63-2.15c-1.13-0.76,4.76-80.42,4.76-80.42l54.72,0.55l-5.83,53.29
			c0,0,31.13,14.41,34.29,16.99S210.04,469.25,207.17,470.16z"/>
		<path class="st4" d="M208.11,471.32c-3.02,0.98-88.52,0.18-91.78-1.94c-1.26-0.78,0.55-28.98,0.55-29.14h52.89v0.95
			c0,0,32.86,15.07,36.2,17.77S211.13,470.34,208.11,471.32z"/>
		<path class="st3" d="M207.88,467.96c-14.54-0.48-73.18-1.13-87.58-0.48c-0.12,0-0.12,0.09,0,0.09c14.39,0.8,73.04,0.95,87.57,0.64
			C208.18,468.2,208.18,467.97,207.88,467.96z"/>
		<path class="st3" d="M175.96,440.46c-5.71-1.13-12.71-0.3-17.12,3.73c-0.17,0.15,0,0.39,0.24,0.34c5.5-1.73,11.17-2.86,16.91-3.38
			c0.19-0.07,0.28-0.28,0.21-0.46C176.16,440.57,176.07,440.49,175.96,440.46z"/>
		<path class="st3" d="M180.06,443c-5.71-1.13-12.71-0.3-17.12,3.73c-0.17,0.15,0.06,0.39,0.24,0.34
			c5.48-1.72,11.13-2.86,16.86-3.38c0.19-0.05,0.3-0.25,0.25-0.44C180.26,443.13,180.17,443.04,180.06,443z"/>
		<path class="st3" d="M184.17,445.51c-5.71-1.13-12.71-0.3-17.12,3.73c-0.17,0.15,0,0.39,0.24,0.34c5.5-1.73,11.17-2.86,16.91-3.38
			c0.19-0.07,0.28-0.28,0.21-0.46C184.37,445.63,184.28,445.54,184.17,445.51z"/>
		<path class="st3" d="M173.68,441.05h-58.92c0,0,12.01-137.88,11.55-140.32c-0.59-3.08-4.06-17-8.69-35.19
			c-1.45-5.69-3.01-11.81-4.65-18.13c-4.39-17.12-9.24-35.82-13.45-52.11c-6.33-24.39-11.28-43.33-11.28-43.33h49.92
			c6.12,14,11.43,28.35,15.9,42.96c11.94,39,25.16,92.23,26.74,105.28C183.38,321.21,173.68,441.05,173.68,441.05z"/>
		<path class="st5" d="M171.06,430.99c-9.02-0.18-6.4-0.26-15.4-0.35c-4.41,0-33.34-0.29-37.46,0.39c-0.05,0-0.09,0.04-0.09,0.09
			c0,0.05,0.04,0.09,0.09,0.09c4.12,0.68,33.05,0.43,37.46,0.38c9.02-0.08,6.42-0.16,15.4-0.34c0.07,0,0.14-0.06,0.14-0.14
			C171.2,431.05,171.14,430.99,171.06,430.99L171.06,430.99z"/>
		<path class="st5" d="M97.32,158.73l9.18,32.34l8.94,32.41c2.99,10.8,5.86,21.63,8.73,32.46c2.86,10.84,5.71,21.67,8.34,32.58
			c0.64,2.74,1.29,5.46,1.83,8.23c0.15,0.69,0.25,1.41,0.37,2.11c0,0.38,0.07,0.81,0,1.13l-0.08,1.05l-0.33,4.19l-1.31,16.76
			l-2.62,33.56l-2.73,33.5l-2.85,33.49l2.26-33.54l2.38-33.54l2.45-33.52l1.25-16.77l0.3-4.18l0.08-1.05c0-0.34,0-0.61-0.06-0.92
			c-0.12-0.68-0.21-1.34-0.36-2.03c-0.54-2.73-1.2-5.45-1.84-8.18c-5.24-21.76-11.1-43.41-16.78-65.09L97.32,158.73z"/>
		<path class="st5" d="M136.97,151.96c-3.46,26.81-13.46,81.36-18.28,117.84c-11.28-44.2-30.45-117.84-30.45-117.84H136.97z"/>
		<path class="st13" d="M29.29,469.73c2.89,0.9,74.02,1.22,77.1-0.85c1.18-0.76,1.6-12.75,1.69-27.25v-0.46
			c0-2.99,3.09-53.21,3.09-53.21l-53.73,1.13l-2.4,52.78v0.9c0,0-20.02,12.52-23.17,15.14C28.7,460.54,26.39,468.84,29.29,469.73z"
			/>
		<path class="st4" d="M25.77,471.32c3.02,0.98,79.51,0.18,82.78-1.94c1.25-0.78-0.56-28.98-0.56-29.14H55.1v0.95
			c0,0-23.85,15.07-27.19,17.77S22.75,470.34,25.77,471.32z"/>
		<path class="st3" d="M26,467.96c14.52-0.48,64.16-1.13,78.56-0.48c0.12,0,0.12,0.09,0,0.09c-14.39,0.8-64.03,0.95-78.56,0.64
			C25.7,468.2,25.69,467.97,26,467.96z"/>
		<path class="st3" d="M52.46,441.87c5.64-1.56,12.65-1.3,17.35,2.39c0.19,0.14,0,0.39-0.21,0.35c-5.59-1.29-11.29-1.99-17.03-2.06
			c-0.2-0.05-0.32-0.25-0.28-0.45C52.32,442,52.38,441.92,52.46,441.87z"/>
		<path class="st3" d="M48.57,444.67c5.64-1.57,12.64-1.3,17.35,2.38c0.18,0.15,0,0.41-0.21,0.36c-5.6-1.28-11.32-1.96-17.06-2.03
			c-0.2-0.01-0.36-0.17-0.35-0.37C48.3,444.85,48.41,444.71,48.57,444.67z"/>
		<path class="st3" d="M44.68,447.51c5.64-1.56,12.65-1.29,17.35,2.39c0.19,0.14,0,0.39-0.21,0.35c-5.6-1.28-11.31-1.95-17.05-2.02
			c-0.2-0.02-0.36-0.2-0.34-0.4C44.44,447.68,44.54,447.56,44.68,447.51z"/>
		<path class="st3" d="M136.97,151.96c0,0-7.57,46.14-8.09,47.63c0,0-2.82,1.33-7.89,3.68l-9.38,238.13l-59.19,0.25
			c0,0-0.24-151.49,19.95-289.69H136.97z"/>
		<path class="st5" d="M109.6,430.88c-9.02-0.16-6.45-0.24-15.49-0.28c-4.43,0-33.51-0.16-37.64,0.54
			c-0.05,0.02-0.08,0.08-0.06,0.13c0.01,0.03,0.03,0.05,0.06,0.06c4.14,0.67,33.22,0.28,37.64,0.23c9.02-0.12,6.45-0.19,15.49-0.42
			c0.06-0.04,0.06-0.15,0.02-0.21C109.61,430.92,109.6,430.9,109.6,430.88z"/>
		<path class="st5" d="M131.35,198.16c-5.88,2.46-11.54,5.43-16.91,8.86c-0.2,0.14,0,0.46,0.18,0.35
			c5.71-2.77,11.54-5.45,17.09-8.54c0.19-0.1,0.26-0.33,0.16-0.52C131.76,198.13,131.53,198.06,131.35,198.16z"/>
		<path class="st5" d="M129.17,171.72c-0.94,5.51-1.45,11.13-2.07,16.69c-0.15,1.34-0.3,2.67-0.45,4c-0.04,1.23-0.36,2.44-0.96,3.52
			c-1.21,1.86-3.38,2.73-5.3,3.59c-0.23,0.09-0.14,0.45,0.11,0.37c2.1-0.5,4.04-1.53,5.64-2.98c1.78-1.88,1.73-4.72,2-7.14
			c0.79-5.98,1.22-12.01,1.3-18.04C129.42,171.61,129.25,171.58,129.17,171.72z"/>
		<path class="st5" d="M122.48,173.42c-0.2,3.98-0.64,7.89-0.98,11.92c-0.16,1.96-0.29,3.92-0.42,5.89s-0.35,4.04-0.29,6.03
			c0,0.14,0.23,0.17,0.25,0c0.33-1.88,0.37-3.85,0.53-5.76c0.16-1.92,0.29-4.01,0.41-6.03c0.23-4.01,0.34-8.06,0.7-12.07
			C122.67,173.29,122.48,173.29,122.48,173.42z"/>
		<polygon class="st5" points="118.7,206.94 104.66,425.5 116,236.18 		"/>
		<path class="st3" d="M135.7,28.91c-3.73-4.32-14.2-10.05-25.52-1.38C94.1,39.85,95.92,77.82,97.44,83.72
			c0,0,24.63,11.47,48.61,0.72c0,0-9.79-26.51-6.46-39.25C141.1,39.46,139.64,33.34,135.7,28.91z"/>
		<path class="st3" d="M140.53,59.51l0.17,0.64c0.78,2.72,1.81,5.36,3.07,7.89c1.14,2.46,2.64,4.74,4.44,6.77
			c0.06,0,0.15,0,0.1-0.07c-1.75-2.16-3.12-4.59-4.07-7.21c-1.03-2.49-1.9-5.04-2.63-7.63c-1.5-5.27-2.32-10.72-2.44-16.2
			c0-0.1-0.19-0.11-0.19,0c0,0.77-0.07,1.52-0.09,2.26c-0.04-0.03-0.08-0.02-0.11,0.02c-0.01,0.02-0.02,0.04-0.01,0.06
			c-0.16,5.08,0.22,10.16,1.13,15.16c1.05,4.95,2.78,9.72,5.14,14.2c1.3,2.52,2.76,4.96,4.36,7.3c0,0,0.08,0,0,0
			C145.11,75.54,142.11,67.7,140.53,59.51z"/>
		<path class="st3" d="M115.03,25.87C101.2,32.45,95.78,47.7,94.41,61.6c-0.46,4.27-0.5,8.58-0.12,12.87
			c0.01,0.03,0.05,0.05,0.09,0.03c0.02-0.01,0.03-0.02,0.03-0.03c-0.17-7.44,0.74-14.87,2.71-22.05c1.86-6.77,4.51-13.59,9.02-19.09
			c2.44-3.05,5.52-5.52,9.02-7.25C115.23,26,115.17,25.78,115.03,25.87z"/>
		<path class="st13" d="M122.18,94.09c6.2,18.45,27.31,47.24,35.45,55.05c9.02,8.69,50.37-5.07,72.64-13.53
			c4.42-1.68-8.48-38.01-13.11-35.97c-12.1,5.31-47.15,19.86-49.86,18.62c-2.26-1.03-20.18-20.55-29.49-30.96
			C123,70.72,117.8,81.11,122.18,94.09z"/>
		<path class="st13" d="M227.77,136.28c2.26-0.72,19.93-4.84,27.98-11.38c4.27-3.46,14.93-14.31,13.15-17.16
			c-1.64-2.62-5.28-0.36-5.28-0.36s4.68-4.91,2.37-8.5c-2.31-3.6-8.27,0.52-8.27,0.52s4.44-5.39,1.88-8.82
			c-2.56-3.43-7.89,1.73-7.89,1.73s4.28-4.74,0.99-6.68c-3.97-2.33-10.88,7.28-16.2,10.23c-1.22,0.68-25.48,11.79-25.48,11.79
			L227.77,136.28z"/>
		<path class="st3" d="M251.52,92.19c-5.11,7.07-8.56,9.28-16.53,12.47c-0.15,0.07-0.09,0.32,0.08,0.26
			c8.07-2.42,12.81-4.57,16.8-12.49C252.06,92.03,251.76,91.85,251.52,92.19z"/>
		<path class="st3" d="M257.5,99.26c-5.94,6.87-9.68,9.3-17.76,13.26c-0.11,0,0,0.26,0.09,0.21c8.25-3.23,12.93-5.48,17.96-13.13
			C258.03,99.26,257.8,98.95,257.5,99.26z"/>
		<path class="st3" d="M263.21,107.53c-6.22,6.24-10.21,9.08-18.55,11.92c-0.08,0.05-0.11,0.15-0.06,0.23
			c0.03,0.05,0.09,0.09,0.15,0.08c8.8-2.07,13.77-5.58,18.63-12.02C263.72,107.3,263.61,107.13,263.21,107.53z"/>
		<path class="st13" d="M205.05,110.35c0,0,5.15-9.63,8.34-13.36c3.19-3.73,20.23-13.25,22.5-9.69c2.92,4.59-5.83,12.03-10.59,15.11
			c0,0,6.77,10.63,1.65,17.32C221.83,126.42,205.05,110.35,205.05,110.35z"/>
		<path class="st3" d="M236.27,88.84c-0.35,6.12-6.87,9.75-11.28,13.09c-0.23,0.16-0.29,0.48-0.13,0.71
			c0.03,0.05,0.08,0.09,0.13,0.13c2.55,4.65,4.78,11.93,2.26,16.91c-0.04,0.06-0.02,0.14,0.04,0.17c0.06,0.04,0.14,0.02,0.17-0.04
			l0,0c3.38-5.01,1.79-12.35-1.32-17.26c4.57-3.38,10.93-7.28,10.15-13.73L236.27,88.84z"/>
		<path class="st4" d="M207.36,100.93l14.54,40.32c0,0-55.37,17.56-63.42,10.46c-8.05-7.09-32.51-38.61-38.02-58.77
			s7.54-16.58,15.31-8.64s30.3,32.52,31.64,33.24C170,118.94,207.36,100.93,207.36,100.93z"/>
		<path class="st14" d="M207.36,100.93l14.54,40.32c0,0-55.37,17.56-63.42,10.46c-8.05-7.09-32.51-38.61-38.02-58.77
			s7.54-16.58,15.31-8.64s30.3,32.52,31.64,33.24C170,118.94,207.36,100.93,207.36,100.93z"/>
		<path class="st3" d="M212.84,140.4c-0.55-1.42-0.92-2.97-1.39-4.42c-0.46-1.45-0.96-2.92-1.47-4.38
			c-0.96-2.81-1.93-5.64-2.88-8.43c-1.93-5.71-3.73-11.47-5.97-17.06c0-0.09-0.17,0-0.15,0c1.37,5.86,3.07,11.63,5.11,17.3
			c0.98,2.86,2,5.7,3.04,8.52c0.53,1.44,1.13,2.88,1.68,4.28c0.55,1.41,1.31,2.8,1.83,4.22C212.69,140.6,212.89,140.52,212.84,140.4
			z"/>
		<path class="st4" d="M173.69,152.87c-7.23,0.89-13.01,0.8-15.22-1.13c-2.21-2.06-4.29-4.25-6.22-6.56
			c1.44-0.95,3.13-1.48,4.86-1.51c1.49,0.07,4.51,3.69,5.92,4.45c0.77,0.44,5.76,0.89,7.49,1.35
			C171.49,149.7,172.8,151.44,173.69,152.87z"/>
		<path class="st3" d="M152.93,143.89c0,0.07,0.52,0.62,0.63,0.74c0.25,0.25,0.51,0.49,0.79,0.71c0.17,0.11,0.25,0,0.15-0.16
			c-0.21-0.28-0.44-0.55-0.7-0.79c-0.12-0.12-0.63-0.56-0.77-0.65C152.9,143.66,152.83,143.73,152.93,143.89z"/>
		<path class="st3" d="M154.25,142.77c0,0.09,0.29,0.77,0.36,0.91c0.15,0.32,0.32,0.63,0.52,0.92c0.12,0.17,0.24,0.08,0.19-0.1
			c-0.1-0.34-0.24-0.66-0.42-0.97c-0.07-0.16-0.42-0.73-0.5-0.87C154.33,142.53,154.22,142.59,154.25,142.77z"/>
		<path class="st3" d="M171.89,149.56c0,0.08-0.21,0.78-0.25,0.95c-0.07,0.35-0.11,0.7-0.14,1.05c0,0.21,0.15,0.2,0.21,0
			c0.12-0.33,0.2-0.68,0.25-1.03c0-0.17,0.1-0.83,0.11-0.99S171.98,149.39,171.89,149.56z"/>
		<path class="st3" d="M172.8,150.45c-0.08,0-0.8,0-0.97,0c-0.36,0-0.71,0.03-1.06,0.1c-0.2,0-0.17,0.18,0,0.2
			c0.35,0.04,0.71,0.04,1.06,0l0.99-0.11C172.99,150.59,172.99,150.49,172.8,150.45z"/>
		<path class="st3" d="M163.62,147.45c-0.06,0.32-0.11,0.65-0.12,0.98c-0.03,0.35-0.03,0.7,0,1.05c0,0.21,0.17,0.19,0.21,0
			c0.08-0.35,0.12-0.7,0.11-1.06c0-0.17,0-0.85,0-0.99C163.82,147.28,163.68,147.27,163.62,147.45z"/>
		<path class="st3" d="M166.24,147.82c-0.06,0.07-0.39,0.71-0.46,0.87c-0.14,0.32-0.26,0.65-0.36,0.99c0,0.2,0.09,0.23,0.2,0.08
			c0.19-0.3,0.35-0.62,0.47-0.95c0.07-0.16,0.28-0.8,0.32-0.95S166.35,147.67,166.24,147.82z"/>
		<path class="st12" d="M165.23,153.39c-3.12-0.07-5.5-0.58-6.77-1.67c-8.06-7.09-32.51-38.61-38.01-58.77
			c-3.44-12.58,0.35-15.91,5.57-14.66L165.23,153.39z"/>
		<path class="st4" d="M151.06,182.52c-0.51,0.6-83.76-0.21-84.02-0.51c-1.22-1.38,18.76-86.62,35.13-104.31
			c4.84-5.23,18.3-2.8,20.07-1.36C136.97,88.23,151.49,182,151.06,182.52z"/>
		<path class="st1" d="M125.51,109.22c-8.34-9.09-19.61-29.83-21.61-32.89c6.07-3.38,16.72-1.31,18.34,0
			c1.4,1.13,2.66,2.43,3.76,3.86C126.93,89.85,126.77,99.59,125.51,109.22z"/>
		<path class="st12" d="M101.36,84.07c5.39,8.96,11.66,17.36,18.72,25.08c2.37,2.52,4.95,4.83,7.71,6.92l-0.81,0.3
			c1.72-8.75,2.56-17.64,2.5-26.56c0.74,9.22,0.18,18.5-1.66,27.56C116.23,108.93,108.08,96.56,101.36,84.07z"/>
		<path class="st4" d="M105.28,75.24c0,0,8.59,43.84,8.11,55.57c-0.79,18.74-7.26,103.26-7.26,103.26l-46.29-6.6
			C59.83,227.47,76.44,85.04,105.28,75.24z"/>
		<path class="st14" d="M105.28,75.24c0,0,8.59,43.84,8.11,55.57c-0.79,18.74-7.26,103.26-7.26,103.26l-46.29-6.6
			C59.83,227.47,76.44,85.04,105.28,75.24z"/>
		<path class="st4" d="M103.6,211.96c-0.21,0.9-1.12,1.46-2.02,1.25c-0.9-0.21-1.46-1.12-1.25-2.02c0.18-0.76,0.86-1.3,1.64-1.3
			C102.98,210.02,103.71,210.94,103.6,211.96z"/>
		<path class="st4" d="M105.23,191.84c-0.21,0.9-1.11,1.47-2.01,1.27s-1.47-1.11-1.27-2.01c0.17-0.77,0.86-1.31,1.64-1.31
			C104.61,189.92,105.33,190.83,105.23,191.84z"/>
		<path class="st4" d="M107.43,174.22c-0.21,0.9-1.12,1.46-2.02,1.25c-0.9-0.21-1.46-1.12-1.25-2.02c0.18-0.76,0.86-1.3,1.64-1.3
			C106.81,172.28,107.54,173.2,107.43,174.22z"/>
		<path class="st4" d="M109.07,156.58c-0.21,0.9-1.12,1.46-2.02,1.25c-0.9-0.21-1.46-1.12-1.25-2.02c0.18-0.76,0.86-1.3,1.64-1.3
			C108.45,154.65,109.17,155.56,109.07,156.58z"/>
		<path class="st4" d="M123.04,75.99c4.54,10.96,8.17,22.27,10.84,33.83c3.88,17.61,10.02,122.91,10.02,122.91l18.04-13.75
			c0,0-6.44-27-12.39-60.71c-4.65-26.08-9.84-47.56-11.79-53.31c-4.51-13.25-10.66-26.98-11.14-27.33
			C125.54,76.85,124.32,76.29,123.04,75.99z"/>
		<g class="st15">
			<path class="st16" d="M123.04,75.99c4.54,10.96,8.17,22.27,10.84,33.83c3.88,17.61,10.02,122.91,10.02,122.91l18.04-13.75
				c0,0-6.44-27-12.39-60.71c-4.65-26.08-9.84-47.56-11.79-53.31c-4.51-13.25-10.66-26.98-11.14-27.33
				C125.54,76.85,124.32,76.29,123.04,75.99z"/>
		</g>
		<path class="st0" d="M179.77,125.01l-2.9-1.49c0,0-21.66-1.24-27.81,4.94c0,0-9.21-9.02-33.93-10.23l-3.63,1.69l37.53,16.54
			L179.77,125.01z"/>
		<path class="st5" d="M128.66,172.71l20.77-42.23c0,0-24.81-10.57-38.43-11.73L89.58,163.3C89.58,163.3,103.42,165.6,128.66,172.71
			z"/>
		<path class="st3" d="M128.66,172.71c8.95-2.31,18.05-4,27.23-5.09l26.04-42.74c0,0-19.44,0.81-32.5,5.64L128.66,172.71z"/>
		<path class="st6" d="M147.41,144.91l-3.1,5.92l20.73-2.81l3.26-6.03C168.29,141.99,152.21,143.97,147.41,144.91z"/>
		<path class="st6" d="M143.29,152.94l-0.82,1.95l20.3-2.75l1.43-2.12C164.2,150.02,148.1,152,143.29,152.94z"/>
		<path class="st13" d="M92.73,82.33c-27.54,24.68-61.11,72.62-50.74,81.19c9.4,7.84,44.86,13.79,59.92,14.66
			c4.42,0.25,5.64-34.22,0.94-34.49c-5.72-0.33-19.95-2.45-20.49-2.65c-1.13-0.43,13.33-37.9,19.01-49.45
			C108.37,77.21,102.39,73.67,92.73,82.33z"/>
		<path class="st3" d="M117.69,210.02c0.03-0.03,0.03-0.09,0-0.12c-0.05-0.01-0.09,0.01-0.11,0.06l-0.24,0.51
			c-0.03,0.03-0.03,0.09,0,0.12c0.03,0.03,0.09,0.03,0.12,0L117.69,210.02z"/>
		<path class="st13" d="M93.17,176.35c11.39,3.52,25.35,8.58,38.43,5.49c1.46-0.31,2.78-1.11,3.73-2.26
			c5.89-1.29,7.05-4.45,7.05-4.45c5.12-2.88,5.86-6.27,5.86-6.27s6.89-1.59,6.63-5.91c-0.28-4.86-9.91-1.68-16.27-3.18
			c-14.58-3.38-36.49-12.88-40.59-14.29L93.17,176.35z"/>
		<path class="st3" d="M120.85,166.92c4.26,1.04,8.58,1.79,12.93,2.26c4.79,0.21,9.59,0.06,14.37-0.44c0.06,0,0.11,0.05,0.11,0.11
			c0,0.06-0.05,0.11-0.11,0.11c0,0,0,0,0,0c-9.13,1.9-18.6,1.26-27.39-1.86C120.6,167.03,120.64,166.86,120.85,166.92z"/>
		<path class="st3" d="M117.5,175.41c4.25,0.67,11.72,1.78,24.9-0.43c0,0,0.07,0.07,0,0.08c-8.1,2.49-16.74,2.68-24.94,0.55
			C117.21,175.55,117.22,175.37,117.5,175.41z"/>
		<path class="st3" d="M115.8,180.01c7.25,0.86,11.94,0.47,19.54-0.46c0,0,0.07,0.07,0,0.08c-8.54,1.97-11.85,1.73-19.63,0.63
			C115.46,180.26,115.5,179.98,115.8,180.01z"/>
		<path class="st13" d="M121.36,154.55c-1.71-1.2-1.13-2.11,2.62-2.32c3.74-0.21,18.64,2.07,19-3.2c0.36-5.28-20.67-7.18-26.89-7.36
			c-6.55-0.09-13.03,1.33-18.93,4.16C101.06,147.21,113.52,151.72,121.36,154.55z"/>
		<path class="st4" d="M102.44,141.8l-5.89,40.72c0,0-54.13-11.08-57.51-21.27c-4.21-12.4,29.96-58.41,47.91-74.74
			s21.84-9.24,14.66,6.77c-7.18,16-18.14,45.44-18.04,46.23C83.67,140.3,102.44,141.8,102.44,141.8z"/>
		<path class="st14" d="M102.44,141.8l-5.89,40.72c0,0-54.13-11.08-57.51-21.27c-4.21-12.4,29.96-58.41,47.91-74.74
			s21.84-9.24,14.66,6.77c-7.18,16-18.14,45.44-18.04,46.23C83.67,140.3,102.44,141.8,102.44,141.8z"/>
		<path class="st3" d="M89.15,179c0.16-1.51,0.54-3.06,0.81-4.51c0.27-1.45,0.5-3.04,0.72-4.57c0.44-2.93,0.88-5.87,1.33-8.81
			c0.92-5.95,1.98-11.9,2.59-17.9c0-0.09-0.14-0.11-0.16,0c-1.49,5.83-2.64,11.74-3.45,17.7c-0.45,2.99-0.86,5.98-1.24,9.02
			c-0.18,1.51-0.36,3.04-0.48,4.57c-0.12,1.52-0.12,3.09-0.32,4.59C88.94,179.13,89.14,179.13,89.15,179z"/>
		<path class="st3" d="M52.86,144.38c3.42-1.36,6.94-2.46,10.52-3.29c-0.58,0-1.13,0-1.71,0.08c-1.27,0.12-2.55,0.26-3.81,0.47
			c-0.08,0-0.12-0.12,0-0.15c1.25-0.38,2.55-0.61,3.86-0.69c0.65,0,1.29,0,1.93,0c0.27,0,0.53,0,0.8,0.07
			c6.87-1.53,13.94-1.89,20.93-1.05c0.14,0,0.11,0.2,0,0.2c-10.99-0.37-21.95,1.16-32.42,4.51C52.84,144.49,52.8,144.4,52.86,144.38
			z"/>
		<path class="st3" d="M95.31,107.99c-3.24,9.83-8.06,21.54-11.28,31.36c-0.02-0.11-0.07-0.22-0.16-0.29l0,0
			c0.41,0.1,1.8,0.32,2.26,0.39l16.29,2.26h0.09v0.09l-0.33,1.82l0.18-1.83c-4.92,0-11.04-0.79-16.33-1.38
			c-0.3,0-1.8-0.26-2.07-0.33c-0.25-0.04-0.49-0.12-0.71-0.24c-0.15-0.11-0.23-0.29-0.23-0.47c0.59-2.39,1.34-4.74,2.26-7.03
			C88.41,124.14,91.68,116,95.31,107.99L95.31,107.99z"/>
		<path class="st3" d="M95.42,112.21c-0.78,1.63-1.89,3.08-3.27,4.24C92.92,114.81,94.04,113.37,95.42,112.21z"/>
		<path class="st3" d="M64.1,174.22c10.63,2.72,21.85,5.24,32.45,8.1l-0.25,0.17c0.29-1.57,0.56-3.13,0.89-4.69
			c-0.15,1.66-0.35,3.32-0.51,4.97l-0.23-0.06C85.54,180.45,74.59,177.99,64.1,174.22L64.1,174.22z"/>
		<path class="st4" d="M48.38,168.39c-5.02-2.32-8.58-4.75-9.39-7.14c-0.97-2.84,0.09-7.46,2.51-13.08c3.19-0.2,3.97,1.97,3.8,3.8
			c-0.23,2.26-1.59,5.86-1.38,7.34s3.7,4.65,4.51,7.07C48.63,167.04,48.61,167.74,48.38,168.39z"/>
		<path class="st3" d="M47.34,166.84c0.09,0,0.81,0.11,0.98,0.11c0.35,0.03,0.7,0.03,1.05,0c0.21,0,0.19-0.17,0-0.21
			c-0.35-0.07-0.7-0.1-1.06-0.09c-0.17,0-0.85,0-0.99,0C47.17,166.65,47.17,166.79,47.34,166.84z"/>
		<path class="st3" d="M42.74,157.91c0.32,0.06,0.64,0.1,0.97,0.11c0.35,0.03,0.71,0.03,1.06,0c0.21,0,0.18-0.16,0-0.21
			c-0.35-0.06-0.7-0.09-1.05-0.09h-1C42.57,157.71,42.56,157.85,42.74,157.91z"/>
		<path class="st3" d="M43.2,155.89c0,0.06,0.68,0.45,0.82,0.53c0.31,0.18,0.63,0.33,0.96,0.45c0.19,0.07,0.24-0.07,0.09-0.19
			c-0.28-0.22-0.58-0.4-0.9-0.55c-0.15-0.09-0.77-0.36-0.91-0.42C43.11,155.66,43.07,155.76,43.2,155.89z"/>
		<path class="st3" d="M47.17,166.05c0.33-0.02,0.65-0.06,0.97-0.11c0.35-0.06,0.69-0.15,1.03-0.27c0.19-0.07,0.14-0.2,0-0.2
			c-0.37,0.01-0.74,0.05-1.11,0.14c-0.17,0-0.81,0.23-0.97,0.27C46.93,165.92,46.93,166.04,47.17,166.05z"/>
		<path class="st3" d="M43.61,149.96c0.08,0,0.69-0.43,0.82-0.53c0.28-0.21,0.55-0.44,0.8-0.69c0.15-0.16,0-0.25-0.14-0.17
			c-0.31,0.17-0.61,0.37-0.88,0.6c-0.14,0.1-0.63,0.55-0.74,0.67S43.43,150.03,43.61,149.96z"/>
		<path class="st3" d="M44.2,148.26c-0.02,0.33-0.02,0.65,0,0.98c0.01,0.35,0.05,0.7,0.11,1.05c0,0.2,0.18,0.17,0.21,0
			c0.04-0.35,0.04-0.71,0-1.06c0-0.17-0.09-0.83-0.12-0.99C44.37,148.08,44.25,148.07,44.2,148.26z"/>
		<path class="st13" d="M120.49,88.14c-5.91,1.04-12.78-6.65-15.14-12.65c-0.16-0.41,0.95-4.39,2.06-9.28
			c0.65-2.98,1.33-6.3,1.71-9.38l18.72,7.14c-1.6,3.71-2.73,7.6-3.38,11.59c-0.04,0.42-0.04,0.85,0,1.27
			c-0.01,0.07-0.01,0.14,0,0.21C124.54,79.51,124.95,87.36,120.49,88.14z"/>
		<path class="st3" d="M127.84,63.97c-1.59,3.71-2.73,7.61-3.38,11.59c-0.04,0.42-0.04,0.85,0,1.27c0.01,0.07,0.01,0.14,0,0.21
			c-0.67,0.02-1.34-0.03-2-0.14c-11.68-2.03-12.4-15.87-12.4-19.74L127.84,63.97z"/>
		<path class="st13" d="M109.56,34.55c-2.83,6.64-1.32,26.86,3.09,31.8c6.39,7.17,17.92,9.02,24.27,1.13c6.16-7.68,3.73-34-1.3-38.6
			C128.22,22.07,113.73,24.74,109.56,34.55z"/>
		<path class="st3" d="M128.12,49.04c0,0-0.1,0.07-0.09,0.12c0.17,1.35,0.14,2.92-1.04,3.48c0,0,0,0.09,0,0.08
			C128.43,52.36,128.44,50.28,128.12,49.04z"/>
		<path class="st3" d="M126.72,47.74c-2.19,0-1.94,4.41,0.09,4.38C128.84,52.08,128.56,47.71,126.72,47.74z"/>
		<path class="st3" d="M136.02,48.58c0,0,0.11,0,0.11,0.11c0,1.35,0.3,2.9,1.54,3.28v0.08C136.16,51.93,135.84,49.86,136.02,48.58z"
			/>
		<path class="st3" d="M137.14,47.09c2.18-0.28,2.58,4.07,0.58,4.34C135.71,51.7,135.33,47.34,137.14,47.09z"/>
		<path class="st3" d="M125.18,46.15c0.61-0.07,1.13-0.23,1.77-0.34c0.64-0.04,1.24-0.28,1.73-0.7c0.25-0.33,0.25-0.79,0-1.13
			c-0.59-0.59-1.46-0.82-2.26-0.58c-0.83,0.1-1.59,0.5-2.14,1.13c-0.35,0.42-0.29,1.05,0.14,1.4
			C124.63,46.11,124.91,46.19,125.18,46.15z"/>
		<path class="st3" d="M138.71,44.8c-0.61-0.07-1.13-0.23-1.76-0.35c-0.64-0.04-1.24-0.29-1.73-0.71c-0.26-0.33-0.26-0.8,0-1.13
			c0.59-0.59,1.46-0.81,2.26-0.56c0.82,0.1,1.58,0.5,2.13,1.13c0.35,0.42,0.3,1.04-0.11,1.4C139.28,44.76,138.99,44.84,138.71,44.8z
			"/>
		<path class="st3" d="M127.31,61.08c0.27,0.36,0.53,0.83,1.01,0.95c0.5,0.05,1.01-0.01,1.49-0.17c0,0,0.09,0,0.06,0.07
			c-0.47,0.49-1.17,0.68-1.82,0.5c-0.53-0.23-0.88-0.75-0.89-1.33c0.01-0.04,0.06-0.07,0.1-0.05
			C127.28,61.05,127.3,61.06,127.31,61.08z"/>
		<path class="st3" d="M128.79,57.09c0.76,1.04,1.92,1.73,3.2,1.88c0.55,0.07,1.11,0.07,1.66,0l0.61-0.11
			c0.15-0.04,0.25-0.17,0.26-0.33l0,0l-0.25-2.9c0.39,0.17,2.38,0.94,2.32,0.39c-0.38-4.69-1.25-9.33-2.57-13.85
			c0-0.07-0.06-0.12-0.12-0.12s-0.12,0.06-0.12,0.12c0.33,4.34,1.42,8.59,1.83,12.95c-0.72-0.29-1.48-0.47-2.26-0.54
			c-0.08,0,0.39,3.53,0.39,3.56c-1.72,0.27-3.47-0.16-4.86-1.21C128.81,56.89,128.71,56.99,128.79,57.09z"/>
		<path class="st3" d="M132.98,58.38c-0.53,0.77-1.25,1.38-2.09,1.79c-0.47,0.2-0.98,0.26-1.48,0.16c-1.13-0.23-1.13-1.22-1-2.06
			c0.09-0.45,0.23-0.89,0.42-1.31C130.03,57.86,131.48,58.36,132.98,58.38z"/>
		<path class="st11" d="M130.9,60.17c-0.47,0.2-0.98,0.26-1.48,0.16c-1.13-0.23-1.13-1.22-1-2.06
			C129.59,58.24,130.61,59.03,130.9,60.17z"/>
		<path class="st3" d="M108.24,53.86c3.82-0.91,6.28-13.53,6.28-13.53s-0.26,5.37,0.74,5.29s5.46-7.21,6.15-12.4
			c2.89,2.09,6.03,3.8,9.36,5.07c4.71,1.62,10.02,1.53,10.06,0.72c0.1-2.41-1.83-8.83-5.02-11.21c-4.73-3.9-11.18-4.97-16.91-2.82
			c-7.89,2.66-10.15,7.59-11.52,11.43S106.84,54.19,108.24,53.86z"/>
		<path class="st13" d="M112.73,52.44c0,0-3.94-6.77-6.99-5.46c-3.06,1.31-0.47,10.95,2.84,12.53c1.68,0.94,3.8,0.35,4.74-1.33
			c0.02-0.04,0.05-0.09,0.07-0.13L112.73,52.44z"/>
		<path class="st3" d="M106.55,49.81c2.31,1.13,3.38,3.52,4.07,5.9c-0.46-0.96-1.61-1.37-2.57-0.92c-0.09,0.04-0.18,0.09-0.26,0.15
			c-0.07,0,0,0.14,0.06,0.14c0.88-0.18,1.77,0.19,2.26,0.95c0.39,0.63,0.71,1.31,0.96,2.01c0.1,0.23,0.5,0.14,0.43-0.11l0,0
			c0.33-3.11-1.68-7.6-4.94-8.2V49.81z"/>
		<path class="st1" d="M124.74,76.92l-4.78,10.41l-14.48-13.67l-4.15,4.17c0,0,14.12,21.49,14.21,20.55l4.88-8.95l6.93,6.48
			l-0.46-15.85L124.74,76.92z"/>
		<path class="st3" d="M127.64,88.07c-0.17-2.62-0.26-5.25-0.58-7.89c0-0.09-0.17-0.14-0.19,0c-0.61,2.51,0.12,12.52,0.1,14.91l0,0
			c-0.29-0.28-6.43-5.71-6.5-5.64c-1.05,1.41-4.63,7.89-4.88,8.52c-2.26-3.38-10.79-15.79-13.44-19.08c-0.08-0.09-0.24,0-0.17,0.09
			c1.96,3.6,13.29,20.3,13.46,20.3c1.88-3.05,3.59-6.21,5.11-9.46c1.04,1.13,7.23,7.28,7.26,6.89
			C127.93,93.82,127.87,90.94,127.64,88.07z"/>
	</g>
	<g id="freepik--speech-bubble--inject-244">
		<polygon class="st1" points="150.57,10.2 150.57,44.27 155.35,44.27 155.35,52.53 163.62,44.27 208.96,44.27 208.96,10.2 		"/>
		<path class="st3" d="M150.57,10.2l0.34,34.07l-0.34-0.34h4.78h0.36v0.37l0.06,8.27l-0.71-0.29l8.21-8.31
			c0.17-0.18,0.12-0.15,0.35-0.15l45.34-0.07l-0.55,0.55l0.08-34.07l0.47,0.48c-14.56-0.07-43.83-0.34-58.39-0.48V10.2z
			 M150.57,10.2c14.79-0.16,44.07-0.42,58.87-0.48v0.48l0.07,34.07v0.55h-0.55l-45.34-0.07l0.34-0.15l-8.31,8.23l-0.72,0.71
			c0-0.3,0-8.72,0-9.27l0.37,0.37h-4.78h-0.34v-0.34l0.34-34.07L150.57,10.2z"/>
		<path class="st3" d="M190.81,27.24c0,1.53,1.24,2.77,2.77,2.77s2.77-1.24,2.77-2.77c0-1.53-1.24-2.77-2.77-2.77
			c-0.02,0-0.04,0-0.06,0C192.01,24.49,190.8,25.73,190.81,27.24z"/>
		<path class="st3" d="M177.01,27.24c0.01,1.53,1.25,2.76,2.77,2.75c1.53-0.01,2.76-1.25,2.75-2.77c-0.01-1.52-1.24-2.75-2.76-2.75
			c-1.53,0-2.76,1.24-2.76,2.76C177.01,27.23,177.01,27.24,177.01,27.24z"/>
		<path class="st3" d="M163.19,27.24c0,1.53,1.24,2.77,2.77,2.77c1.53,0,2.77-1.24,2.77-2.77c0-1.53-1.24-2.77-2.77-2.77
			C164.43,24.47,163.19,25.71,163.19,27.24L163.19,27.24z"/>
	</g>
</g>
</svg>
