<?xml version="1.0" encoding="utf-8"?>
<!-- Generator: Adobe Illustrator 24.3.0, SVG Export Plug-In . SVG Version: 6.00 Build 0)  -->
<svg version="1.1" xmlns="http://www.w3.org/2000/svg" xmlns:xlink="http://www.w3.org/1999/xlink" x="0px" y="0px"
	 viewBox="0 0 795 975" style="enable-background:new 0 0 795 975;" xml:space="preserve">
<style type="text/css">
	.st0{fill:#FFFFFF;}
	.st1{fill:#EBEBEB;}
	.st2{fill:#DBDBDB;}
	.st3{opacity:0.5;fill:#EBEBEB;enable-background:new    ;}
	.st4{fill:#C8C7C7;}
	.st5{fill:#A6A6A6;}
	.st6{fill:#263339;}
	.st7{fill:#37474F;}
	.st8{fill:#EB9481;}
	.st9{fill:#465B65;}
	.st10{fill:#FDEBBC;}
	.st11{opacity:0.1;fill:#020203;enable-background:new    ;}
	.st12{fill:#F196B8;}
	.st13{fill:#FFFFFE;}
	.st14{fill:#F5A9A0;}
	.st15{fill:#FDECBE;}
	.st16{opacity:0.2;}
	.st17{fill:#020203;}
	.st18{fill:#929292;}
</style>
<g id="Layer_2">
	<rect x="20.88" y="922.24" class="st0" width="753.25" height="7.23"/>
</g>
<g id="Layer_1">
	<g>
		<g id="freepik--background-complete--inject-2">
			<rect x="665.5" y="784.33" class="st1" width="62.83" height="20"/>
			<rect x="592.43" y="361.32" class="st1" width="62.83" height="20"/>
			<path class="st1" d="M700.54,829.52c10.44-0.16,37.19-0.61,47.26-0.73h15.56l-0.82,0.8v-20l0.89,0.89
				c-10.44,0-37.04-0.13-47.12-0.27l-15.71-0.2l0.43-0.43l-0.43,20L700.54,829.52z M700.54,829.52l-0.41-20v-0.41h0.43
				c7.84-0.11,23.59-0.29,31.41-0.36l31.41-0.13h0.89v0.89v20v0.82h-0.8h-15.85c-10.01-0.11-36.63-0.57-46.98-0.75L700.54,829.52z"
				/>
			<path class="st1" d="M276.81,677.7c10.44-0.18,37.19-0.63,47.25-0.73h15.56l-0.8,0.8l-0.09-20l0.89,0.89
				c-10.44,0-37.02-0.13-47.1-0.27l-15.71-0.2l0.41-0.43l-0.41,20L276.81,677.7z M276.81,677.7l-0.43-20v-0.41h0.45
				c7.83-0.11,23.57-0.29,31.4-0.36l31.4-0.16h0.89v0.89v20v0.82h-0.82h-15.83c-10.02-0.13-36.65-0.57-46.98-0.75L276.81,677.7z"/>
			<path class="st1" d="M311.85,702.92c10.44-0.18,37.19-0.63,47.25-0.73h15.58l-0.82,0.8v-20l0.89,0.89
				c-10.44,0-37.04-0.13-47.12-0.27l-15.71-0.2l0.43-0.43l-0.43,20L311.85,702.92z M311.85,702.92l-0.43-20v-0.41h0.43
				c7.83-0.11,23.57-0.29,31.41-0.36l31.41-0.13h0.89v0.89v20v0.82h-0.8h-15.85c-10.01-0.13-36.65-0.57-46.98-0.75L311.85,702.92z"
				/>
			<rect x="346.75" y="657.73" class="st1" width="62.83" height="20"/>
			<rect x="24.16" y="809.54" class="st1" width="62.83" height="20"/>
			<rect x="59.21" y="121.38" class="st1" width="62.83" height="20"/>
			<path class="st1" d="M24.16,166.58c10.44-0.18,37.19-0.63,47.26-0.73h15.56l-0.82,0.8v-20l0.89,0.89
				c-10.44,0-37.04-0.13-47.12-0.27l-15.71-0.2l0.36-0.57l-0.43,20V166.58z M24.16,166.58l-0.43-20.07v-0.41h0.43
				c7.84-0.11,23.57-0.29,31.41-0.36l31.41-0.13h0.89v0.89v20v0.82h-0.8H71.23c-10.01-0.13-36.65-0.57-46.98-0.75H24.16z"/>
			<path class="st1" d="M665.5,212.06c10.44-0.18,37.19-0.61,47.26-0.73h15.56l-0.82,0.8v-20l0.89,0.89l-31.41-0.13
				c-7.83,0-23.59-0.23-31.41-0.34l0.43-0.43l-0.43,20L665.5,212.06z M665.5,212.06l-0.43-20v-0.41h0.43
				c7.84-0.11,23.59-0.29,31.41-0.36l31.41-0.13h0.89v0.89l-0.09,20v0.82h-0.8h-15.85c-10.01-0.13-36.63-0.57-46.98-0.75
				L665.5,212.06z"/>
			<circle class="st1" cx="120.93" cy="249.28" r="77"/>
			<circle class="st2" cx="124.43" cy="251.01" r="73.46"/>
			<circle class="st0" cx="124.45" cy="251.01" r="68.83"/>
			<path class="st3" d="M191.7,236.42c-31.34,18.98-82.84,50.14-111.63,67.21c-8.14-6.86-14.58-15.52-18.82-25.28l95.22-88.24
				C174.49,199.58,187.38,216.53,191.7,236.42z"/>
			<path class="st3" d="M193.22,253.43c-0.25,7.65-1.79,15.21-4.56,22.35l-85.77,40.6c-3.74-1.24-7.36-2.8-10.83-4.66
				C117.92,296.83,165.29,269.48,193.22,253.43z"/>
			<rect x="123.78" y="187.19" class="st4" width="1.32" height="10.44"/>
			
				<rect x="94.49" y="195.03" transform="matrix(0.866 -0.5 0.5 0.866 -87.3747 74.4074)" class="st4" width="1.34" height="10.44"/>
			
				<rect x="73.01" y="216.49" transform="matrix(0.5 -0.866 0.866 0.5 -155.1641 174.6551)" class="st4" width="1.32" height="10.44"/>
			<rect x="60.62" y="250.36" class="st4" width="10.44" height="1.32"/>
			
				<rect x="68.48" y="279.64" transform="matrix(0.8659 -0.5002 0.5002 0.8659 -130.3155 74.4371)" class="st4" width="10.44" height="1.32"/>
			
				<rect x="89.92" y="301.13" transform="matrix(0.4994 -0.8664 0.8664 0.4994 -213.836 233.5014)" class="st4" width="10.44" height="1.32"/>
			<rect x="123.78" y="304.41" class="st4" width="1.32" height="10.44"/>
			
				<rect x="153.08" y="296.56" transform="matrix(0.866 -0.5 0.5 0.866 -130.2926 117.3031)" class="st4" width="1.32" height="10.44"/>
			
				<rect x="174.54" y="275.14" transform="matrix(0.5002 -0.8659 0.8659 0.5002 -155.194 291.8485)" class="st4" width="1.32" height="10.44"/>
			<rect x="177.84" y="250.36" class="st4" width="10.44" height="1.32"/>
			
				<rect x="169.99" y="221.07" transform="matrix(0.8659 -0.5002 0.5002 0.8659 -87.4097 117.3541)" class="st4" width="10.44" height="1.32"/>
			
				<rect x="148.52" y="199.58" transform="matrix(0.4995 -0.8663 0.8663 0.4995 -96.5291 233.3891)" class="st4" width="10.44" height="1.32"/>
			<polygon class="st4" points="125.45,191.91 127.71,255.66 121.17,255.59 123.68,191.89 			"/>
			<polygon class="st5" points="165.15,228.79 122.26,256.16 119.14,250.43 164.31,227.23 			"/>
			<path class="st4" d="M126.68,251.02c0,1.23-1,2.23-2.23,2.23s-2.23-1-2.23-2.23c0-1.23,1-2.23,2.23-2.23
				S126.68,249.78,126.68,251.02z"/>
		</g>
		<g id="freepik--character-2--inject-2">
			<path class="st6" d="M572.87,312.93c4.99,0.54,26.57-2.43,41.42,16.94c14.04,18.33,20.03,74.85,23.23,87.11
				s19.41,13.79,23.52,28.04c3.57,12.26-5.36,16.98-6.06,26.04c-0.57,7.02,6.7,17.39,0.52,27.89c-5.61,9.54-15.89,7.77-22,10.85
				s-9.67,17.48-21.03,21.57c-11.36,4.09-21.68-6.11-27.75-5.93c-6.08,0.18-12.87,18.96-32.7,17.74s-25.91-17.87-34.15-20.98
				c-8.24-3.11-28.59,3-38.24-7.02c-9.65-10.02-11.49-23.62-15.81-28.59s-13.12-3.95-18.62-15.46s5.16-19.1,6.47-29.22
				c0.91-7.04-5.45-13.37-1.3-24.18c5.74-14.88,23.84-12.12,30.38-27.39c5.15-11.99,15.22-63.86,46.16-77.23
				C548.26,303.9,572.87,312.93,572.87,312.93z"/>
			<path class="st6" d="M636.78,414.03c1.24,2.57,3.08,4.81,5.36,6.52l6.58,5.36c4.47,3.31,8.4,7.3,11.65,11.81
				c3.03,4.38,3.85,9.92,2.22,14.99c-0.96,2.51-2.3,4.87-3.98,6.97c-1.95,2.29-3.55,4.85-4.74,7.61c-0.7,3.12-0.35,6.39,1,9.29
				c0.96,2.73,2.05,5.36,2.88,7.95c1.79,5.2,2.22,10.72-0.2,15.53c-1.13,2.34-3.02,4.23-5.36,5.36c-2.47,1.13-5.14,1.77-7.86,1.88
				c-2.77,0.27-5.61,0.23-8.45,0.34c-2.84,0.11-5.91,0.29-8.22,2.04c2.57-1.15,5.41-1.56,8.2-1.18c2.82,0.14,5.66,0.41,8.54,0.39
				c2.97,0.04,5.91-0.51,8.67-1.61c2.84-1.25,5.18-3.42,6.65-6.15c3.22-5.36,2.48-12.1,0.8-17.53c-0.82-2.81-1.89-5.49-2.77-8.09
				c-0.88-2.61-1.59-5.2-0.86-7.29c1.61-4.56,6.63-8.7,8.43-14.62c1.9-5.92,0.8-12.39-2.95-17.35c-3.6-4.55-7.91-8.49-12.76-11.67
				l-6.99-4.84C640.29,418.28,638.3,416.33,636.78,414.03z"/>
			<path class="st6" d="M498.64,342.86c-5.22,8.81-8.36,18.58-12.42,27.82c-2.04,4.63-3.9,9.33-6.25,13.72
				c-1.1,2.19-2.45,4.24-4,6.13c-0.32,0.44-0.7,0.82-1.14,1.13c-0.4,0.38-0.85,0.69-1.34,0.93c-1.05,0.59-2.18,1.11-3.31,1.63
				c-4.72,2.01-9.32,4.27-13.79,6.77c-4.74,2.57-8.55,6.56-10.92,11.4c-1.14,2.49-1.63,5.23-1.43,7.97c0.34,2.64,1.18,5.19,2.48,7.5
				c2.47,4.47,4.79,8.93,5.04,14.12c0.52-5.16-1.64-10.19-3.57-14.78c-1.06-2.19-1.7-4.56-1.88-6.99c-0.05-2.36,0.51-4.69,1.63-6.77
				c2.37-4.21,5.9-7.65,10.17-9.92c4.44-2.36,8.99-4.48,13.65-6.36c1.18-0.57,2.34-1.14,3.57-1.79c1.26-0.72,2.37-1.67,3.27-2.81
				c1.65-2.09,3.06-4.35,4.22-6.75c2.25-4.62,4.2-9.37,5.86-14.22l4.95-14.42C494.88,352.3,496.62,347.52,498.64,342.86z"/>
			<path class="st6" d="M458.86,483.27c2.23,2.88,2.59,6.67,3.48,10.13c0.89,3.47,1.68,7.15,2.7,10.72
				c0.98,3.59,2.34,7.07,4.04,10.38c1.72,3.51,4.27,6.55,7.43,8.85c7.02,4.29,15.22,3.57,22.3,2.14c3.57-0.75,7.15-1.68,10.72-2.32
				c3.51-0.93,7.19-0.99,10.72-0.18c-3.43-1.42-7.18-1.91-10.86-1.41c-3.68,0.36-7.27,1.02-10.85,1.45c-7,0.89-14.49,1.16-20.1-2.39
				c-2.74-1.99-4.98-4.59-6.54-7.59c-1.7-3.12-3.16-6.36-4.36-9.7c-1.27-3.36-2.38-6.83-3.57-10.27c-0.61-1.79-1.25-3.45-1.97-5.15
				C461.4,486.11,460.31,484.51,458.86,483.27z"/>
			<path class="st7" d="M674.95,731.36c0,0-42.89,157.51-53.2,180.76H455.57c28.72-75.05,59.07-173.45,59.95-180.28
				c0-0.32,0-0.48,0-0.48L674.95,731.36z"/>
			<path class="st6" d="M651.65,752.32c-1.04,12.78-47.55,148.81-51.46,159.8h-2.39c0,0,50.52-150.47,53.23-159.8
				C651.08,751.93,651.7,751.93,651.65,752.32z"/>
			<path class="st6" d="M538.5,731.35l21.44,141.41l0.77,4.81l0,0l1.89,12.78l0.14,0.91l0.52,3.41l0,0l2.63,17.4h55.82
				c10.33-23.23,53.2-180.78,53.2-180.78L538.5,731.35z"/>
			<path class="st7" d="M758.29,912.13H601.04c0-0.68-0.09-1.2-0.11-1.64s-0.11-1.07-0.11-1.07c-0.88-0.48-1.79-0.96-2.64-1.43
				c-9.26-5.04-17.37-8.93-24.05-11.94c-1.14-0.5-2.23-0.98-3.29-1.48c-3.04-1.3-5.75-2.41-8.01-3.29
				c-5.79-2.31-8.93-3.32-8.93-3.32c-0.2-0.48-0.36-0.95-0.54-1.43c-22.8-58.02-36.52-146.44-37.81-154.67c0-0.45,0-0.63,0-0.63
				h224.52C753.45,773.05,780.27,849.96,758.29,912.13z"/>
			<path class="st6" d="M545.76,883.8c19.05,6.56,37.44,15.87,55.02,25.62c0.31,0.14,0.45,0.5,0.31,0.81
				c-0.14,0.31-0.5,0.45-0.81,0.31l0,0c-18.55-7.95-37.52-15.56-55.52-24.53c-0.61-0.28-0.88-1-0.61-1.61
				C544.43,883.8,545.15,883.53,545.76,883.8z"/>
			<path class="st6" d="M539.86,756.59c0-0.64,1.18-0.79,1.18-0.09c-0.01,20.68,1.03,41.35,3.11,61.93
				c0.86,9.56,8.54,62.33,25.02,58.48c2.77-0.66,4.2-3.38,4.63-7.56c0.52-5.02-1.38-11.19-2.2-16.19
				c-1.79-11.04-3.32-22.12-4.27-33.29c-1.93-20.77-1.7-41.69,0.68-62.42c0-0.3,0.24-0.54,0.54-0.54s0.54,0.24,0.54,0.54l0,0
				c0,28.84,0.73,57.61,5.04,86.18c2.07,13.72,8.93,34.38-5.36,36.51s-24.07-32.47-25.86-41.94
				C537.97,811.84,537.77,783.33,539.86,756.59z"/>
			<path class="st6" d="M568.88,878.35c1.47,3.56,2.71,7.22,3.72,10.94c1.06,2.86,1.59,5.89,1.55,8.93
				c-0.07,0.35-0.42,0.57-0.76,0.49c-0.15-0.03-0.29-0.12-0.38-0.24c-1.95-2.47-2.77-5.83-3.86-8.76
				c-1.25-3.38-2.59-6.74-3.75-10.15c-0.34-0.96,0.17-2.01,1.13-2.35C567.49,876.88,568.55,877.39,568.88,878.35z"/>
			<path class="st6" d="M643.73,773.86c-0.04-2.3,0.2-4.6,0.7-6.84c0.06-0.19,0.26-0.29,0.45-0.23c0.11,0.04,0.19,0.12,0.23,0.23
				c0.47,1.94,0.73,3.92,0.77,5.91c0.23,2.27,0.54,4.54,0.77,6.81c0.5,4.64,1.31,9.25,2.43,13.78c2.11,8.59,6.51,16.45,12.72,22.75
				c6.16,6.05,13.44,10.83,21.44,14.08c8.93,3.77,18.26,5.16,27.45,7.86c0.18,0.08,0.26,0.3,0.17,0.47
				c-0.05,0.11-0.16,0.19-0.28,0.2c-10.19-0.01-20.28-2-29.72-5.84c-8.36-3.14-15.96-8.01-22.3-14.3
				c-6.38-6.46-10.88-14.54-13.01-23.37c-1.05-4.54-1.65-9.17-1.79-13.83C643.6,778.98,643.59,776.42,643.73,773.86z"/>
			<path class="st6" d="M736.26,912.13c10.47-44.48,6.77-93.47-2.43-137.91c-2-10.19-4.95-21.26-7.38-31.32
				c2.34,6.77,4.74,13.54,6.83,20.41C746.71,809.75,752.04,865.68,736.26,912.13L736.26,912.13z"/>
			<path class="st8" d="M580.42,523.82c-28.16,50.68-81.98,143.27-119.72,153.01c-36.18,9.36-109.54-50.03-170.18-86.84
				c-12.06-7.33,66.49-83.45,78.96-75.05c32.59,22.16,71.19,57.77,79.8,55.59c7.04-1.79,58.47-45.98,91.35-71.48
				C593.02,458.59,600.26,488.17,580.42,523.82z"/>
			<path class="st8" d="M290.54,589.98c-10.42-6.43-55.57-40.08-66.12-52.25c-10.54-12.17-37.94-49.41-29.48-58.38
				s17.46,1.29,17.46,1.29s-9.17-17.55,0.21-25.8c9.38-8.26,22.8,8.17,22.8,8.17s-8.09-18.73,1.79-26.29
				c9.88-7.56,20.76,11.2,20.76,11.2s-8.2-16.78,2.63-19.55c13.01-3.34,24.62,29.31,37.2,41.87c2.86,2.86,61.97,53.77,61.97,53.77
				L290.54,589.98z"/>
			<path class="st6" d="M256.98,446.34c8.59,23.98,16.51,32.99,36.27,48.42c0.17,0.14,0.19,0.39,0.05,0.55
				c-0.11,0.13-0.3,0.18-0.46,0.11c-20.73-13.37-32.27-23.23-37.04-48.73C255.57,445.44,256.57,445.19,256.98,446.34z"/>
			<path class="st6" d="M234.73,461.1c11.11,24.12,19.66,33.95,39.12,51.64c0.29,0.25-0.11,0.75-0.41,0.52
				c-20.59-15.76-31.9-25.86-39.83-51.41C233.27,460.68,234.25,459.99,234.73,461.1z"/>
			<path class="st6" d="M213.41,481.52c12.51,22.59,21.3,33.77,42.44,48.51c0.2,0.18,0.21,0.49,0.02,0.68
				c-0.13,0.14-0.34,0.19-0.52,0.12c-23.02-12.94-34.17-26.8-42.58-48.87C212.2,480.47,212.63,480.11,213.41,481.52z"/>
			<polygon class="st9" points="140.53,380.63 246.01,387.64 330.08,346.95 402.84,468.05 317.72,499.32 318.97,502.59 
				301.19,506.89 299.65,504.05 205.69,499.28 			"/>
			<path class="st1" d="M305.3,500.62c0,0,30.95-15.06,57.5-23.23c12.51-3.86,27.89-10.38,27.89-10.38l0.11-8.18
				C390.8,458.83,329.44,470.35,305.3,500.62z"/>
			<path class="st0" d="M244.42,384.6c0,0,11.08-15.42,36.77-23.02c11.69-3.47,30-4.02,44.55-15.26L390.8,458.9
				c0,0-55.21,12.94-85.5,41.8L244.42,384.6z"/>
			<path class="st1" d="M244.42,384.6c9.68-11.88,23.84-19.5,38.42-23.64c7.42-1.93,14.99-2.97,22.3-5.07
				c7.5-1.96,14.54-5.36,20.73-10.02c0.18,0,65.2,112.57,65.38,112.66l0.29,0.52l-0.57,0.14c-7.74,1.93-15.39,4.31-22.94,6.93
				c-22.46,8.02-44.67,18.39-62.43,34.67l-0.32,0.3c-0.25,0-60.54-116.38-60.75-116.56L244.42,384.6z M244.42,384.6
				c-0.21,0,62.42,116.88,60.75,115.79c5.92-5.43,12.32-10.31,19.12-14.6c13.73-8.32,28.31-15.15,43.49-20.39
				c7.56-2.66,15.21-5.07,23.02-7l-0.29,0.64c0.14,0-65.9-113.34-64.52-112.57c-12.31,9.65-28.23,11.4-42.97,14.76
				c-14.58,4.02-28.75,11.51-38.51,23.23L244.42,384.6z"/>
			<path class="st0" d="M305.3,500.62L244.42,384.6c0,0-59.29-17.87-80.41-14.13l-20.41,7.93l65.08,117.08L305.3,500.62z"/>
			<path class="st1" d="M305.3,500.62c0,0-61.63-116.49-60.97-115.72c-19.62-5.96-39.64-10.48-59.91-13.54
				c-6.72-1.04-13.55-1.2-20.32-0.48c0.34-0.18-20.42,8.01-20.37,7.93l0.21-0.63l64.94,117.17c-1.18-0.25,96.65,5.36,96.49,5.36
				L305.3,500.62z M305.3,500.62l-96.81-4.88c-0.36-0.82-65.22-116.84-65.56-117.58l0.48-0.18l20.51-7.93
				c6.86-0.71,13.79-0.54,20.6,0.52c20.3,3.13,40.36,7.72,60,13.72c0.43,0,60.5,116.15,60.75,116.33L305.3,500.62z"/>
			<path class="st1" d="M164.02,370.46l59.34,115.63c0,0,55.68,5.58,81.93,14.53l-96.65-5.15L143.6,378.4L164.02,370.46z"/>
			<path class="st2" d="M244.42,384.6c5.31,9.53,10.55,19.11,15.72,28.75l15.37,28.93l15.06,29.09c4.99,9.7,9.9,19.45,14.72,29.25
				c-5.3-9.53-10.54-19.11-15.71-28.75l-15.37-28.93l-15.06-29.07C254.18,404.15,249.27,394.39,244.42,384.6z"/>
			<path class="st6" d="M257.69,390.96c4.48-3.94,9.39-7.35,14.63-10.19c5.22-2.88,10.72-5.25,16.4-7.06
				c5.7-1.79,11.47-3.2,17.24-4.66c2.88-0.73,5.75-1.47,8.61-2.27c2.88-0.71,5.71-1.62,8.47-2.73c-5.5,2.27-11.18,4.1-16.98,5.47
				c-5.74,1.54-11.49,3.06-17.12,4.9c-5.68,1.72-11.18,3.99-16.42,6.77C267.3,383.98,262.33,387.26,257.69,390.96z"/>
			<path class="st6" d="M309.33,373.36c5.25-1.93,10.72-3.2,15.92-4.95c-2.46,1.33-5.07,2.37-7.77,3.09
				C314.8,372.27,312.08,372.89,309.33,373.36z"/>
			<path class="st6" d="M259.89,395.32c2.96-2.66,6.16-5.05,9.54-7.15c3.37-2.16,6.87-4.1,10.49-5.81
				c7.35-3.13,14.98-5.52,22.8-7.15c-3.81,1.16-7.63,2.31-11.42,3.57c-7.55,2.5-14.8,5.83-21.62,9.92
				C266.3,390.72,263.03,392.93,259.89,395.32z"/>
			<path class="st6" d="M262.09,399.68c4.48-3.94,9.39-7.35,14.63-10.19c5.22-2.88,10.72-5.25,16.4-7.06
				c5.7-1.79,11.47-3.2,17.24-4.66c2.88-0.73,5.75-1.47,8.61-2.27c2.88-0.71,5.71-1.62,8.47-2.73c-5.5,2.27-11.18,4.1-16.98,5.47
				c-5.74,1.54-11.49,3.06-17.12,4.9c-5.68,1.72-11.18,3.99-16.42,6.77C271.7,392.7,266.73,395.98,262.09,399.68z"/>
			<path class="st6" d="M264.29,404.04c4.48-3.94,9.39-7.35,14.63-10.19c5.22-2.91,10.71-5.31,16.4-7.15
				c5.7-1.79,11.47-3.2,17.24-4.66c2.88-0.73,5.75-1.47,8.61-2.27c2.88-0.71,5.71-1.62,8.47-2.73c-5.5,2.27-11.17,4.1-16.96,5.47
				c-5.75,1.54-11.51,3.06-17.14,4.9c-5.68,1.72-11.18,3.99-16.42,6.77C273.9,397,268.92,400.3,264.29,404.04z"/>
			<path class="st6" d="M291.39,393.69c3.31-1.19,6.64-2.38,9.97-3.57c3.32-1.2,6.77-1.98,10.17-2.95l10.24-2.63
				c3.42-0.83,6.78-1.86,10.08-3.09c-3.21,1.47-6.53,2.66-9.94,3.57c-3.38,1-6.81,1.88-10.2,2.79s-6.84,1.79-10.19,2.79
				C298.18,391.6,294.79,392.73,291.39,393.69z"/>
			<path class="st6" d="M266.49,408.4c3-2.88,6.31-5.42,9.86-7.58c1.79-1.07,3.57-2.13,5.45-3.04c1.86-0.92,3.76-1.75,5.7-2.48
				C280.16,399.11,273.13,403.49,266.49,408.4z"/>
			<path class="st6" d="M268.68,412.78c4.47-3.95,9.38-7.37,14.63-10.2c5.22-2.91,10.71-5.31,16.4-7.15
				c5.7-1.79,11.47-3.2,17.24-4.66c2.88-0.73,5.75-1.47,8.61-2.27c2.89-0.71,5.73-1.63,8.49-2.73c-5.51,2.27-11.18,4.09-16.98,5.47
				c-5.75,1.54-11.51,3.06-17.14,4.9c-5.68,1.72-11.18,3.99-16.42,6.77C278.29,405.72,273.32,409.03,268.68,412.78z"/>
			<path class="st6" d="M273.08,421.5c4.47-3.95,9.38-7.37,14.63-10.2c5.23-2.89,10.73-5.25,16.42-7.04
				c5.68-1.79,11.45-3.22,17.23-4.68c2.88-0.73,5.75-1.47,8.61-2.27c2.89-0.71,5.73-1.63,8.49-2.73
				c-5.51,2.27-11.18,4.09-16.98,5.47c-5.75,1.54-11.51,3.06-17.14,4.9c-5.68,1.72-11.17,3.98-16.4,6.77
				C282.7,414.5,277.72,417.78,273.08,421.5z"/>
			<path class="st6" d="M307.55,408.6c3-1.13,6.08-2,9.13-2.88c3.06-0.88,6.18-1.63,9.33-2.18c-3,1.13-6.06,1.98-9.13,2.88
				C313.8,407.31,310.71,408.03,307.55,408.6z"/>
			<path class="st6" d="M275.28,425.86c3.55-3.33,7.47-6.24,11.69-8.67c2.11-1.2,4.23-2.38,6.45-3.38c2.21-1.02,4.47-1.91,6.77-2.68
				c-4.4,2-8.69,4.22-12.87,6.67c-2.09,1.2-4.13,2.52-6.13,3.84S277.19,424.36,275.28,425.86z"/>
			<path class="st6" d="M277.47,430.22c4.47-3.95,9.38-7.37,14.63-10.2c5.23-2.89,10.73-5.25,16.42-7.04
				c5.68-1.79,11.45-3.22,17.23-4.68c2.88-0.73,5.75-1.47,8.61-2.27c2.89-0.71,5.73-1.63,8.49-2.73
				c-5.51,2.27-11.18,4.09-16.98,5.47c-5.75,1.54-11.51,3.06-17.14,4.9c-5.68,1.72-11.17,3.98-16.4,6.77
				C287.09,423.22,282.11,426.5,277.47,430.22z"/>
			<path class="st6" d="M281.87,438.94c4.47-3.95,9.38-7.37,14.63-10.2c5.23-2.89,10.73-5.25,16.42-7.04
				c5.68-1.79,11.47-3.22,17.23-4.68c2.88-0.73,5.75-1.47,8.61-2.27c2.91-0.72,5.76-1.65,8.54-2.77
				c-5.51,2.27-11.18,4.09-16.98,5.47c-5.75,1.55-11.51,3.06-17.14,4.9c-5.68,1.71-11.17,3.99-16.4,6.79
				C291.52,431.92,286.52,435.2,281.87,438.94z"/>
			<path class="st6" d="M284.07,443.3c4.47-3.95,9.38-7.37,14.63-10.2c5.23-2.88,10.73-5.24,16.42-7.04
				c5.68-1.79,11.47-3.22,17.23-4.68c2.88-0.73,5.75-1.47,8.61-2.27c2.89-0.71,5.73-1.63,8.49-2.73c-5.5,2.27-11.18,4.1-16.98,5.47
				c-5.75,1.55-11.51,3.06-17.14,4.9c-5.68,1.71-11.17,3.99-16.4,6.79C293.68,436.3,288.7,439.58,284.07,443.3z"/>
			<path class="st6" d="M331.49,431.72c3.68-1.29,7.45-2.27,11.19-3.32l5.61-1.54c1.79-0.55,3.72-1.09,5.56-1.79
				c-3.51,1.72-7.2,3.06-10.99,4C339.1,430.08,335.32,431,331.49,431.72z"/>
			<path class="st6" d="M307.99,439.62c1.55-0.8,3.11-1.59,4.7-2.32s3.23-1.3,4.88-1.89c3.31-1.09,6.68-1.98,10.1-2.64
				c-3.27,1.22-6.59,2.2-9.86,3.32C314.53,437.21,311.28,438.51,307.99,439.62z"/>
			<path class="st6" d="M288.46,452.02c1.96-2,4.12-3.79,6.43-5.36c1.18-0.75,2.34-1.52,3.57-2.2c1.21-0.69,2.46-1.32,3.73-1.88
				C297.59,445.75,293,448.77,288.46,452.02z"/>
			<path class="st6" d="M336.58,435.33c3.22-1.14,6.5-2.02,9.76-2.97l4.88-1.38c1.63-0.48,3.25-0.95,4.86-1.54
				c-3.05,1.53-6.26,2.72-9.56,3.57C343.21,433.93,339.91,434.76,336.58,435.33z"/>
			<path class="st6" d="M290.66,456.38c2.82-2.59,5.87-4.91,9.11-6.95c3.22-2.08,6.56-3.97,10.01-5.65
				c6.98-3.13,14.27-5.53,21.75-7.15c-3.57,1.14-7.29,2.25-10.9,3.45c-3.6,1.21-7.12,2.66-10.54,4.32
				c-3.45,1.59-6.8,3.38-10.04,5.36C296.8,451.8,293.67,454.01,290.66,456.38z"/>
			<path class="st6" d="M292.86,460.74c4.47-3.95,9.38-7.37,14.63-10.2c5.23-2.88,10.73-5.24,16.42-7.04
				c5.68-1.79,11.47-3.22,17.23-4.68c2.88-0.73,5.75-1.47,8.61-2.27c2.89-0.71,5.73-1.63,8.49-2.73c-5.5,2.27-11.18,4.1-16.98,5.47
				c-5.75,1.55-11.49,3.06-17.14,4.9c-5.68,1.72-11.17,4-16.4,6.79C302.48,453.76,297.5,457.03,292.86,460.74z"/>
			<path class="st6" d="M319.97,450.37c6.57-2.64,13.31-4.81,20.19-6.49l10.24-2.63c3.42-0.83,6.79-1.87,10.1-3.09
				c-6.41,3.02-13.38,4.52-20.16,6.41l-10.2,2.72C326.69,448.25,323.29,449.21,319.97,450.37z"/>
			<path class="st6" d="M295.06,465.1c2.9-2.77,6.08-5.23,9.49-7.34c1.79-1.02,3.43-2.05,5.24-2.95c1.79-0.9,3.62-1.72,5.49-2.43
				C308.23,456.12,301.48,460.38,295.06,465.1z"/>
			<path class="st6" d="M297.27,469.46c4.47-3.95,9.38-7.37,14.63-10.2c5.23-2.88,10.73-5.24,16.42-7.04
				c5.68-1.79,11.47-3.22,17.23-4.68c2.88-0.73,5.75-1.47,8.63-2.27c2.88-0.72,5.71-1.63,8.47-2.73c-5.5,2.27-11.18,4.1-16.98,5.47
				c-5.74,1.55-11.49,3.06-17.14,4.9c-5.68,1.72-11.17,4-16.4,6.79C306.89,462.48,301.92,465.75,297.27,469.46z"/>
			<path class="st6" d="M299.45,473.82c2.7-2.47,5.6-4.7,8.67-6.68c3.06-2,6.24-3.83,9.51-5.47c3.29-1.6,6.71-2.92,10.22-3.93
				c3.47-1.11,6.97-2.13,10.49-3.09c-3.43,1.19-6.87,2.38-10.33,3.57c-3.47,1.08-6.84,2.47-10.08,4.13
				c-3.28,1.56-6.47,3.31-9.54,5.24C305.3,469.5,302.32,471.58,299.45,473.82z"/>
			<path class="st6" d="M180.93,381.49c10.01,0.68,19.94,2.16,29.84,3.73c4.93,0.89,9.85,1.88,14.74,2.97
				c4.91,1.02,9.76,2.31,14.58,3.66c-4.9-1.09-9.77-2.2-14.69-3.2c-4.91-1-9.83-1.91-14.76-2.72c-4.93-0.8-9.86-1.79-14.83-2.43
				S185.9,382.1,180.93,381.49z"/>
			<path class="st6" d="M216.38,390.07c2.18,0.27,4.36,0.55,6.5,1.02l6.45,1.38c4.27,1,8.56,1.98,12.78,3.23
				c-4.36-0.66-8.65-1.61-12.94-2.54C224.89,392.23,220.65,391.09,216.38,390.07z"/>
			<path class="st6" d="M182.91,385.31c4.65,0.16,9.26,0.7,13.85,1.27c4.59,0.57,9.17,1.39,13.69,2.45
				c-4.63-0.46-9.2-1.14-13.79-1.79C192.06,386.6,187.52,386.06,182.91,385.31z"/>
			<path class="st6" d="M184.97,389.16c7.56,0.43,15.05,1.5,22.51,2.54c7.47,1.04,14.9,2.57,22.25,4.43
				c-7.47-1.25-14.87-2.68-22.35-3.72C199.89,391.37,192.45,390.19,184.97,389.16z"/>
			<path class="st6" d="M186.99,393c10.01,0.68,19.92,2.16,29.82,3.73c4.96,0.89,9.88,1.88,14.76,2.97
				c4.9,1.04,9.76,2.31,14.56,3.68c-4.88-1.11-9.76-2.22-14.67-3.22c-4.91-1-9.83-1.91-14.78-2.72c-4.95-0.8-9.86-1.79-14.81-2.43
				S191.95,393.62,186.99,393z"/>
			<path class="st6" d="M231.46,403.33c2.84,0.36,5.63,0.98,8.43,1.59c2.81,0.61,5.56,1.36,8.26,2.31c-2.86-0.36-5.63-1-8.43-1.61
				C236.91,405.01,234.18,404.27,231.46,403.33z"/>
			<path class="st6" d="M189.01,396.84c6.2,0.3,12.37,1.07,18.49,1.93c6.13,0.86,12.26,1.98,18.3,3.43
				C213.52,400.38,201.28,398.55,189.01,396.84z"/>
			<path class="st6" d="M235.84,411.08c2.79,0.34,5.52,0.95,8.26,1.55s5.36,1.32,8.09,2.25c-2.81-0.34-5.52-0.96-8.26-1.55
				C241.2,412.74,238.5,411.97,235.84,411.08z"/>
			<path class="st6" d="M219.54,408.04c2.21,0.15,4.41,0.43,6.59,0.84c2.19,0.38,4.35,0.89,6.47,1.54
				c-2.21-0.15-4.41-0.43-6.59-0.84C223.83,409.2,221.67,408.69,219.54,408.04z"/>
			<path class="st6" d="M193.03,404.5c3.23,0.11,6.43,0.48,9.63,0.84c3.2,0.36,6.38,0.86,9.52,1.55c-3.23-0.11-6.43-0.48-9.61-0.84
				C199.39,405.7,196.21,405.2,193.03,404.5z"/>
			<path class="st6" d="M195.05,408.4c10.01,0.68,19.94,2.16,29.84,3.75c4.93,0.88,9.85,1.86,14.74,2.95
				c4.91,1.04,9.76,2.31,14.58,3.68c-4.9-1.09-9.77-2.22-14.67-3.22c-4.9-1-9.85-1.91-14.78-2.72c-4.93-0.8-9.86-1.79-14.81-2.43
				S200.03,408.97,195.05,408.4z"/>
			<path class="st6" d="M197.06,412.19c10.01,0.68,19.94,2.16,29.84,3.73c4.93,0.89,9.85,1.88,14.74,2.97
				c4.91,1.02,9.76,2.31,14.58,3.68c-4.9-1.11-9.77-2.22-14.69-3.22c-4.91-1-9.83-1.91-14.76-2.72c-4.93-0.8-9.86-1.79-14.83-2.43
				S202.05,412.81,197.06,412.19z"/>
			<path class="st6" d="M199.08,416.03c6.88,0.36,13.71,1.23,20.51,2.22c6.81,0.98,13.56,2.29,20.25,3.93
				c-6.79-1.05-13.56-2.23-20.35-3.22C212.7,417.98,205.89,416.98,199.08,416.03z"/>
			<path class="st9" d="M207.18,425.11l22.55,45.12c17.92,2.05,35.7,5.17,53.25,9.35l-24.25-44.9
				C258.73,434.67,220.67,425.25,207.18,425.11z"/>
			<path class="st8" d="M376.9,527.18c0,0-8.15-30.88-14.62-43.73c-6.47-12.85-48.46-51.46-57.32-42.89
				c-11.44,11.08,8.36,38.17,19.78,50.18c0,0-26.5,25.59-16.49,48.1C318.25,561.36,376.9,527.18,376.9,527.18z"/>
			<path class="st6" d="M302.81,444.71c-3.14,17.64,12.87,32.41,23.09,44.89c0.54,0.61,0.49,1.55-0.13,2.09
				c-0.13,0.11-0.27,0.2-0.43,0.27c-10.4,11.47-21.71,30.68-18.05,46.58c0.06,0.2-0.04,0.41-0.24,0.47
				c-0.2,0.06-0.41-0.04-0.47-0.24c-6.25-16.53,3.34-36.31,15.53-48.14C311.39,478,296,462.47,302.65,444.67L302.81,444.71z"/>
			<path class="st10" d="M381.26,517.4l-63.51,105.62c0,0,113.54,67.88,147.49,57.73c33.95-10.15,95.83-114.06,115.7-154.67
				s8.93-62.54-31.52-34.24s-95.4,73.23-102.05,73.8S381.26,517.4,381.26,517.4z"/>
			<path class="st7" d="M543.52,592c-0.23,0.36-0.48,0.73-0.71,1.13h-1.29c-3.19-0.01-5.78-2.6-5.79-5.79
				c-0.01-2.57-2.09-4.65-4.66-4.66h-3.57v-1.13h3.57c3.2,0,5.79,2.59,5.79,5.79c0.01,2.57,2.09,4.65,4.66,4.66H543.52z
				 M549.98,535.81l-2.41-2.32c-1.82-1.82-1.82-4.77,0-6.59c2.26-2.26,2.26-5.92,0-8.18l-2.56-2.56l-0.8,0.79l2.56,2.56
				c1.82,1.82,1.82,4.77,0,6.59c-2.26,2.26-2.27,5.92-0.01,8.19c0,0,0.01,0.01,0.01,0.01l2.41,2.41L549.98,535.81z M571.95,492.65
				c1.82-1.82,4.77-1.82,6.59,0c1.08,1.09,2.56,1.7,4.09,1.7l0,0c1.54,0,3.01-0.61,4.09-1.7l2.56-2.56l-0.8-0.8l-2.56,2.56
				c-0.87,0.88-2.05,1.37-3.29,1.38l0,0c-1.24,0-2.42-0.5-3.29-1.38c-2.27-2.25-5.93-2.25-8.2,0l-2.41,2.43l0.8,0.79L571.95,492.65z
				 M506.13,619.75h-3.36c-2.58,0-4.66-2.09-4.66-4.66c-0.01-3.19-2.6-5.78-5.79-5.79h-3.57v1.13h3.57
				c2.57,0.01,4.65,2.09,4.65,4.66c0.01,3.2,2.61,5.79,5.81,5.79h3.41L506.13,619.75z M388.4,614.18h-3.41
				c-2.57,0-4.65-2.08-4.66-4.65c0-3.2-2.59-5.8-5.79-5.81h-3.57v1.23h3.57c2.57,0.01,4.65,2.09,4.65,4.66
				c0.01,3.2,2.61,5.79,5.81,5.79h3.41V614.18z M501.77,560.11l-2.43-2.41c-1.8-1.83-1.8-4.76,0-6.59c2.26-2.27,2.26-5.94,0-8.2
				l-2.54-2.54l-0.8,0.79l2.56,2.56c1.8,1.83,1.8,4.76,0,6.59c-2.26,2.25-2.27,5.9-0.02,8.16c0.01,0.01,0.01,0.01,0.02,0.02
				l2.41,2.43L501.77,560.11z M464.79,664.91l-2.41-2.43c-1.82-1.82-1.82-4.77,0-6.59c2.26-2.26,2.26-5.92,0-8.18l-2.5-2.56
				l-0.8,0.8l2.56,2.56c1.82,1.82,1.82,4.77,0,6.59c-2.25,2.26-2.25,5.92,0,8.18l2.41,2.41L464.79,664.91z M368.3,647.7l-2.57-2.56
				l-0.79,0.8l2.56,2.54c0.6,0.62,1.03,1.39,1.25,2.23l1.22,0.61c-0.12-1.37-0.72-2.66-1.7-3.63H368.3z M412.24,575.33l-2.39-2.41
				c-1.82-1.82-1.82-4.77,0-6.59c2.26-2.26,2.26-5.92,0-8.18l-2.56-2.56l-0.8,0.8l2.56,2.56c1.82,1.81,1.82,4.75,0.01,6.57
				c0,0,0,0-0.01,0.01c-2.25,2.27-2.25,5.93,0,8.2l2.41,2.41L412.24,575.33z M423.93,617.68c1.84-1.76,4.75-1.76,6.59,0
				c2.27,2.26,5.94,2.26,8.2,0l2.54-2.56l-0.79-0.8l-2.56,2.56c-1.82,1.82-4.77,1.82-6.59,0c-2.26-2.26-5.92-2.26-8.18,0l-2.47,2.38
				l0.8,0.79L423.93,617.68z M341,624.31l-2.63,2.56c-1.81,1.82-4.75,1.82-6.57,0.01c0,0,0,0-0.01-0.01
				c-1.09-1.09-2.57-1.7-4.11-1.7c-1.4,0.01-2.74,0.51-3.81,1.41l1.07,0.61c1.87-1.3,4.4-1.09,6.04,0.48c2.26,2.26,5.92,2.26,8.18,0
				l2.56-2.56L341,624.31z M455.2,589.23c0-2.58,2.09-4.66,4.66-4.66c3.19-0.01,5.78-2.6,5.79-5.79v-3.41h-1.14v3.41
				c0.04,2.58-2.02,4.7-4.59,4.73c-0.01,0-0.02,0-0.04,0c-3.2,0-5.8,2.59-5.81,5.79v3.57h1.14L455.2,589.23z M417.96,660.07v3.41
				c0,2.58-2.09,4.66-4.66,4.66c-1.3,0-2.56,0.44-3.57,1.25l1.27,0.52c0.7-0.42,1.51-0.63,2.32-0.63c3.2-0.01,5.79-2.61,5.79-5.81
				v-3.41H417.96z M375.54,531.7v3.43c0,2.58-2.09,4.66-4.66,4.66l0,0c-1.55,0.02-3.03,0.66-4.09,1.79l-1.43,2.38l0,0
				c-0.17,0.54-0.26,1.11-0.27,1.68v3.57h1.13v-3.57c0.01-2.57,2.09-4.65,4.66-4.66c3.2,0,5.8-2.59,5.81-5.79v-3.48H375.54z"/>
			<path class="st6" d="M348.75,631.51c20.28-41.8,47.94-82.72,52.27-90.18c0.2-0.34,0.75,0,0.52,0.36
				c-4.61,7.15-31.15,57.18-52.2,90.22C349.09,632.3,348.57,631.92,348.75,631.51z"/>
			<path class="st11" d="M581.03,526.09c-19.89,40.62-81.66,144.51-115.74,154.66c-10.44,3.13-28.32-1.09-48.12-8.45
				c40.96-50.18,117.04-137.89,161.55-193.23C593.9,479.02,594.7,498.16,581.03,526.09z"/>
			<path class="st10" d="M515.36,731.22l3.25-63.04c0,0-19.66-15.06-18.32-49.46c1.02-25.02,54.41-127.37,58.82-131.84
				c17.74-17.87,51.82-16.99,63.61-6.11c59.79,55.5,88.97,138.73,117.35,250.45L515.36,731.22z"/>
			<path class="st7" d="M680.78,651.58h-3.41c-3.2,0-5.79-2.59-5.79-5.79c0-2.58-2.09-4.66-4.66-4.66h-3.57V640h3.57
				c3.2,0,5.79,2.59,5.79,5.79c0,2.58,2.09,4.66,4.66,4.66h3.41V651.58z M544.97,591.99h-3.41c-2.57,0-4.65-2.08-4.66-4.65
				c0-3.2-2.59-5.8-5.79-5.81h-3.57v1.14h3.57c2.58,0,4.66,2.09,4.66,4.66c0.01,3.19,2.6,5.78,5.79,5.79h3.41V591.99z
				 M631.28,576.37h-3.43c-2.58,0-4.66-2.09-4.66-4.66c-0.01-3.19-2.6-5.78-5.79-5.79h-3.57v1.13h3.57c2.57,0.01,4.65,2.1,4.65,4.66
				c0.04,3.18,2.63,5.74,5.81,5.74h3.41L631.28,576.37z M587.75,667.5h-3.41c-2.58,0-4.66-2.09-4.66-4.66
				c-0.01-3.19-2.6-5.78-5.79-5.79h-3.57v1.14h3.57c2.57,0,4.65,2.08,4.66,4.65c0,3.2,2.59,5.8,5.79,5.81h3.41V667.5z
				 M515.27,731.17L515.27,731.17L515.27,731.17C515.27,731.17,515.36,731.18,515.27,731.17z M637.48,684.62l-2.41-2.43
				c-1.82-1.81-1.82-4.75-0.01-6.57c0,0,0,0,0.01-0.01c2.26-2.27,2.26-5.94,0-8.2l-2.56-2.56l-0.8,0.8l2.56,2.56
				c1.82,1.82,1.82,4.77,0,6.59c-2.25,2.26-2.25,5.92,0,8.18l2.52,2.38L637.48,684.62z M703.22,724.13l-2.54-2.56l-0.8,0.8
				l2.56,2.54c1.7,1.72,1.81,4.45,0.27,6.31h1.39c1.4-2.27,1.07-5.2-0.8-7.09H703.22z M671.06,602.03l-2.27-2.43
				c-1.82-1.82-1.82-4.77,0-6.59c2.25-2.26,2.25-5.92,0-8.18l-2.56-2.56l-0.8,0.8l2.56,2.56c1.82,1.81,1.82,4.75,0.01,6.57
				c0,0,0,0-0.01,0.01c-2.25,2.27-2.25,5.93,0,8.2l2.43,2.41L671.06,602.03z M549.98,535.81l-2.41-2.32c-1.82-1.82-1.82-4.77,0-6.59
				c2.26-2.26,2.26-5.92,0-8.18l-2.56-2.56l-0.8,0.79l2.56,2.56c1.82,1.82,1.82,4.77,0,6.59c-2.26,2.26-2.27,5.92-0.01,8.19
				c0,0,0.01,0.01,0.01,0.01l2.41,2.41L549.98,535.81z M623.58,524.64l-2.41-2.43c-1.82-1.81-1.82-4.75-0.01-6.57c0,0,0,0,0.01-0.01
				c2.26-2.27,2.26-5.94,0-8.2l-2.56-2.54l-0.8,0.8l2.56,2.56c1.82,1.82,1.82,4.77,0,6.59c-2.25,2.26-2.25,5.92,0,8.18l2.43,2.43
				L623.58,524.64z M543.17,648.18l-2.41-2.43c-1.82-1.81-1.82-4.75-0.01-6.57c0,0,0,0,0.01-0.01c2.26-2.27,2.26-5.94,0-8.2
				l-2.56-2.56l-0.8,0.8l2.56,2.56c1.82,1.82,1.82,4.77,0,6.59c-2.25,2.26-2.25,5.92,0,8.18l2.41,2.43L543.17,648.18z M658.23,704.2
				c1.82-1.81,4.76-1.81,6.58,0c2.27,2.26,5.94,2.26,8.2,0l2.56-2.56l-0.8-0.79l-2.56,2.56c-1.83,1.8-4.76,1.8-6.59,0
				c-2.25-2.26-5.9-2.27-8.16-0.02c-0.01,0.01-0.01,0.01-0.02,0.02l-2.43,2.41l0.8,0.8L658.23,704.2z M736.44,716.98L736.44,716.98
				l-2.41,2.43l0.79,0.79l1.98-1.98L736.44,716.98z M538.27,693.36c1.82-1.82,4.77-1.82,6.59,0c2.26,2.26,5.92,2.26,8.18,0
				l2.56-2.56l-0.8-0.8l-2.56,2.52c-1.82,1.81-4.76,1.81-6.58,0c-2.26-2.26-5.92-2.27-8.19-0.01c0,0-0.01,0.01-0.01,0.01l-2.41,2.41
				l0.8,0.8L538.27,693.36z M573.85,610.32c1.82-1.82,4.77-1.82,6.59,0c2.27,2.25,5.93,2.25,8.2,0l2.56-2.56l-0.8-0.8l-2.56,2.56
				c-1.83,1.81-4.77,1.81-6.59,0c-2.25-2.26-5.9-2.27-8.16-0.02c-0.01,0.01-0.01,0.01-0.02,0.02l-2.39,2.39l0.8,0.8L573.85,610.32z
				 M705.7,616.02c-2.27-1.22-5.07-0.82-6.9,1l-2.38,2.41l0.79,0.79l2.41-2.38c1.76-1.82,4.65-1.86,6.47-0.11
				c0.04,0.04,0.07,0.07,0.11,0.11l0.23,0.2c-0.27-0.7-0.5-1.38-0.73-2.04V616.02z M571.95,492.72c1.82-1.82,4.77-1.82,6.59,0
				c1.08,1.09,2.56,1.7,4.09,1.7l0,0c1.54,0.01,3.01-0.61,4.09-1.7l2.56-2.56l-0.8-0.8l-2.56,2.56c-0.87,0.88-2.05,1.37-3.29,1.38
				l0,0c-1.24,0-2.42-0.5-3.29-1.38c-2.27-2.25-5.93-2.25-8.2,0l-2.41,2.43l0.8,0.79L571.95,492.72z M700.99,683.8
				c0.01-2.56,2.08-4.64,4.65-4.65c3.2-0.01,5.8-2.6,5.81-5.81v-3.41h-1.14v3.41c0,2.58-2.09,4.66-4.66,4.66
				c-3.19,0.01-5.78,2.6-5.79,5.79v3.57h1.14L700.99,683.8z M590.98,713.82c0-2.58,2.09-4.66,4.66-4.66c3.2,0,5.79-2.59,5.79-5.79
				v-3.43h-1.13v3.31c0,2.58-2.09,4.66-4.66,4.66c-3.2,0-5.79,2.59-5.79,5.79v3.57h1.13V713.82z M617.88,631.28
				c0.01-2.57,2.1-4.65,4.66-4.65c3.2-0.01,5.79-2.61,5.79-5.81v-3.41h-1.13v3.41c0,2.58-2.09,4.66-4.66,4.66
				c-3.19,0.01-5.78,2.6-5.79,5.79v3.57h1.13V631.28z M511.38,656.19v3.41c0.01,0.18,0.01,0.37,0,0.55c0.3,0.45,0.61,0.86,0.89,1.23
				c0.19-0.58,0.28-1.18,0.29-1.79v-3.41H511.38z M576.24,560.46c0.02-2.56,2.1-4.64,4.66-4.65c3.2-0.01,5.79-2.61,5.79-5.81v-3.48
				h-1.13v3.41c0,2.58-2.09,4.66-4.66,4.66c-3.19,0.01-5.78,2.6-5.79,5.79v3.57h1.13V560.46z M502.77,619.75
				c-0.86,0.01-1.7-0.23-2.43-0.68c0,0.41,0,0.84,0,1.25c0.77,0.36,1.61,0.55,2.47,0.55h3.41v-1.13H502.77z M665.37,532.2v2.29
				c0,2.58-2.09,4.66-4.66,4.66c-3.2,0.01-5.79,2.61-5.79,5.81v3.57h1.13v-3.57c0-2.58,2.09-4.66,4.66-4.66
				c3.2-0.01,5.8-2.6,5.81-5.81v-0.52c-0.5-0.66-0.86-1.25-1.25-1.84L665.37,532.2z"/>
			<path class="st6" d="M585.28,656.24c-10.2-0.21-20.4,0.35-30.52,1.66c-5.02,0.73-9.97,1.68-14.92,2.73
				c-2.48,0.54-4.95,0.96-7.43,1.39c-2.6,0.53-5.25,0.74-7.9,0.63c-0.1,0-0.18,0.08-0.18,0.18s0.08,0.18,0.18,0.18
				c2.47,0.39,4.96,0.61,7.45,0.68c2.42-0.03,4.84-0.22,7.24-0.57c5.09-0.68,10.17-1.61,15.26-2.34c10.26-1.48,20.53-2.97,30.88-3.7
				C585.8,657.05,585.77,656.24,585.28,656.24z"/>
			<path class="st6" d="M609.28,667.89c-8.23-1.78-16.55-3.1-24.93-3.93c-4.18-0.39-8.36-0.55-12.51-0.61c-2.02,0-4.02,0-6.04,0
				c-2.02,0-4.41,0.38-6.63,0.38c-0.23,0-0.27,0.36,0,0.38c2.09,0,4.18,0.45,6.25,0.63l6.27,0.52c4.18,0.34,8.36,0.73,12.51,1.05
				c8.38,0.63,16.73,1.32,25.02,2.23C609.68,668.63,609.71,667.98,609.28,667.89z"/>
			<path class="st8" d="M605.44,486.13c-0.27,4.65-14.3,34.68-34.92,37.29c-6.7,0.84-15.06-32.88-15.06-32.88l-1.07-2.57
				l-14.96-36.13l39.2-36.04l5.74-4.86c0,0,3.45,10.15,7.59,22.84l0.61,1.79c0.25,0.71,0.5,1.38,0.7,2.05
				c0.64,1.89,1.3,3.82,1.91,5.75c0.46,1.47,0.93,2.89,1.38,4.47l1.38,4.63C602.33,467.94,605.53,484.16,605.44,486.13z"/>
			<path class="st6" d="M591.97,433.77c-3.94,22.7-17.66,42.52-37.52,54.2l-14.96-36.13l39.2-36.04l5.74-4.86
				C584.43,410.94,587.82,421.09,591.97,433.77z"/>
			<path class="st8" d="M475.3,396.55c0.59,68.62,41.76,76.01,56.56,75.87c13.44-0.13,59.16-2.27,65.67-70.6
				s-25.59-89.74-56.32-91.13C510.47,309.3,474.71,327.99,475.3,396.55z"/>
			<path class="st6" d="M487.83,389.35c1.59-0.32,3.02-0.88,4.56-1.34c1.67-0.25,3.2-1.04,4.38-2.25c0.6-0.93,0.51-2.14-0.23-2.97
				c-1.7-1.39-4.03-1.76-6.08-0.95c-2.17,0.48-4.08,1.76-5.36,3.57c-0.76,1.22-0.38,2.83,0.84,3.59
				C486.5,389.36,487.18,389.48,487.83,389.35z"/>
			<path class="st6" d="M537.02,393.03c-1.58-0.11-3.15-0.32-4.7-0.61c-1.69,0.02-3.33-0.52-4.68-1.54
				c-0.74-0.83-0.83-2.06-0.21-2.98c1.46-1.64,3.69-2.36,5.83-1.88c2.21,0.16,4.28,1.12,5.83,2.7c0.94,1.09,0.81,2.74-0.28,3.68
				C538.3,392.83,537.67,393.05,537.02,393.03z"/>
			<path class="st6" d="M527.62,403.72c0-0.18,0.38,0.2,0.39,0.39c0.11,4.68,1.02,10.01,5.36,11.33c0.13,0,0.13,0.27,0,0.27
				C528.12,415.26,526.98,408.17,527.62,403.72z"/>
			<path class="st6" d="M531.52,398.63c7.49-1,8.93,14.03,1.97,14.94C526.51,414.48,525.26,399.47,531.52,398.63z"/>
			<path class="st6" d="M534.55,399.13c1.38,0.73,2.81,2.11,4.41,2.13s3.07-1.7,4.13-3.32c0.11-0.18,0.25,0,0.27,0.14
				c0.32,2.88-0.52,5.93-3.57,6.65s-5.04-1.7-6.02-4.52C533.59,399.68,533.98,398.84,534.55,399.13z"/>
			<path class="st6" d="M499.73,406.99c0-0.18-0.32,0.27-0.29,0.46c0.86,4.59,1.05,10.01-2.88,12.17c-0.13,0,0,0.3,0,0.25
				C501.62,418.37,501.28,411.21,499.73,406.99z"/>
			<path class="st6" d="M494.87,402.79c-7.5,0.57-5.81,15.56,1.16,15.03S501.18,402.31,494.87,402.79z"/>
			<path class="st6" d="M492.04,403.92c-1.22,1-2.34,2.64-3.9,2.98c-1.55,0.34-3.36-1.04-4.72-2.41c-0.14-0.14-0.27,0-0.25,0.21
				c0.29,2.88,1.79,5.7,4.86,5.77c2.84,0,4.57-2.7,4.97-5.66C493.06,404.25,492.51,403.52,492.04,403.92z"/>
			<path class="st6" d="M533.25,439.78c-0.8,1.34-1.52,3.07-3.13,3.57c-1.69,0.42-3.44,0.46-5.15,0.13
				c-0.08-0.03-0.18,0.01-0.21,0.1c-0.03,0.07,0,0.15,0.06,0.19c1.79,1.47,4.24,1.84,6.38,0.96c1.76-0.97,2.76-2.92,2.52-4.91
				C533.73,439.58,533.38,439.58,533.25,439.78z"/>
			<path class="st6" d="M509.59,426.04c0,0,0.43,7.04,1.07,10.26c0,0.3,0.86,0.3,1.97,0.14c0,0,0.09,0,0.14,0
				c5.85-0.1,11.16-3.46,13.76-8.7c0.16-0.36-0.32-0.61-0.57-0.36c-3.55,3.64-8.19,6.03-13.22,6.81c-0.39-0.84-0.3-12.06-0.82-12.01
				c-2.46,0.72-4.82,1.78-7,3.13c-1.29-14.63-0.23-29.34-1.79-43.89c0-0.25-0.2-0.45-0.45-0.45s-0.45,0.2-0.45,0.45
				c-2.2,15.33-1.07,32.16-0.13,47.33C502.25,430.59,508.41,426.84,509.59,426.04z"/>
			<path class="st6" d="M513.72,434.81c2.24,2.12,4.99,3.64,7.99,4.4c1.64,0.36,3.35,0.2,4.9-0.45c3.38-1.48,2.95-4.72,1.88-7.38
				c-0.58-1.41-1.33-2.75-2.23-3.98C522.97,431.14,518.58,433.74,513.72,434.81z"/>
			<path class="st12" d="M521.71,439.21c1.64,0.36,3.35,0.2,4.9-0.45c3.38-1.48,2.95-4.72,1.88-7.38
				C524.78,432.36,521.44,435.51,521.71,439.21z"/>
			<path class="st6" d="M600.9,399.32c-11.19,3.43-19.16-19.83-19.16-19.83s-23.1,5.25-38.2-26.29c0,0,3.97,15.37,16.4,25.2
				c0,0-41.74,4.84-66.56-25.43c0,0,10.72,15.85,18.57,20.59c0,0-18.19-0.93-29.64-12.94c0,0-2.72,21.3-6.99,27.96
				c0,0-14.3-71.73,53.46-78.98c0,0,41.99-6.54,64.2,22.87C615.2,361.89,600.9,399.32,600.9,399.32z"/>
			<path class="st8" d="M586.75,407.2c0,0,12.88-22.75,23.07-18.37c10.19,4.38,1.91,36.38-9.04,41.71
				c-5.55,3.19-12.64,1.28-15.83-4.28c-0.09-0.15-0.17-0.3-0.25-0.46L586.75,407.2z"/>
			<path class="st6" d="M607.14,397.95c0.18,0,0.23,0.21,0,0.3c-7.67,3.98-11.15,11.78-13.37,19.66c2.09-3.18,5.16-5.09,9.38-2.66
				c0.11,0.08,0.13,0.24,0.04,0.35c-0.05,0.07-0.14,0.1-0.22,0.1c-2.96-0.63-5.99,0.66-7.58,3.23c-1.29,2.11-2.35,4.35-3.14,6.68
				c-0.3,0.75-1.63,0.48-1.43-0.36c-0.01-0.07-0.01-0.13,0-0.2C589.79,414.98,596.33,400.02,607.14,397.95z"/>
			<path class="st0" d="M599.13,431.34c0.45,2.02-0.82,4.03-2.84,4.48c-2.02,0.45-4.03-0.82-4.48-2.84
				c-0.45-2.02,0.82-4.03,2.84-4.48C596.67,428.05,598.68,429.32,599.13,431.34C599.13,431.34,599.13,431.34,599.13,431.34z"/>
			<path class="st8" d="M603.6,525.71c-26.43,45.99-67.31,128.16-77.75,135.8c-37.79,27.64-98.6,81.34-109.72,94.49
				c-14.3,16.9,69.3,84.95,79.95,74.08c7.63-7.77,92.69-81.55,114.88-126.3c14.38-29,28.27-108.82,35.86-160.7
				C654.54,490.2,623.65,490.83,603.6,525.71z"/>
			<path class="st8" d="M308.17,858.43c8.93,9.86,31.38-14.3,31.38-14.3c-1.4,5.56-0.81,11.44,1.66,16.62
				c4.79,8.93,20.87,5.36,20.87,5.36c-0.26,6.07,1.32,12.08,4.54,17.24c5.45,8.06,22.18,6.74,22.18,6.74
				c2.85,5.71,7.67,10.19,13.56,12.63c15.99,5.91,36.6-10.01,49.8-20s41.28-50.69,47.42-57.91l-63.4-85.27
				c0,0-71.94,27.96-85.77,41.9C338.73,793.19,294.5,843.37,308.17,858.43z"/>
			<path class="st6" d="M339.5,843.72c9.4-15.46,22.5-28.59,35.27-41.24c0.29-0.29,0.71,0.18,0.43,0.45
				c-12.85,12.37-22.69,28.48-35.02,41.33c-0.2,0.15-0.48,0.11-0.63-0.09C339.45,844.04,339.43,843.87,339.5,843.72z"/>
			<path class="st6" d="M361.6,864.77c2.48-3.31,5.38-6.27,8.63-8.83c3.27-2.91,6.59-5.75,9.95-8.56
				c6.72-5.61,13.58-11.05,20.59-16.31c0.3-0.23,0.75,0.18,0.43,0.45c-6.7,5.59-13.29,11.29-19.76,17.17
				c-3.22,2.95-6.43,5.91-9.61,8.93c-2.82,3.02-5.97,5.72-9.38,8.04c-0.32,0.15-0.7,0.02-0.86-0.3
				C361.49,865.18,361.5,864.96,361.6,864.77z"/>
			<path class="st6" d="M389.08,889.82c1.79-3.07,5.45-5.36,8.18-7.54c3.13-2.48,6.22-5,9.31-7.52
				c6.18-5.06,12.37-10.11,18.35-15.37c0.3-0.27,0.73,0.18,0.45,0.45c-6.08,5.36-12.06,10.83-18.19,16.17
				c-3,2.61-6.02,5.21-9.04,7.79c-2.57,2.2-5.56,5.24-8.83,6.34c-0.12,0.03-0.23-0.04-0.26-0.16
				C389.04,889.93,389.05,889.87,389.08,889.82z"/>
			<path class="st10" d="M418.78,744.75l99.48,79.71c0,0,74.64-83.56,96.49-119.38c9.13-14.96,27.75-122.78,34.36-158.6
				c8.27-44.67-18.83-75.05-45.82-25.64c-18.98,34.72-75.23,132.03-78.5,134.61C521.53,658.01,418.78,744.75,418.78,744.75z"/>
			<path class="st7" d="M631.28,577.44h-3.43c-3.2,0-5.8-2.59-5.81-5.79c0-2.57-2.08-4.65-4.65-4.66h-3.57v-1.13h3.57
				c3.19,0.01,5.78,2.6,5.79,5.79c-0.03,2.58,2.03,4.69,4.61,4.72c0.02,0,0.04,0,0.05,0h3.41L631.28,577.44z M587.75,667.37h-3.41
				c-2.58,0-4.66-2.09-4.66-4.66c-0.01-3.19-2.6-5.78-5.79-5.79h-3.57v1.14h3.57c2.57,0,4.65,2.08,4.66,4.65
				c0,3.2,2.59,5.8,5.79,5.81h3.41V667.37z M524.21,738.69h-3.43c-2.58,0-4.66-2.09-4.66-4.66c-0.01-3.19-2.6-5.78-5.79-5.79h-3.57
				v1.13h3.57c2.58,0,4.66,2.09,4.66,4.66c0,3.2,2.59,5.79,5.79,5.79h3.43V738.69z M504.7,807.5h-3.41c-2.58,0-4.66-2.09-4.66-4.66
				c-0.01-3.19-2.6-5.78-5.79-5.79h-3.57v1.13h3.57c2.57,0.01,4.65,2.09,4.66,4.66c0,3.2,2.59,5.79,5.79,5.79h3.41V807.5z
				 M623.58,524.64l-2.41-2.43c-1.82-1.81-1.82-4.75-0.01-6.57c0,0,0,0,0.01-0.01c2.26-2.27,2.26-5.94,0-8.2l-2.56-2.54l-0.8,0.8
				l2.56,2.56c1.82,1.82,1.82,4.77,0,6.59c-2.25,2.26-2.25,5.92,0,8.18l2.43,2.43L623.58,524.64z M540.83,645.77
				c-1.82-1.82-1.82-4.77,0-6.59c2.26-2.27,2.26-5.94,0-8.2l-0.43-0.43c-0.18,0.34-0.39,0.68-0.59,1.02l0.21,0.21
				c1.8,1.83,1.8,4.76,0,6.59c-2.26,2.25-2.27,5.9-0.02,8.16c0.01,0.01,0.01,0.01,0.02,0.02l2.41,2.41l0.8-0.79L540.83,645.77z
				 M538.27,693.36c1.82-1.82,4.77-1.82,6.59,0c2.26,2.26,5.92,2.26,8.18,0l2.56-2.56l-0.8-0.8l-2.56,2.52
				c-1.82,1.81-4.76,1.81-6.58,0c-2.26-2.26-5.92-2.27-8.19-0.01c0,0-0.01,0.01-0.01,0.01l-2.41,2.41l0.8,0.8L538.27,693.36z
				 M573.85,610.32c1.82-1.82,4.77-1.82,6.59,0c2.27,2.25,5.93,2.25,8.2,0l2.56-2.56l-0.8-0.8l-2.56,2.56
				c-1.83,1.81-4.77,1.81-6.59,0c-2.25-2.26-5.9-2.27-8.16-0.02c-0.01,0.01-0.01,0.01-0.02,0.02l-2.39,2.39l0.8,0.8L573.85,610.32z
				 M563.02,744.69c1.85-1.75,4.75-1.75,6.59,0c2.27,2.26,5.94,2.26,8.2,0l2.54-2.54l-0.79-0.8l-2.56,2.56
				c-1.83,1.8-4.76,1.8-6.59,0c-2.26-2.26-5.92-2.26-8.18,0l-2.43,2.41l0.8,0.8L563.02,744.69z M590.98,713.76
				c0-2.58,2.09-4.66,4.66-4.66c3.2,0,5.79-2.59,5.79-5.79v-3.43h-1.13v3.36c0,2.58-2.09,4.66-4.66,4.66c-3.2,0-5.79,2.59-5.79,5.79
				v3.57h1.13V713.76z M527.93,785.43c0-2.58,2.09-4.66,4.66-4.66c3.2,0,5.79-2.59,5.79-5.79v-3.43h-1.13v3.43
				c0,2.58-2.09,4.66-4.66,4.66c-3.2,0-5.79,2.59-5.79,5.79v3.57h1.13V785.43z M617.88,631.19c0.01-2.57,2.1-4.65,4.66-4.65
				c3.2-0.01,5.79-2.61,5.79-5.81v-3.41h-1.13v3.41c0,2.58-2.09,4.66-4.66,4.66c-3.19,0.01-5.78,2.6-5.79,5.79v3.57h1.13V631.19z
				 M584.46,554.51c1.2-0.94,1.99-2.31,2.18-3.82L584.46,554.51z M466.53,713.26c-2.57,0-4.65-2.08-4.66-4.65
				c0.01-0.07,0.01-0.13,0-0.2c-0.36,0.29-0.71,0.57-1.05,0.89c0.35,2.9,2.82,5.08,5.74,5.07h3.41v-1.13H466.53z M466.19,765.26
				c1.82-1.82,4.77-1.82,6.59,0c2.27,2.24,5.92,2.24,8.18,0l2.56-2.56l-0.8-0.8l-2.56,2.56c-1.83,1.8-4.76,1.8-6.59,0
				c-2.25-2.26-5.9-2.27-8.16-0.02c-0.01,0.01-0.01,0.01-0.02,0.02l-2.41,2.41l0.79,0.8L466.19,765.26z M435.6,733.36v3.41
				c0,2.58-2.09,4.66-4.66,4.66c-3.19,0.01-5.78,2.6-5.79,5.79v2.59l1.13,0.89v-3.48c0.01-2.57,2.09-4.65,4.66-4.66
				c3.2,0,5.79-2.59,5.79-5.79v-3.41H435.6z"/>
			<path class="st6" d="M573.24,760.11c13.04-17.51,26.8-34.63,38.56-53c6.38-11.24,8.81-24.37,12.12-36.83
				c7.24-29.59,15.56-72.53,21.89-102.76c-4.29,34.85-10.43,69.44-18.4,103.64c-3.06,11.7-5.77,23.78-11.2,34.72
				c-12.26,19.66-27.88,36.88-42.89,54.27L573.24,760.11z"/>
			<path class="st6" d="M640.54,597.35c2.59-7.04,6.15-13.71,7.93-21.01C647.9,583.87,644.22,590.88,640.54,597.35z"/>
			<path class="st6" d="M453.48,728.97c37.94,26.8,73.82,60.75,80.41,66.22c0.32,0.25-0.14,0.73-0.45,0.45
				c-6.25-5.7-51.41-40.04-80.52-66.12C452.73,729.17,453.11,728.7,453.48,728.97z"/>
			<path class="st6" d="M515.94,662.89c4.16-3.73,9.35-6.65,11.15-12.24c2.54-5.04,5.12-10.05,7.74-15.05
				c15.92-29.82,32.58-59.27,51.07-87.56c-17.42,35.41-36.77,69.83-57.97,103.12c-0.34,0.48-2.59,3.98-2.93,4.43
				c-2.84,2.63-6.04,4.93-9.06,7.33L515.94,662.89z"/>
			<path class="st6" d="M580,551.91c-2.04,6.47-4.93,12.67-5.93,19.39C573.81,564.45,576.85,557.84,580,551.91z"/>
		</g>
		<g id="freepik--speech-bubble--inject-2">
			<path class="st13" d="M470.21,253.79c5.27-7.81,8.11-17.01,8.17-26.43c0-33.49-36.77-60.65-82.11-60.65s-82.05,27.16-82.05,60.65
				s36.74,60.63,82.05,60.63c22,0,41.92-6.36,56.64-16.78l34.13,40.2L470.21,253.79z"/>
			<path class="st6" d="M470.21,253.79c16.19-24.69,6.25-53.32-16.83-69.39c-28.97-20.33-69.26-22.12-101.03-7.42
				c-15.67,7.45-29.98,20.12-35.18,37.11c-5.59,16.94,0.57,35.74,12.99,48.09c31.45,31.09,86.52,33.15,122.53,8.76l0.16-0.11
				l34.2,40.58l0,0l-16.84-57.57V253.79z M470.21,253.79l17.05,57.36l0.18,0.38l-0.39-0.11l-34.22-39.81
				c-12.81,9.85-32.56,15.76-49.8,16.74c-26.48,1.59-54.89-5.91-73.98-25.14c-21.05-21.09-20.76-51.62,0.61-72.4
				c32.16-30.84,88.43-32.58,124.31-7.15c23.23,16.26,32.9,45.57,16.24,70.17L470.21,253.79z"/>
			<path class="st6" d="M366.77,227.36c-0.01,4.7-3.83,8.5-8.52,8.49c-4.7-0.01-8.5-3.83-8.49-8.52c0.01-4.69,3.82-8.49,8.51-8.49
				c4.7,0,8.51,3.81,8.51,8.51C366.77,227.35,366.77,227.35,366.77,227.36z"/>
			<path class="st6" d="M404.81,227.36c-0.01,4.7-3.83,8.5-8.52,8.49c-4.7-0.01-8.5-3.83-8.49-8.52c0.01-4.69,3.82-8.49,8.51-8.49
				c4.7,0,8.51,3.81,8.51,8.51C404.81,227.35,404.81,227.35,404.81,227.36z"/>
			<path class="st6" d="M442.85,227.36c-0.01,4.7-3.83,8.5-8.52,8.49c-4.7-0.01-8.5-3.83-8.49-8.52c0.01-4.69,3.82-8.49,8.51-8.49
				c4.7,0,8.51,3.81,8.51,8.51C442.85,227.35,442.85,227.35,442.85,227.36z"/>
		</g>
		<g id="freepik--Table--inject-2">
			<path class="st6" d="M766.65,912.13c-238.89,1.11-506.89,1.11-745.78,0C259.77,911.04,527.76,911.04,766.65,912.13z"/>
		</g>
		<g id="freepik--character-1--inject-2">
			<path class="st14" d="M193.63,713.26c8.29,58.06,28.7,132.37,47.92,148.63c15.51,13.12,100.3,41.1,105.09,41.99
				c11.85,2.22,42.53-80.2,30.38-84.66c-15.22-5.63-89.2-14.17-93.06-18.87c-3.86-4.7-27.79-43.71-54.8-88.61
				C210.52,680.7,188.52,677.26,193.63,713.26z"/>
			<path class="st14" d="M337.48,898.46c1.36,0.84,20.71,12.69,32.91,17.37c9.08,3.48,35.54,12.81,40.37,3.18
				c3.31-6.56-11.6-13.88-22.03-19.28c-5.49-2.86-12.01-9.4-10.02-12.92c3.57-6.15,17.58,1.5,26.8,7.92
				c17.73,12.38,40.9,33.95,53.09,25.46c4.59-3.2,0.14-10.13-6.63-17.14c11.24,8.43,23.37,15.6,28.59,12.24
				c3.02-1.91,3.4-4.86,2.11-8.36c3.57,1.48,6.81,1.54,9.27-0.66c4.18-3.72,2.81-9.83-0.89-16.28c1.48-0.05,2.86-0.8,3.7-2.02
				c9.2-11.76-28.59-50.93-42.49-55.39c-40.74-13.38-85.27-13.51-85.27-13.51C349.52,830.7,337.44,898.42,337.48,898.46z"/>
			<path class="st6" d="M401.82,865.33c9.75,2.38,18.89,6.81,26.8,12.99c9.95,7.84,16.26,16.58,24.41,25.52
				c0.21,0.23-0.14,0.59-0.36,0.34c-3.88-4.25-20.1-20.37-24.34-24.07c-7.64-6.83-16.73-11.83-26.59-14.62L401.82,865.33z"/>
			<path class="st6" d="M411.06,848.33c10.72,3.9,21.62,7.86,31.32,13.88c10.61,6.59,18.53,16.55,26.32,26.12
				c4.68,5.78,9.23,11.64,13.65,17.6c0.18,0.25-0.16,0.59-0.36,0.34c-7.9-9.9-16.09-19.55-24.57-28.97
				c-7.83-8.78-17.32-15.92-27.93-21.01c-6.06-2.91-12.31-5.36-18.57-7.79C410.88,848.48,410.94,848.28,411.06,848.33z"/>
			<path class="st6" d="M424.04,833.88c10.44,3.07,19.53,5.72,28.45,12.2c11.81,8.58,22.76,22.28,26.61,27.12
				c4.23,5.36,8.29,10.86,12.26,16.42c0.16,0.23-0.23,0.52-0.39,0.29c-9.14-12.22-19.06-23.84-29.7-34.79
				c-4.98-5.29-10.75-9.78-17.1-13.29c-6.48-3.19-13.21-5.83-20.14-7.88C424.02,833.95,423.98,833.88,424.04,833.88z"/>
			<path class="st11" d="M343.05,902.85c-17.26-5.27-87.56-29.14-101.46-40.96c-19.23-16.26-39.63-90.58-47.92-148.63
				c-3.2-22.41,4.11-29.54,14.58-24.25L343.05,902.85z"/>
			<path class="st15" d="M210.41,811.63l64.33-36.01c0,0-25.02-44.48-50.69-78c-25.68-33.52-35.92-14.3-32.16,22.12
				S210.41,811.63,210.41,811.63z"/>
			<path class="st6" d="M264.89,766.62c-18.44,9.12-36.38,19.2-53.77,30.2c-0.27,0.16,0,0.59,0.27,0.45
				c18.45-9.11,36.42-19.17,53.82-30.14C265.48,766.94,265.2,766.48,264.89,766.62z"/>
			<path class="st11" d="M263.32,781.99l-52.93,29.64c0,0-14.97-55.54-18.55-91.88c-2.34-23,0.91-39.15,10.13-39.44L263.32,781.99z"
				/>
			<path class="st15" d="M29.56,912.3h243.3c3.06-2.29-25.12-167.13-60.95-224.04c-6.7-10.72-38.81-26.91-63.95-7.65
				C72.12,738.85,26.7,908.73,29.56,912.3z"/>
			<path class="st14" d="M141.03,687.48C83.22,753.02,9.91,875.1,22.57,899.31c16.08,30.63,127.1,25.02,153.01,18.94
				c11.06-2.57-27.16-98.28-39.03-95.85c-10.35,2.18-19.26,4.36-19.66,2.93c-0.39-1.43,30.54-47.08,49.34-112.82
				C179.09,667.71,153.29,673.56,141.03,687.48z"/>
			<path class="st6" d="M67.23,855.45c6.97-9.02,28.04-25.45,49.68-29.75c0.5,0,0.84,0.21,0.41,0.41
				c-17.78,7.78-34.55,17.68-49.94,29.5C67.28,855.7,67.16,855.53,67.23,855.45z"/>
			<path class="st9" d="M217.85,776.96c0,0-13.81-15.97-2.14-24.5c11.67-8.52,22.69,9.47,22.69,9.47L217.85,776.96z"/>
			<path class="st9" d="M325.54,881.07L325.54,881.07l3.07,20.51l1.05,6.74l-6.15-3l-18.55-9.13l0,0l0,0l-87.56-119.72l20.55-15.03
				l87.56,119.72L325.54,881.07z"/>
			<polygon class="st7" points="328.62,901.51 329.67,908.25 323.5,905.25 			"/>
			
				<rect x="214.02" y="767.58" transform="matrix(0.8072 -0.5903 0.5903 0.8072 -410.7271 283.7001)" class="st7" width="29.73" height="5.9"/>
			
				<rect x="217.87" y="772.85" transform="matrix(0.8072 -0.5903 0.5903 0.8072 -413.0922 286.9884)" class="st7" width="29.73" height="5.9"/>
			<polygon class="st7" points="222.49,786.94 230.23,781.27 257.66,827.75 254.69,829.66 			"/>
			<path class="st14" d="M293.29,827.86c-0.25,12.1-30,8.93-30,8.93c4.28,2.98,7.37,7.37,8.76,12.4
				c2.02,8.93-11.15,16.08-11.15,16.08c3.79,4.02,6.28,9.08,7.15,14.53c1.07,8.77-11.2,17.87-11.2,17.87
				c1.43,5.62,0.8,11.57-1.79,16.76c-7.43,13.58-31.07,14.96-46.07,15.97c-14.99,1.02-58.54-10.13-67.06-11.44l-7.25-96.3
				c0,0,66.01-23.73,83.82-22.43C233.43,801.36,293.7,809.38,293.29,827.86z"/>
			<path class="st6" d="M263.04,836.47c-15.67-5-32.52-6.24-48.78-7.25c-0.16,0-0.29,0.13-0.29,0.29s0.13,0.29,0.29,0.29l0,0
				c16.19,0.82,32.56,5.99,48.67,7.45c0.22-0.01,0.39-0.19,0.38-0.4C263.31,836.67,263.2,836.52,263.04,836.47z"/>
			<path class="st6" d="M260.48,864.06c-3.67-0.79-7.42-1.09-11.17-0.89c-3.98,0-7.95,0-11.94,0c-7.95,0.16-15.9,0.5-23.84,1.07
				c-0.36,0-0.41,0.57,0,0.57c7.93-0.14,15.87-0.18,23.8,0c3.97,0.09,7.93,0.23,11.9,0.38c3.73,0.39,7.5,0.36,11.22-0.09
				c0.29-0.13,0.42-0.47,0.29-0.75C260.7,864.22,260.6,864.12,260.48,864.06z"/>
			<path class="st6" d="M256.51,897.63c-3.07-1.02-6.92-0.41-10.1-0.29c-3.57,0.17-7.2,0.3-10.88,0.39
				c-7.25,0.23-14.49,0.45-21.75,0.41c-0.38,0-0.39,0.55,0,0.55c7.36,0,14.74,0.25,22.1,0.25c3.57,0,7.24,0,10.86,0
				c3.07,0,6.92,0.29,9.83-0.89c0.12-0.02,0.2-0.13,0.18-0.25C256.74,897.69,256.63,897.61,256.51,897.63z"/>
			<path class="st15" d="M72.79,768.33l68.87,26.21c0,0,18.05-47.75,27.29-88.93c9.24-41.19-12.12-36.68-37.63-10.54
				C105.79,721.21,72.79,768.33,72.79,768.33z"/>
			<path class="st6" d="M162.97,741.23c0.01-0.09-0.05-0.17-0.13-0.18c-0.05-0.01-0.1,0.01-0.13,0.04c-1.2,2.23-2.38,4.49-3.57,6.74
				c1.25-4.56,2.41-9.15,3.45-13.78c0-0.14-0.2-0.23-0.25-0.09c-3.5,9.95-6.93,19.92-10.27,29.91
				c-3.32,10.01-7.15,19.87-10.35,29.89c-1.98-0.39-3.06-0.71-4.54-0.96c-0.34,0-0.55,0.32-0.23,0.48c1.78,0.96,3.68,1.68,5.65,2.14
				c4.36-9.6,7.9-20.37,11.29-30.38c1.68-4.91,3.2-9.86,4.59-14.83C160.13,747.3,161.64,744.3,162.97,741.23z"/>
			<path class="st6" d="M142.26,781.25c-18.82-8.29-38.05-15.6-57.63-21.89c-0.29-0.09-0.45,0.38-0.16,0.5
				c18.81,8.33,38.04,15.67,57.61,22C142.4,781.86,142.58,781.38,142.26,781.25z"/>
			<rect x="271.7" y="916.32" class="st6" width="271.82" height="6.68"/>
			<polygon class="st1" points="389.49,916.32 389.49,906.37 288.73,908.32 275.49,916.32 			"/>
			<path class="st2" d="M389.49,916.32v-9.95c0,0,32.77,0.57,38.56,0c5.79-0.57,35.42-3.32,40.21-3.07
				c4.79,0.25,14.15,5.91,14.15,5.91v7.15L389.49,916.32z"/>
			<path class="st2" d="M540.84,916.32l-2.34-5.66c0,0-14.4,0.3-16.48,0s-21.62-5.93-25.84-5.16c-4.22,0.77-13.74,3.72-13.74,3.72
				v7.15L540.84,916.32z"/>
			<path class="st14" d="M165.35,681.62c0.21,3.97,13.88,32,31.45,34.34c5.72,0.75,11.24-30.27,11.24-30.27l0.93-2.2l13.01-30.79
				l-38.15-35.24C183.82,617.47,165.29,680.01,165.35,681.62z"/>
			<path class="st6" d="M221.97,652.72l-13.03,30.75l-0.91,2.22c0,0-1.02,5.61-2.59,12.01c-23.09-7.84-30.72-27.64-33.22-40.81
				c5.32-17.98,11.6-39.42,11.6-39.42L221.97,652.72z"/>
			<path class="st14" d="M278.19,602.64c-4.54,71.48-47.84,76.84-63.26,75.8c-13.97-0.91-61.49-5.77-64.33-77.3
				c-2.84-71.53,31.79-92.01,63.88-91.63C246.58,509.88,282.75,531.2,278.19,602.64z"/>
			<path class="st6" d="M260.5,614.07c7.9,0.86,5.59,16.6-1.79,15.8C251.33,629.06,253.89,613.36,260.5,614.07z"/>
			<path class="st6" d="M224.01,610.32c-7.86-1.16-9.6,14.63-2.32,15.71C228.96,627.1,230.59,611.34,224.01,610.32z"/>
			<path class="st6" d="M267,604.85c-1.58-0.47-3.14-1.02-4.66-1.66c-1.72-0.35-3.27-1.26-4.41-2.59c-0.58-1-0.41-2.26,0.41-3.07
				c1.85-1.35,4.28-1.6,6.36-0.64c2.23,0.63,4.14,2.07,5.36,4.04c0.72,1.32,0.23,2.97-1.09,3.68
				C268.37,604.93,267.67,605.02,267,604.85z"/>
			<path class="st6" d="M218.49,600.67c1.65-0.03,3.3-0.15,4.93-0.36c1.76,0.11,3.5-0.36,4.97-1.34c0.82-0.82,0.99-2.09,0.41-3.09
				c-1.44-1.78-3.72-2.66-5.99-2.29c-2.3,0.03-4.51,0.91-6.2,2.48c-1.04,1.08-1,2.8,0.08,3.84
				C217.18,600.38,217.82,600.65,218.49,600.67z"/>
			<path class="st6" d="M220.13,653.49c0.93,1.34,1.79,3.11,3.47,3.57c1.78,0.32,3.61,0.26,5.36-0.18c0.1-0.01,0.19,0.06,0.2,0.16
				c0,0.05-0.01,0.09-0.04,0.13c-1.77,1.63-4.29,2.17-6.58,1.39c-1.9-0.91-3.06-2.87-2.93-4.97
				C219.61,653.33,219.99,653.29,220.13,653.49z"/>
			<path class="st6" d="M242.74,638.91c0,0,0,7.36-0.48,10.72c0,0.32-0.88,0.36-2.05,0.27c0,0-0.09,0-0.13,0
				c-6.1,0.26-11.83-2.9-14.87-8.2c-0.2-0.38,0.29-0.66,0.57-0.41c3.92,3.57,8.89,5.77,14.17,6.27c0.38-0.91-0.39-12.72,0.13-12.51
				c2.22,0.7,6.06,2.23,7.49,2.81c0.11-4.77-0.25-18.33,0-27.04c0-0.54,0.86-0.61,0.91-0.09c1.42,10.11,2.16,20.31,2.22,30.52
				C250.65,641.95,244.01,639.59,242.74,638.91z"/>
			<g class="st16">
				<path class="st17" d="M194.63,620.47c-0.26,0.58-0.94,0.83-1.51,0.57c-0.58-0.26-0.83-0.94-0.57-1.51
					c0.26-0.57,0.92-0.83,1.5-0.58C194.62,619.21,194.89,619.89,194.63,620.47z"/>
				<path class="st17" d="M217.27,628.94c-0.25,0.58-0.92,0.85-1.5,0.61c0,0,0,0,0,0c-0.58-0.25-0.85-0.93-0.6-1.51
					c0.25-0.58,0.93-0.85,1.51-0.6c0.57,0.24,0.84,0.9,0.6,1.47C217.28,628.92,217.28,628.93,217.27,628.94z"/>
				<path class="st17" d="M206.14,633.39c-0.26,0.58-0.94,0.84-1.52,0.59c-0.58-0.25-0.85-0.92-0.61-1.5c0,0,0,0,0,0
					c0.3-0.56,1.01-0.77,1.57-0.47C206.08,632.27,206.32,632.85,206.14,633.39z"/>
				<path class="st17" d="M198.99,611.95c-0.25,0.58-0.92,0.85-1.5,0.6s-0.85-0.92-0.6-1.5c0.25-0.58,0.92-0.85,1.5-0.61
					C198.97,610.69,199.24,611.36,198.99,611.95C198.99,611.94,198.99,611.94,198.99,611.95z"/>
				<path class="st17" d="M206.91,622.42c-0.2,0.61-0.85,0.94-1.46,0.75c-0.61-0.2-0.94-0.85-0.75-1.46
					c0.02-0.07,0.05-0.13,0.08-0.19c0.2-0.61,0.85-0.94,1.46-0.75c0.61,0.2,0.94,0.85,0.75,1.46
					C206.97,622.29,206.94,622.35,206.91,622.42z"/>
				<path class="st17" d="M268.09,630.51c-0.25,0.59-0.93,0.86-1.52,0.61c-0.61-0.2-0.94-0.85-0.75-1.46
					c0.2-0.61,0.85-0.94,1.46-0.75c0.07,0.02,0.13,0.05,0.19,0.08C268.07,629.25,268.34,629.92,268.09,630.51z"/>
				<path class="st17" d="M257.23,632.98c-0.25,0.58-0.92,0.85-1.5,0.6c-0.58-0.25-0.85-0.92-0.6-1.5c0.25-0.58,0.92-0.85,1.5-0.61
					C257.2,631.72,257.48,632.39,257.23,632.98C257.23,632.98,257.23,632.98,257.23,632.98z"/>
				<path class="st17" d="M256.35,640.88c-0.2,0.61-0.85,0.94-1.46,0.75c-0.61-0.2-0.94-0.85-0.75-1.46
					c0.02-0.07,0.05-0.13,0.08-0.19c0.3-0.56,1.01-0.77,1.57-0.47C256.29,639.76,256.53,640.34,256.35,640.88z"/>
				<path class="st17" d="M265.65,639.11c-0.25,0.58-0.92,0.85-1.5,0.6c-0.58-0.25-0.85-0.92-0.6-1.5c0.25-0.58,0.92-0.85,1.5-0.61
					C265.62,637.85,265.89,638.52,265.65,639.11C265.65,639.1,265.65,639.11,265.65,639.11z"/>
			</g>
			<path class="st6" d="M153.34,607.89c13.65,1.79,23.05-31.49,23.05-31.49s18.1-1.68,31.59-30.57c0,0,3.06,32.93,59.58,41.24
				c4.34-9.22,5.66-19.57,3.79-29.59c2.83,10.88,4.76,21.98,5.77,33.18c0,0,25.48-41.94-8.93-68.56
				c-13.71-10.6-37.52-15.71-78.05-7.81c0,0-1.02-23.23-5.9-21.55c-4.88,1.68-2.39,23.8-2.39,23.8s-14.3-9.11-17.87-6.56
				c-3.06,2.2,10.97,10.27,10.97,10.27s-26.07,1.11-29.63,29.86C141.99,576.56,146.58,607.01,153.34,607.89z"/>
			<path class="st6" d="M179.34,521.15c-14.2-4.38-29.43,2.52-35.51,16.08c-3.27,7.52-3.57,16.49-3.14,24.55
				c0.74,8.69,2.59,17.26,5.5,25.48c0.16,0.46,0.86,0.16,0.7-0.3c-2.4-7.63-3.61-15.59-3.57-23.59c-0.13-7.45,0.16-15.56,2.45-22.69
				c4.57-13.96,19.09-22.08,33.38-18.67C179.59,522.05,179.78,521.28,179.34,521.15z"/>
			<path class="st6" d="M238.95,506.07c-9.9-0.45-19.81,0.41-29.48,2.56c-9.28,1.61-18.22,4.79-26.43,9.4
				c-0.19,0.09-0.28,0.32-0.19,0.51c0.09,0.19,0.32,0.28,0.51,0.19c16.58-6.58,35.15-8.7,52.91-8.93
				c16.62-0.2,34.86,4.81,43.19,20.55c0.08,0.1,0.22,0.12,0.33,0.05c0.08-0.06,0.11-0.15,0.09-0.24
				C272.97,514.17,255.37,507.04,238.95,506.07z"/>
			<path class="st9" d="M207.93,638.39c-13.38-3.45-21.42-17.1-17.97-30.48c3.45-13.38,17.1-21.42,30.48-17.97
				c11.08,2.86,18.81,12.88,18.76,24.32l0,0c-0.06,13.77-11.24,24.91-25.02,24.91C212.07,639.19,209.97,638.92,207.93,638.39z
				 M219.61,593.22c-1.75-0.46-3.55-0.7-5.36-0.7c-11.98-0.05-21.73,9.62-21.79,21.6c-0.05,11.98,9.62,21.73,21.6,21.79
				c11.98,0.05,21.74-9.62,21.79-21.6C235.9,604.39,229.21,595.71,219.61,593.22z"/>
			<path class="st9" d="M262.73,645.34c-9.27-2.41-15.22-14.06-13.46-26.98c0.74-6.19,3.41-12,7.61-16.6
				c5.4-6.7,15.21-7.76,21.91-2.36c1.96,1.58,3.51,3.62,4.52,5.93c2.81,5.56,3.81,11.87,2.84,18.03
				c-1.79,13.67-11.65,23.64-21.82,22.25C263.8,645.55,263.26,645.46,262.73,645.34z M271.92,599.6c-0.41-0.11-0.83-0.19-1.25-0.25
				c-4.32-0.39-8.56,1.34-11.36,4.65c-3.72,4.09-6.06,9.25-6.7,14.74c-1.63,11.83,3.81,22.39,12.19,23.53
				c8.38,1.14,16.44-7.56,18.07-19.39c0.87-5.49,0-11.12-2.5-16.08C278.68,603.32,275.62,600.71,271.92,599.6z"/>
			<path class="st9" d="M238.31,617.06l-1.5-2.39c3.57-2.22,11.35-4.79,15.71,1.36l-2.31,1.63
				C246.22,612.11,238.54,616.86,238.31,617.06z"/>
			<path class="st9" d="M136.69,608.66l-2.31-1.61c0.77-1.09,7.58-10.51,13.96-10.72c5.95-0.14,42.89,8.51,44.46,8.93l-0.64,2.75
				c-10.58-2.48-39.15-8.93-43.74-8.79C144.19,599.29,138.53,606.07,136.69,608.66z"/>
			<path class="st14" d="M163.74,608.53c0,0-12.1-24.43-22.96-20.44c-10.86,3.98-4.07,37.77,7.02,43.94
				c5.6,3.64,13.1,2.05,16.73-3.56c0.1-0.15,0.19-0.3,0.28-0.45L163.74,608.53z"/>
			<path class="st6" d="M142.96,597.81c-0.18,0-0.27,0.21-0.11,0.3c7.76,4.59,10.94,12.9,12.78,21.28
				c-1.98-3.41-5.07-5.59-9.61-3.29c-0.23,0.11,0,0.48,0.16,0.46c3.12-0.5,6.21,1.03,7.72,3.81c1.21,2.27,2.17,4.67,2.88,7.15
				c0.29,0.8,1.68,0.61,1.52-0.29c0,0,0-0.14,0-0.2C160.06,616.52,154.11,600.54,142.96,597.81z"/>
		</g>
		<g id="freepik--Books--inject-2">
			<rect x="587.74" y="900.05" class="st4" width="191.81" height="22.69"/>
			<rect x="625.36" y="900.05" class="st2" width="7.83" height="22.69"/>
			<rect x="738.24" y="900.05" class="st2" width="18.74" height="22.69"/>
			<path class="st0" d="M669.39,906.07l-4.57,5.97c-0.09,0.14-0.25,0.22-0.41,0.21l0,0c-0.17,0.02-0.34-0.06-0.43-0.21l-4.59-5.95
				v11.03c-0.01,0.26-0.22,0.46-0.48,0.46c-0.27,0.01-0.5-0.2-0.52-0.46v-12.42c0.01-0.15,0.09-0.29,0.21-0.38l0,0
				c0.23-0.13,0.53-0.08,0.7,0.13l5.09,6.61l5.07-6.61c0.17-0.21,0.47-0.26,0.7-0.13l0.14,0.16c0.02,0.08,0.02,0.17,0,0.25v12.42
				c-0.05,0.27-0.31,0.45-0.59,0.4c-0.2-0.04-0.36-0.2-0.4-0.4L669.39,906.07z"/>
			<path class="st0" d="M682.11,914.11h-6.52l-1.27,3.16c-0.08,0.19-0.26,0.31-0.46,0.3h-0.2c-0.24-0.08-0.37-0.34-0.29-0.59
				c0-0.01,0-0.01,0.01-0.02l4.97-12.51c0.1-0.18,0.29-0.29,0.5-0.29c0.21-0.02,0.4,0.09,0.48,0.29l4.99,12.51
				c0.09,0.24-0.03,0.51-0.27,0.61h-0.2c-0.2,0-0.38-0.12-0.46-0.3L682.11,914.11z M675.95,913.16h5.79l-2.88-7.15L675.95,913.16z"
				/>
			<path class="st0" d="M689.15,905.05h-4.32c-0.27,0-0.48-0.22-0.48-0.48c0.01-0.26,0.23-0.46,0.48-0.45c0,0,0,0,0,0h9.61
				c0.26-0.01,0.48,0.19,0.5,0.45c-0.01,0.27-0.23,0.48-0.5,0.48h-4.31v12.03c-0.02,0.26-0.24,0.47-0.5,0.46
				c-0.26,0-0.47-0.21-0.48-0.46V905.05z"/>
			<path class="st0" d="M707.06,911.32h-7.36v5.79c-0.02,0.27-0.25,0.47-0.52,0.46c-0.26,0-0.47-0.21-0.48-0.46V904.6
				c0.02-0.25,0.23-0.45,0.48-0.45c0.27-0.02,0.5,0.18,0.52,0.44c0,0,0,0,0,0v5.81h7.36v-5.81c0.02-0.26,0.24-0.46,0.5-0.45
				c0.26-0.02,0.48,0.17,0.5,0.43c0,0.01,0,0.01,0,0.02v12.51c-0.01,0.27-0.23,0.47-0.5,0.46c0,0,0,0,0,0c-0.26,0-0.48-0.2-0.5-0.46
				V911.32z"/>
			<rect x="582.92" y="807.91" class="st18" width="191.81" height="29.25"/>
			<path class="st0" d="M675.71,827.09c0.16-0.17,0.43-0.18,0.61-0.02c0.01,0.01,0.01,0.01,0.02,0.02c1.35,1.08,3,1.7,4.72,1.79
				c1.11,0.03,2.21-0.28,3.14-0.88c0.73-0.41,1.19-1.17,1.23-2c-0.04-0.76-0.48-1.44-1.16-1.79c-1.03-0.56-2.16-0.93-3.32-1.09l0,0
				c-1.19-0.16-2.33-0.54-3.38-1.13c-0.88-0.46-1.44-1.35-1.48-2.34c0.05-1.04,0.61-1.98,1.5-2.52c1.03-0.66,2.23-1,3.45-0.98
				c1.6,0.08,3.13,0.62,4.43,1.55c0.2,0.13,0.26,0.39,0.14,0.59c0,0.01-0.01,0.01-0.01,0.02c-0.15,0.19-0.42,0.24-0.63,0.11
				c-1.14-0.84-2.51-1.33-3.93-1.41c-1.03-0.02-2.04,0.26-2.91,0.8c-0.64,0.38-1.06,1.04-1.13,1.79c0.03,0.69,0.44,1.31,1.05,1.63
				c0.95,0.53,1.99,0.87,3.07,1.02l0,0c1.26,0.18,2.47,0.6,3.57,1.23c0.94,0.5,1.54,1.46,1.57,2.52c-0.05,1.11-0.65,2.12-1.61,2.7
				c-1.1,0.7-2.38,1.07-3.68,1.05c-1.95-0.07-3.82-0.75-5.36-1.95c-0.18-0.15-0.21-0.42-0.05-0.6
				C675.61,827.15,675.66,827.11,675.71,827.09z"/>
			<path class="st0" d="M696.82,815.97c1.66,0,3.28,0.52,4.63,1.48c0.19,0.18,0.2,0.47,0.02,0.66c-0.01,0.01-0.01,0.02-0.02,0.02
				c-0.16,0.21-0.46,0.25-0.68,0.09c0,0,0,0,0,0c-1.17-0.85-2.58-1.3-4.02-1.3c-3.24-0.31-6.12,2.07-6.43,5.31s2.07,6.12,5.31,6.43
				c0.37,0.04,0.75,0.04,1.12,0c1.43,0.03,2.83-0.43,3.97-1.3c0.22-0.16,0.54-0.12,0.7,0.1c0.01,0.01,0.01,0.01,0.01,0.02
				c0.18,0.15,0.21,0.42,0.06,0.6c-0.02,0.02-0.04,0.04-0.06,0.06c-1.35,0.97-2.97,1.48-4.63,1.47c-3.76,0.33-7.09-2.45-7.42-6.21
				c-0.33-3.77,2.45-7.09,6.21-7.42c0.4-0.04,0.81-0.04,1.21,0L696.82,815.97z"/>
			<path class="st0" d="M705.91,816.63c0.02-0.26,0.24-0.47,0.5-0.46c0.27-0.01,0.49,0.2,0.5,0.46c0,0,0,0,0,0v12.51
				c-0.01,0.27-0.23,0.47-0.5,0.46c0,0,0,0,0,0c-0.26,0-0.48-0.2-0.5-0.46V816.63z"/>
			<path class="st0" d="M712.01,816.63c0.02-0.26,0.24-0.47,0.5-0.46h7.36c0.26-0.05,0.51,0.12,0.57,0.38
				c0.05,0.26-0.12,0.51-0.38,0.57c-0.06,0.01-0.12,0.01-0.18,0h-6.86v5.36h6.04c0.26-0.05,0.51,0.12,0.57,0.38
				c0.05,0.26-0.12,0.51-0.38,0.57c-0.06,0.01-0.12,0.01-0.18,0h-6v5.36h6.86c0.26-0.05,0.51,0.12,0.57,0.38
				c0.05,0.26-0.12,0.51-0.38,0.57c-0.06,0.01-0.12,0.01-0.18,0h-7.42c-0.25-0.02-0.44-0.22-0.45-0.46L712.01,816.63z"/>
			<path class="st0" d="M725.17,818.15v10.99c-0.05,0.27-0.31,0.45-0.59,0.4c-0.2-0.04-0.36-0.2-0.4-0.4v-12.31
				c-0.06-0.19,0.01-0.4,0.18-0.52c0.22-0.15,0.53-0.11,0.7,0.11l8.68,11.28v-10.94c0.01-0.26,0.23-0.46,0.48-0.45c0,0,0,0,0,0
				c0.27-0.02,0.5,0.18,0.52,0.44c0,0,0,0,0,0v12.38c-0.02,0.27-0.25,0.47-0.52,0.46c-0.15,0-0.28-0.07-0.38-0.18
				c-0.03,0.01-0.06,0.01-0.09,0L725.17,818.15z"/>
			<path class="st0" d="M746.71,815.97c1.66,0,3.28,0.52,4.63,1.48c0.21,0.15,0.26,0.44,0.11,0.65c-0.01,0.01-0.02,0.02-0.02,0.03
				c-0.17,0.21-0.48,0.25-0.7,0.09c-1.17-0.85-2.58-1.3-4.02-1.3c-3.24-0.31-6.12,2.07-6.43,5.31s2.07,6.12,5.31,6.43
				c0.37,0.04,0.75,0.04,1.12,0c1.43,0.03,2.83-0.43,3.97-1.3c0.22-0.16,0.54-0.12,0.7,0.1c0.01,0.01,0.01,0.01,0.01,0.02
				c0.18,0.13,0.22,0.39,0.09,0.57c-0.02,0.03-0.05,0.06-0.09,0.09c-1.35,0.97-2.97,1.48-4.63,1.47c-3.76,0.33-7.09-2.45-7.42-6.21
				c-0.33-3.77,2.45-7.09,6.21-7.42c0.4-0.04,0.81-0.04,1.21,0L746.71,815.97z"/>
			<path class="st0" d="M755.66,816.63c0.02-0.26,0.24-0.47,0.5-0.46h7.36c0.26-0.05,0.51,0.12,0.57,0.38
				c0.05,0.26-0.12,0.51-0.38,0.57c-0.06,0.01-0.12,0.01-0.18,0h-6.86v5.36h6c0.26-0.05,0.51,0.12,0.57,0.38
				c0.05,0.26-0.12,0.51-0.38,0.57c-0.06,0.01-0.12,0.01-0.18,0h-6v5.36h6.86c0.26-0.05,0.51,0.12,0.57,0.38
				c0.05,0.26-0.12,0.51-0.38,0.57c-0.06,0.01-0.12,0.01-0.18,0h-7.42c-0.25-0.02-0.44-0.22-0.45-0.46V816.63z"/>
			<rect x="599.07" y="807.91" class="st9" width="48.21" height="29.25"/>
			<rect x="608.13" y="811.99" class="st18" width="30.07" height="5.15"/>
			<rect x="608.13" y="819.96" class="st18" width="30.07" height="5.15"/>
			<rect x="608.13" y="827.93" class="st18" width="30.07" height="5.15"/>
			<rect x="571.07" y="837.15" class="st5" width="98.98" height="26.48"/>
			<rect x="670.05" y="837.15" class="st5" width="91.49" height="26.48"/>
			<rect x="571.07" y="839.9" class="st0" width="98.98" height="20.98"/>
			<path class="st2" d="M579.67,844.29c10.36-0.14,20.73-0.24,31.11-0.3l14.06-0.09l31.11,0.09c10.38,0,3.7,0.16,14.08,0.3
				c-10.38,0.14-3.7,0.25-14.08,0.3l-31.11,0.09l-14.06-0.09C600.43,844.5,590.06,844.4,579.67,844.29z"/>
			<path class="st2" d="M579.67,848.33c10.36-0.14,20.73-0.24,31.11-0.3h14.06h31.11c10.38,0,3.7,0.16,14.08,0.3
				c-10.38,0.14-3.7,0.25-14.08,0.3l-31.11,0.11l-14.06-0.11C600.43,848.59,590.06,848.49,579.67,848.33z"/>
			<path class="st2" d="M579.67,852.46c10.36-0.15,20.73-0.26,31.11-0.32l14.06-0.09l31.11,0.09c10.38,0,3.7,0.16,14.08,0.32
				c-10.38,0.14-3.7,0.25-14.08,0.3l-31.11,0.09l-14.06-0.09C600.43,852.71,590.06,852.6,579.67,852.46z"/>
			<path class="st2" d="M579.67,856.57c10.36-0.14,20.73-0.24,31.11-0.3l14.06-0.09l31.11,0.09c10.38,0,3.7,0.16,14.08,0.3
				c-10.38,0.14-3.7,0.25-14.08,0.3h-31.11h-14.06C600.43,856.83,590.06,856.73,579.67,856.57z"/>
			<rect x="690.31" y="837.15" class="st9" width="12.88" height="26.48"/>
			<rect x="748.14" y="837.15" class="st9" width="8.65" height="26.48"/>
			<rect x="646.21" y="863.63" class="st18" width="111.47" height="36.4"/>
			<rect x="561.57" y="863.63" class="st18" width="84.63" height="36.4"/>
			<rect x="646.21" y="867.4" class="st0" width="111.47" height="28.84"/>
			<path class="st2" d="M750.46,890.31c-8.71,0.15-17.4,0.26-26.07,0.32l-26.05,0.09l-26.07-0.09c-8.68,0-17.37-0.11-26.07-0.32
				c8.71-0.14,17.4-0.24,26.07-0.3l26.07-0.09l26.05,0.09C733.07,890.06,741.76,890.16,750.46,890.31z"/>
			<path class="st2" d="M750.46,884.66c-8.71,0.14-17.4,0.24-26.07,0.3l-26.05,0.09l-26.07-0.09c-8.68,0-17.37-0.1-26.07-0.3
				c8.71-0.14,17.4-0.24,26.07-0.3l26.07-0.11l26.05,0.11C733.07,884.42,741.76,884.52,750.46,884.66z"/>
			<path class="st2" d="M750.46,879c-8.71,0.14-17.4,0.24-26.07,0.3l-26.05,0.11l-26.07-0.11c-8.68,0-17.37-0.1-26.07-0.3
				c8.71-0.14,17.4-0.24,26.07-0.3l26.07-0.09l26.05,0.09C733.07,878.74,741.76,878.84,750.46,879z"/>
			<path class="st2" d="M750.46,873.35c-8.71,0.14-17.4,0.24-26.07,0.3l-26.05,0.09l-26.07-0.09c-8.68,0-17.37-0.1-26.07-0.3
				c8.71-0.15,17.4-0.26,26.07-0.32l26.07-0.09l26.05,0.11C733.07,873.11,741.76,873.21,750.46,873.35z"/>
			<rect x="575.04" y="863.63" class="st9" width="15.85" height="36.4"/>
		</g>
	</g>
</g>
</svg>
