<?xml version="1.0" encoding="utf-8"?>
<!-- Generator: Adobe Illustrator 24.3.0, SVG Export Plug-In . SVG Version: 6.00 Build 0)  -->
<svg version="1.1" id="Layer_1" xmlns="http://www.w3.org/2000/svg" xmlns:xlink="http://www.w3.org/1999/xlink" x="0px" y="0px"
	 viewBox="0 0 645 840" style="enable-background:new 0 0 645 840;" xml:space="preserve">
<style type="text/css">
	.st0{fill:#A6A6A6;}
	.st1{fill:#EBEBEB;}
	.st2{fill:#DBDBDB;}
	.st3{fill:#C8C7C7;}
	.st4{fill:#263339;}
	.st5{fill:#FDC72A;}
	.st6{fill:#DD6A57;}
	.st7{fill:#FFFFFF;}
	.st8{fill:#37474F;}
	.st9{fill:#F299BA;}
	.st10{fill:#465B65;}
	.st11{opacity:0.1;fill:#020203;enable-background:new    ;}
</style>
<g>
	<g id="freepik--background-complete--inject-70">
		<path class="st0" d="M614.78,379.51c-6.14-5.99-14.02-13.24-23.36-10.66c-8.8,2.44-12.16,12.04-13.74,19.96
			c-2.03,10.3-3.61,20.72-5.24,31.1c-1.63,10.38-3.21,20.96-4.71,31.47c-0.86,5.93-1.7,11.86-2.52,17.78l-1.24,8.89
			c-0.4,2.9-0.89,5.8-1.04,8.74c0.04,0.46,0.45,0.79,0.9,0.75c0.33-0.03,0.61-0.25,0.71-0.56c1.14-4.94,1.61-10.09,2.33-15.11
			c0.72-5.02,1.46-10.09,2.2-15.13c1.47-10.02,2.97-20.05,4.5-30.07c1.53-10.02,3.06-20.04,4.61-30.04c1.35-8.48,2-19.03,9.52-24.57
			c4.15-2.84,9.46-3.33,14.07-1.32c4.94,1.89,8.91,5.44,12.78,8.95C614.72,379.8,614.89,379.62,614.78,379.51z"/>
		<path class="st1" d="M606.41,373.38c0,0-12.5-4.5-18.66,4.61c-6.16,9.11,1.2,32.25,58.09,45.39c-1.67-17.79-6.3-35.17-13.7-51.43
			C619.96,345.37,598.23,355.45,606.41,373.38z"/>
		<path class="st0" d="M642.58,419.61c-0.86-1.59-1.81-3.13-2.86-4.61c-0.95-1.54-1.92-2.93-2.89-4.39l-2.23-3.26
			c0-0.26,0-0.54,0.11-0.81l0.18-1.54c0.14-1.06,0.31-2.13,0.46-3.19c0.15-1.06,0.32-2.12,0.54-3.18c0.13-1.14,0.38-2.26,0.74-3.35
			c0.08-0.17-0.23-0.25-0.25,0c-0.12,0.64-0.29,1.26-0.51,1.87c-0.14,0.49-0.26,0.97-0.38,1.44c-0.28,1.07-0.54,2.17-0.78,3.26
			c-0.25,1.09-0.41,2-0.58,3.07c-0.08,0.49-0.15,0.98-0.21,1.46c-1.01-1.44-2.06-2.87-3.07-4.28c-3.07-3.98-6.22-7.8-9.52-11.55
			c0,0,0,0,0-0.09c0.29-5.99,0.15-11.9,1.54-17.78c0-0.15-0.2-0.25-0.25-0.08c-1.49,5.52-2.2,11.23-2.1,16.95
			c-1.18-1.32-2.38-2.64-3.59-3.95c-2.78-2.98-5.59-5.91-8.48-8.78c-0.12-0.11-0.31,0-0.18,0.18c4.79,5.16,9.34,10.53,13.82,16
			c-3.47-0.05-6.94,0.08-10.4,0.38c-3.85,0.29-7.68,0.78-11.52,1.31c-0.07,0.03-0.11,0.1-0.09,0.18c0.01,0.04,0.05,0.07,0.09,0.09
			c3.81-0.55,7.65-0.89,11.5-1.03c3.72-0.15,7.4,0,11.1,0c2.4,2.96,4.78,5.96,7.11,8.98h-0.54c-0.86,0-1.74,0-2.61,0
			c-1.72,0-3.46,0.15-5.18,0.29c-3.53,0.27-7.04,0.79-10.5,1.54c-0.07,0-0.12,0.06-0.12,0.12c0,0.07,0.06,0.12,0.12,0.12l0,0
			c3.49-0.38,7-0.72,10.52-0.84c1.67,0,3.35,0,5.02,0h2.63c0.48,0.06,0.97,0.01,1.43-0.14c1.54,1.98,3.07,3.98,4.61,5.97
			c1.21,1.54,2.4,3.19,3.58,4.81c1.18,1.61,2.27,3.46,3.59,5.01c0.08,0.01,0.15-0.04,0.16-0.11
			C642.59,419.65,642.59,419.63,642.58,419.61z"/>
		<path class="st0" d="M611.85,386.31c-2.04-0.27-4.09-0.38-6.14-0.31c-2.03,0-4.07,0-6.14,0.14c-0.07,0-0.12,0.06-0.12,0.12
			s0.05,0.12,0.12,0.12l0,0c2.06-0.14,4.12-0.18,6.14-0.15s3.98,0.23,5.97,0.17L611.85,386.31z"/>
		<path class="st0" d="M629.72,390.89c0.23-1.93,0.48-3.9,0.89-5.8c0-0.07-0.05-0.12-0.12-0.12c-0.07,0-0.12,0.05-0.12,0.12
			c-0.29,1.92-0.66,3.82-0.95,5.73c-0.14,0.97-0.28,1.92-0.38,2.89c-0.18,0.89-0.25,1.8-0.23,2.7c0,0.17,0.29,0.18,0.32,0
			c0.17-0.89,0.27-1.8,0.29-2.7C629.49,392.73,629.6,391.81,629.72,390.89z"/>
		<path class="st0" d="M625.96,369.36c-0.49,1.89-0.98,3.81-1.34,5.73c-0.18,0.98-0.32,1.97-0.46,2.95
			c-0.18,0.95-0.24,1.91-0.18,2.87c0,0.08,0.12,0.08,0.14,0c0.23-0.9,0.38-1.82,0.46-2.75c0.12-0.94,0.26-1.89,0.43-2.83
			c0.34-1.98,0.69-3.95,1.2-5.9C626.25,369.3,626.01,369.21,625.96,369.36z"/>
		<path class="st0" d="M551.88,484.75c-0.31-3.57-0.66-7.16-1.04-10.75c-0.74-7.09-1.61-14.16-2.56-21.22
			c-0.95-7.06-1.84-14.1-2.98-21.12c-0.43-3.25-1.15-6.46-2.17-9.58c-0.77-2.7-2.72-4.91-5.31-5.99c-6.7-2.32-11.21,4.61-13.91,9.54
			c-0.01,0.08,0.04,0.15,0.12,0.16c0.04,0.01,0.08-0.01,0.12-0.04c1.61-2.32,6.14-8.86,11.16-8.55c3.41,0.2,6.14,2.63,7.79,11.15
			c4.08,21.22,7.77,64.3,8.2,67.12c0.23,1.54,1.29,1.43,1.29-0.17C552.6,491.78,552.19,488.28,551.88,484.75z"/>
		<path class="st1" d="M525.71,423c0,0,5.84-20.65-7.09-10.34c-21.5,17.2-22.3,54.61-22.3,54.61s38.28-22.24,43-36.86
			C546.44,408.53,525.71,423,525.71,423z"/>
		<path class="st0" d="M532.98,433.14c-3.07,0.61-6.05,1.01-9.08,1.44l-4.32,0.61l-2.92,0.34c2.84-3.92,5.73-7.83,8.46-11.84
			c0.03-0.09-0.03-0.18-0.11-0.21c-0.05-0.01-0.1-0.01-0.15,0.03c-2.27,2.34-4.41,4.8-6.4,7.37c-0.55-1.54-1.12-3.19-1.69-4.79
			c-0.65-1.84-1.35-3.69-1.83-5.59c0-0.17-0.29-0.09-0.25,0c0.52,1.9,0.91,3.84,1.4,5.73s1.06,3.65,1.7,5.44
			c-1.4,1.81-2.75,3.69-4.05,5.56c-0.66-1.86-1.54-3.67-2.06-5.56c0-0.07-0.06-0.12-0.12-0.12c-0.07,0-0.12,0.06-0.12,0.12
			c0.69,2.1,1.06,4.28,1.7,6.39c-0.88,1.29-1.77,2.56-2.6,3.87c-1.54,2.38-3.07,4.82-4.42,7.26c-0.23,0.1-0.37,0.33-0.34,0.58
			c-2.43,4.18-4.71,8.42-6.99,12.7c-0.08,0.15,0.14,0.28,0.21,0.12c2.27-4.22,4.81-8.34,7.43-12.39l0,0
			c0.41-0.12,0.82-0.21,1.24-0.25c0.45-0.08,0.89-0.18,1.32-0.28c1-0.22,1.98-0.48,2.96-0.72c1.93-0.48,3.85-0.94,5.84-1.27
			c0.15,0,0.08-0.28-0.08-0.25c-2.32,0.45-4.61,0.71-6.99,0.97c-1.11,0.14-2.21,0.28-3.3,0.45h-0.17c1.38-2.09,2.78-4.18,4.19-6.22
			c1.41-2.04,2.81-4.01,4.25-6c1.32-0.18,2.64-0.52,3.96-0.78l4.44-0.86c2.96-0.58,5.91-1.24,8.89-1.75
			C533.19,433.37,533.11,433.11,532.98,433.14z"/>
		<path class="st0" d="M509.94,435.18l-0.51-1.64c-0.36-1.14-0.65-2.3-0.88-3.47c0-0.15-0.29,0-0.25,0.08
			c0.25,1.17,0.52,2.33,0.78,3.5c0.24,1.17,0.57,2.31,1,3.42c0.03,0.12,0.16,0.2,0.28,0.16s0.2-0.16,0.16-0.28
			C510.37,436.35,510.14,435.76,509.94,435.18z"/>
		<path class="st0" d="M536.86,428.39c-1.74,0.26-3.5,0.38-5.27,0.54c-1.77,0.15-3.5,0.4-5.25,0.66c-0.09,0-0.09,0.17,0,0.15
			c1.77-0.12,3.52-0.26,5.27-0.49s3.5-0.49,5.27-0.6C537.05,428.61,537.03,428.39,536.86,428.39z"/>
		<path class="st0" d="M580.04,458.6c-0.68-15.22-1.64-30.39-3.18-45.55c-0.75-7.54-1.61-15.08-2.67-22.59
			c-0.95-7.38-2.4-14.69-4.36-21.87c-1.35-5.56-3.82-10.79-7.28-15.36c-3.46-4.54-9.02-6.97-14.7-6.42
			c-6.66,0.81-12.02,5.02-16.66,9.57c-5.21,5.11-9.97,10.75-14.77,16.17c-1.23,1.38-2.43,2.76-3.64,4.18c-0.11,0.12,0,0.29,0.2,0.17
			c4.7-5.41,9.6-10.75,14.71-15.69c4.75-4.61,9.61-9.72,16.17-11.64c3.04-0.98,6.3-1.05,9.38-0.21c2.45,0.78,4.66,2.17,6.42,4.05
			c3.69,3.84,5.76,9.05,7.23,14.07c4.1,13.99,5.56,28.64,7.08,43c1.54,14.68,2.58,29.39,3.32,44.12s1.32,29.64,2.75,44.4
			c0.17,1.83,0.41,3.64,0.64,5.45c0.15,1.23,2.06,1.23,1.95,0C581.43,489.16,580.74,473.88,580.04,458.6z"/>
		<path class="st1" d="M530.37,357.98c0,0,8.68-16.08-1.54-21.24c-10.21-5.16-44.53,33.19-54.65,89.25c0,0,55.48-24.57,74.33-49
			C567.34,352.56,545.94,347.14,530.37,357.98z"/>
		<path class="st0" d="M538.52,371.05c-6.23,0-12.45-0.48-18.69-0.43c1.17-1.34,2.33-2.69,3.52-4.01c1.74-1.78,3.37-3.68,4.87-5.67
			c0.09-0.14-0.11-0.31-0.23-0.21c-1.68,1.46-3.26,3.04-4.71,4.73c-1.57,1.66-3.1,3.33-4.61,5.01c-2.38,2.56-4.71,5.19-7.05,7.82
			v-4.02c0-2.12,0-4.24,0-6.34c0-4.3,0-8.6,0.34-12.88c0-0.17-0.25-0.15-0.26,0c-0.29,4.3-0.74,8.57-0.95,12.88
			c-0.11,2.12-0.15,4.22-0.18,6.34c0,1.09,0,2.18,0,3.29c0,0.58,0,1.21,0,1.83c-0.37,0.41-0.75,0.81-1.11,1.23
			c-4.98,5.68-9.71,11.56-14.31,17.55c0-0.34,0-0.68-0.09-1c0-0.66-0.14-1.32-0.22-1.98c-0.15-1.43-0.35-2.86-0.57-4.27
			s-0.41-2.67-0.63-4.01s-0.63-3.07-0.74-4.53c0.03-0.07-0.01-0.15-0.09-0.18c-0.07-0.03-0.15,0.01-0.18,0.09
			c-0.01,0.03-0.01,0.06,0,0.09c0.27,1.52,0.44,3.06,0.52,4.61c0.14,1.37,0.26,2.73,0.38,4.12c0.12,1.38,0.25,2.73,0.38,4.12
			c0.08,0.66,0.14,1.32,0.2,1.98c0,0.32,0.08,0.66,0.12,0.98c0.03,0.28,0.12,0.55,0.28,0.78c-0.8,1.03-1.54,2.06-2.38,3.07
			c-3.15,4.16-6.23,8.37-9.32,12.58c-0.09,0.14,0.09,0.31,0.18,0.18c2.93-3.82,5.94-7.57,8.98-11.27c2.29,0.09,4.61-0.08,6.9-0.12
			h7.22c0.07-0.03,0.11-0.1,0.09-0.18c-0.01-0.04-0.05-0.07-0.09-0.09c-2.41,0-4.81,0.08-7.22,0.09s-4.44-0.11-6.63,0
			c2.69-3.27,5.41-6.5,8.12-9.74c0.98-1.18,1.98-2.35,2.98-3.53c0.92,0.12,1.85,0.15,2.78,0.09h3.29l6.14-0.09
			c4.24,0,8.48-0.2,12.7-0.22c0.07-0.03,0.11-0.1,0.09-0.18c-0.01-0.04-0.05-0.07-0.09-0.09c-4.24,0-8.48-0.23-12.72-0.34
			c-2.06,0-4.1-0.12-6.14-0.14h-3.29c-0.61,0-1.26,0-1.89,0l6.99-8.28c0.06-0.03,0.11-0.09,0.12-0.15c2.29-2.67,4.61-5.36,6.85-8.02
			c0.32-0.37,0.65-0.72,0.95-1.09c6.47,0.2,12.92-0.23,19.38-0.09c0.09,0,0.16-0.07,0.16-0.16
			C538.68,371.12,538.61,371.05,538.52,371.05C538.52,371.05,538.52,371.05,538.52,371.05z"/>
		<path class="st0" d="M535.33,382.07h-1.54c-0.15,0-0.14,0.23,0,0.23h1.54C535.49,382.32,535.49,382.07,535.33,382.07z"/>
		<path class="st0" d="M531.98,382.09l-6-0.12l-2.99-0.09c-0.92-0.12-1.86-0.12-2.78,0c-0.11,0-0.08,0.15,0,0.18
			c0.92,0.19,1.86,0.26,2.79,0.2h2.99c2,0,3.99,0,5.99,0C532.15,382.32,532.13,382.09,531.98,382.09z"/>
		<path class="st0" d="M514.55,400.75c-4.06-0.67-8.17-1.04-12.29-1.11 M502.26,399.73c4.07,0.38,8.15,0.61,12.21,1.26
			c0.15,0.09,0.21-0.15,0.08-0.25L502.26,399.73z"/>
		<path class="st0" d="M497.85,382.97c0-0.35-0.08-0.72-0.14-1.07c-0.09-0.8-0.23-1.54-0.35-2.4c-0.23-1.54-0.51-3.07-0.8-4.61
			c0-0.14-0.26-0.11-0.25,0c0.19,1.57,0.36,3.13,0.51,4.7c0.08,0.78,0.12,1.54,0.2,2.32c-0.02,0.74,0.08,1.49,0.31,2.2
			c0.08,0.14,0.26,0.19,0.4,0.11c0.07-0.04,0.12-0.11,0.14-0.19C497.93,383.67,497.92,383.31,497.85,382.97z"/>
		<path class="st0" d="M579.49,337.32c-1.98-3.69-4.5-8.57-9.46-8.26c-4.1,0.25-5.94,4.42-6.82,7.88
			c-2.7,10.75-2.89,21.94-3.41,32.88c-1.12,23.13-2.12,46.29-2.26,69.43c0,6.42,0,12.84,0,19.26c0,6.54,0,13.13,0.46,19.66
			c0.05,0.27,0.3,0.45,0.57,0.4c0.2-0.04,0.36-0.19,0.4-0.4c0-5.61-0.17-11.2-0.18-16.8s0-10.93,0.11-16.39
			c0.17-11.08,0.47-22.14,0.89-33.2c0.4-11,0.89-21.98,1.35-32.97c0.23-5.5,0.46-10.98,0.71-16.48c0.25-5.5,0.48-10.64,1.08-15.94
			c0.35-2.96,0.78-5.93,1.41-8.85c0.32-2.16,1.21-4.19,2.58-5.9c1.96-1.92,5.02-2.14,7.23-0.52c2.26,1.63,4.03,3.84,5.13,6.4
			C579.35,337.62,579.58,337.48,579.49,337.32z"/>
		<path class="st1" d="M578.16,335.56c0,0-4.07-14.39,4.93-7.19c15,11.98,15.54,38.02,15.54,38.02s-26.66-15.48-29.98-25.69
			C563.69,325.5,578.16,335.56,578.16,335.56z"/>
		<path class="st0" d="M593.01,355.72l-0.75-1.18c0.03-0.41,0.03-0.82,0-1.23c0-0.61,0-1.24,0-1.86c0-1.21,0.05-2.42,0.14-3.64
			c0-0.17-0.25-0.17-0.26,0c0,1.2-0.11,2.38-0.14,3.58c0,0.6,0,1.2,0,1.8c0,0.23,0,0.49,0,0.77c-1.06-1.63-2.13-3.24-3.24-4.82
			c-0.32-0.46-0.66-0.91-0.98-1.35c-0.16-1.56-0.19-3.13-0.09-4.7c0-1.67,0-3.35,0.11-5.02c0-0.17-0.25-0.15-0.26,0
			c0,1.75-0.12,3.49-0.21,5.22c-0.1,1.24-0.14,2.48-0.11,3.72c-2.58-3.5-5.3-6.86-8.06-10.23c-0.09-0.11-0.29,0-0.2,0.17
			c1.7,2.17,3.35,4.38,4.96,6.63c-3.07-0.74-6.33-1.15-9.52-1.61c-0.15,0-0.22,0.21,0,0.25c3.38,0.51,6.7,1.35,10.03,2.09l0,0
			l3.79,5.42l1.54,2.23h-0.14l-1.04-0.14c-0.72-0.09-1.54-0.15-2.21-0.2c-1.54-0.12-3.07-0.21-4.61-0.29c-0.15,0-0.15,0.25,0,0.26
			c1.54,0,3.07,0.14,4.53,0.31l2.38,0.29l1.04,0.12H590l2.56,3.78c1.54,2.23,2.84,4.61,4.45,6.76c0.05,0.04,0.13,0.04,0.17-0.01
			c0.03-0.03,0.04-0.07,0.03-0.11C595.96,360.3,594.55,357.96,593.01,355.72z"/>
		<path class="st0" d="M586.37,339.46c0-0.55,0-1.12,0-1.67c-0.03-1.18,0.02-2.36,0.14-3.53c0-0.07-0.05-0.12-0.12-0.12
			c-0.07,0-0.12,0.05-0.12,0.12c0,1.15-0.14,2.32-0.18,3.49c0,0.58,0,1.17,0,1.75v0.8c-0.05,0.28-0.05,0.57,0,0.84
			c0,0.06,0.05,0.11,0.11,0.11s0.11-0.05,0.11-0.11c0.04-0.25,0.04-0.51,0-0.77C586.37,340.04,586.37,339.75,586.37,339.46z"/>
		<path class="st0" d="M583.07,345.46c-0.98-0.17-2-0.21-2.99-0.29s-2.2-0.2-3.3-0.34c-0.07,0-0.12,0.05-0.12,0.12
			s0.05,0.12,0.12,0.12l0,0c2.1,0.14,4.21,0.52,6.31,0.6c0.06,0,0.1-0.06,0.1-0.12C583.18,345.5,583.13,345.46,583.07,345.46z"/>
		<path class="st0" d="M591.45,345.46c0.08,0.11,0,0.43,0,0.55v0.48c0,0.32,0,0.66,0,1v1.04c-0.07,0.29-0.07,0.59,0,0.88
			 M591.55,349.41c0.04-0.14,0.04-0.28,0-0.41c0-0.17,0-0.32,0-0.48v-1c0-0.34,0-0.68,0-1.01v-0.46c0-0.14,0-0.45,0-0.55
			s-0.21-0.23-0.09-0.03L591.55,349.41z"/>
		<path class="st0" d="M580.12,414.11c-5.61-4.21-10.64-10.26-18.18-10.55c-6.23-0.25-10.6,4.44-13.08,9.66
			c-1.26,2.78-2.29,5.65-3.07,8.6c-1.13,3.93-2.19,7.89-3.18,11.87c-1.95,7.82-3.61,15.7-4.99,23.65
			c-0.75,4.44-1.46,8.88-2.03,13.33c-0.7,4.52-1.14,9.08-1.31,13.65c0,0.39,0.31,0.71,0.7,0.71c0.34,0,0.63-0.23,0.7-0.56
			c0.75-3.73,1.08-7.59,1.63-11.35c0.55-3.76,1.12-7.57,1.77-11.35c1.28-7.56,2.77-15.07,4.47-22.54
			c1.54-7.05,3.18-14.22,5.45-21.08c1.64-4.93,4.25-10.67,9.57-12.44c8.09-2.7,15.45,4.15,21.36,8.6
			C580.08,414.4,580.24,414.22,580.12,414.11z"/>
		<path class="st1" d="M574.32,410.09c0,0-5.18-14.76,2.3-17.64c11.21-4.35,40.53,28.69,34.78,79.29c0,0-22.65-12.49-39.37-26.52
			c-16.72-14.04-21.01-32.37-13.65-37.12S574.32,410.09,574.32,410.09z"/>
		<path class="st0" d="M608.02,460.89c-0.78-1.77-1.69-3.48-2.72-5.11c-0.97-1.72-1.93-3.46-2.93-5.16
			c-1.95-3.33-3.89-6.66-5.88-9.97l-0.98-1.54c0-0.2,0-0.4,0.12-0.6c0.12-0.49,0.23-0.97,0.34-1.46c0.25-1.11,0.45-2.21,0.64-3.32
			c0.41-2.17,0.78-4.36,1.37-6.48c0-0.15-0.22-0.22-0.25,0c-0.46,2.17-1.15,4.3-1.8,6.4c-0.31,1.04-0.65,2.09-0.92,3.15l-0.28,1.07
			c-2.41-3.95-4.87-7.88-7.51-11.67c0.17-0.52,0.26-1.07,0.26-1.63c0.08-0.74,0.17-1.54,0.26-2.21c0.2-1.67,0.38-3.33,0.63-4.99
			c0.49-3.26,0.97-6.5,1.78-9.69c-0.03-0.07-0.1-0.11-0.18-0.09c-0.04,0.01-0.07,0.05-0.09,0.09c-0.8,3.18-1.67,6.37-2.29,9.6
			c-0.29,1.54-0.57,3.18-0.78,4.78c-0.1,0.8-0.19,1.6-0.28,2.4l-0.09,0.74c-0.81-1.15-1.63-2.3-2.47-3.42
			c-2.6-3.39-5.27-6.73-7.99-10.03c-0.09-0.14-0.31,0-0.2,0.14c4.63,5.93,8.88,12.15,12.73,18.61c0.75,1.18,1.54,2.38,2.21,3.58
			l-0.74-0.09c-0.94-0.12-1.9-0.18-2.86-0.28l-5.71-0.49c-3.82-0.31-7.68-0.54-11.46-0.94c-0.15,0-0.2,0.23,0,0.25
			c3.87,0.45,7.68,1.06,11.55,1.61c1.89,0.26,3.78,0.52,5.67,0.75c1.44,0.3,2.91,0.45,4.38,0.46l4.5,7.29
			c-0.34-0.02-0.68-0.02-1.01,0h-5.45c-2.46,0-4.91,0-7.37,0c-0.17,0-0.14,0.25,0,0.25c2.49,0,4.98,0.15,7.46,0.29
			c1.18,0,2.36,0.12,3.53,0.21l1.78,0.12c0.51,0.11,1.03,0.11,1.54,0l3.82,6.14c1.17,1.9,2.36,3.82,3.56,5.71
			c1.14,2.01,2.43,3.94,3.85,5.76C607.87,461.13,608.09,461.04,608.02,460.89z"/>
		<path class="st0" d="M597.23,419.99c-0.23,1.62-0.57,3.23-1.01,4.81c-0.41,1.64-0.89,3.26-1.43,4.87
			c-0.03,0.08,0.02,0.17,0.11,0.2c0.08,0.03,0.17-0.02,0.2-0.11c0.51-1.54,0.95-3.19,1.35-4.82c0.4-1.63,0.65-3.29,1.03-4.91
			C597.47,419.87,597.24,419.82,597.23,419.99z"/>
		<path class="st0" d="M580.58,429.93c-0.34-0.29-0.78-0.45-1.23-0.46l-2.15-0.29c-1.32-0.18-2.66-0.32-3.98-0.48
			c-2.76-0.32-5.53-0.6-8.28-0.94c-0.17,0-0.22,0.23,0,0.25c2.6,0.32,5.19,0.71,7.79,1.06l3.82,0.49l1.84,0.2
			c0.72,0.01,1.43,0.13,2.1,0.37C580.58,430.13,580.67,429.93,580.58,429.93z"/>
		<path class="st0" d="M597.18,452.12c-1.29-0.11-2.61-0.15-3.92-0.18h-1.98h-0.95c-0.41,0.05-0.82,0.05-1.23,0
			c-0.18,0-0.2,0.29,0,0.26c0.39-0.04,0.78-0.04,1.17,0h1.01l1.98,0.12c1.31,0.08,2.63,0.15,3.93,0.15
			C597.34,452.41,597.35,452.13,597.18,452.12z"/>
		<path class="st0" d="M605.15,446.47c0.15-0.75,0.29-1.54,0.43-2.23c0.28-1.46,0.54-2.92,0.81-4.38c-0.03-0.07-0.1-0.11-0.18-0.09
			c-0.04,0.01-0.07,0.05-0.09,0.09l-0.97,4.25l-0.46,2.13c0,0.34-0.14,0.66-0.2,1c-0.11,0.34-0.15,0.69-0.12,1.04
			c0,0.11,0.2,0.21,0.29,0.08C604.96,447.77,605.12,447.13,605.15,446.47z"/>
		<polygon class="st2" points="602.16,490.08 600.9,510.98 597.18,572.73 520.83,572.73 517.11,510.98 515.85,490.08 		"/>
		<polygon class="st3" points="602.16,490.08 600.9,510.98 517.11,510.98 515.85,490.08 		"/>
		<rect x="510" y="475.27" class="st2" width="97.99" height="20.93"/>
		<rect x="368.37" y="168.89" class="st1" width="255.89" height="11.23"/>
		<rect x="382.71" y="180.12" class="st1" width="11.23" height="37.12"/>
		<rect x="382.71" y="180.12" class="st2" width="11.23" height="11.47"/>
		<rect x="598.7" y="180.12" class="st1" width="11.23" height="37.12"/>
		<rect x="598.7" y="180.12" class="st2" width="11.23" height="11.47"/>
		<rect x="422.28" y="97.39" class="st3" width="18.01" height="71.52"/>
		<rect x="422.27" y="93.55" class="st2" width="18.01" height="7.86"/>
		<rect x="422.28" y="111.49" class="st2" width="18.01" height="2.92"/>
		<rect x="422.28" y="151.65" class="st2" width="20.26" height="7.86"/>
		<rect x="440.28" y="85.47" class="st2" width="12.59" height="83.43"/>
		<rect x="442.75" y="93.32" class="st1" width="7.56" height="32.08"/>
		
			<rect x="501.99" y="93.43" transform="matrix(0.703 -0.7112 0.7112 0.703 54.8392 401.6131)" class="st3" width="12.59" height="83.43"/>
		
			<rect x="508.89" y="123.34" transform="matrix(0.703 -0.7112 0.7112 0.703 53.125 405.9835)" class="st2" width="7.56" height="32.08"/>
		<rect x="452.87" y="105.54" class="st0" width="21.38" height="63.36"/>
		<rect x="452.86" y="156.28" class="st3" width="21.38" height="5.91"/>
		<rect x="452.87" y="150.13" class="st3" width="21.38" height="2.29"/>
		<rect x="407.51" y="109.35" class="st0" width="14.76" height="59.55"/>
		<rect x="407.51" y="157.04" class="st3" width="14.76" height="5.54"/>
		<rect x="407.51" y="121.62" class="st3" width="14.76" height="5.54"/>
		<rect x="407.53" y="130.99" class="st3" width="14.76" height="2.15"/>
		<path class="st0" d="M578.66,92.61c-12.59,12.29-14.71,31.4-12.06,48.11c0.08,0.38,0.66,0.28,0.66-0.08
			c0-3.81-0.12-7.57-0.11-11.33c0.08-0.17,0.12-0.34,0.2-0.51c3.39-2.23,6.2-5.24,8.19-8.78c2.1-4.15,2.92-8.81,4.53-13.13
			c0.15-0.41-0.29-0.29-0.58-0.08c-7.68,5.65-10.1,11.73-12.29,19.86c0.05-4.25,0.5-8.49,1.34-12.65
			c1.48-7.87,5.12-15.17,10.5-21.08C579.2,92.72,578.88,92.38,578.66,92.61z"/>
		<path class="st2" d="M581.03,94.04c2.17,0,3.53,3.55,5.22,4.61c0.7,0.57,1.72,0.47,2.29-0.23c0.04-0.05,0.07-0.09,0.1-0.14
			c1.67-2.33-0.63-5.22-2.79-6.83c1.43,0.84,2.93,1.53,4.5,2.07c0.8,0.28,1.68-0.14,1.96-0.94c0.03-0.09,0.05-0.18,0.07-0.27
			c0.74-3.19-3.26-4.61-6-4.61c1.34-0.92,5.14-3.44,3.07-4.61c-2.07-1.17-6.53,2.35-7.99,3.53c-2.13,1.74-4.68,4.33-4.79,7.05
			C576.59,96.68,579.37,94.72,581.03,94.04z"/>
		<path class="st1" d="M580.41,94.58c2.76-1.26,8.09,0.55,8.54-0.49c0.92-2.13-3.33-3.61-5.64-3.89c2.12-0.57,6.14-1.54,6.05-3.53
			c-0.15-2.49-6.22-0.34-9.29,2.01c-3.85,2.96-3.84,5.82-3.19,6.39C577.76,95.87,579.95,94.79,580.41,94.58z"/>
		<path class="st0" d="M549.98,91.39c13.05,11.84,15.89,30.84,13.82,47.61c0,0.37-0.65,0.29-0.66,0c-0.14-3.81-0.17-7.57-0.32-11.33
			l-0.22-0.49c-3.48-2.1-6.4-5.01-8.52-8.48c-2.26-4.05-3.26-8.69-5.04-12.95c-0.15-0.4,0.29-0.31,0.58-0.09
			c7.88,5.34,10.55,11.33,13.05,19.36c-0.21-4.24-0.82-8.46-1.81-12.59c-1.77-7.8-5.67-14.95-11.27-20.65
			C549.44,91.52,549.75,91.17,549.98,91.39z"/>
		<path class="st2" d="M547.67,92.92c-2.17,0.15-3.39,3.65-5.04,4.73c-0.66,0.6-1.68,0.55-2.28-0.11c-0.05-0.05-0.09-0.11-0.13-0.17
			c-1.77-2.27,0.43-5.24,2.52-6.93c-1.39,0.89-2.87,1.64-4.41,2.23c-0.79,0.31-1.68-0.07-1.99-0.86c-0.04-0.09-0.06-0.18-0.08-0.27
			c-0.84-3.15,3.07-4.71,5.82-4.88c-1.37-0.88-5.27-3.24-3.29-4.61c1.98-1.37,6.6,2.1,8.11,3.24c2.2,1.64,4.85,4.15,5.05,6.86
			C552.2,95.36,549.36,93.52,547.67,92.92z"/>
		<path class="st1" d="M548.33,93.43c-2.83-1.15-8.08,0.86-8.57-0.17c-1-2.1,3.21-3.73,5.48-4.1c-2.13-0.49-6.22-1.24-6.14-3.29
			c0-2.5,6.14-0.58,9.35,1.64c3.98,2.81,4.07,5.68,3.46,6.27C551,94.61,548.78,93.61,548.33,93.43z"/>
		<path class="st0" d="M563.34,122.67c0.87,6.34,2.23,12.6,4.05,18.74c0.05,0.25,0.29,0.41,0.55,0.36c0.25-0.05,0.41-0.29,0.36-0.55
			l0,0c-0.86-5.77-2.43-11.44-3.29-17.21c-0.93-5.84-1.27-11.75-1-17.66c0.55-9.74,3.19-20.07,9.54-27.64
			c0.14-0.17-0.15-0.43-0.29-0.26c-12.72,14.82-10.75,32.97-10.75,34.6c-1.8-6.14-3.65-13.16-10.46-19.41
			c-0.29-0.26-0.52-0.14-0.48,0.32c1.21,11.38,4.38,17.32,10.98,23.39C562.81,119.1,563.04,120.9,563.34,122.67z"/>
		<path class="st2" d="M573.67,80.36c2.27-1.01,5.44,1.9,7.68,2.1c1.01,0.24,2.02-0.38,2.26-1.39c0.01-0.05,0.02-0.1,0.03-0.15
			c0.57-3.27-3.27-5.1-6.33-5.68c1.93-0.12,3.82,0.38,5.7-0.12c0.99-0.11,1.7-0.99,1.59-1.98c-0.01-0.1-0.03-0.2-0.06-0.29
			c-0.84-3.69-5.7-3.07-8.58-1.83c0.92-1.63,3.61-6.14,0.89-6.42c-2.72-0.28-5.59,5.73-6.51,7.68c-1.34,2.87-2.69,6.85-1.41,9.72
			C570.37,85.32,572.27,81.89,573.67,80.36z"/>
		<path class="st1" d="M573.29,81.23c2.24-2.7,8.68-3.5,8.62-4.82c-0.12-2.67-5.27-2.04-7.8-1.18c1.9-1.66,5.65-4.61,4.5-6.7
			c-1.41-2.52-6.62,2.76-8.63,6.74c-2.52,5.02-1.04,7.99-0.09,8.25C571.18,83.91,572.9,81.68,573.29,81.23z"/>
		<path class="st2" d="M554.97,126.09l-5.61,42.77h34.11c-0.71-3.79-7.05-42.86-7.05-42.86L554.97,126.09z"/>
	</g>
	<g id="freepik--Floor--inject-70">
		<polygon class="st4" points="-18.47,572.73 66.8,572.35 152.07,572.21 322.59,571.96 493.11,572.21 578.37,572.35 663.65,572.73 
			578.37,573.1 493.11,573.24 322.59,573.5 152.07,573.24 66.8,573.1 		"/>
	</g>
	<g id="freepik--Shadow--inject-70">
		<ellipse class="st1" cx="322.59" cy="644.37" rx="323.26" ry="37.33"/>
	</g>
	<g id="freepik--Notebook--inject-70">
		<polygon class="st2" points="89,568.63 415.11,568.63 398.27,159.49 72.13,159.49 		"/>
		<path class="st2" d="M39.07,117.08h319.01c22.19,0,40.17,17.99,40.17,40.17c0,0,0,0,0,0v2.24l0,0H39.07
			c-11.09,0-20.09-8.99-20.09-20.09c0,0,0,0,0,0v-2.24C18.98,126.07,27.98,117.08,39.07,117.08
			C39.07,117.08,39.07,117.08,39.07,117.08z"/>
		<path class="st0" d="M364.05,159.49v-7.29c0-6.51,5.28-11.79,11.79-11.79l0,0c6.51,0,11.78,5.27,11.78,11.78c0,0.01,0,0.01,0,0.02
			v7.29H364.05z"/>
		<polygon class="st5" points="75.8,620.81 401.94,620.81 387.62,159.49 61.49,159.49 		"/>
		<polygon class="st3" points="347.93,620.81 371.51,620.81 387.62,159.49 364.04,159.49 		"/>
		<polygon class="st1" points="21.79,620.81 347.93,620.81 364.04,159.49 37.9,159.49 		"/>
		<polygon class="st2" points="347.43,229.7 310.5,229.37 273.54,229.17 199.64,229 125.71,229.17 88.75,229.37 51.79,229.7 
			88.72,230.06 125.67,230.26 199.58,230.41 273.51,230.26 310.47,230.06 		"/>
		<polygon class="st2" points="346.61,252.36 309.66,252 272.71,251.8 198.8,251.65 124.87,251.8 87.92,252 50.94,252.36 
			87.89,252.69 124.84,252.89 198.75,253.06 272.66,252.89 309.63,252.69 		"/>
		<polygon class="st2" points="345.76,274.99 308.83,274.65 271.86,274.45 197.97,274.28 124.04,274.44 87.08,274.64 50.1,274.99 
			87.04,275.34 123.99,275.54 197.91,275.7 271.83,275.53 308.8,275.34 		"/>
		<polygon class="st2" points="344.93,297.63 307.98,297.29 271.03,297.09 197.12,296.92 123.21,297.09 86.23,297.29 49.27,297.63 
			86.22,297.98 123.16,298.18 197.08,298.33 270.99,298.18 307.95,297.98 		"/>
		<polygon class="st2" points="344.09,320.28 307.14,319.93 270.19,319.73 196.29,319.57 122.37,319.73 85.4,319.93 48.42,320.28 
			85.37,320.62 122.32,320.82 196.23,320.98 270.16,320.82 307.12,320.62 		"/>
		<polygon class="st2" points="343.26,342.91 306.31,342.58 269.36,342.38 195.45,342.21 121.54,342.38 84.56,342.58 47.59,342.91 
			84.54,343.27 121.49,343.47 195.4,343.62 269.31,343.45 306.28,343.27 		"/>
		<polygon class="st2" points="342.41,365.57 305.46,365.21 268.52,365.01 194.62,364.84 120.69,365.01 83.73,365.21 46.75,365.57 
			83.7,365.9 120.65,366.1 194.56,366.27 268.49,366.1 305.45,365.9 		"/>
		<polygon class="st2" points="341.58,388.2 304.64,387.86 267.69,387.66 193.77,387.5 119.85,387.66 82.88,387.85 45.92,388.2 
			82.87,388.55 119.82,388.75 193.73,388.91 267.64,388.74 304.6,388.54 		"/>
		<polygon class="st2" points="340.74,410.84 303.79,410.5 266.84,410.3 192.93,410.13 119.02,410.3 82.05,410.5 45.07,410.84 
			82.02,411.19 118.97,411.39 192.88,411.56 266.81,411.39 303.78,411.19 		"/>
		<polygon class="st2" points="339.91,433.49 302.96,433.14 266.01,432.94 192.1,432.78 118.17,432.94 81.21,433.14 44.25,433.49 
			81.19,433.83 118.14,434.03 192.05,434.2 265.97,434.03 302.93,433.83 		"/>
		<polygon class="st2" points="339.07,456.12 302.13,455.79 265.17,455.59 191.27,455.42 117.34,455.59 80.38,455.77 43.4,456.12 
			80.35,456.48 117.3,456.68 191.21,456.83 265.14,456.68 302.1,456.48 		"/>
		<polygon class="st2" points="338.24,478.78 301.29,478.42 264.34,478.22 190.43,478.05 116.5,478.22 79.54,478.42 42.57,478.78 
			79.52,479.11 116.47,479.31 190.38,479.48 264.29,479.31 301.26,479.11 		"/>
		<polygon class="st2" points="337.39,501.41 300.44,501.06 263.49,500.87 189.6,500.71 115.67,500.86 78.71,501.06 41.73,501.41 
			78.68,501.75 115.62,501.95 189.54,502.12 263.46,501.95 300.43,501.75 		"/>
		<polygon class="st2" points="336.56,524.05 299.61,523.71 262.67,523.51 188.75,523.34 114.83,523.51 77.86,523.71 40.9,524.05 
			77.85,524.4 114.79,524.6 188.69,524.75 262.62,524.6 299.58,524.4 		"/>
		<polygon class="st2" points="335.72,546.7 298.77,546.35 261.82,546.15 187.91,545.99 114,546.15 77.03,546.35 40.05,546.7 
			77,547.04 113.95,547.24 187.86,547.41 261.79,547.24 298.75,547.04 		"/>
		<polygon class="st2" points="334.89,569.34 297.94,569 260.99,568.8 187.08,568.63 113.15,568.8 76.19,569 39.22,569.34 
			76.17,569.69 113.12,569.89 187.02,570.04 260.95,569.87 297.91,569.69 		"/>
		<polygon class="st2" points="334.04,591.97 297.1,591.63 260.15,591.43 186.23,591.26 112.32,591.43 75.36,591.63 38.38,591.97 
			75.33,592.32 112.28,592.52 186.19,592.69 260.12,592.52 297.08,592.32 		"/>
		<polygon class="st5" points="92.44,159.49 90.79,217.17 88.92,274.84 85.16,390.18 80.87,505.5 78.72,563.16 76.33,620.81 
			77.97,563.13 79.84,505.47 83.62,390.12 87.9,274.81 90.05,217.14 		"/>
		<polygon class="st0" points="369.84,159.49 368.66,201.03 367.32,242.57 364.6,325.64 361.52,408.7 359.97,450.23 358.23,491.75 
			359.4,450.21 360.75,408.67 363.45,325.59 366.55,242.54 368.11,201.02 		"/>
		<polygon class="st0" points="374.17,159.49 372.56,213.47 370.78,267.45 367.2,375.39 363.24,483.34 361.26,537.3 359.09,591.26 
			360.69,537.29 362.48,483.31 366.06,375.36 370.01,267.42 372.01,213.46 		"/>
		<polygon class="st0" points="378.5,159.49 377.12,206.98 375.57,254.46 372.45,349.41 368.93,444.36 367.18,491.83 365.23,539.3 
			366.62,491.81 368.17,444.33 371.3,349.38 374.8,254.43 376.57,206.96 		"/>
		<polygon class="st0" points="382.83,159.49 381.59,203.47 380.14,247.47 377.27,335.45 374,423.41 372.37,467.4 370.55,511.36 
			371.81,467.38 373.23,423.38 376.12,335.41 379.39,247.44 381.02,203.46 		"/>
		<path class="st0" d="M100.22,261.75c2.84,1.29,5.81,2.27,8.86,2.92c1.51,0.33,3.06,0.44,4.61,0.32c1.54-0.15,3.07-0.45,4.61-0.74
			c6.14-1.17,12.29-2.58,18.43-3.76c3.08-0.65,6.2-1.12,9.34-1.43c3.19-0.2,6.39,0.07,9.51,0.8c3.06,0.75,6.07,1.66,9.03,2.73
			c0.69,0.24,1.4,0.41,2.12,0.49c0.75,0.05,1.51,0.05,2.26,0c1.54,0,3.07-0.18,4.61-0.29l9.34-0.81c3.17-0.32,6.36-0.32,9.52,0
			c6.33,1.11,12.04,3.75,18.11,4.98c1.51,0.33,3.06,0.49,4.61,0.51c1.55-0.05,3.09-0.21,4.61-0.48l9.15-1.38
			c3.07-0.41,6.14-0.84,9.21-1.21c3.1-0.43,6.22-0.67,9.35-0.72c-3.09,0.21-6.16,0.58-9.21,1.11c-3.07,0.48-6.14,1-9.21,1.54
			l-9.21,1.54c-1.56,0.31-3.13,0.51-4.71,0.6c-1.6,0.02-3.2-0.12-4.78-0.41c-3.12-0.61-6.19-1.41-9.21-2.4
			c-2.93-0.98-5.92-1.76-8.95-2.32c-3.07-0.26-6.15-0.23-9.21,0.11l-9.34,0.89c-1.54,0.14-3.07,0.25-4.73,0.29c-0.8,0-1.54,0-2.43,0
			c-0.83-0.1-1.64-0.29-2.43-0.58c-2.91-1.07-5.88-2-8.89-2.76c-2.98-0.72-6.05-1-9.11-0.83c-3.07,0.23-6.14,0.75-9.21,1.26
			c-6.14,1.04-12.29,2.32-18.43,3.35c-1.54,0.23-3.07,0.48-4.61,0.57c-1.59,0.07-3.18-0.1-4.71-0.51
			C106,264.35,103.03,263.22,100.22,261.75z"/>
		<path class="st0" d="M262.6,264.63c5.2,0,10.39,0.31,15.56,0.94c2.58,0.2,5.18,0.51,7.68,0.46c2.55-0.2,5.09-0.54,7.6-1.01
			c5.13-0.98,10.32-1.55,15.54-1.72c2.63,0.01,5.25,0.27,7.83,0.78c2.57,0.46,5.05,1.37,7.31,2.69c-2.35-1.07-4.86-1.75-7.43-2.03
			c-2.54-0.35-5.11-0.48-7.68-0.37c-5.11,0.35-10.21,1.29-15.36,2.15c-2.59,0.49-5.2,0.82-7.83,0.98c-2.63-0.08-5.25-0.32-7.85-0.72
			l-7.68-1.15C267.76,265.21,265.2,264.81,262.6,264.63z"/>
		<path class="st0" d="M100.22,290.26c4.08,0.41,8.18,0.62,12.29,0.61c4.12,0.09,8.23,0.14,12.29,0.09
			c4.05-0.05,8.2-0.09,12.29-0.55c4.08-0.46,8.2-0.81,12.29-1.14c4.08-0.32,8.26-0.48,12.41-0.41c2.09,0.02,4.18,0.15,6.25,0.41
			c2.1,0.29,4.05,0.75,6.14,1.04c4.05,0.61,8.14,1.04,12.29,1.43s8.2,0.74,12.29,1.07c-8.26,0-16.51-0.45-24.72-1.34
			c-2.06-0.21-4.13-0.63-6.14-0.91c-2.04-0.22-4.09-0.32-6.14-0.32c-4.08,0-8.19,0.21-12.29,0.54s-8.2,0.66-12.29,1.01
			c-4.13,0.36-8.27,0.47-12.41,0.34c-4.1-0.1-8.19-0.28-12.29-0.52c-2.06-0.15-4.12-0.31-6.14-0.51
			C104.27,290.98,102.23,290.69,100.22,290.26z"/>
		<path class="st0" d="M219.7,292.82c8.29-0.95,16.6-1.66,24.95-2.01c4.18-0.18,8.37-0.21,12.56,0c2.12,0.09,4.22,0.41,6.27,0.63
			c2.04,0.21,4.13,0.41,6.14,0.57c8.28,0.75,16.6,1.18,24.92,1.54c2.07,0,4.15,0.15,6.22,0.08l6.23-0.34
			c4.16-0.17,8.32-0.4,12.5-0.52c-4.15,0.48-8.31,0.84-12.45,1.27l-6.25,0.55c-2.09,0.15-4.19,0.14-6.28,0.14
			c-8.35,0-16.69-0.51-25.03-1.14c-2.07-0.18-4.16-0.4-6.23-0.64s-4.13-0.58-6.14-0.71c-4.12-0.29-8.28-0.23-12.44-0.21
			c-4.16,0.02-8.32,0.17-12.49,0.34L219.7,292.82z"/>
		<path class="st0" d="M100.22,314.11c4.2-0.09,8.39-0.44,12.55-1.04l12.55-1.54c2.1-0.21,4.19-0.45,6.34-0.48s4.25,0.12,6.36,0.29
			c4.21,0.34,8.4,0.8,12.59,1.27c4.19,0.48,8.35,1.07,12.52,1.67c4.14,0.62,8.3,0.99,12.49,1.11c8.38,0.37,16.8,0.21,25.22,0
			c-8.38,0.98-16.81,1.42-25.25,1.34c-4.23-0.06-8.46-0.39-12.65-0.98l-12.5-1.54c-4.18-0.52-8.34-1.01-12.52-1.38
			c-2.09-0.18-4.19-0.35-6.23-0.35c-2.04,0-4.16,0.18-6.25,0.34l-12.58,1.03c-2.1,0.14-4.21,0.29-6.31,0.37
			C104.43,314.34,102.32,314.3,100.22,314.11z"/>
		<path class="st0" d="M101.45,354.68c4.76,0.78,9.52,1.43,14.31,1.9s9.58,0.89,14.37,1.09c9.59,0.5,19.2,0.27,28.75-0.69l7.17-0.86
			c2.42-0.23,4.86-0.32,7.29-0.28c4.85,0.07,9.68,0.33,14.48,0.77c4.81,0.4,9.6,0.88,14.39,1.34c4.79,0.46,9.58,1.01,14.39,1.34
			c-9.64,0-19.26-1-28.87-1.54c-4.79-0.23-9.6-0.52-14.39-0.54c-2.38-0.01-4.76,0.1-7.13,0.34l-7.17,0.94
			c-9.63,0.9-19.33,1.01-28.98,0.32C120.44,358.17,110.87,356.79,101.45,354.68z"/>
		<path class="st0" d="M240.61,360.51c6.14-1,12.41-1.74,18.64-2.33c6.24-0.68,12.53-0.82,18.8-0.43
			c6.27,0.51,12.47,1.54,18.64,2.15c3.07,0.21,6.23,0.17,9.34,0.28c3.1,0.11,6.27,0.21,9.38,0.38c-6.27,0.28-12.47,0.55-18.8,0.51
			c-3.16-0.14-6.27-0.58-9.37-0.91c-3.1-0.32-6.13-0.72-9.2-0.88c-6.2-0.43-12.43-0.39-18.63,0.12L240.61,360.51z"/>
		<path class="st0" d="M154.05,218.08c9.44-1.34,18.95-2.17,28.47-2.72c9.54-0.62,19.11-0.58,28.64,0.11
			c9.52,0.78,18.97,2.1,28.46,2.38c9.49,0.28,19.03,0.23,28.56,0.23c-9.52,0.58-19.04,0.94-28.59,0.89c-2.38,0-4.78,0-7.17-0.2
			s-4.76-0.35-7.14-0.55c-4.75-0.41-9.49-0.89-14.22-1.23c-4.73-0.34-9.48-0.64-14.22-0.66c-4.75-0.02-9.51,0.12-14.27,0.25
			c-4.76,0.12-9.51,0.34-14.27,0.61C163.54,217.46,158.79,217.74,154.05,218.08z"/>
		<path class="st0" d="M100.22,378.17c14.82,0.41,29.42-2.75,44.38-2.17c7.42,0.64,14.74,1.75,22.08,2.7l5.5,0.72l2.73,0.31
			c0.89,0,1.78,0.08,2.7,0c3.65-0.08,7.36-0.37,11.04-0.63c7.39-0.48,14.74-1.14,22.19-1.41c3.75-0.12,7.45,0.12,11.15,0.32
			s7.4,0.57,11.09,0.94s7.37,0.77,11.04,1c1.83,0.14,3.64,0,5.51,0h5.56c7.42,0.12,14.82,0.25,22.22,0.49l-22.21,0.26l-5.56,0.11
			c-0.92,0-1.81,0-2.76,0.11c-0.95,0.11-1.87,0-2.81,0c-3.72-0.15-7.4-0.51-11.1-0.78c-7.36-0.54-14.76-1.23-22.08-1.04
			c-7.33,0.18-14.74,1.03-22.13,1.54c-3.7,0.25-7.4,0.49-11.13,0.55c-0.94,0-1.9,0-2.86-0.08l-2.78-0.34l-5.51-0.75
			c-7.33-1.03-14.65-2.09-21.99-2.9c-3.66-0.32-7.34-0.32-11,0l-11.09,0.64c-3.7,0.2-7.39,0.41-11.1,0.55
			C107.61,378.57,103.91,378.52,100.22,378.17z"/>
		<path class="st0" d="M189.57,424.4c4.68,0.08,9.37-0.14,14.02-0.66l14.02-1.37c9.4-0.76,18.86-0.42,28.18,1
			c2.29,0.31,4.6,0.44,6.91,0.41c2.32-0.08,4.61-0.2,7.02-0.32c4.68-0.22,9.37-0.51,14.07-0.6c2.35,0,4.7,0,7.05,0
			c2.37-0.03,4.73,0.12,7.08,0.43c4.61,0.71,9.29,1.12,13.97,1.54c-4.7-0.07-9.39-0.34-14.07-0.8c-2.32-0.24-4.65-0.31-6.97-0.22
			c-2.35,0-4.61,0.15-7.02,0.28l-14.04,0.81c-2.35,0.14-4.68,0.29-7.05,0.4c-2.38,0.06-4.76-0.07-7.13-0.37
			c-4.61-0.6-9.21-1.24-13.94-1.54c-4.66-0.23-9.33-0.19-13.99,0.12C208.36,424.04,198.95,425.32,189.57,424.4z"/>
	</g>
	<g id="freepik--Character--inject-70">
		<path class="st6" d="M395.75,643.83c2.89,0.95,85.43,0.71,88.58-1.29c1.18-0.74,1.86-12.78,2.24-27.32
			c0.09-3.15,0.15-6.37,0.21-9.69c0-3.9,0.11-7.85,0.14-11.69c0.09-17.25-0.14-32.43-0.14-32.43h-53.75v32.43v11.69l0.28,9.69
			c0,0-31.56,14.24-34.77,16.8C395.33,634.59,392.86,642.88,395.75,643.83z"/>
		<path class="st7" d="M395.75,643.83c2.89,0.95,85.43,0.71,88.58-1.29c1.18-0.74,1.86-12.78,2.24-27.32
			c0.09-3.15,0.15-6.37,0.21-9.69c0-3.9,0.11-7.85,0.14-11.69h-53.86v11.69l0.28,9.69c0,0-31.56,14.24-34.77,16.8
			C395.36,634.59,392.86,642.88,395.75,643.83z"/>
		<path class="st5" d="M395.5,643.95c1.87,0.61,37.04,0.74,62.64,0.22c5.91-0.14,11.33-0.29,15.71-0.49
			c6.02-0.28,10.06-0.6,10.75-1.01c1.46-0.94,2.15-18.6,2.47-37.22h-54.03l0.28,9.74c0,0-31.74,14.31-34.97,16.89
			C395.13,634.65,392.6,642.97,395.5,643.95z"/>
		<path class="st4" d="M396.68,640.62c13.91-0.38,70.06-0.6,83.85,0.08c0.11,0,0.11,0.08,0,0.08c-13.82,0.69-69.93,0.46-83.85,0.08
			C396.39,640.85,396.39,640.64,396.68,640.62z"/>
		<path class="st4" d="M431.34,612.09c5.47-1.03,12.18-0.22,16.37,3.69c0.15,0.14,0,0.37-0.23,0.32
			c-5.24-1.67-10.64-2.78-16.11-3.32c-0.19-0.03-0.32-0.21-0.29-0.4C431.11,612.24,431.21,612.12,431.34,612.09z"/>
		<path class="st4" d="M427.4,614.48c5.48-1.03,12.18-0.22,16.37,3.67c0.17,0.15,0,0.38-0.23,0.34c-5.24-1.68-10.64-2.79-16.11-3.32
			c-0.19-0.03-0.32-0.21-0.29-0.4C427.16,614.63,427.26,614.52,427.4,614.48z"/>
		<path class="st4" d="M423.45,616.88c5.48-1.03,12.18-0.22,16.37,3.67c0.17,0.15,0,0.38-0.23,0.32c-5.24-1.67-10.64-2.77-16.11-3.3
			c-0.19-0.03-0.32-0.21-0.29-0.4C423.21,617.03,423.31,616.91,423.45,616.88z"/>
		<path class="st4" d="M419.5,619.28c5.48-1.04,12.18-0.22,16.37,3.67c0.17,0.15,0,0.38-0.23,0.32c-5.24-1.67-10.64-2.78-16.11-3.3
			c-0.19-0.03-0.32-0.21-0.29-0.4C419.26,619.42,419.37,619.31,419.5,619.28z"/>
		<path class="st4" d="M423.67,607.25c3.89,3.07,8.94,4.22,13.45,5.88c0.37,0.09,0.75-0.13,0.84-0.5c0.02-0.06,0.02-0.13,0.02-0.19
			c0.08,0,0.15-0.08,0.15-0.16c0-0.01,0-0.03-0.01-0.04c-1.68-4.84-4.6-9.16-8.48-12.52c-2.29-1.92-6.3-3.24-8.45-0.26
			C419.04,602.44,421.41,605.5,423.67,607.25z M422.27,602.86c-0.98-6,5.48-2.87,7.11-1.4c1.04,0.96,2.01,1.98,2.9,3.07
			c1.83,2.31,3.54,4.71,5.11,7.2c-2.18-0.97-4.41-1.72-6.62-2.6C428.15,608.17,422.81,606.16,422.27,602.86L422.27,602.86z"/>
		<path class="st4" d="M456.36,603.86c-1.34-3.42-5.54-3.07-8.23-1.86c-4.59,2.28-8.5,5.74-11.33,10.01
			c-0.04,0.06-0.03,0.15,0.03,0.19c0.01,0.01,0.03,0.02,0.05,0.02c-0.12,0.34,0.06,0.72,0.41,0.84c0.08,0.03,0.17,0.04,0.25,0.04
			c4.79-0.48,9.98-0.38,14.5-2.32C454.66,609.6,457.62,607.08,456.36,603.86z M444.66,610.89c-2.36,0.29-4.71,0.48-7.05,0.86
			c2.21-1.95,4.33-3.98,6.74-5.71c1.14-0.84,2.35-1.61,3.59-2.29c1.95-1.03,8.98-2.46,6.54,3.07
			C453.12,609.94,447.45,610.55,444.66,610.89z"/>
		<path class="st8" d="M504.7,332.41c0,0-14.53,143.65-14.87,145.48c0,0.23-0.15,2.99-0.29,7.51
			c-0.78,24.72-2.72,101.83-2.72,101.83h-59.26c0,0,3.87-91.33,6.14-112.63c2.83-27.18,20.65-142.19,20.65-142.19L504.7,332.41z"/>
		<path class="st4" d="M482.77,482.94c1.83-31.11,4.58-62.16,8.23-93.14c2.09-17.46,4.61-34.84,7.08-52.21c0-0.15,0.26-0.15,0.25,0
			c-4.61,30.96-7.85,62.16-10.64,93.34s-4.75,62.33-6.02,93.57c-0.72,17.71-1.27,35.4-1.84,53.1c0,0.18-0.14,0.32-0.32,0.32
			c-0.18,0-0.32-0.14-0.32-0.32C480.01,546.01,480.92,514.39,482.77,482.94z"/>
		<path class="st4" d="M431.31,577.67c1.54-0.2,3.24-0.14,4.81-0.2l5.34-0.14c3.44-0.14,6.86-0.21,10.3-0.28
			c6.91-0.11,13.82-0.08,20.76,0.15c1.9,0,3.79,0.12,5.7,0.2c1.9,0.08,4.07,0.26,6.14,0.25c0.15,0,0.14,0.18,0,0.18
			c-3.47,0-7,0.31-10.49,0.43c-3.49,0.12-6.86,0.18-10.29,0.23c-6.91,0.09-13.82,0-20.76-0.22c-1.9-0.08-3.81-0.11-5.71-0.15
			l-3.07-0.14c-0.9,0.02-1.8-0.02-2.7-0.09c-0.06,0.03-0.13,0.01-0.16-0.05s-0.01-0.13,0.06-0.16
			C431.26,577.67,431.29,577.67,431.31,577.67z"/>
		<path class="st4" d="M504.7,332.41c0,0-14.53,143.65-14.87,145.48c0,0.23-0.15,2.99-0.29,7.51l-27.93-152.98H504.7z"/>
		<path class="st6" d="M549.55,641.27c3.07-0.32,78.12-34.6,80.16-37.72c0.77-1.17-3.59-12.41-9.21-25.81
			c-1.21-2.9-2.36-5.96-3.81-8.91c-1.81-3.73-3.67-7.43-5.51-10.98c-7.94-15.43-15.23-28.1-15.23-28.1l-47.61,21.5l13.82,28.2
			l5.64,11.53l4.24,8.71c0,0-22.88,26-24.74,29.64C545.43,632.96,546.54,641.59,549.55,641.27z"/>
		<path class="st7" d="M549.55,641.27c3.07-0.32,78.12-34.6,80.16-37.72c0.77-1.17-3.59-12.41-9.21-25.81
			c-1.21-2.9-2.36-5.96-3.81-8.91c-1.81-3.73-3.67-7.43-5.51-10.98c-14.68,6.57-35.86,15.85-49.03,21.59l5.64,11.53l4.24,8.71
			c0,0-22.88,26-24.74,29.64C545.41,632.96,546.54,641.59,549.55,641.27z"/>
		<path class="st5" d="M549.36,641.48c3.07-0.32,78.57-34.8,80.61-37.93c0.95-1.44-5.71-17.81-13.1-34.92l-49.14,22.28l4.27,8.75
			c0,0-23.04,26.11-24.89,29.81S546.32,641.85,549.36,641.48z"/>
		<path class="st4" d="M549.07,637.96c12.52-6.14,63.58-29.47,76.42-34.54c0.09,0,0.12,0,0,0c-12.29,6.31-63.52,29.27-76.35,34.66
			C548.9,638.29,548.81,638.09,549.07,637.96z"/>
		<path class="st4" d="M568.88,597.67c4.61-3.21,11-5.22,16.42-3.41c0.22,0.08,0.12,0.37-0.08,0.4c-5.46,0.63-10.83,1.85-16.03,3.62
			c-0.19,0.04-0.38-0.07-0.42-0.26C568.73,597.89,568.78,597.75,568.88,597.67z"/>
		<path class="st4" d="M566.27,601.48c4.61-3.21,11-5.22,16.43-3.41c0.2,0.08,0.11,0.37-0.08,0.4c-5.46,0.63-10.84,1.84-16.05,3.62
			c-0.19,0.04-0.38-0.07-0.42-0.26C566.12,601.7,566.17,601.56,566.27,601.48z"/>
		<path class="st4" d="M563.69,605.29c4.61-3.21,11-5.22,16.42-3.41c0.22,0,0.11,0.37-0.08,0.38c-5.46,0.64-10.83,1.86-16.03,3.64
			c-0.19,0.04-0.38-0.07-0.42-0.26C563.54,605.51,563.59,605.37,563.69,605.29z"/>
		<path class="st4" d="M561.06,609.09c4.61-3.21,11-5.22,16.42-3.41c0.22,0.08,0.11,0.37-0.08,0.38
			c-5.46,0.64-10.83,1.86-16.03,3.64c-0.19,0.04-0.38-0.07-0.42-0.26C560.92,609.31,560.96,609.18,561.06,609.09z"/>
		<path class="st4" d="M559.9,596.42c4.78,1.14,9.87,0.15,14.68-0.2c0.49,0,0.65-0.6,0.49-0.98c0.06-0.04,0.08-0.13,0.04-0.19
			c-0.01-0.02-0.02-0.03-0.04-0.04c-3.52-3.72-7.96-6.44-12.87-7.91c-2.89-0.8-7.08-0.34-7.8,3.24S557.1,595.78,559.9,596.42z
			 M556.82,593c-3.36-5.07,3.81-4.88,5.9-4.21c1.35,0.46,2.67,1.01,3.95,1.64c2.67,1.29,5.11,2.92,7.68,4.45
			c-2.38,0-4.73,0.26-7.09,0.38c-2.9,0.14-8.6,0.51-10.46-2.27H556.82z"/>
		<path class="st4" d="M588.26,579.84c-2.63-2.56-6.36-0.57-8.28,1.7c-3.22,3.99-5.34,8.76-6.14,13.82
			c-0.02,0.08,0.04,0.16,0.12,0.18c0.01,0,0.02,0,0.03,0c0.06,0.38,0.41,0.63,0.79,0.58c0.06-0.01,0.12-0.03,0.18-0.05
			c4.18-2.41,8.94-4.48,12.29-8.11C589.1,585.81,590.75,582.25,588.26,579.84z M580.58,591.08c-2.03,1.24-4.08,2.38-6.07,3.69
			c1.13-2.72,2.39-5.38,3.79-7.97c0.69-1.24,1.46-2.44,2.32-3.58c1.35-1.75,7.19-5.94,7.25,0.14
			C587.83,586.72,582.92,589.64,580.58,591.08z"/>
		<path class="st8" d="M454.32,332.41c0,0,3.92,20.75,18.43,31.31c0,0,31.93,106.81,36.07,119.06c7.14,21.1,45.56,92.6,45.56,92.6
			l59.29-25.45c0,0-45.23-79.66-50.11-85.8c-3.26-4.07-27.64-90.61-27.3-92.89c3.56-26.54-9.03-38.96-9.03-38.96L454.32,332.41z"/>
		<path class="st4" d="M502.26,339.94c1.21,4.17,3.76,7.83,7.25,10.41c3.86,2.74,8.44,4.31,13.18,4.51
			c0.35,0.05,0.59,0.38,0.54,0.74c-0.04,0.28-0.26,0.49-0.54,0.54c-9.66,0-19.41-6.14-20.84-16.14
			C501.86,339.77,502.26,339.72,502.26,339.94z"/>
		<path class="st4" d="M463.44,357.15c3.5,1.4,6.84,3.18,9.97,5.3c3.32,2.04,6.39,4.45,9.58,6.66c0.12,0.09,0,0.29-0.11,0.21
			c-3.36-1.93-6.85-3.61-10.18-5.61c-3.32-1.82-6.47-3.93-9.41-6.31C463.18,357.3,463.29,357.09,463.44,357.15z"/>
		<path class="st4" d="M462.07,337c0.52,2.21,1.15,4.39,1.74,6.6c0.58,2.21,0.98,4.16,1.63,6.14c0.54,1.98,1.64,3.76,3.16,5.13
			c0.84,0.72,1.78,1.35,2.67,2c0.49,0.35,1.01,0.69,1.54,1.06c-0.08-0.29-0.14-0.6-0.22-0.89c-0.18-0.84-0.37-1.69-0.54-2.53
			c-0.41-1.86-0.8-3.73-1.17-5.61c-0.74-3.67-1.43-7.39-2.36-11.03c0-0.14,0.18-0.21,0.23,0c1.07,3.59,2.26,7.14,3.24,10.75
			c0.48,1.78,2.29,10.58,2.38,11.21s0.17,1.29,0.23,1.95c0.11,0.65,0.14,1.32,0.09,1.98c-0.04,0.08-0.14,0.12-0.22,0.08
			c-0.04-0.02-0.07-0.05-0.08-0.08l0,0c-0.29-0.6-0.51-1.23-0.65-1.89c-0.2-0.63-0.37-1.27-0.51-1.9l-0.15-0.69
			c-0.91-0.49-1.75-1.15-2.6-1.7c-0.84-0.55-1.83-1.18-2.69-1.84c-1.6-1.23-2.79-2.92-3.42-4.84c-0.63-2.07-1.08-4.18-1.34-6.33
			c-0.4-2.5-0.72-5.04-1.18-7.52C461.81,336.93,462.04,336.85,462.07,337z"/>
		<path class="st4" d="M554.17,563.41c1.34-0.8,15.36-7.34,18.43-8.77c6.28-2.87,28.01-11.78,30.05-12.53
			c0.68-0.25,0.72,0.12,0.2,0.38c-3.21,1.54-15.77,7.33-18.9,8.74c-6.3,2.87-28.87,12.15-29.75,12.41
			C554.11,563.68,554.05,563.53,554.17,563.41z"/>
		<path class="st4" d="M523.35,334.85c5.21,7.84,8.05,17.01,8.2,26.41c0.03,2.35-0.14,4.7-0.51,7.02c-0.09,0.58-0.17,1.17-0.31,1.74
			l-0.17,0.86c-0.08,0.24-0.11,0.49-0.11,0.74c0.14,1.07,0.43,2.24,0.68,3.36c1.08,4.51,2.26,9.01,3.46,13.51
			c4.84,17.98,9.72,35.95,14.87,53.86l3.87,13.41c0.66,2.23,1.34,4.45,2.04,6.66c0.35,1.09,0.71,2.21,1.12,3.22
			c0.41,1.01,0.98,2.06,1.54,3.07c4.38,8.19,9.12,16.22,13.71,24.31c0,0,23.36,39.27,28.18,48.31c0.21,0.41,0.11,0.69-0.32,0.12
			c-4.18-5.44-19.41-31.8-28.89-47.84c-4.76-8.02-9.44-16.05-13.93-24.25c-0.57-1.01-1.08-2.1-1.61-3.16
			c-0.54-1.06-0.81-2.24-1.18-3.35c-0.74-2.23-1.41-4.45-2.09-6.7c-1.34-4.45-2.66-8.92-3.92-13.41
			c-5.02-17.95-9.97-35.9-14.51-53.98c-1.12-4.53-2.24-9.05-3.24-13.61c-0.28-1.16-0.49-2.32-0.64-3.5
			c-0.01-0.33,0.03-0.66,0.12-0.98l0.2-0.84c0.12-0.55,0.22-1.12,0.31-1.69c0.39-2.28,0.6-4.58,0.63-6.9
			C530.89,351.93,528.3,342.77,523.35,334.85z"/>
		<path class="st4" d="M462.07,195.29c3.98-6.42,12.29-9.21,20.76-9.05s19.07,2.44,22.31,15.43c2.64,10.53,1.03,21.5,3.19,33.42
			c2.17,11.92,21.38,38.47,1.31,56.48c-18.03,16.2-61.23,11.59-67.14-14.34c-4.61-20.56,17.68-44.17,18.93-52.84
			S457.73,202.32,462.07,195.29z"/>
		<path class="st4" d="M460.45,207.64c1.07,6.02,0.89,12.2-0.52,18.15c-0.41,1.54-1.03,3.01-1.86,4.38
			c-0.78,1.38-1.64,2.69-2.5,3.99c-1.74,2.58-3.46,5.16-5.05,7.79c-3.24,5.15-5.69,10.75-7.28,16.62
			c-1.46,5.82-1.75,11.87-0.86,17.8c-0.8-2.93-1.23-5.95-1.31-8.98c-0.05-3.06,0.24-6.12,0.84-9.12c1.34-6.09,3.73-11.89,7.05-17.17
			c1.63-2.67,3.41-5.25,5.18-7.82c1.87-2.39,3.37-5.05,4.45-7.88c0.9-2.86,1.45-5.81,1.64-8.8
			C460.5,213.61,460.57,210.62,460.45,207.64z"/>
		<path class="st4" d="M506.16,210.74c0.92,6.07,1.54,12.18,2.84,18.17c0.6,2.98,1.39,5.92,2.36,8.8c0.98,2.84,2.43,5.59,3.7,8.42
			c1.27,2.83,2.5,5.7,3.55,8.63c1.03,2.94,1.78,5.98,2.24,9.06c0.4,3.1,0.35,6.25-0.17,9.34c-0.7,3.1-2.04,6.03-3.93,8.58
			c1.58-2.67,2.62-5.62,3.07-8.69c0.34-3,0.23-6.04-0.32-9.01c-1.31-5.97-3.35-11.75-6.07-17.23c-1.38-2.79-2.6-5.66-3.67-8.58
			c-0.95-2.96-1.66-6-2.12-9.08C506.76,223.04,506.26,216.9,506.16,210.74z"/>
		<path class="st6" d="M478.43,256.64c-6.4,8.8-45.81,41-69.23,37.65c-12.68-1.81-20.61-28.38-23.28-37.56l2.23-63.3
			c9.63,10.61,31.17,63.78,34.69,63.78c10.55,0,26.23-7.48,48.14-11.69C482.3,243.4,483.37,249.87,478.43,256.64z"/>
		<path class="st5" d="M479.23,259.57c-7.89,11.39-33.92,29.85-33.92,29.85l-3.47-7.97l-11.53-26.37c0,0,23.77-7.19,39.41-10.34
			c1.84-0.38,3.71-0.63,5.59-0.72C485.37,243.62,486.08,249.78,479.23,259.57z"/>
		<path class="st7" d="M431.01,255.53c0,0.19-0.1,0.36-0.26,0.45l-0.4-0.89h0.23C430.8,255.12,430.98,255.31,431.01,255.53z"/>
		<path class="st7" d="M440.44,255.53c0,0.3-0.24,0.54-0.54,0.54l0,0c-0.29,0.01-0.53-0.22-0.54-0.51c0-0.01,0-0.02,0-0.03
			c0-0.3,0.24-0.54,0.54-0.54l0,0C440.19,255,440.44,255.24,440.44,255.53L440.44,255.53z"/>
		<path class="st7" d="M449.86,255.53c0,0.3-0.24,0.54-0.54,0.54l0,0c-0.29,0.01-0.53-0.22-0.54-0.51c0-0.01,0-0.02,0-0.03
			c0-0.3,0.24-0.54,0.54-0.54l0,0C449.62,255,449.86,255.24,449.86,255.53L449.86,255.53z"/>
		<path class="st7" d="M459.26,255.53c0,0.3-0.24,0.54-0.54,0.54s-0.54-0.24-0.54-0.54s0.24-0.54,0.54-0.54
			S459.26,255.24,459.26,255.53z"/>
		<path class="st7" d="M468.72,255.53c0,0.3-0.24,0.54-0.54,0.54s-0.54-0.24-0.54-0.54s0.24-0.54,0.54-0.54
			S468.72,255.24,468.72,255.53z"/>
		<path class="st7" d="M478.15,255.53c0,0.3-0.24,0.54-0.54,0.54s-0.54-0.24-0.54-0.54s0.24-0.54,0.54-0.54
			S478.15,255.24,478.15,255.53z"/>
		<path class="st7" d="M454.66,248.72c0,0.3-0.24,0.54-0.54,0.54l0,0c-0.3,0-0.54-0.24-0.54-0.54v0c-0.01-0.03-0.01-0.06,0-0.09
			l0.94-0.25C454.6,248.47,454.65,248.59,454.66,248.72z"/>
		<path class="st7" d="M464.01,248.72c0,0.3-0.24,0.54-0.54,0.54s-0.54-0.24-0.54-0.54s0.24-0.54,0.54-0.54
			S464.01,248.42,464.01,248.72z"/>
		<path class="st7" d="M473.44,248.72c0,0.3-0.24,0.54-0.54,0.54s-0.54-0.24-0.54-0.54s0.24-0.54,0.54-0.54
			S473.44,248.42,473.44,248.72z"/>
		<path class="st7" d="M482.87,248.72c0,0.3-0.24,0.54-0.54,0.54s-0.54-0.24-0.54-0.54s0.24-0.54,0.54-0.54
			S482.87,248.42,482.87,248.72z"/>
		<path class="st7" d="M440.44,269.28c0,0.3-0.24,0.54-0.54,0.54l0,0c-0.3-0.05-0.5-0.34-0.45-0.64c0.04-0.23,0.22-0.41,0.45-0.45
			C440.2,268.73,440.44,268.98,440.44,269.28z"/>
		<path class="st7" d="M449.86,269.28c0,0.3-0.24,0.54-0.54,0.54l0,0c-0.3-0.05-0.5-0.34-0.45-0.64c0.04-0.23,0.22-0.41,0.45-0.45
			C449.63,268.73,449.86,268.98,449.86,269.28z"/>
		<path class="st7" d="M459.26,269.28c-0.01,0.3-0.26,0.53-0.55,0.52c-0.3-0.01-0.53-0.26-0.52-0.55c0.01-0.29,0.25-0.52,0.54-0.52
			c0.3,0,0.54,0.24,0.54,0.54C459.26,269.27,459.26,269.27,459.26,269.28z"/>
		<path class="st7" d="M468.72,269.28c-0.01,0.3-0.26,0.53-0.55,0.52c-0.3-0.01-0.53-0.26-0.52-0.55c0.01-0.29,0.25-0.52,0.54-0.52
			c0.3,0,0.54,0.24,0.54,0.54C468.72,269.27,468.72,269.27,468.72,269.28z"/>
		<path class="st7" d="M435.72,262.41c0,0.3-0.24,0.54-0.54,0.54l0,0c-0.3,0-0.54-0.24-0.54-0.54c0-0.3,0.24-0.54,0.54-0.54
			C435.48,261.88,435.72,262.12,435.72,262.41z"/>
		<path class="st7" d="M445.15,262.41c0,0.3-0.24,0.54-0.54,0.54l0,0c-0.3,0-0.54-0.24-0.54-0.54c0-0.3,0.24-0.54,0.54-0.54
			C444.91,261.88,445.15,262.12,445.15,262.41z"/>
		<path class="st7" d="M454.66,262.41c0,0.3-0.24,0.54-0.54,0.54l0,0c-0.3,0-0.54-0.24-0.54-0.54c0-0.3,0.24-0.54,0.54-0.54
			c0,0,0,0,0,0C454.42,261.88,454.66,262.12,454.66,262.41z"/>
		<path class="st7" d="M464.01,262.41c0,0.3-0.24,0.54-0.54,0.54s-0.54-0.24-0.54-0.54c0-0.3,0.24-0.54,0.54-0.54
			S464.01,262.12,464.01,262.41L464.01,262.41z"/>
		<path class="st7" d="M473.44,262.41c0,0.3-0.24,0.54-0.54,0.54s-0.54-0.24-0.54-0.54c0-0.3,0.24-0.54,0.54-0.54
			S473.44,262.12,473.44,262.41L473.44,262.41z"/>
		<path class="st7" d="M449.86,283.01c0,0.3-0.24,0.54-0.54,0.54l0,0c-0.3,0-0.54-0.24-0.54-0.54c0-0.3,0.24-0.54,0.54-0.54
			C449.62,282.47,449.86,282.71,449.86,283.01z"/>
		<path class="st7" d="M445.15,276.14c0,0.3-0.24,0.54-0.54,0.55c-0.3-0.05-0.5-0.34-0.45-0.64c0.04-0.23,0.22-0.41,0.45-0.45
			C444.91,275.61,445.15,275.85,445.15,276.14L445.15,276.14z"/>
		<path class="st7" d="M454.66,276.14c0,0.3-0.24,0.54-0.54,0.55c-0.3-0.05-0.5-0.34-0.45-0.64c0.04-0.23,0.22-0.41,0.45-0.45
			C454.42,275.61,454.66,275.85,454.66,276.14L454.66,276.14z"/>
		<path class="st4" d="M479.23,259.57c-7.89,11.39-33.92,29.85-33.92,29.85l-3.47-7.97c9.75-11.06,24.8-27.8,33.46-37.42
			C485.37,243.62,486.08,249.78,479.23,259.57z"/>
		<path class="st4" d="M450.05,284.19c-1.9-4.85-10.43-24.4-12.55-28.5c-0.15-0.29-0.37-0.26-0.25,0
			c3.68,9.73,7.88,19.25,12.61,28.52C449.93,284.36,450.13,284.31,450.05,284.19z"/>
		<path class="st6" d="M363.73,196.9c-2.32,4.47,4.27,4.61,4.27,4.61s-9.55,2.03-10.15,7.56c-0.6,5.53,7.39,5.27,7.95,5.27
			c-0.49,0.12-9.21,2.21-9.21,7.83c0,5.62,7.95,4.39,8.46,4.3c-0.43,0.26-6.23,3.73-5.3,8c1.63,7.36,16.69-1.12,22.48,0.77
			l-2.04,9.52c0,0.32,0,0.66,0,0.97l4.82,1.27c1.83-2.84,3.88-5.52,6.14-8.03c2.69-3.24,5.18-6.39,5.7-8.97
			c0.58-2.36-0.47-4.82-2.56-6.05c0,0,4.94-2,5.11-6.42c0.09-2.27-3.47-4.42-3.47-4.42c2.24-1.03,3.71-3.23,3.81-5.7
			c0-3.15-3.62-4.81-3.62-4.81s2.96-3.42,1.84-6.62C395.59,189.56,368.66,187.29,363.73,196.9z"/>
		<path class="st6" d="M382.48,236.58l-2.3,8.2c0,0.32,0,0.66,0,0.97c0,10.89,10.75,19.67,13.08,12.19
			c1.74-5.68-4.79-13.38-2.18-18.95l0,0L382.48,236.58z"/>
		<path class="st4" d="M395.46,202.14c-9-3.04-18.71-3.26-27.84-0.64c-0.29,0.09-0.26,0.6,0.08,0.55c9.22-1.28,18.57-1.2,27.77,0.23
			V202.14z"/>
		<path class="st4" d="M395.93,213.1c0.11,0,0.14-0.17,0-0.2c-9.96-3.24-20.75-2.82-30.42,1.18c-0.34,0.15-0.49,0.63-0.09,0.48
			C372.14,212.15,387.33,211.64,395.93,213.1z"/>
		<path class="st4" d="M364.43,227.03c9.49-3.82,19.26-4.24,29.35-3.21c0.14,0,0.14-0.17,0-0.21c-4.79-1.84-11.3-1.83-16.35-1.38
			c-4.7,0.32-9.24,1.86-13.16,4.48C364.14,226.8,364.24,227.12,364.43,227.03z"/>
		<path class="st4" d="M380.76,239.85c0.52-1.64,0.95-3.21,1.46-4.85c0-0.15,0.29,0,0.28,0.08c-0.29,2.4-0.86,4.7-1.23,7.09
			c-0.37,2.45-0.33,4.94,0.12,7.37c0.41,2.13,1.22,4.15,2.4,5.97c1.2,1.84,2.98,3.96,5.28,4.35c2.3,0.38,3.93-1.46,4.13-3.7
			c0.2-2.24-0.94-4.39-1.74-6.4c-0.93-2.17-1.54-4.46-1.8-6.8c-0.04-2.08,0.63-4.1,1.9-5.74c0.78-1.18,1.54-2.35,2.4-3.52
			c0.75-0.94,1.38-1.97,1.87-3.07c0.92-2.39,0.12-5.1-1.95-6.6c-0.17-0.11,0-0.37,0.15-0.25c1.74,1.07,3,2.78,3.49,4.76
			c0.3,2.17-0.36,4.36-1.81,6l-2.46,3.53c-0.99,1.15-1.63,2.56-1.84,4.07c-0.14,2.86,1.24,5.82,2.26,8.42
			c1.06,2.15,1.39,4.59,0.95,6.94c-0.43,2.02-2.04,3.58-4.07,3.95c-4.9,0.69-8.49-4.99-9.84-8.94c-0.92-2.71-1.22-5.6-0.88-8.45
			C380.01,242.63,380.32,241.23,380.76,239.85z"/>
		<path class="st4" d="M373.99,235.83c1.08-0.51,2.23-0.87,3.41-1.07c1.18-0.24,2.38-0.33,3.58-0.28c1.12,0.01,2.23,0.23,3.27,0.66
			c0.95,0.44,1.77,1.12,2.38,1.97c0.05,0.06,0.05,0.14-0.01,0.2c-0.04,0.04-0.11,0.05-0.16,0.02c-0.9-0.36-1.83-0.67-2.76-0.92
			c-1-0.3-2.03-0.52-3.07-0.63c-1.09-0.1-2.19-0.1-3.29,0c-1.12,0.08-2.23,0.32-3.35,0.32c-0.07,0-0.13-0.06-0.13-0.13
			C373.86,235.89,373.91,235.83,373.99,235.83z"/>
		<path class="st4" d="M394.41,223.62l0.52-0.26c0.34-0.2,0.67-0.43,0.98-0.68c0.32-0.26,0.65-0.52,0.95-0.81
			c0.15-0.15,0.32-0.29,0.49-0.41l0.25-0.21c0.1-0.09,0.19-0.18,0.26-0.29c0.11-0.15,0.34,0,0.22,0.17l-0.25,0.31
			c0,0.09-0.11,0.21-0.17,0.31c-0.1,0.21-0.23,0.4-0.37,0.58c-0.27,0.39-0.59,0.74-0.95,1.04c-0.34,0.29-0.74,0.5-1.17,0.63
			c-0.2,0.07-0.42,0.1-0.63,0.11c-0.19,0.02-0.38-0.02-0.55-0.11c-0.03-0.03-0.03-0.09,0-0.12
			C394.13,223.78,394.27,223.7,394.41,223.62z"/>
		<path class="st5" d="M455.47,301.28l-3.7,38.51c0,0,65.01-2.24,80.42-4.08c0,0-18.72-70.76-36.24-88.03
			c-8.75-8.63-18.43-7.48-24.42-0.86c-1.54,1.67-19.09,27.44-20.61,37.03C449.6,292.31,455.47,301.28,455.47,301.28z"/>
		<path class="st7" d="M487.34,242.25c-0.08,0.06-0.19,0.09-0.29,0.09c-0.21,0-0.39-0.12-0.48-0.31L487.34,242.25z"/>
		<path class="st7" d="M468.72,255.53c0,0.3-0.24,0.54-0.54,0.54s-0.54-0.24-0.54-0.54s0.24-0.54,0.54-0.54
			S468.72,255.24,468.72,255.53z"/>
		<path class="st7" d="M478.15,255.53c0,0.3-0.24,0.54-0.54,0.54s-0.54-0.24-0.54-0.54s0.24-0.54,0.54-0.54
			S478.15,255.24,478.15,255.53z"/>
		<path class="st7" d="M487.58,255.53c0.01,0.29-0.22,0.53-0.51,0.54c-0.01,0-0.02,0-0.03,0c-0.3,0-0.54-0.24-0.54-0.54v0
			c0-0.3,0.24-0.54,0.54-0.54l0,0C487.34,255,487.58,255.24,487.58,255.53L487.58,255.53z"/>
		<path class="st7" d="M497.01,255.53c0.01,0.29-0.22,0.53-0.51,0.54c-0.01,0-0.02,0-0.03,0c-0.3,0-0.54-0.24-0.54-0.54v0
			c0-0.3,0.24-0.54,0.54-0.54l0,0C496.77,255,497.01,255.24,497.01,255.53L497.01,255.53z"/>
		<path class="st7" d="M473.44,248.72c0,0.3-0.24,0.54-0.54,0.54s-0.54-0.24-0.54-0.54s0.24-0.54,0.54-0.54
			S473.44,248.42,473.44,248.72z"/>
		<path class="st7" d="M482.87,248.72c0,0.3-0.24,0.54-0.54,0.54s-0.54-0.24-0.54-0.54s0.24-0.54,0.54-0.54
			S482.87,248.42,482.87,248.72z"/>
		<path class="st7" d="M492.3,248.72c0,0.3-0.24,0.54-0.54,0.54l0,0c-0.3,0-0.54-0.24-0.54-0.54v0c0-0.3,0.24-0.54,0.54-0.54l0,0
			c0.29-0.01,0.53,0.22,0.54,0.51C492.3,248.7,492.3,248.71,492.3,248.72z"/>
		<path class="st7" d="M459.26,269.28c-0.01,0.3-0.26,0.53-0.55,0.52c-0.3-0.01-0.53-0.26-0.52-0.55c0.01-0.29,0.25-0.52,0.54-0.52
			c0.3,0,0.54,0.24,0.54,0.54C459.26,269.27,459.26,269.27,459.26,269.28z"/>
		<path class="st7" d="M468.72,269.28c-0.01,0.3-0.26,0.53-0.55,0.52c-0.3-0.01-0.53-0.26-0.52-0.55c0.01-0.29,0.25-0.52,0.54-0.52
			c0.3,0,0.54,0.24,0.54,0.54C468.72,269.27,468.72,269.27,468.72,269.28z"/>
		<path class="st7" d="M478.15,269.28c-0.04,0.29-0.31,0.5-0.6,0.47c-0.29-0.04-0.5-0.31-0.47-0.6c0.04-0.29,0.31-0.5,0.6-0.47
			c0,0,0,0,0.01,0C477.98,268.72,478.19,268.99,478.15,269.28z"/>
		<path class="st7" d="M487.58,269.28c0,0.3-0.24,0.54-0.54,0.54l0,0c-0.3-0.05-0.5-0.34-0.45-0.64c0.04-0.23,0.22-0.41,0.45-0.45
			c0.3,0,0.54,0.24,0.54,0.54C487.58,269.27,487.58,269.27,487.58,269.28z"/>
		<path class="st7" d="M497.01,269.28c0,0.3-0.24,0.54-0.54,0.54l0,0c-0.3-0.05-0.5-0.34-0.45-0.64c0.04-0.23,0.22-0.41,0.45-0.45
			c0.3,0,0.54,0.24,0.54,0.54C497.01,269.27,497.01,269.27,497.01,269.28z"/>
		<path class="st7" d="M506.44,269.28c0,0.3-0.24,0.54-0.54,0.54l0,0c-0.3-0.05-0.5-0.34-0.45-0.64c0.04-0.23,0.22-0.41,0.45-0.45
			c0.3,0,0.54,0.24,0.54,0.54C506.44,269.27,506.44,269.27,506.44,269.28z"/>
		<path class="st7" d="M464.01,262.41c0,0.3-0.24,0.54-0.54,0.54s-0.54-0.24-0.54-0.54c0-0.3,0.24-0.54,0.54-0.54
			S464.01,262.12,464.01,262.41L464.01,262.41z"/>
		<path class="st7" d="M473.44,262.41c0,0.3-0.24,0.54-0.54,0.54s-0.54-0.24-0.54-0.54c0-0.3,0.24-0.54,0.54-0.54
			S473.44,262.12,473.44,262.41L473.44,262.41z"/>
		<path class="st7" d="M482.87,262.41c0,0.3-0.24,0.54-0.54,0.54s-0.54-0.24-0.54-0.54c0-0.3,0.24-0.54,0.54-0.54
			S482.87,262.12,482.87,262.41L482.87,262.41z"/>
		<path class="st7" d="M492.3,262.41c0,0.3-0.24,0.54-0.54,0.54l0,0c-0.3,0-0.54-0.24-0.54-0.54c0-0.3,0.24-0.54,0.54-0.54
			c0,0,0,0,0,0C492.05,261.88,492.3,262.12,492.3,262.41z"/>
		<path class="st7" d="M501.72,262.41c0,0.3-0.24,0.54-0.54,0.54l0,0c-0.3,0-0.54-0.24-0.54-0.54c0-0.3,0.24-0.54,0.54-0.54
			c0,0,0,0,0,0C501.48,261.88,501.72,262.12,501.72,262.41z"/>
		<path class="st7" d="M459.26,283.01c0,0.3-0.24,0.54-0.54,0.54s-0.54-0.24-0.54-0.54c0-0.3,0.24-0.54,0.54-0.54
			S459.26,282.71,459.26,283.01L459.26,283.01z"/>
		<path class="st7" d="M468.72,283.01c0,0.3-0.24,0.54-0.54,0.54s-0.54-0.24-0.54-0.54c0-0.3,0.24-0.54,0.54-0.54
			S468.72,282.71,468.72,283.01L468.72,283.01z"/>
		<path class="st7" d="M478.15,283.01c0.01,0.3-0.22,0.55-0.51,0.56s-0.55-0.22-0.56-0.51c-0.01-0.3,0.22-0.55,0.51-0.56
			c0.03,0,0.07,0,0.1,0C477.95,282.54,478.14,282.75,478.15,283.01z"/>
		<path class="st7" d="M487.58,283.01c0,0.3-0.24,0.54-0.54,0.54l0,0c-0.3,0-0.54-0.24-0.54-0.54c0-0.3,0.24-0.54,0.54-0.54
			C487.34,282.47,487.58,282.71,487.58,283.01z"/>
		<path class="st7" d="M497.01,283.01c0,0.3-0.24,0.54-0.54,0.54l0,0c-0.3,0-0.54-0.24-0.54-0.54c0-0.3,0.24-0.54,0.54-0.54
			c0,0,0,0,0,0C496.77,282.47,497.01,282.71,497.01,283.01z"/>
		<path class="st7" d="M506.44,283.01c0,0.3-0.24,0.54-0.54,0.54l0,0c-0.3,0-0.54-0.24-0.54-0.54c0-0.3,0.24-0.54,0.54-0.54
			c0,0,0,0,0,0C506.2,282.47,506.44,282.71,506.44,283.01z"/>
		<path class="st7" d="M515.28,283.53c-0.28-0.02-0.49-0.25-0.49-0.52c0-0.13,0.05-0.26,0.14-0.37
			C515.05,282.95,515.16,283.24,515.28,283.53z"/>
		<path class="st7" d="M454.66,276.14c0,0.3-0.24,0.54-0.54,0.55c-0.21,0-0.41-0.12-0.49-0.32l0,0c0.12-0.25,0.23-0.48,0.34-0.72
			h0.15C454.4,275.65,454.63,275.86,454.66,276.14z"/>
		<path class="st7" d="M464.01,276.14c0,0.3-0.24,0.54-0.54,0.54s-0.54-0.24-0.54-0.54c0-0.3,0.24-0.54,0.54-0.54
			C463.76,275.61,464,275.85,464.01,276.14z"/>
		<path class="st7" d="M473.44,276.14c0,0.3-0.24,0.54-0.54,0.54s-0.54-0.24-0.54-0.54c0-0.3,0.24-0.54,0.54-0.54
			C473.19,275.61,473.43,275.85,473.44,276.14z"/>
		<path class="st7" d="M482.87,276.14c0,0.3-0.24,0.54-0.54,0.54s-0.54-0.24-0.54-0.54c0-0.3,0.24-0.54,0.54-0.54
			C482.62,275.61,482.86,275.85,482.87,276.14z"/>
		<path class="st7" d="M492.3,276.14c0.01,0.3-0.23,0.54-0.52,0.55c-0.01,0-0.01,0-0.02,0c-0.3-0.05-0.5-0.34-0.45-0.64
			c0.04-0.23,0.22-0.41,0.45-0.45C492.05,275.61,492.3,275.85,492.3,276.14L492.3,276.14z"/>
		<path class="st7" d="M501.72,276.14c0.01,0.3-0.23,0.54-0.52,0.55c-0.01,0-0.01,0-0.02,0c-0.3-0.05-0.5-0.34-0.45-0.64
			c0.04-0.23,0.22-0.41,0.45-0.45C501.48,275.61,501.72,275.85,501.72,276.14L501.72,276.14z"/>
		<path class="st7" d="M511.15,276.14c0.01,0.3-0.23,0.54-0.52,0.55c-0.01,0-0.01,0-0.02,0c-0.3-0.05-0.5-0.34-0.45-0.64
			c0.04-0.23,0.22-0.41,0.45-0.45C510.91,275.61,511.15,275.85,511.15,276.14L511.15,276.14z"/>
		<path class="st7" d="M459.26,296.74c0,0.3-0.24,0.54-0.54,0.54s-0.54-0.24-0.54-0.54s0.24-0.54,0.54-0.54
			S459.26,296.44,459.26,296.74z"/>
		<path class="st7" d="M468.72,296.74c0,0.3-0.24,0.54-0.54,0.54s-0.54-0.24-0.54-0.54s0.24-0.54,0.54-0.54
			S468.72,296.44,468.72,296.74z"/>
		<path class="st7" d="M478.15,296.74c0,0.3-0.24,0.54-0.54,0.54s-0.54-0.24-0.54-0.54s0.24-0.54,0.54-0.54
			S478.15,296.44,478.15,296.74z"/>
		<path class="st7" d="M487.58,296.74c0.01,0.29-0.22,0.53-0.51,0.54c-0.01,0-0.02,0-0.03,0c-0.3,0-0.54-0.24-0.54-0.54v0
			c0-0.3,0.24-0.54,0.54-0.54l0,0C487.34,296.2,487.58,296.44,487.58,296.74L487.58,296.74z"/>
		<path class="st7" d="M497.01,296.74c0.01,0.29-0.22,0.53-0.51,0.54c-0.01,0-0.02,0-0.03,0c-0.3,0-0.54-0.24-0.54-0.54v0
			c0-0.3,0.24-0.54,0.54-0.54l0,0C496.77,296.2,497.01,296.44,497.01,296.74L497.01,296.74z"/>
		<path class="st7" d="M506.44,296.74c0.01,0.29-0.22,0.53-0.51,0.54c-0.01,0-0.02,0-0.03,0c-0.3,0-0.54-0.24-0.54-0.54v0
			c0-0.3,0.24-0.54,0.54-0.54l0,0C506.2,296.2,506.44,296.44,506.44,296.74L506.44,296.74z"/>
		<path class="st7" d="M515.88,296.74c-0.05,0.3-0.34,0.5-0.64,0.45c-0.23-0.04-0.41-0.22-0.45-0.45c0.05-0.3,0.34-0.5,0.64-0.45
			C515.66,296.32,515.84,296.5,515.88,296.74z"/>
		<path class="st7" d="M454.66,289.89c0,0.3-0.24,0.54-0.54,0.54l0,0c-0.3,0-0.54-0.24-0.54-0.54l0,0
			c-0.01-0.29,0.22-0.53,0.51-0.54c0.01,0,0.02,0,0.03,0C454.42,289.35,454.66,289.59,454.66,289.89L454.66,289.89z"/>
		<path class="st7" d="M464.01,289.89c0,0.3-0.24,0.54-0.54,0.54s-0.54-0.24-0.54-0.54c0-0.3,0.24-0.54,0.54-0.54
			S464.01,289.59,464.01,289.89L464.01,289.89z"/>
		<path class="st7" d="M473.44,289.89c0,0.3-0.24,0.54-0.54,0.54s-0.54-0.24-0.54-0.54c0-0.3,0.24-0.54,0.54-0.54
			S473.44,289.59,473.44,289.89L473.44,289.89z"/>
		<path class="st7" d="M482.87,289.89c0,0.3-0.24,0.54-0.54,0.54s-0.54-0.24-0.54-0.54c0-0.3,0.24-0.54,0.54-0.54
			S482.87,289.59,482.87,289.89L482.87,289.89z"/>
		<path class="st7" d="M492.3,289.89c0,0.3-0.24,0.54-0.54,0.54l0,0c-0.3,0-0.54-0.24-0.54-0.54l0,0c0-0.3,0.24-0.54,0.54-0.54l0,0
			c0.29-0.01,0.53,0.22,0.54,0.51C492.3,289.87,492.3,289.88,492.3,289.89z"/>
		<path class="st7" d="M501.72,289.89c0,0.3-0.24,0.54-0.54,0.54l0,0c-0.3,0-0.54-0.24-0.54-0.54l0,0c0-0.3,0.24-0.54,0.54-0.54l0,0
			c0.29-0.01,0.53,0.22,0.54,0.51C501.72,289.87,501.72,289.88,501.72,289.89z"/>
		<path class="st7" d="M511.15,289.89c0,0.3-0.24,0.54-0.54,0.54l0,0c-0.3,0-0.54-0.24-0.54-0.54l0,0c0-0.3,0.24-0.54,0.54-0.54l0,0
			c0.29-0.01,0.53,0.22,0.54,0.51C511.15,289.87,511.15,289.88,511.15,289.89z"/>
		<path class="st7" d="M459.26,310.48c0,0.3-0.24,0.54-0.54,0.54s-0.54-0.24-0.54-0.54s0.24-0.54,0.54-0.54
			S459.26,310.18,459.26,310.48z"/>
		<path class="st7" d="M468.72,310.48c0,0.3-0.24,0.54-0.54,0.54s-0.54-0.24-0.54-0.54s0.24-0.54,0.54-0.54
			S468.72,310.18,468.72,310.48z"/>
		<path class="st7" d="M478.15,310.48c0,0.3-0.24,0.54-0.54,0.54s-0.54-0.24-0.54-0.54s0.24-0.54,0.54-0.54
			S478.15,310.18,478.15,310.48z"/>
		<path class="st7" d="M487.58,310.48c0,0.3-0.24,0.54-0.54,0.54l0,0c-0.3,0-0.54-0.24-0.54-0.54v0c0-0.3,0.24-0.54,0.54-0.54l0,0
			c0.29-0.01,0.53,0.22,0.54,0.51C487.58,310.46,487.58,310.47,487.58,310.48z"/>
		<path class="st7" d="M497.01,310.48c0,0.3-0.24,0.54-0.54,0.54l0,0c-0.3,0-0.54-0.24-0.54-0.54v0c0-0.3,0.24-0.54,0.54-0.54l0,0
			c0.29-0.01,0.53,0.22,0.54,0.51C497.01,310.46,497.01,310.47,497.01,310.48z"/>
		<path class="st7" d="M506.44,310.48c0,0.3-0.24,0.54-0.54,0.54l0,0c-0.3,0-0.54-0.24-0.54-0.54v0c0-0.3,0.24-0.54,0.54-0.54l0,0
			c0.29-0.01,0.53,0.22,0.54,0.51C506.44,310.46,506.44,310.47,506.44,310.48z"/>
		<path class="st7" d="M515.88,310.48c-0.05,0.3-0.34,0.5-0.64,0.45c-0.23-0.04-0.41-0.22-0.45-0.45c0.05-0.3,0.34-0.5,0.64-0.45
			C515.66,310.07,515.84,310.25,515.88,310.48z"/>
		<path class="st7" d="M524.88,310.99c-0.04,0.02-0.08,0.02-0.12,0c-0.3,0-0.54-0.24-0.54-0.54v0c0-0.22,0.13-0.41,0.34-0.49l0,0
			C524.68,310.33,524.79,310.65,524.88,310.99z"/>
		<path class="st7" d="M464.01,303.62c0,0.3-0.24,0.54-0.54,0.54s-0.54-0.24-0.54-0.54s0.24-0.54,0.54-0.54
			S464.01,303.32,464.01,303.62L464.01,303.62z"/>
		<path class="st7" d="M473.44,303.62c0,0.3-0.24,0.54-0.54,0.54s-0.54-0.24-0.54-0.54s0.24-0.54,0.54-0.54
			S473.44,303.32,473.44,303.62L473.44,303.62z"/>
		<path class="st7" d="M482.87,303.62c0,0.3-0.24,0.54-0.54,0.54s-0.54-0.24-0.54-0.54s0.24-0.54,0.54-0.54
			S482.87,303.32,482.87,303.62L482.87,303.62z"/>
		<path class="st7" d="M492.3,303.62c0.01,0.29-0.22,0.53-0.51,0.54c-0.01,0-0.02,0-0.03,0c-0.3,0-0.54-0.24-0.54-0.54v0
			c0-0.3,0.24-0.54,0.54-0.54l0,0C492.05,303.08,492.3,303.32,492.3,303.62L492.3,303.62z"/>
		<path class="st7" d="M501.72,303.62c0.01,0.29-0.22,0.53-0.51,0.54c-0.01,0-0.02,0-0.03,0c-0.3,0-0.54-0.24-0.54-0.54v0
			c0-0.3,0.24-0.54,0.54-0.54l0,0C501.48,303.08,501.72,303.32,501.72,303.62L501.72,303.62z"/>
		<path class="st7" d="M511.15,303.62c0.01,0.29-0.22,0.53-0.51,0.54c-0.01,0-0.02,0-0.03,0c-0.3,0-0.54-0.24-0.54-0.54v0
			c0-0.3,0.24-0.54,0.54-0.54l0,0C510.91,303.08,511.15,303.32,511.15,303.62L511.15,303.62z"/>
		<path class="st7" d="M520.6,303.62c-0.05,0.3-0.34,0.5-0.64,0.45c-0.23-0.04-0.41-0.22-0.45-0.45c0.05-0.3,0.34-0.5,0.64-0.45
			C520.38,303.2,520.56,303.38,520.6,303.62z"/>
		<circle class="st7" cx="458.76" cy="324.21" r="0.54"/>
		<circle class="st7" cx="468.19" cy="324.21" r="0.54"/>
		<path class="st7" d="M478.15,324.21c0,0.3-0.24,0.54-0.54,0.54s-0.54-0.24-0.54-0.54c0-0.3,0.24-0.54,0.54-0.54
			S478.15,323.91,478.15,324.21L478.15,324.21z"/>
		<path class="st7" d="M487.58,324.21c0,0.3-0.24,0.54-0.54,0.54l0,0c-0.3,0-0.54-0.24-0.54-0.54c0-0.3,0.24-0.54,0.54-0.54
			C487.34,323.67,487.58,323.91,487.58,324.21z"/>
		<path class="st7" d="M497.01,324.21c0,0.3-0.24,0.54-0.54,0.54l0,0c-0.3,0-0.54-0.24-0.54-0.54c0-0.3,0.24-0.54,0.54-0.54
			c0,0,0,0,0,0C496.77,323.67,497.01,323.91,497.01,324.21z"/>
		<path class="st7" d="M506.44,324.21c0,0.3-0.24,0.54-0.54,0.54l0,0c-0.3,0-0.54-0.24-0.54-0.54c0-0.3,0.24-0.54,0.54-0.54
			c0,0,0,0,0,0C506.2,323.67,506.44,323.91,506.44,324.21z"/>
		<circle class="st7" cx="515.33" cy="324.21" r="0.54"/>
		<path class="st7" d="M525.3,324.21c0.01,0.31-0.23,0.56-0.54,0.57s-0.56-0.23-0.57-0.54c-0.01-0.31,0.23-0.56,0.54-0.57
			c0.01,0,0.02,0,0.03,0C525.06,323.67,525.3,323.91,525.3,324.21L525.3,324.21z"/>
		<path class="st7" d="M454.66,317.36c0,0.3-0.24,0.54-0.54,0.54l0,0h-0.17l0.11-1.04l0,0
			C454.36,316.83,454.63,317.05,454.66,317.36C454.66,317.36,454.66,317.36,454.66,317.36z"/>
		<path class="st7" d="M464.01,317.36c-0.01,0.3-0.26,0.53-0.55,0.52c-0.3-0.01-0.53-0.26-0.52-0.55c0.01-0.29,0.25-0.52,0.54-0.52
			c0.3,0,0.54,0.24,0.54,0.54C464.01,317.35,464.01,317.36,464.01,317.36z"/>
		<path class="st7" d="M473.44,317.36c-0.01,0.3-0.26,0.53-0.55,0.52c-0.3-0.01-0.53-0.26-0.52-0.55c0.01-0.29,0.25-0.52,0.54-0.52
			c0.3,0,0.54,0.24,0.54,0.54C473.44,317.35,473.44,317.36,473.44,317.36z"/>
		<circle class="st7" cx="482.33" cy="317.36" r="0.54"/>
		<circle class="st7" cx="491.76" cy="317.36" r="0.54"/>
		<path class="st7" d="M501.72,317.36c0,0.3-0.24,0.54-0.54,0.54l0,0c-0.3-0.05-0.5-0.34-0.45-0.64c0.04-0.23,0.22-0.41,0.45-0.45
			c0.3,0,0.54,0.24,0.54,0.54C501.72,317.35,501.72,317.36,501.72,317.36z"/>
		<path class="st7" d="M511.15,317.36c0,0.3-0.24,0.54-0.54,0.54l0,0c-0.3-0.05-0.5-0.34-0.45-0.64c0.04-0.23,0.22-0.41,0.45-0.45
			c0.3,0,0.54,0.24,0.54,0.54C511.15,317.35,511.15,317.36,511.15,317.36z"/>
		<path class="st7" d="M520.6,317.36c0,0.31-0.25,0.55-0.55,0.55s-0.55-0.25-0.55-0.55s0.25-0.55,0.55-0.55l0,0
			C520.35,316.81,520.6,317.06,520.6,317.36z"/>
		<circle class="st7" cx="458.76" cy="337.94" r="0.54"/>
		<circle class="st7" cx="468.19" cy="337.94" r="0.54"/>
		<path class="st7" d="M478.15,337.94c0,0.3-0.24,0.54-0.54,0.54s-0.54-0.24-0.54-0.54c0-0.3,0.24-0.54,0.54-0.54
			C477.91,337.41,478.14,337.65,478.15,337.94z"/>
		<path class="st7" d="M487.58,337.94c0.01,0.19-0.09,0.36-0.25,0.46h-0.54c-0.18-0.09-0.29-0.27-0.29-0.48
			c0-0.3,0.24-0.54,0.54-0.54l0,0c0.3,0,0.54,0.24,0.54,0.54C487.58,337.93,487.58,337.93,487.58,337.94z"/>
		<path class="st7" d="M497.01,337.94L497.01,337.94h-1.06c-0.01-0.02-0.01-0.05,0-0.08c0-0.3,0.24-0.54,0.54-0.54l0,0
			c0.3,0.01,0.53,0.25,0.53,0.55C497.02,337.89,497.01,337.92,497.01,337.94z"/>
		<path class="st7" d="M506.21,337.51h-0.66c0.09-0.09,0.22-0.14,0.35-0.14C506.02,337.37,506.13,337.42,506.21,337.51z"/>
		<path class="st7" d="M454.66,331.09c0,0.3-0.24,0.54-0.54,0.54l0,0c-0.3,0-0.54-0.24-0.54-0.54c0-0.3,0.24-0.54,0.54-0.54
			c0,0,0,0,0,0C454.42,330.55,454.66,330.79,454.66,331.09z"/>
		<path class="st7" d="M464.01,331.09c0,0.3-0.24,0.54-0.54,0.54s-0.54-0.24-0.54-0.54c0-0.3,0.24-0.54,0.54-0.54
			S464.01,330.79,464.01,331.09L464.01,331.09z"/>
		<path class="st7" d="M473.44,331.09c0,0.3-0.24,0.54-0.54,0.54s-0.54-0.24-0.54-0.54c0-0.3,0.24-0.54,0.54-0.54
			S473.44,330.79,473.44,331.09L473.44,331.09z"/>
		<circle class="st7" cx="482.33" cy="331.09" r="0.54"/>
		<circle class="st7" cx="491.76" cy="331.09" r="0.54"/>
		<path class="st7" d="M501.72,331.09c0,0.3-0.24,0.54-0.54,0.54l0,0c-0.3,0-0.54-0.24-0.54-0.54c0-0.3,0.24-0.54,0.54-0.54
			c0,0,0,0,0,0C501.48,330.55,501.72,330.79,501.72,331.09z"/>
		<path class="st7" d="M511.15,331.09c0,0.3-0.24,0.54-0.54,0.54l0,0c-0.3,0-0.54-0.24-0.54-0.54c0-0.3,0.24-0.54,0.54-0.54
			c0,0,0,0,0,0C510.91,330.55,511.15,330.79,511.15,331.09z"/>
		<path class="st7" d="M520.6,331.09c0.01,0.31-0.23,0.56-0.54,0.57c-0.31,0.01-0.56-0.23-0.57-0.54s0.23-0.56,0.54-0.57
			c0.01,0,0.01,0,0.02,0C520.34,330.55,520.59,330.79,520.6,331.09z"/>
		<path class="st7" d="M530.03,331.09c0.01,0.31-0.23,0.56-0.54,0.57s-0.56-0.23-0.57-0.54s0.23-0.56,0.54-0.57
			c0.01,0,0.02,0,0.03,0C529.79,330.55,530.03,330.79,530.03,331.09L530.03,331.09z"/>
		<path class="st6" d="M488.44,245.29c-0.43,1.27-7.45,9.21-13.41,8.38c-1.93-0.28-0.92-10.93-0.92-10.93l-0.11-0.8l-1.46-11.26
			l13.7-7.13l1.98-0.92c0,0,0.2,3.07,0.4,6.97c0,0.17,0,0.35,0,0.54s0,0.43,0,0.63c0,0.58,0.08,1.17,0.09,1.77
			c0.02,0.6,0,0.88,0,1.35v1.4C488.85,238.63,488.76,241.97,488.44,245.29z"/>
		<path class="st4" d="M488.56,229.61c-2.84,6.04-8.18,10.53-14.62,12.29l-1.46-11.26l13.7-7.13l1.98-0.92
			C488.16,222.59,488.44,225.68,488.56,229.61z"/>
		<path class="st6" d="M459.08,211.71c-3.59,19.58,7.68,23.94,11.95,24.72c3.84,0.69,16.89,2.6,22.57-16.51s-2.36-26.98-11.04-29.04
			C473.88,188.82,462.67,192.13,459.08,211.71z"/>
		<path class="st4" d="M462.56,208.63c0.46-0.01,0.91-0.06,1.37-0.14c0.49,0.03,0.98-0.11,1.38-0.4c0.21-0.23,0.25-0.57,0.09-0.84
			c-0.41-0.49-1.05-0.72-1.67-0.6c-0.64,0.02-1.25,0.28-1.72,0.72c-0.27,0.33-0.23,0.81,0.1,1.08
			C462.24,208.56,462.4,208.63,462.56,208.63z"/>
		<path class="st4" d="M475.71,210.57c-0.44-0.12-0.88-0.26-1.31-0.43c-0.48-0.09-0.93-0.33-1.26-0.69
			c-0.16-0.28-0.12-0.63,0.11-0.86c0.5-0.39,1.18-0.47,1.77-0.21c0.63,0.15,1.18,0.53,1.54,1.07c0.21,0.37,0.07,0.84-0.3,1.04
			C476.09,210.59,475.9,210.61,475.71,210.57z"/>
		<path class="st4" d="M472.3,214.69c0,0,0.09,0,0.08,0.14c-0.22,1.34-0.26,2.9,0.91,3.52v0.08
			C471.81,218,471.87,215.91,472.3,214.69z"/>
		<path class="st4" d="M473.68,213.4c2.18,0.14,1.77,4.48-0.26,4.38C471.39,217.66,471.86,213.4,473.68,213.4z"/>
		<path class="st4" d="M474.51,213.76c0.37,0.28,0.69,0.75,1.15,0.84c0.46,0.09,0.97-0.32,1.35-0.72h0.08
			c-0.08,0.84-0.48,1.67-1.38,1.7c-0.91,0.03-1.34-0.75-1.54-1.61C474.22,213.86,474.37,213.64,474.51,213.76z"/>
		<path class="st4" d="M464.84,213.4c0,0-0.11,0-0.11,0.11c-0.08,1.35-0.4,2.9-1.66,3.24 M463.07,216.82
			c1.5-0.02,1.9-2.07,1.77-3.42L463.07,216.82z"/>
		<path class="st4" d="M463.76,211.94c-2.17-0.35-2.72,3.99-0.72,4.32S465.56,212.24,463.76,211.94z"/>
		<path class="st4" d="M462.81,212.11c-0.37,0.18-0.77,0.57-1.17,0.54c-0.4-0.03-0.78-0.54-1.03-1.03l0,0c-0.14,0.83,0,1.74,0.8,2
			c0.8,0.26,1.34-0.41,1.64-1.21C463.06,212.29,462.96,212.03,462.81,212.11z"/>
		<path class="st4" d="M471.55,225.17c-0.34,0.31-0.68,0.72-1.17,0.74c-0.5-0.04-1-0.18-1.44-0.41c0,0-0.09,0,0,0
			c0.36,0.56,1.01,0.88,1.67,0.83c0.57-0.11,1.02-0.56,1.14-1.14c0-0.06-0.04-0.1-0.09-0.11S471.55,225.12,471.55,225.17z"/>
		<path class="st4" d="M466.47,219.69c-0.25,0.97-0.45,1.95-0.6,2.93c0,0.09,0.21,0.15,0.54,0.21l0,0c1.64,0.48,3.42,0.02,4.61-1.21
			c0.08-0.08,0-0.2-0.12-0.14c-1.3,0.69-2.79,0.95-4.25,0.74c0-0.28,0.97-3.38,0.81-3.41c-0.74,0-1.48,0.08-2.2,0.26
			c0.91-4.16,2.49-8.14,3.33-12.29c0.02-0.07-0.02-0.14-0.08-0.16c-0.07-0.02-0.14,0.02-0.16,0.08c-1.82,4.21-3.21,8.6-4.16,13.08
			C464.04,220.32,466.07,219.81,466.47,219.69z"/>
		<path class="st4" d="M466.56,222.12c0.4,0.86,1.01,1.61,1.78,2.17c0.43,0.29,0.94,0.44,1.46,0.43c1.14,0,1.4-1.01,1.38-1.9
			c-0.01-0.47-0.07-0.94-0.18-1.4C469.63,222.12,468.07,222.36,466.56,222.12z"/>
		<path class="st9" d="M468.34,224.28c0.43,0.29,0.94,0.44,1.46,0.43c1.14,0,1.4-1.01,1.38-1.9
			C470.01,222.59,468.83,223.2,468.34,224.28z"/>
		<path class="st5" d="M469.75,190.22c0,0,16.12-7.22,25.19,2.23c9.06,9.44,0,23.33,0,23.33s3.96-17.55-4.61-22.47
			C481.76,188.39,469.75,190.22,469.75,190.22z"/>
		<path class="st4" d="M493.42,220.08c-2.52-1.34-4.16-3.9-4.32-6.76c-3.39-1.63-6.28-4.13-8.38-7.25c0.12,0.41,0.97,3.38,1.46,4.87
			c-12.41-2.75-15.96-12.44-15.96-12.44c-2.46,2.1-4.41,4.72-5.71,7.68c0,0,0.17-7.68,4.28-12.65c5.04-6.14,21.38-7.26,28.63,1.18
			C501.23,203.87,493.42,220.08,493.42,220.08z"/>
		<path class="st4" d="M472.75,208.56c1.97,1.16,4.1,2.03,6.33,2.56l0,0c-3.48-1.08-6.58-3.1-8.97-5.85
			c-1.01-1.18-1.87-2.47-2.56-3.85c-0.83-1.49-1.35-3.13-1.54-4.82c0-0.12-0.2-0.11-0.2,0c0,1.68,0.28,3.35,0.83,4.94
			c0.61,1.56,1.51,3,2.64,4.24c1.01,1.09,2.17,2.03,3.44,2.79"/>
		<path class="st6" d="M490.22,219.14c0,0,4.91-5.77,7.57-3.96c2.66,1.81-1.44,10.46-4.87,11.38c-1.76,0.6-3.67-0.33-4.27-2.09
			c-0.02-0.04-0.03-0.09-0.04-0.14L490.22,219.14z"/>
		<path class="st4" d="M496.55,217.71c-2.24,0.87-4.02,2.64-4.88,4.88c0.6-0.83,1.76-1.03,2.59-0.43c0.08,0.06,0.15,0.12,0.22,0.18
			c0,0,0,0.14-0.08,0.12c-0.81-0.35-1.74-0.14-2.33,0.51c-0.48,0.53-0.91,1.11-1.26,1.74c-0.12,0.18-0.49,0-0.38-0.18l0,0
			c0.26-3.01,2.93-6.91,6.13-6.91V217.71z"/>
		<path class="st6" d="M501.48,258.81c0.65,16.22-23.53,67.39-35.87,75.91c-18.35,12.67-62.12,19.96-73.53,21.71
			c-4.96,0.74-5.27-41.46,0-42.34c11.59-1.97,48.07-4.61,51.45-6.83c3.38-2.23,25.43-26.29,35.7-40.65
			C493.05,247.46,501.16,250.6,501.48,258.81z"/>
		<path class="st6" d="M364.97,353.22c-2.64-4.25,3.89-4.93,3.89-4.93s-9.64-1.29-10.67-6.74c-1.03-5.45,6.94-5.8,7.51-5.85
			c-0.51,0-9.34-1.54-9.81-7.06c-0.48-5.53,7.56-4.98,8.08-4.93c-0.46-0.21-6.5-3.22-5.88-7.54c1.04-7.43,18.43-0.28,24.08-2.6
			l0.31-9.21c1.66,2.43,4.1,3.42,6.54,5.94c2.92,3.07,5.47,4.99,6.14,7.52c0.75,2.31-0.1,4.83-2.09,6.22c0,0,5.07,1.54,5.59,5.97
			c0.25,2.26-3.07,4.61-3.07,4.61c2.3,0.86,3.93,2.93,4.22,5.37c0.18,3.07-3.22,5.05-3.22,5.05s3.19,3.18,2.35,6.45
			C397.22,358.06,370.65,362.36,364.97,353.22z"/>
		<path class="st4" d="M396.1,345.46c0.08,0,0.12,0.09,0,0.12c-8.72,3.72-18.36,4.7-27.64,2.79c-0.31,0-0.32-0.57,0-0.55
			C377.74,348.39,387.05,347.59,396.1,345.46z"/>
		<path class="st4" d="M395.73,334.71c0.11,0,0.15,0.14,0,0.18c-9.64,4.01-20.41,4.42-30.33,1.17c-0.35-0.12-0.54-0.57-0.12-0.46
			C372.16,337.42,387.3,336.74,395.73,334.71z"/>
		<path class="st4" d="M363.34,323.21c9.74,3.07,19.47,2.72,29.42,0.92c0.14,0,0.15,0.17,0,0.21c-4.61,2.21-11.09,2.69-16.16,2.64
			c-4.7,0.04-9.32-1.14-13.42-3.44C363.08,323.46,363.14,323.15,363.34,323.21z"/>
		<path class="st5" d="M482.3,261c15.17-16.39,23.93-9.61,18.77,9.67c-3.52,12.51-7.75,24.82-12.65,36.86l-30.22-19.86
			C458.19,287.68,472.56,271.46,482.3,261z"/>
		<path class="st7" d="M497.01,255.53c0.01,0.29-0.22,0.53-0.51,0.54c-0.01,0-0.02,0-0.03,0c-0.3,0-0.54-0.24-0.54-0.54v0
			c0-0.3,0.24-0.54,0.54-0.54l0,0C496.77,255,497.01,255.24,497.01,255.53L497.01,255.53z"/>
		<path class="st7" d="M478.15,269.28c-0.04,0.29-0.31,0.5-0.6,0.47c-0.29-0.04-0.5-0.31-0.47-0.6c0.04-0.29,0.31-0.5,0.6-0.47
			c0,0,0,0,0.01,0C477.98,268.72,478.19,268.99,478.15,269.28z"/>
		<path class="st7" d="M487.58,269.28c0,0.3-0.24,0.54-0.54,0.54l0,0c-0.3-0.05-0.5-0.34-0.45-0.64c0.04-0.23,0.22-0.41,0.45-0.45
			c0.3,0,0.54,0.24,0.54,0.54C487.58,269.27,487.58,269.27,487.58,269.28z"/>
		<path class="st7" d="M497.01,269.28c0,0.3-0.24,0.54-0.54,0.54l0,0c-0.3-0.05-0.5-0.34-0.45-0.64c0.04-0.23,0.22-0.41,0.45-0.45
			c0.3,0,0.54,0.24,0.54,0.54C497.01,269.27,497.01,269.27,497.01,269.28z"/>
		<path class="st7" d="M482.87,262.41c0,0.3-0.24,0.54-0.54,0.54s-0.54-0.24-0.54-0.54c0-0.3,0.24-0.54,0.54-0.54
			S482.87,262.12,482.87,262.41L482.87,262.41z"/>
		<path class="st7" d="M492.3,262.41c0,0.3-0.24,0.54-0.54,0.54l0,0c-0.3,0-0.54-0.24-0.54-0.54c0-0.3,0.24-0.54,0.54-0.54
			c0,0,0,0,0,0C492.05,261.88,492.3,262.12,492.3,262.41z"/>
		<path class="st7" d="M501.72,262.41c0,0.3-0.24,0.54-0.54,0.54l0,0c-0.3,0-0.54-0.24-0.54-0.54c0-0.3,0.24-0.54,0.54-0.54
			c0,0,0,0,0,0C501.48,261.88,501.72,262.12,501.72,262.41z"/>
		<path class="st7" d="M468.72,283.01c0,0.3-0.24,0.54-0.54,0.54s-0.54-0.24-0.54-0.54c0-0.3,0.24-0.54,0.54-0.54
			S468.72,282.71,468.72,283.01L468.72,283.01z"/>
		<path class="st7" d="M478.15,283.01c0.01,0.3-0.22,0.55-0.51,0.56s-0.55-0.22-0.56-0.51c-0.01-0.3,0.22-0.55,0.51-0.56
			c0.03,0,0.07,0,0.1,0C477.95,282.54,478.14,282.75,478.15,283.01z"/>
		<path class="st7" d="M487.58,283.01c0,0.3-0.24,0.54-0.54,0.54l0,0c-0.3,0-0.54-0.24-0.54-0.54c0-0.3,0.24-0.54,0.54-0.54
			C487.34,282.47,487.58,282.71,487.58,283.01z"/>
		<path class="st7" d="M497.01,283.01c0,0.3-0.24,0.54-0.54,0.54l0,0c-0.3,0-0.54-0.24-0.54-0.54c0-0.3,0.24-0.54,0.54-0.54
			c0,0,0,0,0,0C496.77,282.47,497.01,282.71,497.01,283.01z"/>
		<path class="st7" d="M473.44,276.14c0,0.3-0.24,0.54-0.54,0.54s-0.54-0.24-0.54-0.54c0-0.3,0.24-0.54,0.54-0.54
			C473.19,275.61,473.43,275.85,473.44,276.14z"/>
		<path class="st7" d="M482.87,276.14c0,0.3-0.24,0.54-0.54,0.54s-0.54-0.24-0.54-0.54c0-0.3,0.24-0.54,0.54-0.54
			C482.62,275.61,482.86,275.85,482.87,276.14z"/>
		<path class="st7" d="M492.3,276.14c0.01,0.3-0.23,0.54-0.52,0.55c-0.01,0-0.01,0-0.02,0c-0.3-0.05-0.5-0.34-0.45-0.64
			c0.04-0.23,0.22-0.41,0.45-0.45C492.05,275.61,492.3,275.85,492.3,276.14L492.3,276.14z"/>
		<path class="st7" d="M478.15,296.74c0,0.3-0.24,0.54-0.54,0.54s-0.54-0.24-0.54-0.54s0.24-0.54,0.54-0.54
			S478.15,296.44,478.15,296.74z"/>
		<path class="st7" d="M487.58,296.74c0.01,0.29-0.22,0.53-0.51,0.54c-0.01,0-0.02,0-0.03,0c-0.3,0-0.54-0.24-0.54-0.54v0
			c0-0.3,0.24-0.54,0.54-0.54l0,0C487.34,296.2,487.58,296.44,487.58,296.74L487.58,296.74z"/>
		<path class="st7" d="M464.01,289.89c0,0.3-0.24,0.54-0.54,0.54s-0.54-0.24-0.54-0.54c0-0.3,0.24-0.54,0.54-0.54
			S464.01,289.59,464.01,289.89L464.01,289.89z"/>
		<path class="st7" d="M473.44,289.89c0,0.3-0.24,0.54-0.54,0.54s-0.54-0.24-0.54-0.54c0-0.3,0.24-0.54,0.54-0.54
			S473.44,289.59,473.44,289.89L473.44,289.89z"/>
		<path class="st7" d="M482.87,289.89c0,0.3-0.24,0.54-0.54,0.54s-0.54-0.24-0.54-0.54c0-0.3,0.24-0.54,0.54-0.54
			S482.87,289.59,482.87,289.89L482.87,289.89z"/>
		<path class="st7" d="M492.3,289.89c0,0.3-0.24,0.54-0.54,0.54l0,0c-0.3,0-0.54-0.24-0.54-0.54l0,0c0-0.3,0.24-0.54,0.54-0.54l0,0
			c0.29-0.01,0.53,0.22,0.54,0.51C492.3,289.87,492.3,289.88,492.3,289.89z"/>
		<path class="st7" d="M482.87,303.62c0,0.09-0.03,0.18-0.08,0.26l-0.89-0.58c0.1-0.14,0.26-0.21,0.43-0.21
			C482.63,303.08,482.87,303.32,482.87,303.62z"/>
		<path class="st4" d="M480.76,262.78c-2.03,2.13-4.12,4.22-6.14,6.3c0.6-1.11,1.16-2.24,1.66-3.41 M476.19,265.67
			c-0.48,0.88-1,1.74-1.54,2.63l-0.69,1.27l-0.14,0.28c-1.63,1.63-3.24,3.26-4.81,4.93c-1.87,2-3.7,4.04-5.53,6.14
			s-3.76,4.61-5.73,6.65c-0.17,0.17,2.67,1.78,2.92,1.98c0.25,0.2,0.51,0,0.22-0.2s-2.46-1.89-2.49-1.92c1.84-2.06,3.9-3.9,5.79-5.9
			s3.79-3.96,5.64-5.99c3.75-4.12,7.26-8.45,10.98-12.58c0.08-0.17-0.05-0.23-0.05-0.18L476.19,265.67z"/>
		<path class="st4" d="M500,281.4c-0.61,0.89-1.26,1.77-1.83,2.69l-0.69,1.14l3.55-10.2l0,0c-2.23,5.47-4.47,10.93-6.59,16.45
			c-2.21,5.22-4.15,10.55-5.82,15.97c-0.92-0.55-1.89-1.03-2.89-1.43c0.93,0.81,1.97,1.5,3.07,2.06c2.43-5.41,4.59-10.94,6.47-16.57
			c0.55-1.54,1.09-3.07,1.63-4.61c0.49-0.91,1.04-1.75,1.54-2.61c0.49-0.86,1.09-1.89,1.54-2.83L500,281.4z"/>
		<path class="st4" d="M488.58,302.1c-4.15-3.07-21.59-15.28-25.54-17.66c-0.28-0.17-0.45,0-0.18,0.17
			c8.2,6.34,16.74,12.23,25.58,17.64C488.55,302.33,488.69,302.17,488.58,302.1z"/>
	</g>
	<g id="freepik--Pencil--inject-70">
		<path class="st6" d="M346.07,648.98c0,0,35.89,1.54,35-22.96c-0.89-24.49-36.58-20.35-36.58-20.35L346.07,648.98z"/>
		
			<rect x="94.14" y="610.15" transform="matrix(0.9993 -0.0365 0.0365 0.9993 -22.8954 8.4598)" class="st5" width="252.62" height="43.34"/>
		
			<rect x="336.98" y="599.5" transform="matrix(0.9992 -0.04 0.04 0.9992 -24.6996 14.1687)" class="st10" width="10.05" height="50.64"/>
		
			<rect x="326.91" y="602.47" transform="matrix(0.9993 -0.0365 0.0365 0.9993 -22.6734 12.5228)" class="st10" width="10.04" height="50.6"/>
		<path class="st7" d="M93.46,614.79l-30.58,17.43l-10.09,5.71l10.49,5.05l31.76,15.16l6.14-4.61c0,0-6.34-3.96-6.45-4.05l6.14-4.61
			c0,0-6.34-3.96-6.43-4.05l6.14-4.51c0,0-6.36-4.07-6.45-4.16l6.14-4.51c0,0-6.34-4.05-6.43-4.15l6.14-4.53
			C99.99,618.95,93.56,614.88,93.46,614.79z"/>
		<polygon class="st8" points="62.89,632.22 52.8,637.93 63.29,642.99 		"/>
		<path class="st11" d="M109.4,626.17c17.37-0.95,34.75-1.74,52.12-2.49l52.21-2.09l52.21-1.72l26.11-0.74l26.11-0.57l-26.11,1.32
			l-26.11,1.17l-52.14,2.07l-52.21,1.72C144.19,625.37,126.8,625.85,109.4,626.17z"/>
		<path class="st11" d="M110.43,645.63c17.38-0.95,34.75-1.74,52.21-2.49l52.21-2.09l52.21-1.72l26.11-0.74l26.11-0.57l-26.11,1.32
			l-26.11,1.17l-52.21,2.07l-52.21,1.72C145.22,644.83,127.83,645.31,110.43,645.63z"/>
	</g>
</g>
</svg>
