<?xml version="1.0" encoding="utf-8"?>
<!-- Generator: Adobe Illustrator 24.3.0, SVG Export Plug-In . SVG Version: 6.00 Build 0)  -->
<svg version="1.1" id="Layer_1" xmlns="http://www.w3.org/2000/svg" xmlns:xlink="http://www.w3.org/1999/xlink" x="0px" y="0px"
	 viewBox="0 0 615 715" style="enable-background:new 0 0 615 715;" xml:space="preserve">
<style type="text/css">
	.st0{fill:#263238;}
	.st1{fill:#EBEBEB;}
	.st2{fill:#DBDBDB;}
	.st3{fill:#C7C7C7;}
	.st4{fill:#A6A6A6;}
	.st5{fill:#FFFFFF;}
	.st6{fill:#37474F;}
	.st7{fill:#FFC727;}
	.st8{fill:#EB9481;}
	.st9{fill:#455A64;}
	.st10{fill:#100E3A;}
	.st11{fill:none;}
	.st12{fill:#AD6359;}
	.st13{fill:#FF9CBD;}
</style>
<g>
	<g id="freepik--background-complete--inject-110">
		<polygon class="st0" points="36.45,373.31 104.34,372.99 172.23,372.87 308.01,372.65 443.8,372.87 511.69,372.99 579.58,373.31 
			511.69,373.65 443.8,373.77 308.01,373.99 172.23,373.77 104.34,373.65 		"/>
		<rect x="346.05" y="124.66" class="st1" width="225.92" height="9.91"/>
		<rect x="358.71" y="134.57" class="st1" width="9.91" height="32.77"/>
		<rect x="358.71" y="134.57" class="st2" width="9.91" height="10.13"/>
		<rect x="549.4" y="134.57" class="st1" width="9.91" height="32.77"/>
		<rect x="549.4" y="134.57" class="st2" width="9.91" height="10.13"/>
		<rect x="376.11" y="61.52" class="st3" width="15.9" height="63.14"/>
		<rect x="376.1" y="58.14" class="st2" width="17.89" height="6.93"/>
		<rect x="376.11" y="73.96" class="st2" width="15.9" height="2.57"/>
		<rect x="376.1" y="109.43" class="st2" width="17.89" height="6.93"/>
		<rect x="391.99" y="51" class="st2" width="11.12" height="73.66"/>
		<rect x="394.17" y="57.92" class="st1" width="6.68" height="28.33"/>
		
			<rect x="446.47" y="58.02" transform="matrix(0.703 -0.7112 0.7112 0.703 66.7893 349.6372)" class="st3" width="11.12" height="73.66"/>
		
			<rect x="452.56" y="84.44" transform="matrix(0.703 -0.7112 0.7112 0.703 65.2684 353.506)" class="st2" width="6.68" height="28.33"/>
		<rect x="403.09" y="68.72" class="st4" width="18.88" height="55.95"/>
		<rect x="403.11" y="113.53" class="st3" width="18.88" height="5.21"/>
		<rect x="403.11" y="108.09" class="st3" width="18.88" height="2.02"/>
		<polygon class="st2" points="536.1,100.15 534.68,103.9 533.81,106.19 532.39,109.95 526.84,124.66 496.82,124.66 491.26,109.95 
			489.83,106.19 488.97,103.9 487.55,100.15 498.62,84.01 492.88,73.37 530.79,73.37 525.03,84.01 		"/>
		<polygon class="st4" points="536.1,100.15 534.68,103.9 488.97,103.9 487.55,100.15 		"/>
		<polygon class="st4" points="533.81,106.19 532.39,109.95 491.26,109.95 489.83,106.19 		"/>
		<rect x="174.29" y="65.11" class="st2" width="39.42" height="39.42"/>
		<rect x="180.4" y="71.23" class="st5" width="27.2" height="27.2"/>
		<polygon class="st1" points="180.4,98.42 180.4,71.23 207.6,71.23 		"/>
		<rect x="174.29" y="113.58" class="st2" width="39.42" height="39.42"/>
		<rect x="180.4" y="119.7" class="st5" width="27.2" height="27.2"/>
		<polygon class="st1" points="180.4,138.92 180.4,119.7 199.61,119.7 		"/>
		<rect x="223.14" y="64.78" class="st2" width="51.52" height="88.23"/>
		<rect x="229.52" y="71.23" class="st5" width="38.78" height="75.34"/>
		<polygon class="st1" points="229.52,120.61 229.52,71.23 254.94,71.23 		"/>
		<rect x="76.87" y="64.78" class="st2" width="88.23" height="88.23"/>
		<rect x="83.31" y="71.22" class="st5" width="75.34" height="75.35"/>
		<path class="st1" d="M137.56,71.22c-11.39,11.46-43.68,43.91-54.24,54.34V71.22H137.56z"/>
		<path class="st1" d="M465.08,232.26c0.51,7.65-0.48,15.32-2.9,22.6c-1.14,3.37-2.56,6.64-4.25,9.76
			c-2.13,4.06-4.32,7.92-4.21,12.5c0.41,0.32-1.1,0.16-1.11-0.28c-11.6-7.84-27.08-10.3-35.54-22.33
			c-4.06-5.7-5.71-12.65-6.26-19.51c-0.57-7.47-0.26-15.68,2.21-22.82c2.07-6.03,6.13-11.69,12.19-14.26
			c6.05-2.57,14.01-1.79,20.16,0.65C458.58,203.84,464.2,219,465.08,232.26z"/>
		<path class="st2" d="M464.41,322.66c-1.22-5.64-2.46-11.29-3.72-16.94c-2.5-11.04-5.13-22.06-8.12-32.97
			c-1.81-6.54-3.74-13.03-5.81-19.46c0.59-3.91,1.37-7.8,2.36-11.63c1.35-4.62,3.2-9.06,4.93-13.54c0.11-0.27-0.34-0.46-0.47-0.2
			c-3.22,6.13-7.39,13.99-8.12,21.49c-2.41-7.28-5.05-14.51-7.92-21.66c0.05-5.84,0.66-11.66,1.84-17.39c0-0.12-0.09-0.22-0.21-0.22
			c-0.08,0-0.15,0.04-0.19,0.11c-1.4,4.97-2.17,10.1-2.3,15.26c-2.21-5.35-4.56-10.66-7.11-15.9c-0.23-0.46-0.88,0-0.69,0.41
			c3.89,9.14,7.46,18.42,10.7,27.83c-5.21-5.28-11.39-9.51-18.18-12.48c-0.28-0.14-0.56,0.28-0.26,0.43
			c7.37,3.86,13.99,9.02,19.54,15.22c2.35,6.88,4.55,13.79,6.61,20.74c-7.03-8.03-17.03-13.73-26.89-17.13
			c-0.34-0.12-0.46,0.41-0.15,0.53c11.37,4.4,19.9,11.69,28.14,20.31c0.81,2.82,1.61,5.63,2.4,8.45c2.93,10.68,5.7,21.42,8.29,32.21
			c1.25,5.17,2.46,10.35,3.64,15.53c1.35,5.58,2.17,11.43,3.97,16.84c0.18,0.53,1.08,0.47,1.02-0.14
			C466.84,333.08,465.76,327.84,464.41,322.66z"/>
		<path class="st2" d="M452.03,220.57c-2.42,3.14-4.19,6.73-5.21,10.56c0,0.09,0.12,0.16,0.16,0c1.64-3.55,3.5-7,5.57-10.32
			C452.76,220.53,452.26,220.27,452.03,220.57z"/>
		<path class="st2" d="M428.43,244.19c-3.24-2.13-6.83-3.66-10.62-4.51c-0.09,0-0.18,0.11,0,0.16c1.69,0.87,3.49,1.52,5.21,2.33
			c1.72,0.81,3.4,1.79,5.15,2.55c0.17,0.02,0.33-0.1,0.34-0.27C428.53,244.35,428.5,244.26,428.43,244.19z"/>
		<path class="st2" d="M424.66,213.29c-1.03-0.92-2.15-1.73-3.33-2.44c-0.09-0.05-0.21-0.02-0.26,0.07
			c-0.04,0.08-0.03,0.17,0.03,0.23c1.04,0.94,2.16,1.78,3.36,2.5C424.6,213.81,424.88,213.46,424.66,213.29z"/>
		<path class="st1" d="M502.63,255.73c-8.87,2.26-17.76,4.32-26.63,6.55c-0.76,0.2-14.46-28.76-8.54-43.17
			c5.48-13.35,17.2-23.02,30.89-27.08c6.34-1.88,14.1-3.37,20.65-1.65c5.82,1.53,9.79,6.5,11.48,12.09
			c2.3,7.62,1.1,16.55-0.62,24.16c-1.41,7.16-4.65,13.83-9.4,19.36C515.59,251.33,509.54,253.98,502.63,255.73z"/>
		<path class="st2" d="M516.39,229.23c-5.65,2.49-11.48,4.53-17.45,6.09c-3.97,0.91-7.86,2.14-11.62,3.7
			c4.06-8.12,8.4-16.02,13.01-23.84c5.73-1.35,11.78-3.75,16.25-7.58c0.1-0.09,0.12-0.24,0.03-0.35s-0.24-0.12-0.35-0.03l0,0
			c-4.79,3.11-10.02,4.89-15.27,6.92c1.25-2.1,2.5-4.21,3.79-6.31c0.35-0.58-0.45-1.21-0.87-0.65c-4.87,6.51-9.3,13.34-13.27,20.43
			c-0.69-6.38-0.74-12.81-0.15-19.2c-0.02-0.07-0.1-0.11-0.17-0.09c-0.04,0.01-0.07,0.05-0.09,0.09c-1.37,6.94-1.57,14.05-0.6,21.06
			c-3.32,6.01-6.36,12.19-9.13,18.46c-0.85-3.86-2-7.68-2.71-11.56c-1.11-5.57-1.31-11.28-0.6-16.91c0-0.16-0.22-0.19-0.26,0
			c-1.96,10.42-1.11,21.17,2.46,31.14c-1.61,3.76-3.15,7.56-4.59,11.36c-7.37,19.39-12.08,39.68-14,60.34
			c0.01,0.21,0.19,0.37,0.4,0.36c0.16-0.01,0.31-0.12,0.35-0.28c3.08-20.33,8.24-40.3,15.4-59.58c2.84-7.54,6.05-14.89,9.55-21.99
			c5.24-1.35,10.48-3.21,15.63-4.77c5.12-1.36,9.98-3.54,14.39-6.46c0.09-0.04,0.14-0.15,0.09-0.24
			C516.59,229.23,516.48,229.19,516.39,229.23L516.39,229.23z"/>
		<path class="st2" d="M524.88,221.34c-5.42,1.69-10.62,4.16-16.05,5.89c-0.26,0.08-0.12,0.47,0.12,0.43
			c5.71-0.95,11.4-2.48,16.11-6.01C525.24,221.51,525.07,221.27,524.88,221.34z"/>
		<path class="st2" d="M481.57,208.07c0.07-0.28-0.34-0.46-0.43-0.18c-1.67,4.89-2.88,10.09-1.65,15.19c0,0.19,0.37,0.22,0.38,0
			C480.33,217.99,480.23,212.98,481.57,208.07z"/>
		<path class="st2" d="M504.16,197.52c-1.83,2.38-2.79,5.31-2.71,8.31c0,0.18,0.3,0.3,0.35,0.08c0.77-2.8,1.96-5.33,2.94-8.04
			c0.03-0.2-0.1-0.39-0.3-0.42C504.34,197.43,504.24,197.46,504.16,197.52z"/>
		<path class="st1" d="M530.52,275.95c-2.56,8.12-8.67,19.43-18.35,19.53c-6.27,0-12.58-0.69-18.86-0.77
			c-6.77-0.11-13.54-0.09-20.2,0.31c-0.54,0,0.81-20.16,16.98-29.99c4.54-2.71,10.09-3.63,15.22-4.74c5.89-1.39,11.94-2.02,18-1.87
			c3.71,0.15,6.77,0.93,8.12,4.74C532.78,266.96,531.77,272.06,530.52,275.95z"/>
		<path class="st2" d="M523.56,265.79c-3.93,1-7.89,2.17-11.83,3.43c1.03-1.12,2.12-2.18,3.26-3.18c1.74-1.35,3.55-2.6,5.42-3.76
			c0.15-0.11,0-0.41-0.14-0.32c-3.83,1.59-7.13,4.22-9.55,7.58c-4.92,1.6-9.79,3.34-14.47,5.27c-3.24,1.32-6.34,2.96-9.26,4.89
			c0.93-2.04,2.05-4,3.34-5.84c2.15-2.79,5.05-4.33,7.87-6.31c0.1-0.1,0.11-0.26,0.02-0.36c-0.07-0.08-0.18-0.1-0.27-0.07
			c-5.94,2.58-10.51,7.55-12.61,13.68c-3.37,2.42-6.45,5.22-9.18,8.34c-10.71,12.19-19.13,28.33-19.16,44.83
			c0,0.39,0.62,0.51,0.7,0.09c2.73-16.19,9.76-31.35,20.36-43.88c0.78-0.9,1.56-1.76,2.36-2.56c2.93-0.4,5.88-0.62,8.84-0.66
			c3.45,0,6.86,0.51,10.29,0.79c5.65,0.46,11.89,0.53,16.99-2.32c0.22-0.12,0.07-0.51-0.19-0.42c-11.35,4.13-23.26-1.11-34.65,1.35
			c4.86-4.64,10.56-8.31,16.79-10.83l1.04-0.42c7.3,0.88,14.99,2.71,22.08,0.41c0.09-0.03,0.14-0.13,0.11-0.22
			c-0.03-0.09-0.12-0.13-0.2-0.12c-6.85,1.72-13.43-0.43-20.2-0.77c7.37-2.87,14.89-5.16,22.27-8
			C524.23,266.13,524.24,265.56,523.56,265.79z"/>
		<path class="st2" d="M526.79,272.91c-3.52,0.46-7.07,0.72-10.62,0.8c-0.04,0.02-0.06,0.07-0.04,0.11
			c0.01,0.02,0.02,0.03,0.04,0.04c3.57,0.66,7.24,0.42,10.7-0.69C527.03,273.13,526.96,272.89,526.79,272.91z"/>
		<path class="st2" d="M502.82,265.91c-1.96,0.88-3.74,2.12-5.24,3.66c-0.19,0.16,0,0.49,0.26,0.34c0.89-0.65,1.81-1.26,2.71-1.86
			c0.88-0.49,1.74-1.03,2.56-1.61C503.37,266.24,503.12,265.79,502.82,265.91z"/>
		<path class="st1" d="M445.71,292.18c0.12,0.27-0.27,0.51-0.42,0.23l0,0c-0.06,0.09-0.15,0.15-0.26,0.16
			c-6.51,1.56-13.11,2.71-19.76,3.45c-5.35,0.47-11.52,0.77-16.25-2.33c-6.35-4.21-10.52-15.46-7.1-22.61
			c4.06-8.48,16.25-3.87,22.42-0.85C433.82,274.83,441.37,282.59,445.71,292.18z"/>
		<path class="st2" d="M450.45,296.09c-3.57-3.44-7.53-6.45-11.79-8.98c-3.08-4.87-7.16-9.02-11.97-12.19
			c-0.23-0.15-0.43,0.22-0.22,0.38c3.83,3.06,7.22,6.63,10.09,10.6c-4.77-2.61-9.72-4.88-14.81-6.77c-1.82-3.37-4.58-6.14-7.95-7.98
			c-0.07,0-0.15,0-0.08,0.11c2.78,2.11,5.2,4.66,7.18,7.54c-3.01-1.12-6.04-2.17-9.09-3.17c-0.27-0.09-0.37,0.32-0.11,0.42
			c5.42,2.11,10.93,4.33,16.25,6.91c-6.53,1.04-13.19,1.04-19.73,0c-0.18,0-0.26,0.23-0.08,0.28c6.82,2,14.06,2.11,20.93,0.31
			c3.41,1.66,6.72,3.51,9.93,5.55c-2.69-0.22-5.41,0.01-8.03,0.66c-4.62,1.08-9.35,1.62-14.1,1.6c-0.18,0-0.23,0.28,0,0.31
			c8.12,1.35,15.91-2.3,24.02-1.35c3.01,2.05,5.83,4.35,8.44,6.89c5.06,5.05,9.22,10.93,12.32,17.37
			c3.41,6.95,5.25,14.31,8.02,21.49c0.04,0.14,0.18,0.22,0.32,0.18c0.14-0.04,0.22-0.18,0.18-0.32
			C467.79,321.79,460.76,306.18,450.45,296.09z"/>
		<path class="st2" d="M425.82,276.69c-0.54-0.96-1.24-1.82-2.09-2.53c-0.69-0.75-1.51-1.36-2.42-1.81c-0.08,0-0.12,0.08-0.07,0.14
			c0.66,0.77,1.6,1.35,2.32,2.06c0.72,0.7,1.35,1.58,2.07,2.3c0.05,0.05,0.13,0.04,0.17,0C425.84,276.8,425.84,276.74,425.82,276.69
			z"/>
		<path class="st2" d="M412.28,281.09c-1.21-0.31-2.49-0.28-3.72-0.54c-1.23-0.29-2.43-0.65-3.62-1.08
			c-0.08-0.03-0.16,0.01-0.19,0.09c-0.02,0.07,0,0.15,0.07,0.18c2.23,1.38,4.85,1.99,7.46,1.73c0.1,0,0.19-0.09,0.19-0.19
			C412.46,281.18,412.38,281.09,412.28,281.09z"/>
		<polygon class="st3" points="489.35,311.08 488.01,326.23 483.48,377.38 443.43,377.38 437.77,326.23 436.11,311.08 		"/>
		<polygon class="st4" points="489.35,311.08 488.01,326.23 437.77,326.23 436.11,311.08 		"/>
		<rect x="432.14" y="306.95" class="st3" width="61.18" height="12.29"/>
	</g>
	<g id="freepik--Shadows--inject-110">
		<ellipse class="st1" cx="234.34" cy="556.83" rx="87.11" ry="13.12"/>
		<path class="st1" d="M397.27,569.26c0,10.83-41.31,19.53-92.28,19.53s-92.29-8.75-92.29-19.53s41.31-19.53,92.29-19.53
			S397.27,558.48,397.27,569.26z"/>
		<ellipse class="st1" cx="516.78" cy="518.93" rx="93.13" ry="14.73"/>
		<ellipse class="st1" cx="397.27" cy="518.93" rx="119.49" ry="15.92"/>
		<ellipse class="st1" cx="169.89" cy="432.93" rx="164.8" ry="17.48"/>
		<ellipse class="st1" cx="314.01" cy="432.09" rx="96.43" ry="12.85"/>
	</g>
	<g id="freepik--Lamp--inject-110">
		<rect x="289.55" y="421.94" class="st6" width="69.84" height="7.93"/>
		<rect x="320.34" y="154.98" class="st6" width="8.27" height="266.95"/>
		<rect x="320.34" y="154.98" class="st0" width="8.27" height="41.92"/>
		<polygon class="st7" points="368.27,179.25 280.66,179.25 287.03,158.33 287.26,157.59 305.78,96.71 343.15,96.71 361.69,157.6 
			361.69,157.62 361.89,158.31 		"/>
		<path class="st5" d="M308.88,110.78c0,0.32-0.26,0.59-0.58,0.6c-0.33,0-0.6-0.27-0.6-0.6c0,0,0,0,0,0
			c0.01-0.32,0.27-0.58,0.6-0.58C308.62,110.2,308.88,110.46,308.88,110.78z"/>
		<path class="st5" d="M319.67,110.78c0,0.33-0.27,0.6-0.6,0.6l0,0c-0.32-0.01-0.58-0.27-0.58-0.6c0-0.32,0.26-0.58,0.58-0.58
			C319.4,110.2,319.67,110.46,319.67,110.78z"/>
		<path class="st5" d="M330.46,110.78c0,0.33-0.27,0.6-0.6,0.6c-0.33,0-0.6-0.27-0.6-0.6c0-0.33,0.27-0.6,0.6-0.6
			C330.2,110.18,330.46,110.45,330.46,110.78L330.46,110.78z"/>
		<path class="st5" d="M341.24,110.78c0,0.32-0.26,0.59-0.58,0.6c-0.33,0-0.6-0.27-0.6-0.6c0,0,0,0,0,0
			c0.01-0.32,0.27-0.58,0.6-0.58C340.98,110.2,341.24,110.46,341.24,110.78z"/>
		<path class="st5" d="M314.27,103.23c0,0.32-0.26,0.59-0.58,0.6c-0.33,0-0.6-0.27-0.6-0.6c0,0,0,0,0,0
			c0.01-0.32,0.27-0.58,0.6-0.58C314.01,102.64,314.27,102.9,314.27,103.23z"/>
		<path class="st5" d="M325.06,103.23c0,0.32-0.26,0.59-0.58,0.6c-0.33,0-0.6-0.27-0.6-0.6c0,0,0,0,0,0
			c0.01-0.32,0.27-0.58,0.6-0.58C324.8,102.64,325.06,102.9,325.06,103.23z"/>
		<path class="st5" d="M335.85,103.23c0,0.33-0.27,0.6-0.6,0.6l0,0c-0.32-0.01-0.58-0.27-0.58-0.6c0-0.32,0.26-0.58,0.58-0.58
			C335.58,102.64,335.85,102.9,335.85,103.23z"/>
		<path class="st5" d="M298.09,126.46c0.01,0.32-0.25,0.59-0.57,0.6c0,0-0.01,0-0.01,0c-0.33,0.05-0.63-0.17-0.68-0.5
			c-0.05-0.33,0.17-0.63,0.5-0.68c0.06-0.01,0.12-0.01,0.18,0C297.83,125.88,298.09,126.14,298.09,126.46z"/>
		<path class="st5" d="M308.88,126.46c0.01,0.32-0.25,0.59-0.57,0.6c0,0-0.01,0-0.01,0c-0.33,0.05-0.63-0.17-0.68-0.5
			c-0.05-0.33,0.17-0.63,0.5-0.68c0.06-0.01,0.12-0.01,0.18,0C308.62,125.88,308.88,126.14,308.88,126.46z"/>
		<path class="st5" d="M319.67,126.46c0,0.33-0.27,0.6-0.6,0.6l0,0c-0.33-0.05-0.55-0.35-0.5-0.68c0.04-0.26,0.24-0.46,0.5-0.5
			C319.4,125.88,319.67,126.14,319.67,126.46z"/>
		<path class="st5" d="M330.46,126.46c0.01,0.33-0.25,0.6-0.58,0.61c-0.33,0.01-0.6-0.25-0.61-0.58c-0.01-0.33,0.25-0.6,0.58-0.61
			c0,0,0.01,0,0.01,0C330.19,125.88,330.46,126.14,330.46,126.46z"/>
		<path class="st5" d="M341.24,126.46c0.01,0.32-0.25,0.59-0.57,0.6c0,0-0.01,0-0.01,0c-0.33,0.05-0.63-0.17-0.68-0.5
			c-0.05-0.33,0.17-0.63,0.5-0.68c0.06-0.01,0.12-0.01,0.18,0C340.98,125.88,341.24,126.14,341.24,126.46z"/>
		<path class="st5" d="M352.03,126.46c0,0.33-0.27,0.6-0.6,0.6l0,0c-0.33-0.05-0.55-0.35-0.5-0.68c0.04-0.26,0.24-0.46,0.5-0.5
			C351.76,125.88,352.03,126.14,352.03,126.46z"/>
		<path class="st5" d="M303.49,118.92c-0.01,0.32-0.27,0.58-0.6,0.58c-0.32,0-0.58-0.26-0.58-0.58c0-0.32,0.26-0.59,0.58-0.6
			C303.23,118.32,303.49,118.59,303.49,118.92C303.49,118.92,303.49,118.92,303.49,118.92z"/>
		<path class="st5" d="M314.27,118.92c0,0.32-0.26,0.58-0.58,0.58c-0.32,0-0.59-0.26-0.6-0.58c0-0.33,0.27-0.6,0.6-0.6l0,0
			C314.01,118.33,314.27,118.59,314.27,118.92z"/>
		<path class="st5" d="M325.06,118.92c0,0.32-0.26,0.58-0.58,0.58c-0.32,0-0.59-0.26-0.6-0.58c0-0.33,0.27-0.6,0.6-0.6l0,0
			C324.8,118.33,325.06,118.59,325.06,118.92z"/>
		<path class="st5" d="M335.85,118.92c-0.01,0.32-0.27,0.58-0.6,0.58c-0.32,0-0.58-0.26-0.58-0.58c0-0.32,0.26-0.59,0.58-0.6
			C335.59,118.32,335.85,118.59,335.85,118.92C335.85,118.92,335.85,118.92,335.85,118.92z"/>
		<path class="st5" d="M346.65,118.92c-0.01,0.32-0.27,0.58-0.6,0.58c-0.32,0-0.58-0.26-0.58-0.58c0-0.32,0.26-0.59,0.58-0.6
			C346.38,118.32,346.65,118.59,346.65,118.92C346.65,118.92,346.65,118.92,346.65,118.92z"/>
		<path class="st5" d="M298.09,142.15c0,0.32-0.26,0.58-0.58,0.58c-0.32,0-0.58-0.26-0.58-0.58c0-0.32,0.26-0.58,0.58-0.58
			C297.83,141.57,298.09,141.83,298.09,142.15z"/>
		<path class="st5" d="M308.88,142.15c0,0.32-0.26,0.58-0.58,0.58c-0.32,0-0.58-0.26-0.58-0.58c0-0.32,0.26-0.58,0.58-0.58
			C308.62,141.57,308.88,141.83,308.88,142.15z"/>
		<path class="st5" d="M319.67,142.15c-0.01,0.32-0.27,0.58-0.6,0.58c-0.32,0-0.58-0.26-0.58-0.58c0-0.32,0.26-0.58,0.58-0.58
			C319.4,141.57,319.67,141.83,319.67,142.15z"/>
		<path class="st5" d="M330.46,142.15c0.01,0.33-0.25,0.6-0.58,0.61c-0.33,0.01-0.6-0.25-0.61-0.58s0.25-0.6,0.58-0.61
			c0,0,0.01,0,0.01,0C330.19,141.57,330.46,141.83,330.46,142.15z"/>
		<path class="st5" d="M341.24,142.15c0,0.32-0.26,0.58-0.58,0.58c-0.32,0-0.58-0.26-0.58-0.58c0-0.32,0.26-0.58,0.58-0.58
			C340.98,141.57,341.24,141.83,341.24,142.15z"/>
		<path class="st5" d="M352.03,142.15c-0.01,0.32-0.27,0.58-0.6,0.58c-0.32,0-0.58-0.26-0.58-0.58c0-0.32,0.26-0.58,0.58-0.58
			C351.76,141.57,352.03,141.83,352.03,142.15z"/>
		<path class="st5" d="M303.49,134.6c0,0.33-0.27,0.6-0.6,0.6l0,0c-0.32-0.01-0.58-0.27-0.58-0.6c0-0.32,0.26-0.58,0.58-0.58
			C303.22,134.02,303.48,134.27,303.49,134.6z"/>
		<path class="st5" d="M314.27,134.6c0,0.32-0.26,0.59-0.58,0.6c-0.33,0-0.6-0.27-0.6-0.6c0,0,0,0,0,0c0.01-0.32,0.27-0.58,0.6-0.58
			C314.01,134.02,314.27,134.28,314.27,134.6z"/>
		<path class="st5" d="M325.06,134.6c0,0.32-0.26,0.59-0.58,0.6c-0.33,0-0.6-0.27-0.6-0.6c0,0,0,0,0,0c0.01-0.32,0.27-0.58,0.6-0.58
			C324.8,134.02,325.06,134.28,325.06,134.6z"/>
		<path class="st5" d="M335.85,134.6c0,0.33-0.27,0.6-0.6,0.6l0,0c-0.32-0.01-0.58-0.27-0.58-0.6c0-0.32,0.26-0.58,0.58-0.58
			C335.58,134.02,335.85,134.27,335.85,134.6z"/>
		<path class="st5" d="M346.65,134.6c0,0.33-0.27,0.6-0.6,0.6l0,0c-0.32-0.01-0.58-0.27-0.58-0.6c0-0.32,0.26-0.58,0.58-0.58
			C346.37,134.02,346.64,134.27,346.65,134.6z"/>
		<path class="st5" d="M287.31,157.83c0.01,0.21-0.1,0.4-0.28,0.5l0.23-0.74C287.29,157.67,287.31,157.75,287.31,157.83z"/>
		<path class="st5" d="M298.09,157.83c0.01,0.32-0.25,0.59-0.57,0.6c0,0-0.01,0-0.01,0c-0.33,0.05-0.63-0.17-0.68-0.5
			c-0.05-0.33,0.17-0.63,0.5-0.68c0.06-0.01,0.12-0.01,0.18,0C297.83,157.25,298.09,157.51,298.09,157.83z"/>
		<path class="st5" d="M308.88,157.83c0.01,0.32-0.25,0.59-0.57,0.6c0,0-0.01,0-0.01,0c-0.33,0.05-0.63-0.17-0.68-0.5
			c-0.05-0.33,0.17-0.63,0.5-0.68c0.06-0.01,0.12-0.01,0.18,0C308.62,157.25,308.88,157.51,308.88,157.83z"/>
		<path class="st5" d="M319.67,157.83c0,0.33-0.27,0.6-0.6,0.6l0,0c-0.33-0.05-0.55-0.35-0.5-0.68c0.04-0.26,0.24-0.46,0.5-0.5
			C319.4,157.25,319.67,157.51,319.67,157.83z"/>
		<path class="st5" d="M330.46,157.83c0.01,0.33-0.25,0.6-0.58,0.61c-0.33,0.01-0.6-0.25-0.61-0.58c-0.01-0.33,0.25-0.6,0.58-0.61
			c0,0,0.01,0,0.01,0C330.19,157.25,330.46,157.51,330.46,157.83z"/>
		<path class="st5" d="M341.24,157.83c0.01,0.32-0.25,0.59-0.57,0.6c0,0-0.01,0-0.01,0c-0.33,0.05-0.63-0.17-0.68-0.5
			c-0.05-0.33,0.17-0.63,0.5-0.68c0.06-0.01,0.12-0.01,0.18,0C340.98,157.25,341.24,157.51,341.24,157.83z"/>
		<path class="st5" d="M352.03,157.83c0,0.33-0.27,0.6-0.6,0.6l0,0c-0.33-0.05-0.55-0.35-0.5-0.68c0.04-0.26,0.24-0.46,0.5-0.5
			C351.76,157.25,352.03,157.51,352.03,157.83z"/>
		<path class="st5" d="M361.89,158.31c-0.16-0.11-0.25-0.28-0.24-0.47c-0.01-0.07-0.01-0.15,0-0.22L361.89,158.31z"/>
		<path class="st5" d="M292.7,150.29c0,0.32-0.26,0.58-0.58,0.58c-0.33,0.05-0.63-0.17-0.68-0.5c-0.05-0.33,0.17-0.63,0.5-0.68
			c0.06-0.01,0.12-0.01,0.18,0c0.32,0,0.58,0.26,0.58,0.58C292.7,150.28,292.7,150.29,292.7,150.29z"/>
		<circle class="st5" cx="302.9" cy="150.29" r="0.58"/>
		<path class="st5" d="M314.27,150.29c0,0.32-0.26,0.58-0.58,0.58c-0.33,0.05-0.63-0.17-0.68-0.5c-0.05-0.33,0.17-0.63,0.5-0.68
			c0.06-0.01,0.12-0.01,0.18,0c0.32,0,0.58,0.26,0.58,0.58C314.27,150.28,314.27,150.29,314.27,150.29z"/>
		<path class="st5" d="M325.06,150.29c0,0.32-0.26,0.58-0.58,0.58c-0.33,0.05-0.63-0.17-0.68-0.5c-0.05-0.33,0.17-0.63,0.5-0.68
			c0.06-0.01,0.12-0.01,0.18,0c0.32,0,0.58,0.26,0.58,0.58C325.06,150.28,325.06,150.29,325.06,150.29z"/>
		<path class="st5" d="M335.85,150.29c-0.01,0.32-0.27,0.58-0.6,0.58c-0.33-0.05-0.55-0.35-0.5-0.68c0.04-0.26,0.24-0.46,0.5-0.5
			C335.59,149.7,335.85,149.96,335.85,150.29L335.85,150.29z"/>
		<path class="st5" d="M346.65,150.29c-0.01,0.32-0.27,0.58-0.6,0.58c-0.33-0.05-0.55-0.35-0.5-0.68c0.04-0.26,0.24-0.46,0.5-0.5
			C346.38,149.7,346.65,149.96,346.65,150.29L346.65,150.29z"/>
		<circle class="st5" cx="356.84" cy="150.29" r="0.58"/>
		<path class="st5" d="M287.31,173.53c-0.01,0.32-0.27,0.58-0.6,0.58c-0.32,0-0.58-0.26-0.58-0.58c0-0.32,0.26-0.59,0.58-0.6
			C287.04,172.93,287.31,173.2,287.31,173.53L287.31,173.53z"/>
		<path class="st5" d="M298.09,173.53c0,0.32-0.26,0.58-0.58,0.58c-0.32,0-0.59-0.26-0.6-0.58c0-0.33,0.27-0.6,0.6-0.6l0,0
			C297.83,172.94,298.09,173.2,298.09,173.53z"/>
		<path class="st5" d="M308.88,173.53c0,0.32-0.26,0.58-0.58,0.58c-0.32,0-0.59-0.26-0.6-0.58c0-0.33,0.27-0.6,0.6-0.6l0,0
			C308.62,172.94,308.88,173.2,308.88,173.53z"/>
		<path class="st5" d="M319.67,173.53c-0.01,0.32-0.27,0.58-0.6,0.58c-0.32,0-0.58-0.26-0.58-0.58c0-0.32,0.26-0.59,0.58-0.6
			C319.41,172.93,319.67,173.2,319.67,173.53L319.67,173.53z"/>
		<path class="st5" d="M330.46,173.53c0,0.33-0.27,0.6-0.6,0.6c-0.33,0-0.6-0.27-0.6-0.6c0-0.33,0.27-0.6,0.6-0.6
			C330.2,172.93,330.46,173.2,330.46,173.53z"/>
		<path class="st5" d="M341.24,173.53c0,0.32-0.26,0.58-0.58,0.58c-0.32,0-0.59-0.26-0.6-0.58c0-0.33,0.27-0.6,0.6-0.6l0,0
			C340.98,172.94,341.24,173.2,341.24,173.53z"/>
		<path class="st5" d="M352.03,173.53c-0.01,0.32-0.27,0.58-0.6,0.58c-0.32,0-0.58-0.26-0.58-0.58c0-0.32,0.26-0.59,0.58-0.6
			C351.77,172.93,352.03,173.2,352.03,173.53L352.03,173.53z"/>
		<path class="st5" d="M362.83,173.53c-0.01,0.32-0.27,0.58-0.6,0.58c-0.32,0-0.58-0.26-0.58-0.58c0-0.32,0.26-0.59,0.58-0.6
			C362.56,172.93,362.83,173.2,362.83,173.53L362.83,173.53z"/>
		<path class="st5" d="M292.7,165.97c0,0.32-0.26,0.59-0.58,0.6c-0.33,0-0.6-0.27-0.6-0.6l0,0c0.01-0.32,0.27-0.58,0.6-0.58
			C292.44,165.39,292.7,165.65,292.7,165.97z"/>
		<circle class="st5" cx="302.9" cy="165.97" r="0.58"/>
		<path class="st5" d="M314.27,165.97c0,0.32-0.26,0.59-0.58,0.6c-0.33,0-0.6-0.27-0.6-0.6l0,0c0.01-0.32,0.27-0.58,0.6-0.58
			C314.01,165.39,314.27,165.65,314.27,165.97z"/>
		<path class="st5" d="M325.06,165.97c0,0.32-0.26,0.59-0.58,0.6c-0.33,0-0.6-0.27-0.6-0.6l0,0c0.01-0.32,0.27-0.58,0.6-0.58
			C324.8,165.39,325.06,165.65,325.06,165.97z"/>
		<path class="st5" d="M335.85,165.97c0,0.33-0.27,0.6-0.6,0.6l0,0c-0.32-0.01-0.58-0.27-0.58-0.6c0-0.32,0.26-0.58,0.58-0.58
			C335.58,165.39,335.85,165.65,335.85,165.97z"/>
		<path class="st5" d="M346.65,165.97c0,0.33-0.27,0.6-0.6,0.6l0,0c-0.32-0.01-0.58-0.27-0.58-0.6c0-0.32,0.26-0.58,0.58-0.58
			C346.37,165.39,346.64,165.65,346.65,165.97z"/>
		<circle class="st5" cx="356.84" cy="165.97" r="0.58"/>
	</g>
	<g id="freepik--Sofa--inject-110">
		<polygon class="st2" points="115.94,327.18 72.25,327.18 47.24,202.5 87.25,184.13 		"/>
		<polygon class="st1" points="241,327.18 115.94,327.18 87.25,184.13 212.31,184.13 		"/>
		<rect x="26.55" y="260.29" class="st2" width="66.97" height="137.41"/>
		<polygon class="st2" points="273.15,397.69 254.86,397.69 227.6,260.29 273.15,260.29 		"/>
		<rect x="93.51" y="260.29" class="st1" width="36.79" height="137.41"/>
		<rect x="273.15" y="260.29" class="st1" width="36.79" height="137.41"/>
		<rect x="130.31" y="327.18" class="st1" width="142.84" height="70.5"/>
		<rect x="130.31" y="296.7" class="st1" width="142.84" height="30.76"/>
		<path class="st2" d="M102.53,260.29l13.89-0.24l13.89-0.18h0.41v0.42l0.15,16.07v16.09c0,10.72,0,21.43,0,32.16
			s0,21.43-0.19,32.16c-0.19,10.72-0.23,21.43-0.45,32.16c-0.23-10.72-0.39-21.44-0.46-32.16c-0.12-10.72-0.15-21.43-0.18-32.16
			s0-21.43,0-32.16v-16.09l0.16-16.07l0.41,0.41l-13.89-0.16L102.53,260.29z"/>
		<path class="st2" d="M273.15,260.29c0.28,10.75,0.41,21.52,0.51,32.28l0.16,32.28l-0.15,32.27l-0.19,16.14l-0.34,16.14
			l-0.34-16.14l-0.19-16.14l-0.16-32.27l0.16-32.28C272.81,281.81,272.81,271.04,273.15,260.29z"/>
		<path class="st2" d="M273.15,327.18c-11.9,0.28-23.8,0.41-35.71,0.51l-35.72,0.16l-35.71-0.16l-17.78-0.19l-17.86-0.32l17.86-0.34
			l17.85-0.18l35.71-0.16l35.72,0.16C249.34,326.72,261.25,326.9,273.15,327.18z"/>
		<path class="st2" d="M273.15,296.7c-11.9,0.27-23.8,0.41-35.71,0.51l-35.72,0.16l-35.71-0.16l-17.78-0.19l-17.86-0.32l17.86-0.34
			l17.85-0.19l35.71-0.15l35.72,0.15C249.34,296.28,261.25,296.42,273.15,296.7z"/>
		<polygon class="st3" points="51.99,397.69 51.09,408.82 48.97,434.54 39.28,434.54 37.17,408.82 36.26,397.69 		"/>
		<polygon class="st4" points="36.26,397.69 51.99,397.69 51.09,408.82 37.17,408.82 		"/>
		<polygon class="st3" points="119.78,397.69 118.87,408.82 116.76,434.54 107.06,434.54 104.95,408.82 104.04,397.69 		"/>
		<polygon class="st4" points="104.04,397.69 119.78,397.69 118.87,408.82 104.95,408.82 		"/>
		<polygon class="st3" points="232.2,397.69 231.29,408.82 229.18,434.54 219.49,434.54 217.38,408.82 216.47,397.69 		"/>
		<polygon class="st4" points="216.47,397.69 232.2,397.69 231.29,408.82 217.38,408.82 		"/>
		<polygon class="st3" points="300.01,397.69 299.1,408.82 296.98,434.54 287.28,434.54 285.17,408.82 284.26,397.69 		"/>
		<polygon class="st4" points="300.01,397.69 299.1,408.82 285.17,408.82 284.26,397.69 		"/>
	</g>
	<g id="freepik--character-1--inject-110">
		<path class="st8" d="M273.41,415.05c-2.37,0.27-65.86-13.07-67.97-15.11c-0.8-0.76,0.61-10.13,2.63-21.39
			c0.43-2.42,0.89-4.93,1.35-7.47c3.14-16.53,6.85-34,6.85-34l42.5,8.8l-8.02,33.76l-1.76,7.41c0,0,22.03,15.98,24.09,18.47
			C275.14,407.99,275.79,414.73,273.41,415.05z"/>
		<path class="st5" d="M273.41,415.05c-2.37,0.27-65.86-13.07-67.97-15.11c-0.96-0.93,1.35-14.56,4.06-28.87l41.34,8.56l-1.76,7.41
			c0,0,22.03,15.98,24.09,18.47C275.22,407.99,275.79,414.73,273.41,415.05z"/>
		<path class="st7" d="M273.41,415.05c-2.37,0.27-65.86-13.07-67.97-15.11c-0.8-0.76,0.61-10.13,2.63-21.39l40.96,8.49
			c0,0,22.03,15.98,24.09,18.47C275.17,407.99,275.79,414.73,273.41,415.05z"/>
		<path class="st0" d="M273.03,412.31c-10.59-2.49-53.53-11.58-64.18-13.23c-0.09,0-0.11,0,0,0c10.44,2.71,53.46,11.44,64.17,13.35
			C273.22,412.53,273.26,412.36,273.03,412.31z"/>
		<path class="st0" d="M269.51,402.36c-2.38-0.57-4.89-0.11-6.92,1.26c-1.82,1.2-3.09,3.06-3.56,5.19c0,0,0.09,0.08,0.12,0
			c1.65-4.18,5.86-6.77,10.33-6.35C269.56,402.55,269.59,402.37,269.51,402.36z"/>
		<path class="st0" d="M252.93,389.01c-4.25-0.95-9.48-0.49-12.89,2.44c-0.12,0.12,0,0.3,0.18,0.27c4.13-1.17,8.38-1.9,12.67-2.17
			c0.15,0.01,0.28-0.1,0.29-0.25S253.08,389.02,252.93,389.01L252.93,389.01z"/>
		<path class="st0" d="M255.95,390.93c-4.25-0.96-9.48-0.49-12.89,2.44c-0.12,0.11,0,0.3,0.18,0.26c4.13-1.17,8.38-1.89,12.67-2.15
			c0.15,0.01,0.28-0.1,0.29-0.25C256.21,391.07,256.1,390.94,255.95,390.93L255.95,390.93z"/>
		<path class="st0" d="M258.97,392.91c-4.25-0.96-9.48-0.49-12.89,2.44c-0.12,0.11,0,0.3,0.18,0.26c4.14-1.17,8.38-1.89,12.67-2.15
			c0.15,0.01,0.28-0.1,0.29-0.25C259.23,393.05,259.12,392.92,258.97,392.91z"/>
		<path class="st0" d="M261.98,394.87c-4.25-0.95-9.48-0.49-12.89,2.45c-0.12,0.11,0,0.3,0.18,0.26c4.13-1.18,8.38-1.9,12.67-2.17
			c0.15,0.01,0.28-0.1,0.29-0.25C262.24,395.01,262.13,394.88,261.98,394.87z"/>
		<path class="st0" d="M213.68,389.54c-4.78-0.99-6.34,6.45-1.54,7.43C216.93,397.96,218.47,390.52,213.68,389.54z"/>
		<path class="st0" d="M259.92,378.55c-1.77-2.23-4.86-1.07-6.58,0.51c-2.9,2.76-5.03,6.23-6.16,10.07
			c-0.02,0.06,0.01,0.13,0.07,0.16c0.01,0,0.02,0.01,0.03,0.01c0,0.29,0.24,0.53,0.53,0.53c0.05,0,0.11-0.01,0.16-0.03
			c3.48-1.46,7.37-2.6,10.29-5.08C259.97,383.28,261.6,380.68,259.92,378.55z M252.8,386.52c-1.69,0.76-3.41,1.35-5.08,2.25
			c1.21-1.96,2.33-3.97,3.72-5.81c0.67-0.89,1.39-1.74,2.17-2.55c1.22-1.21,6.15-3.89,5.59,0.83
			C258.9,383.85,254.8,385.61,252.8,386.52z"/>
		<path class="st0" d="M236.25,388.51c3.59,1.35,7.64,1.1,11.4,1.35c0.38,0,0.56-0.41,0.47-0.72c0.05-0.03,0.06-0.1,0.02-0.15
			c-0.01-0.01-0.02-0.02-0.02-0.02c-2.37-3.23-5.54-5.79-9.21-7.41c-2.15-0.89-5.42-0.96-6.36,1.75
			C231.61,386.02,234.17,387.72,236.25,388.51z M234.18,385.54c-2.11-4.27,3.44-3.4,5-2.71c1,0.49,1.97,1.05,2.9,1.67
			c1.94,1.26,3.67,2.78,5.42,4.21c-1.84-0.22-3.7-0.26-5.54-0.41c-2.14-0.15-6.59-0.42-7.76-2.76H234.18z"/>
		<path class="st9" d="M253.85,377.31l-15.38-2.59l-30.47-5.16c0,0,9.83-39.46,9.1-46.04s-31.43-22.46-35.39-30.05
			c-3.97-7.58-1.88-26.34-1.88-26.34h35.83c1.14,1.72,2.09,3.56,2.84,5.48c0.26,1.35,37.1,29.08,42.14,41.31
			C265.34,325.48,253.85,377.31,253.85,377.31z"/>
		<path class="st0" d="M208.05,369.56c0,0,9.83-39.46,9.1-46.04c-0.73-6.58-31.43-22.46-35.39-30.05
			c-3.97-7.58-1.92-26.34-1.92-26.34h23.6l35.08,107.52L208.05,369.56z"/>
		<path class="st0" d="M254.67,366.48c-2.87-0.51-5.77-0.92-8.65-1.42c-2.88-0.5-5.77-0.93-8.65-1.35
			c-5.77-0.91-11.55-1.68-17.33-2.5c-3.26-0.46-6.53-0.93-9.78-1.5c-0.14,0-0.16,0.19,0,0.22c5.74,1.12,11.46,2.42,17.21,3.44
			c5.75,1.02,11.54,1.83,17.35,2.42c3.28,0.32,6.58,0.69,9.87,0.89c0.05,0,0.09-0.05,0.09-0.1
			C254.76,366.51,254.72,366.47,254.67,366.48L254.67,366.48z"/>
		<path class="st8" d="M233.68,423.83c-2.4,0.08-64.53-18.58-66.46-20.78c-0.73-0.84,1.45-10.05,4.41-21.1
			c0.64-2.38,1.35-4.85,2.02-7.34c4.51-16.25,9.68-33.3,9.68-33.3l41.61,12.35l-10.83,32.96l-2.37,7.24c0,0,20.59,17.78,22.44,20.42
			C236.02,416.93,236.06,423.75,233.68,423.83z"/>
		<path class="st5" d="M233.68,423.83c-2.4,0.08-64.53-18.58-66.46-20.78c-0.89-1.02,2.52-14.41,6.43-28.43l40.46,12.01l-2.37,7.24
			c0,0,20.59,17.78,22.44,20.42C236.02,416.93,236.06,423.75,233.68,423.83z"/>
		<path class="st7" d="M233.68,423.83c-2.4,0.08-64.53-18.58-66.46-20.78c-0.73-0.84,1.45-10.05,4.41-21.1l40.11,11.92
			c0,0,20.59,17.78,22.44,20.42C236.02,416.93,236.06,423.75,233.68,423.83z"/>
		<path class="st0" d="M233.54,421.08c-10.34-3.39-52.36-16.05-62.84-18.6c-0.09,0-0.11,0,0,0c10.18,3.59,52.31,15.91,62.81,18.71
			C233.71,421.32,233.75,421.15,233.54,421.08z"/>
		<path class="st0" d="M230.83,410.86c-2.32-0.76-4.86-0.52-7,0.66c-1.91,1.05-3.34,2.79-3.99,4.87c0,0,0.09,0.09,0.12,0
			c2.01-4.01,6.42-6.21,10.83-5.42L230.83,410.86z"/>
		<path class="st0" d="M215.47,396.12c-4.16-1.35-9.48-1.35-13.04,1.35c-0.15,0.09,0,0.3,0.15,0.27c4.22-0.81,8.51-1.18,12.81-1.08
			c0.15,0.02,0.29-0.08,0.31-0.23C215.72,396.28,215.62,396.14,215.47,396.12L215.47,396.12z"/>
		<path class="st0" d="M218.31,398.34c-4.16-1.35-9.48-1.35-13.04,1.35c-0.15,0.09,0,0.3,0.15,0.27c4.22-0.81,8.51-1.18,12.81-1.08
			c0.15,0.02,0.29-0.08,0.31-0.23C218.56,398.5,218.46,398.36,218.31,398.34z"/>
		<path class="st0" d="M221.15,400.56c-4.16-1.35-9.48-1.35-13.04,1.35c-0.15,0.09,0,0.3,0.15,0.27c4.22-0.81,8.51-1.18,12.81-1.08
			c0.15,0.02,0.29-0.08,0.31-0.23C221.41,400.72,221.3,400.58,221.15,400.56z"/>
		<path class="st0" d="M224.06,402.78c-4.16-1.35-9.48-1.35-13.04,1.35c-0.15,0.09,0,0.3,0.15,0.27c4.22-0.81,8.51-1.18,12.81-1.08
			c0.15,0.02,0.29-0.08,0.31-0.23C224.32,402.94,224.21,402.8,224.06,402.78z"/>
		<path class="st0" d="M176.31,393.38c-4.68-1.35-6.85,5.88-2.17,7.27C178.83,402.05,180.99,394.78,176.31,393.38z"/>
		<path class="st0" d="M223.31,386.3c-1.58-2.38-4.75-1.48-6.59,0c-3.12,2.49-5.53,5.76-6.99,9.48c0,0.08,0,0.14,0.08,0.16
			c0,0.32,0.28,0.68,0.65,0.56c3.59-1.16,7.57-1.96,10.68-4.18C222.97,391.05,224.81,388.59,223.31,386.3z M215.53,393.63
			c-1.75,0.61-3.52,1.14-5.24,1.81c1.35-1.86,2.71-3.75,4.2-5.42c0.74-0.84,1.53-1.62,2.37-2.36c1.35-1.11,6.46-3.36,5.51,1.35
			c-0.51,2.5-4.75,3.91-6.84,4.64V393.63z"/>
		<path class="st0" d="M198.89,394.26c3.47,1.64,7.51,1.73,11.25,2.25c0.39,0,0.6-0.35,0.54-0.66c0.05-0.05,0.05-0.12,0-0.17
			c0,0,0,0,0,0c-2.09-3.41-5.03-6.21-8.54-8.12c-2.07-1.08-5.42-1.35-6.5,1.19S196.88,393.29,198.89,394.26z M197.09,391.12
			c-1.75-4.41,3.71-3.1,5.2-2.23c0.95,0.57,1.85,1.2,2.71,1.9c1.84,1.42,3.43,3.07,5.1,4.66c-1.81-0.37-3.66-0.57-5.48-0.87
			C202.47,394.21,198.05,393.57,197.09,391.12z"/>
		<path class="st9" d="M147.16,267.14l56.29,0.08c0,0-1.5,15.08-2.41,16.51c0,0,26.39,23.89,29.87,35.9
			c3.48,12.01-12.4,63.96-12.4,63.96l-46.04-12.7c0,0,12.9-41.98,12.9-47.3c0-3.62-31.33-20.13-37.4-28.27
			C141.9,287.18,147.16,267.14,147.16,267.14z"/>
		<path class="st0" d="M231.54,321.02c-0.28-2.27-0.98-4.47-2.06-6.49c-1.11-2.02-19.06-24.37-28.43-30.8
			c-0.15-0.09-0.32,0.09-0.19,0.2c8.56,7.12,25.04,27.51,26.47,29.55c1.31,1.82,2.23,3.88,2.71,6.07c1.04,4.63,0.45,9.48-0.16,14.16
			c-0.77,5.88-1.65,11.77-2.71,17.6c0.02,0.06,0.09,0.1,0.16,0.08c0.04-0.01,0.06-0.04,0.08-0.08c1.35-5.33,2.46-10.68,3.32-16.11
			C231.38,330.59,232.19,325.76,231.54,321.02z"/>
		<path class="st0" d="M204.69,268.19c-0.37,2.33-0.69,4.67-1.16,6.97c-0.23,1.1-0.42,2.21-0.73,3.28
			c-0.09,0.47-0.33,0.89-0.69,1.21c-0.44,0.26-0.94,0.38-1.45,0.37c-1.08,0-1.84-0.5-1.79-1.65c0.13-1.09,0.32-2.18,0.58-3.25
			c0.2-1.18,0.35-2.34,0.49-3.52c0-0.5,0.09-1.02,0.14-1.52s0-1.23,0.07-1.84c0-0.12-0.19-0.14-0.2,0
			c-0.11,0.54-0.31,1.04-0.42,1.57c-0.11,0.53-0.24,1.08-0.35,1.61c-0.2,1.08-0.41,2.17-0.62,3.25c-0.22,1.08-0.49,2.02-0.64,3.05
			c-0.2,0.79-0.07,1.63,0.37,2.33c1.12,1.13,2.87,1.31,4.2,0.43c0.56-0.46,0.93-1.11,1.04-1.83c0.23-1.02,0.37-2.06,0.53-3.07
			c0.38-2.44,0.8-4.86,1.04-7.31C205.11,268.01,204.73,267.97,204.69,268.19z"/>
		<path class="st0" d="M200.5,280.22c0,0.28,0,0.57,0.08,0.85c0.08,0.28,0,0.57,0.07,0.85s0,0.57,0,0.85s0,0.56,0.07,0.84
			c0,0.06,0.05,0.11,0.11,0.11c0.06,0,0.11-0.05,0.11-0.11c0.05-0.28,0.07-0.57,0.08-0.85c0-0.28,0-0.58,0-0.87
			c0-0.28,0-0.57-0.07-0.85c0-0.3-0.03-0.59-0.11-0.88c-0.09-0.08-0.22-0.08-0.31,0.01C200.52,280.19,200.51,280.21,200.5,280.22z"
			/>
		<path class="st0" d="M220.48,374.22c-2.82-0.8-5.66-1.49-8.48-2.25c-2.82-0.76-5.66-1.49-8.49-2.22
			c-5.65-1.45-11.32-2.79-16.99-4.16c-3.21-0.77-6.42-1.57-9.6-2.44c-0.14,0-0.16,0.16,0,0.2c5.61,1.68,11.17,3.52,16.8,5.08
			c5.63,1.56,11.31,2.95,17.02,4.06c3.24,0.65,6.49,1.35,9.75,1.84C220.52,374.31,220.52,374.26,220.48,374.22
			C220.48,374.23,220.48,374.22,220.48,374.22z"/>
		<path class="st0" d="M188.68,318.5c-1.12-1.13-2.38-2.1-3.75-2.91l-4.7-3.3l-9.41-6.59l-9.26-6.5c-2.92-2.04-6.23-3.93-8.48-6.77
			c-5.17-6.47-3.63-15.33-2.18-22.79c0-0.14-0.18-0.19-0.2,0c-1.35,6.5-2.71,13.54,0,19.89c1.32,2.79,3.36,5.18,5.9,6.93
			c2.92,2.17,5.94,4.21,8.92,6.3l18.88,13.13c1.52,0.86,2.9,1.97,4.06,3.28c1.18,1.65,0.53,3.71,0.09,5.5
			c-0.9,3.61-1.81,7.25-2.71,10.91c-2.09,8.12-4.35,16.25-6.77,24.37c-0.01,0.07,0.05,0.14,0.13,0.14c0.06,0,0.11-0.03,0.13-0.08
			c2.2-7.16,4.27-14.38,6.2-21.66c0.97-3.61,1.92-7.22,2.83-10.83c0.51-1.74,0.92-3.51,1.22-5.29
			C189.85,320.91,189.52,319.55,188.68,318.5z"/>
		<path class="st8" d="M191.23,213.42c0.57,11.75,5.42,50.78,15.48,56.87c6.58,4.06,43.97,9.28,51.28,4.21
			c3.18-2.22,4.67-26.24,0.56-26.76c-4.12-0.51-33.85-1.35-36.4-3.22s-15.23-33.55-21.1-42.37
			C191.08,186.96,190.93,207.09,191.23,213.42z"/>
		<path class="st7" d="M218,232.26l-3.66,1.27l-22.86,7.95c-1.67-10.85-2.63-21.79-2.9-32.77c0-11.39,3.36-16.95,8.29-13.35
			c1.94,1.35,4.06,4.17,6.35,8.54L218,232.26z"/>
		<path class="st0" d="M192.42,237.26c3.71-1.57,19.16-7.42,22.59-8.46c0.24-0.08,0.34,0,0.11,0.16c-7.38,3.22-14.93,6.02-22.63,8.4
			C192.39,237.44,192.33,237.36,192.42,237.26z"/>
		<path class="st0" d="M214.34,233.54l-22.86,7.95c-1.67-10.85-2.63-21.79-2.9-32.77c0-11.39,3.36-16.95,8.29-13.35L214.34,233.54z"
			/>
		<path class="st7" d="M220.1,268.5c-1.04,1.15-36.92,3.72-59.5,5.09c-10.33,0.61-17.85,0.99-17.97,0.84
			c-1.02-1.18,5.74-58.89,29.56-80.94c0.45-0.42,0.93-0.81,1.42-1.18c8.06-5.89,18.56-1.71,20.2-0.88
			c3.1,1.54,8.27,10.64,10.66,18.73C207.19,219.35,221.03,267.48,220.1,268.5z"/>
		<path class="st0" d="M173.61,192.36L160.6,273.6c-10.33,0.61-17.85,0.99-17.97,0.84c-1.02-1.18,5.74-58.89,29.56-80.94
			C172.64,193.09,173.12,192.71,173.61,192.36z"/>
		<path class="st8" d="M212.35,253.16c-0.45,3.9-11.39,1.68-14.18,1.71s-3.28,0.7-1.99,1.67c0.27,0.17,0.56,0.31,0.87,0.42
			c-4.18-1.35-17.82-7.91-17.82-7.91s8.83-1.87,13.45-2.27S212.8,249.24,212.35,253.16z"/>
		<path class="st5" d="M241.13,236c2.43-1.74,5.05-3.22,7.8-4.4c3.66-1.35,11.69-3.68,13.11-4.51l2.45-0.27l-13.54,51.45
			l-21.52,6.77l-36.68-8l10.74-48.75l2.49-0.31c0,0,4.67,1.21,8.5,1.8C218.31,230.38,231.43,230.26,241.13,236z"/>
		<polygon class="st6" points="226.2,286.56 238.2,237.11 201.84,227.92 190.65,278.33 		"/>
		<polygon class="st0" points="226.2,286.56 231.43,286.56 243.49,237.11 238.2,237.11 		"/>
		<polygon class="st6" points="231.43,286.56 243.49,237.11 265.52,226.37 251.48,278.72 		"/>
		<path class="st8" d="M159.95,202.57c-8.4,8.25-35.49,41.01-33.39,52.55c1.35,7.58,41.08,22.36,49.72,24.37
			c3.78,0.91,11.74-24.83,9.38-28.23c-2.36-3.4-26.93-6.26-27.27-9.36c-0.34-3.1,13.81-29.31,16.52-39.52
			C179.58,184.85,164.49,198.09,159.95,202.57z"/>
		<path class="st7" d="M176.48,205.67c6.77-16.25-0.89-18.35-13.03-8.21c-8.27,7.2-16.06,14.93-23.34,23.13l24.03,14.53
			C164.15,235.12,172.11,216.04,176.48,205.67z"/>
		<path class="st0" d="M174.61,210.84c-0.88,2.15-1.69,4.32-2.5,6.49c0.6-0.8,1.23-1.57,1.9-2.32c0,0,0.08,0,0,0
			c-0.47,0.64-0.92,1.29-1.35,1.92l-0.69,0.91l-0.15,0.2c-0.64,1.68-1.29,3.37-1.98,5.04c-0.83,2-1.69,3.97-2.56,5.94
			s-2.09,4.21-2.9,6.28c0,0.18-2.14-1.35-2.37-1.35s-0.12-0.37,0.07-0.22c0.19,0.15,2.15,1.1,2.19,1.1
			c0.88-1.98,1.53-4.06,2.34-6.07s1.61-3.99,2.46-5.98c1.73-4.06,3.7-7.96,5.42-11.98C174.56,210.75,174.63,210.79,174.61,210.84z"
			/>
		<path class="st0" d="M143.91,218.62c3.59,1.86,17.94,10.02,20.93,12c0.2,0.14,0.16,0.3,0,0.19c-7.19-3.63-14.18-7.65-20.93-12.05
			C143.76,218.71,143.82,218.56,143.91,218.62z"/>
		<path class="st8" d="M219.08,269.58c-0.56,3.44-6.04,3.98-6.42,4.06c0.32,0,5.15,0.07,4.33,3.44c-0.81,3.37-5.73,4.79-5.73,4.79
			s1.49,1-0.2,3.2c-2.44,3.15-11.05,3.24-15.54,2.21c-4.5-1.03-20.24-8.12-22.63-9.22l6.34-28.96c0,0,13.64,6.54,17.82,7.91l0,0
			c2.88,1.03,5.83,1.88,8.81,2.55c4.78,0.88,11.78-1.88,12.19,1.69c0.37,3.2-4.67,4.64-4.67,4.64S219.66,266.05,219.08,269.58z"/>
		<path class="st0" d="M213.23,265.79c-7.16,1.53-10.56,0.96-17.33-1.54c-0.06-0.03-0.12,0-0.15,0.05c-0.03,0.06,0,0.12,0.05,0.15
			l0,0c6.39,3.05,10.56,4.39,17.52,1.69C213.62,266.01,213.53,265.79,213.23,265.79z"/>
		<path class="st0" d="M212.95,273.45c-7.58,0.93-11.28,0.35-18.55-1.75c-0.11,0-0.16,0.15-0.07,0.19
			c6.97,2.71,11.14,3.89,18.6,1.95C213.23,273.77,213.23,273.41,212.95,273.45z"/>
		<path class="st0" d="M211.17,281.77c-7.41,0.38-11.48-0.09-18.28-3.03c-0.07-0.03-0.15-0.01-0.18,0.06s-0.01,0.15,0.06,0.18l0,0
			c5.49,3.39,12.09,4.49,18.39,3.06C211.62,281.92,211.65,281.75,211.17,281.77z"/>
		<path class="st8" d="M263.52,240.85c1.95,3.56,6.58,7.85,7.12,10.83c0.32,1.49-0.37,3.01-1.71,3.75c0,0,3.06,1.35,3.1,4.06
			c0,1.35-2.25,2.71-2.25,2.71c1.38,0.69,2.27,2.09,2.3,3.63c-0.09,1.96-2.36,2.97-2.36,2.97s1.8,2.18,1.06,4.16
			c-1.49,3.99-18.36,4.97-21.31-1.08c-1.35-2.83,2.71-2.84,2.71-2.84s-5.96-1.42-6.24-4.89c-0.28-3.47,5.08-3.17,5.08-3.17
			s-5.75-1.35-5.69-5.05c0.07-3.7,5.42-2.55,5.42-2.55s-3.9-2.33-3.22-5.1c1.14-4.56,8.56,0.68,12.19-0.42l1.69-6.23L263.52,240.85z
			"/>
		<path class="st8" d="M267.22,245.97c-1.56-3.53,2.71-8.25,1.65-11.83c-1.35-4.85-6.59,0.28-7.42,7.5l0.35,5.7L267.22,245.97z"/>
		<path class="st10" d="M269.41,269.09c-5.67,1.77-11.75,1.77-17.43,0c-0.18,0-0.16-0.38,0-0.35c5.76,0.94,11.64,1.03,17.43,0.27
			V269.09z"/>
		<path class="st10" d="M269.88,262.24c0,0,0.08,0.11,0,0.12c-6.26,1.87-12.98,1.43-18.96-1.22c-0.2-0.09-0.28-0.39,0-0.3
			C254.98,262.47,264.47,263.08,269.88,262.24z"/>
		<path class="st10" d="M250.39,253.04c5.82,2.34,12.13,3.18,18.36,2.46c0.08,0,0.08,0.11,0,0.14c-3.34,0.93-6.84,1.13-10.26,0.61
			c-2.92-0.28-5.73-1.31-8.12-3.01C250.21,253.17,250.26,252.98,250.39,253.04z"/>
		<path class="st8" d="M192.11,207.31c-4.25,0.65-10.9-6.32-13.31-11.71c0.35-2.89,0.86-5.76,1.5-8.6c0.49-2.71,0.96-5.84,1.19-8.68
			c0-0.58,1.94,0.65,1.94,0.65l3.6,1.19l11.92,3.94c-1.31,3.49-2.18,7.13-2.6,10.83c-0.04,0.39-0.04,0.79,0,1.18v0.19
			C196.56,198.48,196.23,206.67,192.11,207.31z"/>
		<path class="st0" d="M196.37,196.04v0.19c-0.61,0.05-1.22,0.05-1.83,0c-11.98-1.25-12.19-16.61-12.19-16.61l4.73,0.6l11.92,3.94
			c-1.31,3.49-2.18,7.13-2.6,10.83C196.36,195.34,196.35,195.69,196.37,196.04z"/>
		<path class="st8" d="M181.98,151.82c-3.79,6.92-4.6,26.04-0.34,31.89c6.19,8.49,18.52,11.74,26.28,3.79
			c7.53-7.69,8.25-31.89,3.28-37.43C203.88,141.91,187.57,141.61,181.98,151.82z"/>
		<path class="st11" d="M186.96,188.03L186.96,188.03"/>
		<path class="st0" d="M180.44,169.65c3.82,0,3.21-10.17,3.21-10.17s5.98,0.12,8.65-8.34c0,0,2.5,10.51,18.37,10.74
			c1.44-2.46,1.76-5.41,0.89-8.12c1.18,2.9,2.12,5.89,2.8,8.95c0,0,5.5-12.48-4.96-18.56c-4.17-2.42-10.93-2.97-21.8,0.68
			c0,0-1.12-6.36-2.4-5.73c-1.27,0.64,0.19,6.65,0.19,6.65s-4.28-1.99-5.16-1.16s3.4,2.44,3.4,2.44c-4.34,0.91-7.36,4.87-7.08,9.3
			C176.67,163.62,178.54,169.65,180.44,169.65z"/>
		<path class="st0" d="M208.32,162.3c-2.05,0.27-4.13,0.09-6.11-0.53c-1.73-0.61-3.34-1.53-4.75-2.71c-1.37-1.18-2.5-2.61-3.32-4.22
			c-0.81-1.79-1.29-3.7-1.42-5.66c0-0.11-0.19-0.15-0.22,0c-0.27,1.97,0,3.97,0.77,5.8c1.38,3.68,4.5,6.42,8.33,7.3
			c2.24,0.32,4.51,0.41,6.77,0.26C208.47,162.52,208.45,162.29,208.32,162.3z"/>
		<path class="st0" d="M184.89,146.99c-4.07-0.71-8.02,1.74-9.19,5.7c-0.54,2.26-0.54,4.62,0,6.88c0.51,2.35,1.33,4.63,2.44,6.77
			c0,0.12,0.24,0,0.18-0.11c-0.94-2.01-1.56-4.16-1.84-6.36c-0.38-2.1-0.43-4.24-0.15-6.35c0.76-4.01,4.47-6.77,8.53-6.35
			C185,147.22,185.03,147,184.89,146.99z"/>
		<path class="st0" d="M200.77,140.66c-2.74,0.25-5.44,0.84-8.03,1.77c-2.5,0.78-4.85,1.98-6.95,3.55c-0.09,0.08,0,0.26,0.12,0.18
			c4.45-2.31,9.28-3.78,14.26-4.36c4.56-0.66,9.78,0,12.65,4.06c0,0,0.15,0,0.11,0C210.44,141.67,205.34,140.34,200.77,140.66z"/>
		<path class="st0" d="M197.93,169.44c-2.38-0.27-2.71,4.54-0.54,4.79C199.56,174.49,199.95,169.65,197.93,169.44z"/>
		<path class="st0" d="M208.93,170.75c2.4,0.19,1.86,4.97-0.37,4.81C206.34,175.4,206.91,170.6,208.93,170.75z"/>
		<path class="st0" d="M196.58,166.53c0.52-0.1,1.04-0.24,1.54-0.41c0.56-0.06,1.09-0.32,1.49-0.72c0.24-0.3,0.24-0.72,0-1.02
			c-0.56-0.48-1.34-0.62-2.03-0.37c-0.73,0.15-1.38,0.56-1.83,1.16c-0.26,0.41-0.13,0.96,0.28,1.21
			C196.2,166.5,196.39,166.54,196.58,166.53z"/>
		<path class="st0" d="M211.08,167.8c-0.51-0.15-1.02-0.33-1.52-0.53c-0.55-0.1-1.06-0.39-1.44-0.81c-0.19-0.32-0.14-0.73,0.12-1
			c0.59-0.44,1.38-0.53,2.06-0.23c0.73,0.22,1.35,0.7,1.75,1.35c0.2,0.44-0.01,0.96-0.45,1.16
			C211.44,167.81,211.26,167.83,211.08,167.8z"/>
		<path class="st0" d="M196.85,181.62c0.19,0.45,0.34,1.03,0.83,1.29c0.52,0.19,1.07,0.28,1.62,0.26c0,0,0.08,0.07,0,0.09
			c-0.64,0.38-1.43,0.38-2.07,0c-0.51-0.39-0.74-1.04-0.58-1.67C196.7,181.54,196.82,181.56,196.85,181.62z"/>
		<path class="st7" d="M197.35,177.86h-0.07c-3.51-0.07-6.29-2.97-6.22-6.47c0.03-1.64,0.7-3.2,1.85-4.36
			c2.48-2.47,6.5-2.45,8.96,0.03c2.47,2.48,2.45,6.5-0.03,8.96C200.65,177.2,199.03,177.87,197.35,177.86z M197.35,166.19
			c-1.39,0.01-2.73,0.55-3.74,1.52c-1.01,0.99-1.58,2.35-1.58,3.76c-0.03,1.41,0.52,2.78,1.52,3.78c0.99,1.01,2.34,1.59,3.75,1.6
			l0,0c2.92-0.01,5.29-2.36,5.32-5.28l0,0c0.05-2.94-2.29-5.36-5.23-5.42c-0.01,0-0.03,0-0.04,0V166.19z"/>
		<path class="st7" d="M210.52,179.66L210.52,179.66c-1.36-0.05-2.62-0.74-3.4-1.86c-0.9-1.23-1.38-2.72-1.35-4.25
			c0-3.33,2.19-6.01,4.82-6.01l0,0c1.37,0.04,2.64,0.73,3.41,1.86c0.91,1.23,1.39,2.72,1.35,4.25
			C215.32,176.97,213.23,179.66,210.52,179.66z M210.52,168.56c-2.06,0-3.76,2.23-3.79,5.01c-0.04,1.3,0.35,2.57,1.11,3.63
			c0.6,0.86,1.56,1.4,2.61,1.45l0,0c2.07,0,3.78-2.23,3.8-5.01l0,0c0.03-1.3-0.36-2.57-1.12-3.63c-0.58-0.87-1.55-1.41-2.6-1.45
			H210.52z"/>
		<path class="st0" d="M203.86,178.2c0,0,0,2.22-0.22,3.24c0,0.09-0.27,0.11-0.62,0.07l0,0c-1.84,0.03-3.55-0.97-4.43-2.59
			c-0.03-0.05,0-0.12,0.05-0.14c0.04-0.02,0.09-0.01,0.13,0.02c1.16,1.11,2.65,1.81,4.24,1.99c0.12-0.27,0-3.83,0.12-3.78
			c0.66,0.22,1.81,0.72,2.25,0.89c0-1.44,0-5.54,0.18-8.12c0-0.16,0.26-0.18,0.27,0c0.35,3.06,0.51,6.14,0.46,9.22
			C206.23,179.13,204.24,178.44,203.86,178.2z"/>
		<path class="st7" d="M206.16,172.47c-0.84-1.12-2.71-0.15-2.71-0.14l-0.47-0.89c0.11,0,2.71-1.35,4.06,0.42L206.16,172.47z"/>
		<path class="st7" d="M191.95,169.48c-4.2-1.38-8.47-2.54-12.8-3.47c-1.52,0.08-2.96,0.71-4.06,1.76l-0.8-0.62
			c1.31-1.32,3.08-2.09,4.94-2.15c2.11,0.14,12.58,3.37,13.03,3.51L191.95,169.48z"/>
		<path class="st8" d="M181.7,169.13c0,0-3.03-6.69-5.98-5.71c-2.95,0.97-1.46,10.13,1.48,11.89c1.48,1.03,3.51,0.67,4.54-0.81
			c0.03-0.04,0.05-0.07,0.07-0.11L181.7,169.13z"/>
		<path class="st0" d="M176.2,166.03c0,0-0.07,0,0,0.08c1.84,1.41,2.99,3.54,3.18,5.85c-0.32-0.93-1.34-1.43-2.27-1.1
			c-0.1,0.03-0.19,0.08-0.28,0.13v0.12c0.85-0.11,1.67,0.33,2.04,1.1c0.31,0.62,0.54,1.28,0.7,1.95c0.07,0.22,0.45,0.18,0.42,0l0,0
			C180.63,171.22,179.18,166.86,176.2,166.03z"/>
	</g>
	<g id="freepik--character-2--inject-110">
		<path class="st12" d="M549.13,507.07c0.15,2.38-6.65,2.94-9.48,1.35c-2.27-1.68-4.41-3.51-6.43-5.48
			c-6.66-6.15-15.91-15.08-15.91-15.08l-7.03,3.01l-28.66,10.45l-19.24-37.2c0,0,16.6-6.66,32.37-12.62l7.14-2.64l0.43-0.16
			c10.57-3.86,19.34-6.77,20.22-6.11C524.92,444.31,549.03,504.67,549.13,507.07z"/>
		<path class="st0" d="M549.13,507.07c0.15,2.38-6.65,2.94-9.48,1.35c-2.27-1.68-4.41-3.51-6.43-5.48
			c7.07-0.81-26.39-47.91-30.93-54.23c10.58-3.86,19.34-6.77,20.22-6.11C524.92,444.31,549.03,504.67,549.13,507.07z"/>
		<path class="st9" d="M503.97,497.56c0,0-53,12.01-90.25,9.99c-2.59-0.14-5.06-0.35-7.47-0.64c-13.15-1.56-18.33-26.43-13.15-34.39
			s24.37-18.89,34.54-25.73c2.13-1.62,3.74-3.82,4.64-6.34h37.45c0,0,8.12,9.28,4.06,16.52c-0.07,0.12-0.15,0.24-0.24,0.35
			l12.05-4.32L503.97,497.56z"/>
		<path class="st0" d="M503.97,497.56c0,0-53,12.01-90.25,9.99l27.74-67.09h28.27c0,0,8.12,9.28,4.06,16.52
			c-0.07,0.12-0.15,0.24-0.24,0.35l12.05-4.32L503.97,497.56z"/>
		<path class="st9" d="M487.95,477.26c-2.82-6.47-5.94-12.8-8.83-19.23c0-0.12-0.26,0-0.2,0c2.71,6.49,5.21,13.05,8.04,19.48
			c2.83,6.43,5.9,12.81,8.88,19.2c0,0.16,0.34,0.08,0.27-0.09C493.38,490.22,490.81,483.7,487.95,477.26z"/>
		<path class="st12" d="M577.36,516.68c0.14,2.38-6.66,2.94-9.48,1.35c-2.26-1.67-4.41-3.47-6.43-5.42
			c-6.69-6.13-15.92-15.11-15.92-15.11l-7.03,3.01l-28.65,10.36l-19.24-37.15c0,0,16.59-6.66,32.36-12.62l7.11-2.63l0.43-0.16
			c10.58-3.86,19.34-6.77,20.22-6.11C553.09,453.92,577.22,514.28,577.36,516.68z"/>
		<path class="st0" d="M577.36,516.68c0.14,2.38-6.66,2.94-9.48,1.35c-2.26-1.67-4.41-3.47-6.43-5.42
			c7.08-0.81-26.38-47.92-30.91-54.23c10.58-3.86,19.34-6.77,20.22-6.11C553.09,453.92,577.22,514.28,577.36,516.68z"/>
		<path class="st9" d="M439.02,440.46h59.58c0,0,7.5,18.86,3.37,26.11c-4.13,7.24-46.31,16.93-46.31,16.93l58.17-20.89l18.37,44.57
			c0,0-63.64,13.54-100.82,9c-13.93-1.68-23.11-24.68-17.75-32.5c7.42-10.83,32.66-28.98,32.66-28.98L439.02,440.46z"/>
		<path class="st0" d="M512.31,462.46c-17.82,7.75-35.77,15.12-54.16,21.52c-2.55,0.89-5.1,1.77-7.65,2.63
			c-2.55,0.85-5.29,1.94-8,2.64c-0.14,0-0.07,0.26,0,0.2c2.33-0.83,4.77-1.35,7.14-2.13s4.63-1.44,6.93-2.19l2.99-1l-0.61,0.41
			c-0.92,0.58-1.84,1.18-2.71,1.79c-1.87,1.27-3.6,2.78-5.57,3.9c-0.12,0.07,0,0.26,0.11,0.18c1.87-1.27,3.95-2.21,5.86-3.41
			c0.93-0.58,1.84-1.18,2.71-1.8c0.85-0.53,1.65-1.13,2.41-1.79c2.92-0.99,5.84-1.99,8.73-3.03c9.14-3.29,18.17-6.85,27.08-10.68
			c5-2.15,9.93-4.39,14.81-6.77C512.77,462.79,512.57,462.34,512.31,462.46z"/>
		<path class="st0" d="M446.26,454.69c-8.06,5.64-15.79,11.74-23.15,18.27c-3.38,2.67-6.4,5.75-9,9.18
			c-1.13,1.6-1.93,3.41-2.37,5.32c-0.41,2.21-0.3,4.49,0.31,6.65c1.43,5.02,3.76,9.73,6.88,13.92c0.04,0.04,0.11,0.05,0.15,0
			c0.03-0.03,0.04-0.08,0.02-0.13c-2.62-3.7-4.58-7.82-5.8-12.19c-0.8-2.35-1.08-4.84-0.83-7.31c0.33-1.94,1.08-3.79,2.19-5.42
			c2.49-3.36,5.4-6.39,8.67-9c3.51-3.13,7.07-6.2,10.74-9.14c4.06-3.29,8.29-6.54,12.52-9.68
			C446.87,454.96,446.57,454.46,446.26,454.69z"/>
		<path class="st0" d="M446.13,453.19l-0.73-1.44c-0.5-0.99-1.03-1.96-1.57-2.92c-1.08-1.98-2.33-3.86-3.48-5.8
			c-0.07-0.11-0.24,0-0.18,0.12c0.97,1.99,1.87,4.06,2.91,6c0.5,0.95,1,1.88,1.54,2.82c0.26,0.46,0.53,0.93,0.8,1.35
			c0.23,0.5,0.54,0.96,0.93,1.35c0.12,0.08,0.32,0,0.31-0.14C446.57,454.06,446.39,453.6,446.13,453.19z"/>
		<path class="st0" d="M517.21,486.5c-2.83-6.46-5.96-12.78-8.84-19.21c0-0.12-0.24-0.07-0.19,0.07c2.71,6.49,5.2,13.05,8.03,19.48
			c2.83,6.43,5.9,12.8,8.88,19.2c0.08,0.16,0.35,0.08,0.27-0.09C522.63,499.47,520.03,492.94,517.21,486.5z"/>
		<path class="st0" d="M415.39,321.62c-6.45,9.41-6.27,22.86-6.27,22.86s-5.15,14.56-1.67,21.24c1.92,3.89,5.62,6.59,9.91,7.22
			l-1.5-3.79c0,0,3.51,4.58,12.43,5c8.92,0.42,19.71-4.33,25.02-8.42c3.16-2.4,5.64-5.58,7.2-9.22l-1.12,6.13
			c5.53-1.69,9.84-6.05,11.48-11.59c3.25-9.75-13.28-19.74-14.99-22.25s-7-22.1-27.27-14.72
			C428.62,314.08,419.83,315.15,415.39,321.62z"/>
		<path class="st0" d="M414.24,372.99c-2.64-0.86-4.95-2.52-6.62-4.74c-1.76-2.14-2.75-4.81-2.8-7.58c0.18-3.3,0.94-6.54,2.26-9.57
			c1.16-3.18,2.56-6.3,3.67-9.48c0-0.18-0.2-0.27-0.3-0.12c-1.45,2.53-2.75,5.15-3.9,7.83c-1.19,2.49-2.1,5.11-2.71,7.8
			c-0.62,2.48-0.51,5.09,0.31,7.51c0.79,1.94,2.05,3.65,3.66,5c1.94,1.46,4.06,2.66,6.31,3.57
			C414.29,373.26,414.39,373.03,414.24,372.99z"/>
		<path class="st0" d="M470.93,341.62c-3.9-6.84-11.36-10.25-16.57-15.87c-2.82-3.05-5.21-6.55-8.61-9.02
			c-0.09,0-0.2,0.08-0.12,0.15c2.83,2.27,4.79,5.27,7.05,8.04c2.36,2.74,4.98,5.24,7.84,7.45c5.09,4.2,11.17,9.14,11.54,16.25
			c0.16,3.29-1.06,7.2-4.16,8.83c-0.05,0.03-0.07,0.1-0.04,0.15c0.03,0.05,0.1,0.07,0.15,0.04l0,0c2.43-1.55,4.11-4.04,4.66-6.86
			C473.2,347.61,472.58,344.36,470.93,341.62z"/>
		<path class="st0" d="M471.61,343.55c-0.31-2.81-1.47-5.46-3.33-7.6c-1.99-1.98-4.4-3.5-7.04-4.45c-2.95-1.25-6.01-2.37-8.21-4.82
			c-0.08-0.09-0.23,0-0.14,0.16c3.49,4.06,8.91,5.21,13.03,8.41c4.7,3.64,5.9,10.02,4.18,15.53c-1.12,3.37-3.02,6.42-5.54,8.92
			c0,0,0,0.11,0.07,0C468.96,355.58,472.37,349.74,471.61,343.55z"/>
		<path class="st12" d="M446.56,373.45c-1.84,10.43-10.49,48.61-21.81,57.9c-7.64,6.26-42.77,4.06-51.45,2.23
			c-3.57-0.72-0.77-25.29,2.99-26.3c4.06-1.08,30.91,1.26,33.38-0.28s16.45-23.86,25.93-35.56
			C441.2,364.43,447.59,367.59,446.56,373.45z"/>
		<path class="st12" d="M361.62,404.38c-2.98,0-21.23,6.39-24.09,9.17c-2.86,2.78-3.37,14.61-2.56,16.25
			c0.81,1.64,6.77,4.14,8.98,3.01c2.21-1.14-2.22-4.62-2.17-5.71c0.4-2.44,1.03-4.83,1.87-7.15c0.38-0.58,8.03-3.7,9.06-3.78
			S361.62,404.38,361.62,404.38z"/>
		<path class="st12" d="M385.94,435.04c-0.66,0.09-10.43-0.56-17.02,0.64c-3.87-3.43-8.12-9.78-10.37-11.35
			c-0.88-0.88-1.69-3.91-3.01-4.93c-1.98-1.53-8.77-0.45-9.61,0c-0.49,0.27-1.48,2.13-3.02,4.06c-2.06,2.5-4.82,5.42-7.3,6.63
			c-1.11,0.69-2.51,0.72-3.64,0.07c-1.86-1.27,0.42-3.68,3.11-8.88c4.16-8.03,4.64-9.94,8.58-11.67c8.27-3.64,15.19-5.92,17.95-5.17
			c2.76,0.74,20.12,2.61,20.12,2.61C391.64,418.89,387.31,434.84,385.94,435.04z"/>
		<path class="st6" d="M340.58,411.59c-0.6,0.73-1.14,1.5-1.64,2.3c-0.49,0.77-0.95,1.57-1.35,2.37c-0.92,1.67-1.75,3.37-2.53,5.1
			l0,0c0.84-1.67,1.91-3.21,2.83-4.83c0.46-0.8,0.92-1.6,1.35-2.4c0.43-0.8,1.02-1.61,1.35-2.46L340.58,411.59z"/>
		<path class="st6" d="M345.01,420.43c-2.72,3.71-6,6.97-9.74,9.65c-0.12,0.07-0.07,0.18,0,0.12c4.03-2.35,7.38-5.72,9.71-9.76
			C344.98,420.45,345.01,420.42,345.01,420.43z"/>
		<path class="st12" d="M360.12,398.73c0,0,2.84-5.13,6.19-2.91c3.34,2.22-0.3,6.77-0.3,6.77L360.12,398.73z"/>
		
			<rect x="331.21" y="414.12" transform="matrix(0.5531 -0.8331 0.8331 0.5531 -190.7239 479.7502)" class="st7" width="41.2" height="7.07"/>
		
			<rect x="362.07" y="396.86" transform="matrix(0.5531 -0.8331 0.8331 0.5531 -171.894 481.5253)" class="st6" width="1.64" height="8.26"/>
		
			<rect x="361.06" y="398.35" transform="matrix(0.5531 -0.8331 0.8331 0.5531 -173.5891 481.3589)" class="st6" width="1.64" height="8.26"/>
		<path class="st5" d="M343.35,436.78l-5.04,2.71l-1.65,0.92l0.19-1.9l0.6-5.7l1.16-0.46v1.34l1.16-0.45c0,0,0,1.22,0,1.23
			l1.15-0.46c0,0,0,1.23,0,1.25l1.15-0.46c0,0,0,1.22,0,1.25l1.15-0.47C343.23,435.57,343.34,436.75,343.35,436.78z"/>
		<polygon class="st6" points="338.32,439.54 336.67,440.46 336.86,438.57 		"/>
		<path class="st12" d="M368.95,435.64c-2.25,0.42-4.25,0.81-5.59,1.11c-4.04,1.05-8.33,0.52-12-1.49
			c-3.3-1.65-14.19,0.72-11.25-4.63c2.94-5.35,14.2-2.5,15.5-3.48c1.3-0.97,2.86-2.55,2.6-3.33c1.95,1.22,8.35,0.37,10.74,3.33
			C370.3,428.83,367.59,434.41,368.95,435.64z"/>
		<path class="st7" d="M446.67,377.85c-2.23,12.06-11.83,49.41-22.06,55.27c-1.65,0.9-3.41,1.58-5.24,2.03
			c-1.15,0.31-2.38,0.58-3.66,0.83l-1.06,0.19c-12.54,2.09-29.33,1.1-29.33,1.1l-5.17-33.02c0,0,25.88,3.2,27.78,1.88
			c1.91-1.31,14.3-16.9,24.03-31.21c3.06-4.48,5.88-7.05,8.22-8.12C445.31,364.53,448.21,369.56,446.67,377.85z"/>
		<path class="st5" d="M433.37,376.82c0,0.35-0.28,0.64-0.64,0.64s-0.64-0.28-0.64-0.64c0-0.35,0.28-0.64,0.64-0.64
			S433.37,376.47,433.37,376.82L433.37,376.82z M444.39,376.19c-0.35,0-0.64,0.28-0.64,0.64c0,0.35,0.28,0.64,0.64,0.64
			s0.64-0.28,0.64-0.64c0.03-0.35-0.23-0.66-0.58-0.69c-0.02,0-0.04,0-0.06,0V376.19z M438.56,368.06c-0.35,0-0.64,0.28-0.64,0.64
			c0,0.35,0.28,0.64,0.64,0.64c0.35,0,0.64-0.28,0.64-0.64c0.05-0.35-0.19-0.67-0.53-0.72c-0.03-0.01-0.07-0.01-0.1-0.01V368.06z
			 M421.08,393.07c-0.35,0-0.64,0.28-0.64,0.64c0,0.35,0.28,0.64,0.64,0.64c0.35,0,0.64-0.28,0.64-0.64
			C421.71,393.35,421.43,393.07,421.08,393.07L421.08,393.07z M432.73,393.07c-0.35,0-0.64,0.28-0.64,0.64
			c0,0.35,0.28,0.64,0.64,0.64s0.64-0.28,0.64-0.64C433.37,393.35,433.09,393.07,432.73,393.07L432.73,393.07z M426.9,384.95
			c-0.35,0-0.64,0.28-0.64,0.64c0,0.35,0.28,0.64,0.64,0.64c0.35,0,0.64-0.28,0.64-0.64C427.54,385.23,427.25,384.95,426.9,384.95
			L426.9,384.95z M438.56,384.95c-0.35,0-0.64,0.28-0.64,0.64c0,0.35,0.28,0.64,0.64,0.64c0.35,0,0.64-0.28,0.64-0.64
			C439.19,385.23,438.91,384.95,438.56,384.95L438.56,384.95z M386.1,410.06c-0.35,0-0.64,0.28-0.64,0.64
			c0,0.35,0.28,0.64,0.64,0.64c0.35,0,0.64-0.28,0.64-0.64c0.01-0.35-0.26-0.65-0.61-0.66c-0.01,0-0.02,0-0.03,0L386.1,410.06z
			 M397.76,410.06c-0.35,0-0.64,0.28-0.64,0.64c0,0.35,0.28,0.64,0.64,0.64c0.35,0,0.64-0.28,0.64-0.64
			c0.01-0.35-0.26-0.65-0.61-0.66c-0.01,0-0.02,0-0.03,0L397.76,410.06z M409.42,410.06c-0.35,0-0.64,0.28-0.64,0.64
			c0,0.35,0.28,0.64,0.64,0.64c0.35,0,0.64-0.28,0.64-0.64c0.01-0.35-0.26-0.65-0.61-0.66c-0.01,0-0.02,0-0.03,0L409.42,410.06z
			 M421.08,410.06c-0.35,0-0.64,0.28-0.64,0.64c0,0.35,0.28,0.64,0.64,0.64c0.35,0,0.64-0.28,0.64-0.64
			c0.01-0.35-0.26-0.65-0.61-0.66c-0.01,0-0.02,0-0.03,0L421.08,410.06z M432.73,410.06c-0.35,0-0.64,0.28-0.64,0.64
			c0,0.35,0.28,0.64,0.64,0.64c0.35,0,0.64-0.28,0.64-0.64c0.01-0.35-0.26-0.65-0.61-0.66c-0.01,0-0.02,0-0.03,0L432.73,410.06z
			 M415.24,401.94c-0.35,0-0.64,0.28-0.64,0.64c0,0.35,0.28,0.64,0.64,0.64s0.64-0.28,0.64-0.64c0.04-0.35-0.22-0.66-0.57-0.7
			c-0.02,0-0.05,0-0.07,0L415.24,401.94z M426.9,401.94c-0.35,0-0.64,0.28-0.64,0.64c0,0.35,0.28,0.64,0.64,0.64
			c0.35,0,0.64-0.28,0.64-0.64c0.04-0.35-0.22-0.66-0.57-0.7c-0.02,0-0.05,0-0.07,0L426.9,401.94z M438.56,401.94
			c-0.35,0-0.64,0.28-0.64,0.64c0,0.35,0.28,0.64,0.64,0.64c0.35,0,0.64-0.28,0.64-0.64c0.04-0.35-0.22-0.66-0.57-0.7
			c-0.02,0-0.05,0-0.07,0L438.56,401.94z M386.1,427.06c-0.35,0-0.64,0.28-0.64,0.64c0,0.35,0.28,0.64,0.64,0.64
			c0.35,0,0.64-0.28,0.64-0.64c0.04-0.35-0.22-0.66-0.57-0.7c-0.02,0-0.05,0-0.07,0L386.1,427.06z M397.76,427.06
			c-0.35,0-0.64,0.28-0.64,0.64c0,0.35,0.28,0.64,0.64,0.64c0.35,0,0.64-0.28,0.64-0.64c0.04-0.35-0.22-0.66-0.57-0.7
			c-0.02,0-0.05,0-0.07,0L397.76,427.06z M409.42,427.06c-0.35,0-0.64,0.28-0.64,0.64c0,0.35,0.28,0.64,0.64,0.64
			s0.64-0.28,0.64-0.64c0.04-0.35-0.22-0.66-0.57-0.7c-0.02,0-0.05,0-0.07,0L409.42,427.06z M421.08,427.06
			c-0.35,0-0.64,0.28-0.64,0.64c0,0.35,0.28,0.64,0.64,0.64c0.35,0,0.64-0.28,0.64-0.64c0.04-0.35-0.22-0.66-0.57-0.7
			c-0.02,0-0.05,0-0.07,0L421.08,427.06z M391.96,418.8c-0.35,0-0.64,0.28-0.64,0.64c0,0.35,0.28,0.64,0.64,0.64
			c0.35,0,0.64-0.28,0.64-0.64C392.6,419.08,392.32,418.8,391.96,418.8z M403.61,418.8c-0.35,0-0.64,0.28-0.64,0.64
			c0,0.35,0.28,0.64,0.64,0.64c0.35,0,0.64-0.28,0.64-0.64C404.25,419.08,403.96,418.8,403.61,418.8c-0.01,0-0.02,0-0.03,0H403.61z
			 M415.27,418.8c-0.35,0-0.64,0.28-0.64,0.64c0,0.35,0.28,0.64,0.64,0.64s0.64-0.28,0.64-0.64
			C415.9,419.08,415.62,418.8,415.27,418.8c-0.01,0-0.02,0-0.03,0H415.27z M426.93,418.8c-0.35,0-0.64,0.28-0.64,0.64
			c0,0.35,0.28,0.64,0.64,0.64c0.35,0,0.64-0.28,0.64-0.64C427.56,419.08,427.28,418.8,426.93,418.8c-0.01,0-0.02,0-0.03,0H426.93z
			 M391.96,435.78c-0.35,0-0.64,0.28-0.64,0.64c0,0.35,0.28,0.64,0.64,0.64c0.35,0,0.64-0.28,0.64-0.64
			C392.6,436.06,392.32,435.78,391.96,435.78z M403.61,435.78c-0.35,0-0.64,0.28-0.64,0.64c0,0.35,0.28,0.64,0.64,0.64
			c0.35,0,0.64-0.28,0.64-0.64C404.25,436.06,403.96,435.78,403.61,435.78c-0.01,0-0.02,0-0.03,0H403.61z M415.27,435.78
			c-0.26,0-0.49,0.15-0.58,0.39l1.06-0.19c-0.13-0.14-0.31-0.22-0.5-0.2H415.27z"/>
		<path class="st0" d="M446.67,377.85c-2.23,12.06-11.83,49.41-22.06,55.27c-1.65,0.9-3.41,1.58-5.24,2.03l20.83-68.34
			C445.31,364.53,448.21,369.56,446.67,377.85z"/>
		<path class="st7" d="M500.29,441.82c-0.34,0-15.53,1.22-32.24,2.23h-0.64l-10.07,0.58c-0.2,0.01-0.41,0.01-0.61,0l-1.23,0.07
			c-14.58,0.8-27.2,1.35-27.72,0.99c-0.95-0.73,2.14-34.42,4.44-51.72c0-0.24,0-0.47,0.09-0.7c0.41-2.97,0.77-5.42,1.08-7.01
			c1.61-8.29,4.62-15.83,8.12-19.19c3.13-2.94,9.84-8.42,18.86-4.13c0.26,0.12,0.52,0.25,0.77,0.39l0.85,0.5
			C489.64,381.13,501.11,440.46,500.29,441.82z"/>
		<path class="st5" d="M445.12,376.82c0,0.35-0.28,0.64-0.64,0.64c-0.35,0-0.64-0.28-0.64-0.64c0-0.35,0.28-0.64,0.64-0.64
			C444.84,376.19,445.12,376.47,445.12,376.82L445.12,376.82z M456.13,376.19c-0.35,0-0.64,0.28-0.64,0.64
			c0,0.35,0.28,0.64,0.64,0.64s0.64-0.28,0.64-0.64c0.03-0.35-0.23-0.66-0.58-0.69c-0.02,0-0.04,0-0.06,0V376.19z M467.79,376.19
			c-0.35,0-0.64,0.28-0.64,0.64c0,0.35,0.28,0.64,0.64,0.64c0.35,0,0.64-0.28,0.64-0.64c0.03-0.35-0.23-0.66-0.58-0.69
			c-0.02,0-0.04,0-0.06,0V376.19z M450.31,368.06c-0.35,0-0.64,0.28-0.64,0.64c0,0.35,0.28,0.64,0.64,0.64
			c0.35,0,0.64-0.28,0.64-0.64c0.05-0.35-0.19-0.67-0.53-0.72c-0.03-0.01-0.07-0.01-0.1-0.01V368.06z M461.97,368.06
			c-0.35,0-0.64,0.28-0.64,0.64c0,0.35,0.28,0.64,0.64,0.64s0.64-0.28,0.64-0.64c0.05-0.35-0.19-0.67-0.53-0.72
			c-0.03-0.01-0.07-0.01-0.1-0.01L461.97,368.06z M432.83,393.07c-0.18-0.01-0.35,0.07-0.47,0.2c0,0.23-0.07,0.46-0.09,0.7
			c0.1,0.22,0.32,0.37,0.57,0.37c0.35-0.01,0.63-0.3,0.62-0.65c0,0,0,0,0,0c0.01-0.34-0.26-0.62-0.6-0.62
			C432.85,393.07,432.84,393.07,432.83,393.07z M444.49,393.07c-0.35,0-0.64,0.28-0.64,0.64c0,0.35,0.28,0.64,0.64,0.64
			c0.35,0,0.64-0.28,0.64-0.64C445.12,393.35,444.84,393.07,444.49,393.07L444.49,393.07z M456.13,393.07
			c-0.35,0-0.64,0.28-0.64,0.64c0,0.35,0.28,0.64,0.64,0.64c0.35,0,0.64-0.28,0.64-0.64C456.77,393.35,456.48,393.07,456.13,393.07
			L456.13,393.07z M467.79,393.07c-0.35,0-0.64,0.28-0.64,0.64c0,0.35,0.28,0.64,0.64,0.64c0.35,0,0.64-0.28,0.64-0.64
			C468.43,393.35,468.14,393.07,467.79,393.07L467.79,393.07z M479.45,393.07c-0.35,0-0.64,0.28-0.64,0.64
			c0,0.35,0.28,0.64,0.64,0.64c0.35,0,0.64-0.28,0.64-0.64C480.09,393.35,479.8,393.07,479.45,393.07L479.45,393.07z M438.65,384.95
			c-0.35,0-0.64,0.28-0.64,0.64c0,0.35,0.28,0.64,0.64,0.64c0.35,0,0.64-0.28,0.64-0.64C439.29,385.23,439,384.95,438.65,384.95
			L438.65,384.95z M450.31,384.95c-0.35,0-0.64,0.28-0.64,0.64c0,0.35,0.28,0.64,0.64,0.64c0.35,0,0.64-0.28,0.64-0.64
			C450.95,385.23,450.66,384.95,450.31,384.95L450.31,384.95z M461.97,384.95c-0.35,0-0.64,0.28-0.64,0.64
			c0,0.35,0.28,0.64,0.64,0.64c0.35,0,0.64-0.28,0.64-0.64C462.6,385.23,462.32,384.95,461.97,384.95L461.97,384.95z M473.63,384.95
			c-0.35,0-0.64,0.28-0.64,0.64c0,0.35,0.28,0.64,0.64,0.64s0.64-0.28,0.64-0.64C474.26,385.23,473.98,384.95,473.63,384.95
			L473.63,384.95z M432.83,410.06c-0.35,0-0.64,0.28-0.64,0.64c0,0.35,0.28,0.64,0.64,0.64c0.35,0,0.64-0.28,0.64-0.64
			c0.01-0.35-0.26-0.65-0.61-0.66c-0.01,0-0.02,0-0.03,0L432.83,410.06z M444.49,410.06c-0.35,0-0.64,0.28-0.64,0.64
			c0,0.35,0.28,0.64,0.64,0.64c0.35,0,0.64-0.28,0.64-0.64c0.01-0.35-0.26-0.65-0.61-0.66c-0.01,0-0.02,0-0.03,0L444.49,410.06z
			 M456.13,410.06c-0.35,0-0.64,0.28-0.64,0.64c0,0.35,0.28,0.64,0.64,0.64c0.35,0,0.64-0.28,0.64-0.64
			c0.01-0.35-0.26-0.65-0.61-0.66c-0.01,0-0.02,0-0.03,0L456.13,410.06z M467.79,410.06c-0.35,0-0.64,0.28-0.64,0.64
			c0,0.35,0.28,0.64,0.64,0.64c0.35,0,0.64-0.28,0.64-0.64c0.01-0.35-0.26-0.65-0.61-0.66c-0.01,0-0.02,0-0.03,0L467.79,410.06z
			 M479.45,410.06c-0.35,0-0.64,0.28-0.64,0.64c0,0.35,0.28,0.64,0.64,0.64c0.35,0,0.64-0.28,0.64-0.64
			c0.01-0.35-0.26-0.65-0.61-0.66c-0.01,0-0.02,0-0.03,0L479.45,410.06z M491.11,410.06c-0.35,0-0.64,0.28-0.64,0.64
			c0,0.35,0.28,0.64,0.64,0.64c0.35,0,0.64-0.28,0.64-0.64c0.01-0.35-0.26-0.65-0.61-0.66c-0.01,0-0.02,0-0.03,0L491.11,410.06z
			 M438.65,401.94c-0.35,0-0.64,0.28-0.64,0.64c0,0.35,0.28,0.64,0.64,0.64s0.64-0.28,0.64-0.64c0.04-0.35-0.22-0.66-0.57-0.7
			c-0.02,0-0.05,0-0.07,0L438.65,401.94z M450.31,401.94c-0.35,0-0.64,0.28-0.64,0.64c0,0.35,0.28,0.64,0.64,0.64
			c0.35,0,0.64-0.28,0.64-0.64c0.04-0.35-0.22-0.66-0.57-0.7c-0.02,0-0.05,0-0.07,0L450.31,401.94z M461.97,401.94
			c-0.35,0-0.64,0.28-0.64,0.64c0,0.35,0.28,0.64,0.64,0.64c0.35,0,0.64-0.28,0.64-0.64c0.04-0.35-0.22-0.66-0.57-0.7
			c-0.02,0-0.05,0-0.07,0L461.97,401.94z M473.63,401.94c-0.35,0-0.64,0.28-0.64,0.64c0,0.35,0.28,0.64,0.64,0.64
			c0.35,0,0.64-0.28,0.64-0.64c0.04-0.35-0.22-0.66-0.57-0.7c-0.02,0-0.05,0-0.07,0L473.63,401.94z M485.28,401.94
			c-0.35,0-0.64,0.28-0.64,0.64c0,0.35,0.28,0.64,0.64,0.64c0.35,0,0.64-0.28,0.64-0.64c0.04-0.35-0.22-0.66-0.57-0.7
			c-0.02,0-0.05,0-0.07,0L485.28,401.94z M432.83,427.06c-0.35,0-0.64,0.28-0.64,0.64c0,0.35,0.28,0.64,0.64,0.64
			c0.35,0,0.64-0.28,0.64-0.64c0.04-0.35-0.22-0.66-0.57-0.7c-0.02,0-0.05,0-0.07,0L432.83,427.06z M444.49,427.06
			c-0.35,0-0.64,0.28-0.64,0.64c0,0.35,0.28,0.64,0.64,0.64c0.35,0,0.64-0.28,0.64-0.64c0.04-0.35-0.22-0.66-0.57-0.7
			c-0.02,0-0.05,0-0.07,0L444.49,427.06z M456.13,427.06c-0.35,0-0.64,0.28-0.64,0.64c0,0.35,0.28,0.64,0.64,0.64
			c0.35,0,0.64-0.28,0.64-0.64c0.04-0.35-0.22-0.66-0.57-0.7c-0.02,0-0.05,0-0.07,0L456.13,427.06z M467.79,427.06
			c-0.35,0-0.64,0.28-0.64,0.64c0,0.35,0.28,0.64,0.64,0.64c0.35,0,0.64-0.28,0.64-0.64c0.04-0.35-0.22-0.66-0.57-0.7
			c-0.02,0-0.05,0-0.07,0L467.79,427.06z M479.45,427.06c-0.35,0-0.64,0.28-0.64,0.64c0,0.35,0.28,0.64,0.64,0.64
			c0.35,0,0.64-0.28,0.64-0.64c0.04-0.35-0.22-0.66-0.57-0.7c-0.02,0-0.05,0-0.07,0L479.45,427.06z M491.11,427.06
			c-0.35,0-0.64,0.28-0.64,0.64c0,0.35,0.28,0.64,0.64,0.64c0.35,0,0.64-0.28,0.64-0.64c0.04-0.35-0.22-0.66-0.57-0.7
			c-0.02,0-0.05,0-0.07,0L491.11,427.06z M438.65,418.93c-0.35,0-0.64,0.28-0.64,0.64c0,0.35,0.28,0.64,0.64,0.64
			s0.64-0.28,0.64-0.64c0.07-0.34-0.14-0.68-0.49-0.76c-0.05-0.01-0.1-0.02-0.15-0.01L438.65,418.93z M450.31,418.93
			c-0.35,0-0.64,0.28-0.64,0.64c0,0.35,0.28,0.64,0.64,0.64c0.35,0,0.64-0.28,0.64-0.64c0.07-0.34-0.14-0.68-0.49-0.76
			c-0.05-0.01-0.1-0.02-0.15-0.01L450.31,418.93z M461.97,418.93c-0.35,0-0.64,0.28-0.64,0.64c0,0.35,0.28,0.64,0.64,0.64
			c0.35,0,0.64-0.28,0.64-0.64c0.07-0.34-0.14-0.68-0.49-0.76c-0.05-0.01-0.1-0.02-0.15-0.01L461.97,418.93z M473.63,418.93
			c-0.35,0-0.64,0.28-0.64,0.64c0,0.35,0.28,0.64,0.64,0.64c0.35,0,0.64-0.28,0.64-0.64c0.07-0.34-0.14-0.68-0.49-0.76
			c-0.05-0.01-0.1-0.02-0.15-0.01L473.63,418.93z M485.28,418.93c-0.35,0-0.64,0.28-0.64,0.64c0,0.35,0.28,0.64,0.64,0.64
			c0.35,0,0.64-0.28,0.64-0.64c0.07-0.34-0.14-0.68-0.49-0.76c-0.05-0.01-0.1-0.02-0.15-0.01L485.28,418.93z M432.83,444.05
			c-0.35,0-0.64,0.28-0.64,0.64c0,0.35,0.28,0.64,0.64,0.64s0.64-0.28,0.64-0.64c0.06-0.35-0.17-0.68-0.52-0.74
			c-0.04-0.01-0.08-0.01-0.12-0.01L432.83,444.05z M444.49,444.05c-0.35,0-0.64,0.28-0.64,0.64c0,0.35,0.28,0.64,0.64,0.64
			c0.35,0,0.64-0.28,0.64-0.64c0.06-0.35-0.17-0.68-0.52-0.74c-0.04-0.01-0.08-0.01-0.12-0.01L444.49,444.05z M456.13,444.05
			c-0.34-0.01-0.62,0.26-0.62,0.6c0,0.01,0,0.02,0,0.03c-0.01,0.06-0.01,0.12,0,0.18l1.23-0.07c0.01-0.04,0.01-0.07,0-0.11
			c0.05-0.35-0.19-0.67-0.53-0.72c-0.02,0-0.05-0.01-0.07-0.01L456.13,444.05z M467.8,444.05c-0.13,0-0.25,0.04-0.35,0.11h0.64
			c-0.08-0.1-0.18-0.17-0.3-0.22L467.8,444.05z M438.65,435.93c-0.35,0-0.64,0.28-0.64,0.64c0,0.35,0.28,0.64,0.64,0.64
			c0.35,0,0.64-0.28,0.64-0.64c0.08-0.34-0.13-0.69-0.47-0.77c-0.05-0.01-0.11-0.02-0.17-0.02L438.65,435.93z M450.31,435.93
			c-0.35,0-0.64,0.28-0.64,0.64c0,0.35,0.28,0.64,0.64,0.64c0.35,0,0.64-0.28,0.64-0.64c0.08-0.34-0.13-0.69-0.47-0.77
			c-0.05-0.01-0.11-0.02-0.17-0.02L450.31,435.93z M461.97,435.93c-0.35,0-0.64,0.28-0.64,0.64c0,0.35,0.28,0.64,0.64,0.64
			c0.35,0,0.64-0.28,0.64-0.64c0.08-0.34-0.13-0.69-0.47-0.77c-0.05-0.01-0.11-0.02-0.17-0.02L461.97,435.93z M473.63,435.93
			c-0.35,0-0.64,0.28-0.64,0.64c0,0.35,0.28,0.64,0.64,0.64c0.35,0,0.64-0.28,0.64-0.64c0.08-0.34-0.13-0.69-0.47-0.77
			c-0.05-0.01-0.11-0.02-0.17-0.02L473.63,435.93z M485.28,435.93c-0.35,0-0.64,0.28-0.64,0.64c0,0.35,0.28,0.64,0.64,0.64
			c0.35,0,0.64-0.28,0.64-0.64c0.08-0.34-0.13-0.69-0.47-0.77c-0.05-0.01-0.11-0.02-0.17-0.02L485.28,435.93z M496.94,435.93
			c-0.35,0-0.64,0.28-0.64,0.64c0,0.35,0.28,0.64,0.64,0.64c0.35,0,0.64-0.28,0.64-0.64c0.08-0.34-0.13-0.69-0.47-0.77
			c-0.05-0.01-0.11-0.02-0.17-0.02L496.94,435.93z"/>
		<path class="st0" d="M500.41,441.82c0,0.09-22.95,1.62-43.03,2.71l3.87-81.24l0.85,0.5C489.64,381.13,501.18,440.53,500.41,441.82
			z"/>
		<path class="st5" d="M445.46,363.28c-5.8,3.98-14.2,18.69-11.24,20.43c2.97,1.75,7.35-4.55,7.35-4.55s0.61,9.19,5.42,8.3
			c6.47-1.22,8.96-17.33,8.79-21.6C455.6,361.6,452.9,358.19,445.46,363.28z"/>
		<path class="st12" d="M452.9,366.48c-0.11,1.35-5.09,10.98-11.21,11.64c-1.99,0.22-3.64-10.6-3.64-10.6l-0.3-0.77l-4.25-10.83
			l11.82-10.48l1.72-1.42c0,0,0.96,3.03,2.14,6.77l0.16,0.53l0.2,0.62c0.18,0.56,0.37,1.14,0.53,1.71c0.16,0.57,0.27,0.87,0.39,1.35
			c0.12,0.49,0.24,0.91,0.38,1.35C451.75,359.67,452.44,363.06,452.9,366.48z"/>
		<path class="st0" d="M449.16,350.88c-1.29,6.71-5.47,12.51-11.43,15.87l-4.25-10.83l11.82-10.48l1.72-1.42
			C447.02,344.01,447.98,347.03,449.16,350.88z"/>
		<path class="st12" d="M413.7,341.79c1.35,21.6,14.49,23.19,19.15,22.88c4.22-0.27,18.59-1.75,19.43-23.38s-9.63-27.8-19.34-27.68
			C423.23,313.74,412.28,320.2,413.7,341.79z"/>
		<path class="st0" d="M416.92,340.86c0.46-0.14,0.91-0.31,1.35-0.5c0.53-0.1,1.01-0.38,1.35-0.79c0.17-0.3,0.12-0.68-0.12-0.93
			c-0.56-0.4-1.29-0.47-1.92-0.19c-0.67,0.19-1.24,0.63-1.61,1.22c-0.23,0.38-0.11,0.88,0.28,1.12
			C416.45,340.9,416.7,340.93,416.92,340.86z"/>
		<path class="st0" d="M431.58,339.59c-0.5-0.01-1-0.05-1.49-0.11c-0.53,0.03-1.05-0.11-1.49-0.41c-0.25-0.24-0.31-0.63-0.14-0.93
			c0.44-0.54,1.13-0.8,1.81-0.69c0.69,0.01,1.36,0.28,1.87,0.74c0.31,0.33,0.3,0.85-0.03,1.17
			C431.98,339.5,431.79,339.58,431.58,339.59z"/>
		<path class="st0" d="M429.96,342.59c2.33-0.45,3.05,4.27,0.88,4.67C428.67,347.67,428,342.97,429.96,342.59z"/>
		<path class="st0" d="M430.92,342.7c0.45,0.2,0.92,0.61,1.42,0.58c0.5-0.03,0.93-0.58,1.25-1.11h0.08c0.29,0.87-0.15,1.81-1,2.15
			c-0.87,0.26-1.61-0.45-1.98-1.35C430.62,342.89,430.73,342.62,430.92,342.7z"/>
		<path class="st0" d="M419.37,343.67c-2.37,0.19-1.81,4.92,0.38,4.74C421.94,348.24,421.35,343.51,419.37,343.67z"/>
		<path class="st0" d="M418.42,344.09c-0.35,0.3-0.66,0.8-1.11,0.88c-0.45,0.08-0.95-0.37-1.35-0.83c0,0-0.07,0-0.07,0.07
			c0.08,0.91,0.5,1.81,1.35,1.88c0.85,0.07,1.35-0.79,1.35-1.71C418.72,344.22,418.56,343.97,418.42,344.09z"/>
		<path class="st0" d="M431.11,355.55c-0.28,0.41-0.53,0.95-1.04,1.1c-0.54,0.11-1.1,0.11-1.64,0 M428.43,356.73
			c0.54,0.5,1.3,0.66,1.99,0.42c0.57-0.27,0.92-0.87,0.88-1.5c-0.07-0.14-0.15-0.15-0.19-0.09L428.43,356.73z"/>
		<path class="st0" d="M424.27,351.09c0,0,0,2.22,0.15,3.25c0,0.09,0.27,0.11,0.62,0.08l0,0c1.84,0.08,3.57-0.89,4.48-2.49
			c0.07-0.11-0.08-0.19-0.16-0.12c-1.19,1.08-2.69,1.75-4.29,1.91c-0.11-0.28,0.12-3.85,0-3.8c-0.66,0.22-1.83,0.69-2.26,0.85
			c0-1.44,0.07-5.54,0-8.12c0-0.16-0.26-0.19-0.27,0c-0.43,3.06-0.65,6.14-0.66,9.22C421.88,352.07,423.88,351.35,424.27,351.09z"/>
		<path class="st0" d="M425.02,353.65c0.65,0.81,1.49,1.43,2.45,1.81c0.54,0.17,1.11,0.17,1.65,0c1.19-0.34,1.19-1.44,0.96-2.37
			c-0.14-0.47-0.34-0.93-0.58-1.35C428.25,352.84,426.68,353.51,425.02,353.65z"/>
		<path class="st13" d="M427.47,355.47c0.54,0.17,1.11,0.17,1.65,0c1.19-0.34,1.19-1.44,0.96-2.37
			C428.76,353.18,427.67,354.16,427.47,355.47z"/>
		<path class="st0" d="M452.15,343.36c-3.03-0.76-5.45-3.06-6.35-6.05c-4.04-0.83-7.78-2.73-10.83-5.5c0.23,0.41,1.91,3.33,2.8,4.79
			c-13.89,0.3-20.18-9.06-20.18-9.06c-2.07,2.88-3.45,6.2-4.06,9.69c0,0-1.83-8.12,1.25-14.56c1.97-4.47,6.2-7.54,11.06-8.02
			c6.39-3.04,13.92-2.34,19.65,1.81C456.21,324.12,452.15,343.36,452.15,343.36z"/>
		<path class="st0" d="M427.17,336.53c2.4,0.72,4.89,1.08,7.39,1.07l0,0c-3.98-0.24-7.81-1.58-11.06-3.87
			c-1.38-0.98-2.64-2.13-3.74-3.43c-1.25-1.37-2.21-2.98-2.84-4.73c0-0.14-0.24-0.07-0.2,0c0.44,1.79,1.17,3.5,2.17,5.05
			c1.06,1.49,2.38,2.78,3.9,3.8c1.36,0.89,2.84,1.59,4.39,2.07"/>
		<path class="st12" d="M448.96,343.17c0,0,3.66-7.38,6.93-6.17c3.28,1.21,1.25,11.41-2.11,13.28c-1.7,1.1-3.97,0.6-5.07-1.1
			c-0.03-0.04-0.05-0.08-0.07-0.12L448.96,343.17z"/>
		<path class="st0" d="M455.24,339.91c0,0,0,0,0,0.09c-2.34,1.35-3.3,3.9-3.86,6.43c0.42-1.04,1.6-1.55,2.64-1.13
			c0.09,0.04,0.19,0.08,0.27,0.13c0.07,0,0,0.15,0,0.15c-0.94-0.15-1.88,0.31-2.33,1.15c-0.37,0.68-0.66,1.4-0.87,2.15
			c-0.08,0.24-0.51,0.19-0.46-0.08v-0.07C450.07,345.57,451.87,340.75,455.24,339.91z"/>
		<polygon class="st7" points="444.08,336.57 449.57,331.94 450.68,333.49 444.72,337.43 		"/>
		<polygon class="st7" points="445.03,338.15 451.24,334.56 452.07,336.28 445.5,339.11 		"/>
		<path class="st12" d="M470.12,369.93c14.75,16.25,38.75,53.08,27.81,62.29c-13.54,11.37-62.68,6.77-71.85,6.95
			c-3.98,0.07-5.86-24.59-2.71-27.5c3.15-2.91,44.68-2.06,46.65-4.58c0.8-1.04-7.22-17.06-11.86-31.82
			C453.22,359.58,465.75,365.08,470.12,369.93z"/>
		<path class="st12" d="M430.58,410.13c0,0-8.12,0.16-9.94,0.34s-20.05-3.7-25.83-0.12c-4.06,2.55-13.36,13.95-12.44,21.66
			c0.56,4.64,5.69,4.96,5.69,4.96c0.67,2.92,3.57,4.74,6.49,4.08c0.52-0.12,1.02-0.32,1.49-0.58c0.52,1.72,1.94,3.03,3.7,3.41
			c1.87,0.61,3.92,0.09,5.25-1.35c1.5,1.61,3.53,2.62,5.71,2.86c5.27,0.43,12.39-2.5,13.23-4.62c1.35-3.47-4.64-3.6-8.77-3.24
			c0,0,1.49-0.11,1.79-2.19c0,0,2.34,5.5,15.03,3.13L430.58,410.13z"/>
		<path class="st0" d="M411.33,419.58c-2.92,3.26-5.18,7.04-6.66,11.16c-1.54,3.86-2.34,8.12,0,11.86c0.09,0.16,0.35,0,0.26-0.12
			c-2.1-4.24-0.76-8.64,1.04-12.73c1.37-3.56,3.26-6.9,5.61-9.91C411.77,419.68,411.49,419.42,411.33,419.58z"/>
		<path class="st0" d="M403.3,417.94c-4.9,5.33-10.95,15.1-7.41,22.52c0.02,0.04,0.07,0.06,0.11,0.04c0.02-0.01,0.03-0.02,0.04-0.04
			c-1.92-8.12,3.03-15.87,7.47-22.29C403.61,418,403.41,417.82,403.3,417.94z"/>
		<path class="st0" d="M395.92,415.89c-2.84,2.67-5.14,5.86-6.77,9.4c-1.96,3.56-2.44,7.74-1.35,11.64c0,0.04,0.04,0.08,0.08,0.08
			c0.04,0,0.08-0.04,0.08-0.08c0,0,0,0,0,0c-0.79-8.06,2.95-14.89,8.12-20.81C396.26,415.95,396.03,415.78,395.92,415.89z"/>
		<path class="st0" d="M418.19,436.81c-0.2-0.15-0.39-0.31-0.57-0.49c-0.31-0.3-0.57-0.65-0.76-1.04c0.01-0.04,0.01-0.08,0-0.12
			c0.04-1.12-0.39-2.2-1.21-2.97c0,0-0.09,0,0,0c0.51,0.87,0.74,1.87,0.66,2.87c-0.11,0.65-0.34,1.27-0.68,1.83
			c-1.88,0.23-3.7,0.76-5.42,1.56c-0.09,0.07-0.11,0.19-0.04,0.28c0.04,0.06,0.11,0.09,0.18,0.08c1.35-0.27,3.91-0.93,5.28-1.04
			c3.83-0.31,6.35-0.45,8.26,1.5c0,0,0.09,0,0.07,0C422.54,437.58,420.4,436.67,418.19,436.81z M416.84,435.69
			c0.08,0.28,0.21,0.55,0.38,0.79c0.07,0.11,0.15,0.22,0.24,0.32c-0.32,0-0.64,0-0.96,0c0.15-0.35,0.26-0.73,0.31-1.11
			L416.84,435.69z"/>
		<path class="st7" d="M503.31,427.3L503.31,427.3c0,0.23,0,0.42,0,0.62c0.11,2.19-0.79,4.3-2.45,5.73c-1.2,0.87-2.51,1.58-3.9,2.11
			l0,0l-0.35,0.12c-16.63,6.46-58.87,5.57-58.87,5.57l-7.1-34.49c0,0,37.43-0.08,37.82-1.11s-4.92-8.49-10.26-27.08
			c-5.35-18.59,2.29-18.67,10.71-10.4C478,377.36,503,411.66,503.31,427.3z"/>
		<path class="st5" d="M468.43,376.82c0,0.35-0.28,0.64-0.64,0.64c-0.35,0-0.64-0.28-0.64-0.64c0-0.35,0.28-0.64,0.64-0.64
			C468.14,376.19,468.43,376.47,468.43,376.82L468.43,376.82z M461.97,368.02c-0.35,0-0.64,0.28-0.64,0.64
			c0,0.35,0.28,0.64,0.64,0.64c0.35,0,0.64-0.28,0.64-0.64c0.03-0.35-0.23-0.66-0.58-0.69c-0.02,0-0.04,0-0.06,0V368.02z
			 M467.79,393.07c-0.35,0-0.64,0.28-0.64,0.64c0,0.35,0.28,0.64,0.64,0.64c0.35,0,0.64-0.28,0.64-0.64
			C468.43,393.35,468.14,393.07,467.79,393.07L467.79,393.07z M479.45,393.07c-0.35,0-0.64,0.28-0.64,0.64
			c0,0.35,0.28,0.64,0.64,0.64c0.35,0,0.64-0.28,0.64-0.64C480.09,393.35,479.8,393.07,479.45,393.07L479.45,393.07z M461.97,384.95
			c-0.35,0-0.64,0.28-0.64,0.64c0,0.35,0.28,0.64,0.64,0.64s0.64-0.28,0.64-0.64C462.6,385.23,462.32,384.95,461.97,384.95
			L461.97,384.95z M473.63,384.95c-0.35,0-0.64,0.28-0.64,0.64c0,0.35,0.28,0.64,0.64,0.64c0.35,0,0.64-0.28,0.64-0.64
			C474.26,385.23,473.98,384.95,473.63,384.95L473.63,384.95z M432.83,410.06c-0.35,0-0.64,0.28-0.64,0.64
			c0,0.35,0.28,0.64,0.64,0.64c0.35,0,0.64-0.28,0.64-0.64c0.01-0.35-0.26-0.65-0.61-0.66c-0.01,0-0.02,0-0.03,0L432.83,410.06z
			 M444.49,410.06c-0.35,0-0.64,0.28-0.64,0.64c0,0.35,0.28,0.64,0.64,0.64c0.35,0,0.64-0.28,0.64-0.64
			c0.01-0.35-0.26-0.65-0.61-0.66c-0.01,0-0.02,0-0.03,0L444.49,410.06z M456.13,410.06c-0.35,0-0.64,0.28-0.64,0.64
			c0,0.35,0.28,0.64,0.64,0.64c0.35,0,0.64-0.28,0.64-0.64c0.01-0.35-0.26-0.65-0.61-0.66c-0.01,0-0.02,0-0.03,0L456.13,410.06z
			 M467.79,410.06c-0.35,0-0.64,0.28-0.64,0.64c0,0.35,0.28,0.64,0.64,0.64s0.64-0.28,0.64-0.64c0.01-0.35-0.26-0.65-0.61-0.66
			c-0.01,0-0.02,0-0.03,0L467.79,410.06z M479.45,410.06c-0.35,0-0.64,0.28-0.64,0.64c0,0.35,0.28,0.64,0.64,0.64
			c0.35,0,0.64-0.28,0.64-0.64c0.01-0.35-0.26-0.65-0.61-0.66c-0.01,0-0.02,0-0.03,0L479.45,410.06z M491.11,410.06
			c-0.35,0-0.64,0.28-0.64,0.64c0,0.35,0.28,0.64,0.64,0.64c0.35,0,0.64-0.28,0.64-0.64c0.01-0.35-0.26-0.65-0.61-0.66
			c-0.01,0-0.02,0-0.03,0L491.11,410.06z M473.63,401.94c-0.35,0-0.64,0.28-0.64,0.64c0,0.35,0.28,0.64,0.64,0.64
			s0.64-0.28,0.64-0.64c0.04-0.35-0.22-0.66-0.57-0.7c-0.02,0-0.05,0-0.07,0L473.63,401.94z M485.28,401.94
			c-0.35,0-0.64,0.28-0.64,0.64c0,0.35,0.28,0.64,0.64,0.64c0.35,0,0.64-0.28,0.64-0.64c0.04-0.35-0.22-0.66-0.57-0.7
			c-0.02,0-0.05,0-0.07,0L485.28,401.94z M444.49,427.06c-0.35,0-0.64,0.28-0.64,0.64c0,0.35,0.28,0.64,0.64,0.64
			c0.35,0,0.64-0.28,0.64-0.64c0.04-0.35-0.22-0.66-0.57-0.7c-0.02,0-0.05,0-0.07,0L444.49,427.06z M456.13,427.06
			c-0.35,0-0.64,0.28-0.64,0.64c0,0.35,0.28,0.64,0.64,0.64c0.35,0,0.64-0.28,0.64-0.64c0.04-0.35-0.22-0.66-0.57-0.7
			c-0.02,0-0.05,0-0.07,0L456.13,427.06z M467.79,427.06c-0.35,0-0.64,0.28-0.64,0.64c0,0.35,0.28,0.64,0.64,0.64
			c0.35,0,0.64-0.28,0.64-0.64c0.04-0.35-0.22-0.66-0.57-0.7c-0.02,0-0.05,0-0.07,0L467.79,427.06z M479.45,427.06
			c-0.35,0-0.64,0.28-0.64,0.64c0,0.35,0.28,0.64,0.64,0.64c0.35,0,0.64-0.28,0.64-0.64c0.04-0.35-0.22-0.66-0.57-0.7
			c-0.02,0-0.05,0-0.07,0L479.45,427.06z M491.11,427.06c-0.35,0-0.64,0.28-0.64,0.64c0,0.35,0.28,0.64,0.64,0.64
			c0.35,0,0.64-0.28,0.64-0.64c0.04-0.35-0.22-0.66-0.57-0.7c-0.02,0-0.05,0-0.07,0L491.11,427.06z M502.77,427.06
			c-0.35,0.01-0.64,0.3-0.64,0.65c0,0.34,0.28,0.62,0.62,0.62c0,0,0.01,0,0.01,0c0.22,0.02,0.43-0.11,0.53-0.31c0-0.2,0-0.39,0-0.62
			l0,0c-0.06-0.25-0.27-0.45-0.53-0.47L502.77,427.06z M438.65,418.93c-0.35,0-0.64,0.28-0.64,0.64c0,0.35,0.28,0.64,0.64,0.64
			c0.35,0,0.64-0.28,0.64-0.64c0.07-0.34-0.14-0.68-0.49-0.76c-0.05-0.01-0.1-0.02-0.15-0.01L438.65,418.93z M450.31,418.93
			c-0.35,0-0.64,0.28-0.64,0.64c0,0.35,0.28,0.64,0.64,0.64c0.35,0,0.64-0.28,0.64-0.64c0.07-0.34-0.14-0.68-0.49-0.76
			c-0.05-0.01-0.1-0.02-0.15-0.01L450.31,418.93z M461.97,418.93c-0.35,0-0.64,0.28-0.64,0.64c0,0.35,0.28,0.64,0.64,0.64
			c0.35,0,0.64-0.28,0.64-0.64c0.07-0.34-0.14-0.68-0.49-0.76c-0.05-0.01-0.1-0.02-0.15-0.01L461.97,418.93z M473.63,418.93
			c-0.35,0-0.64,0.28-0.64,0.64c0,0.35,0.28,0.64,0.64,0.64c0.35,0,0.64-0.28,0.64-0.64c0.07-0.34-0.14-0.68-0.49-0.76
			c-0.05-0.01-0.1-0.02-0.15-0.01L473.63,418.93z M485.28,418.93c-0.35,0-0.64,0.28-0.64,0.64c0,0.35,0.28,0.64,0.64,0.64
			c0.35,0,0.64-0.28,0.64-0.64c0.07-0.34-0.14-0.68-0.49-0.76c-0.05-0.01-0.1-0.02-0.15-0.01L485.28,418.93z M496.94,418.93
			c-0.35,0-0.64,0.28-0.64,0.64c0,0.35,0.28,0.64,0.64,0.64c0.35,0,0.64-0.28,0.64-0.64c0.07-0.34-0.14-0.68-0.49-0.76
			c-0.05-0.01-0.1-0.02-0.15-0.01L496.94,418.93z M438.72,435.88c-0.35,0-0.64,0.28-0.64,0.64s0.28,0.64,0.64,0.64
			c0.35,0,0.64-0.28,0.64-0.64c0.06-0.35-0.17-0.68-0.51-0.74c-0.06-0.01-0.13-0.01-0.19-0.01L438.72,435.88z M450.38,435.88
			c-0.35,0-0.64,0.28-0.64,0.64s0.28,0.64,0.64,0.64c0.35,0,0.64-0.28,0.64-0.64c0.06-0.35-0.17-0.68-0.51-0.74
			c-0.06-0.01-0.13-0.01-0.19-0.01L450.38,435.88z M462.04,435.88c-0.35,0-0.64,0.28-0.64,0.64s0.28,0.64,0.64,0.64
			c0.35,0,0.64-0.28,0.64-0.64c0.06-0.35-0.17-0.68-0.51-0.74c-0.06-0.01-0.13-0.01-0.19-0.01L462.04,435.88z M473.69,435.88
			c-0.35,0-0.64,0.28-0.64,0.64s0.28,0.64,0.64,0.64c0.35,0,0.64-0.28,0.64-0.64c0.06-0.35-0.17-0.68-0.51-0.74
			c-0.06-0.01-0.13-0.01-0.19-0.01L473.69,435.88z M485.35,435.88c-0.35,0-0.64,0.28-0.64,0.64s0.28,0.64,0.64,0.64
			c0.35,0,0.64-0.28,0.64-0.64c0.06-0.35-0.17-0.68-0.51-0.74c-0.06-0.01-0.13-0.01-0.19-0.01L485.35,435.88z"/>
		<path class="st0" d="M476.97,405.05c-2.06,0-4.06,0.16-6.2,0.27l0.51-0.23c1.06-0.51,2.15-0.96,3.26-1.35
			c0.05-0.03,0.07-0.09,0.05-0.15c-0.02-0.04-0.07-0.07-0.11-0.06c-1.1,0.41-2.21,0.76-3.32,1.12l-1.62,0.56
			c-0.19,0-0.35,0.14-0.53,0.2c-3.41,0.22-38.78,1.26-38.75,1.35c0.21,1.21,0.49,2.4,0.84,3.57c0.09,0.11,0.24,0,0.26-0.11
			c-0.06-1-0.22-1.99-0.47-2.95c3.02,0,29.99-0.43,36.1-0.99l1.48-0.12c0.1,0.01,0.21,0.01,0.31,0c2.71-0.24,5.51-0.51,8.23-0.97
			C477.08,405.26,477.05,405.05,476.97,405.05z"/>
		<path class="st0" d="M490.62,437.44c-3.4,0.34-6.77,1.11-10.16,1.61c-3.39,0.5-6.91,0.91-10.37,1.26
			c-6.82,0.68-13.67,1.07-20.54,1.16c-1.94,0-3.86,0-5.8,0c-1.94,0-5.7-0.14-5.71-0.18c-0.08-0.3-0.6-1.6-0.62-1.75
			c-0.03-0.15-0.26-0.07-0.2,0c0.05,0.07,0.46,1.94,0.51,1.96s0,0,0,0c1.65,0.25,3.32,0.4,5,0.43c1.72,0.08,3.43,0.15,5.15,0.18
			c3.49,0.08,6.98,0.05,10.45-0.11c6.89-0.3,13.76-1.02,20.57-2.15c1.96-0.32,3.93-0.68,5.88-1.07c1.97-0.35,3.92-0.8,5.84-1.35
			C490.73,437.58,490.71,437.43,490.62,437.44z"/>
	</g>
	<g id="freepik--Table--inject-110">
		<rect x="285.28" y="440.26" class="st6" width="186.69" height="8.96"/>
		<polygon class="st6" points="306.21,449.22 305.54,466.31 303.34,522.41 296.98,522.41 294.77,466.31 294.1,449.22 		"/>
		<polygon class="st0" points="306.21,449.22 305.54,466.31 294.77,466.31 294.1,449.22 		"/>
		<polygon class="st6" points="463.17,449.22 462.5,466.31 460.3,522.41 453.94,522.41 451.73,466.31 451.05,449.22 		"/>
		<polygon class="st0" points="463.17,449.22 462.5,466.31 451.73,466.31 451.05,449.22 		"/>
	</g>
	<g id="freepik--Books--inject-110">
		<rect x="190.61" y="537.5" class="st6" width="9.57" height="19.32"/>
		<rect x="203.73" y="537.5" class="st6" width="3.99" height="19.32"/>
		<rect x="184.51" y="537.5" class="st7" width="97.94" height="19.32"/>
		<rect x="261.37" y="537.5" class="st6" width="9.57" height="19.32"/>
		<rect x="178.83" y="523.08" class="st9" width="67.93" height="14.42"/>
		<rect x="246.77" y="523.08" class="st9" width="29.31" height="14.42"/>
		<rect x="178.83" y="524.57" class="st5" width="67.93" height="11.43"/>
		<path class="st2" d="M183.23,526.93c5.29-0.12,10.59-0.22,15.88-0.26l15.88-0.08l15.88,0.08c5.29,0,10.6,0.14,15.9,0.26
			c-5.29,0.12-10.6,0.22-15.9,0.26l-15.88,0.08l-15.88-0.08C193.82,527.12,188.52,527.12,183.23,526.93z"/>
		<path class="st2" d="M183.23,529.18c5.29-0.14,10.59-0.22,15.88-0.27l15.88-0.07l15.88,0.07c5.29,0,10.6,0.14,15.9,0.27
			c-5.29,0.12-10.6,0.2-15.9,0.26l-15.88,0.08l-15.88-0.08C193.81,529.38,188.52,529.29,183.23,529.18z"/>
		<path class="st2" d="M183.23,531.41c5.29-0.12,10.59-0.22,15.88-0.26l15.88-0.08l15.84,0.11c5.29,0,10.6,0.14,15.9,0.26
			c-5.29,0.12-10.6,0.22-15.9,0.26l-15.88,0.08l-15.88-0.08C193.82,531.63,188.52,531.53,183.23,531.41z"/>
		<path class="st2" d="M183.23,533.66c5.29-0.12,10.59-0.22,15.88-0.26l15.88-0.08l15.88,0.07c5.29,0,10.6,0.14,15.9,0.27
			c-5.29,0.12-10.6,0.22-15.9,0.26L214.99,534l-15.88-0.11C193.82,533.89,188.52,533.78,183.23,533.66z"/>
		<rect x="226.03" y="466.84" class="st9" width="56.91" height="19.81"/>
		<rect x="201.47" y="466.84" class="st9" width="24.56" height="19.81"/>
		<rect x="226.03" y="468.88" class="st5" width="56.91" height="15.71"/>
		<path class="st2" d="M279.25,481.35c-4.43,0.14-8.87,0.22-13.31,0.27l-13.3,0.07l-13.31-0.07c-4.44,0-8.88-0.14-13.31-0.27
			c4.43-0.12,8.87-0.2,13.31-0.26l13.31-0.08l13.3,0.08C270.39,481.15,274.82,481.24,279.25,481.35z"/>
		<path class="st2" d="M279.25,478.28c-4.43,0.12-8.87,0.22-13.31,0.26l-13.3,0.08l-13.31-0.08c-4.44,0-8.88-0.14-13.31-0.26
			c4.43-0.12,8.87-0.22,13.31-0.26l13.31-0.08l13.3,0.08C270.39,478.06,274.83,478.16,279.25,478.28z"/>
		<path class="st2" d="M279.25,475.19c-4.43,0.14-8.87,0.22-13.31,0.27h-13.3h-13.31c-4.44,0-8.88-0.14-13.31-0.27
			c4.43-0.12,8.87-0.2,13.31-0.26l13.31-0.08l13.3,0.08C270.39,474.99,274.82,475.07,279.25,475.19z"/>
		<path class="st2" d="M279.25,472.12c-4.43,0.12-8.87,0.22-13.31,0.26l-13.3,0.08l-13.31-0.08c-4.44,0-8.88-0.14-13.31-0.26
			c4.43-0.12,8.87-0.22,13.31-0.26l13.31-0.08l13.3,0.08C270.39,471.9,274.83,472,279.25,472.12z"/>
		<rect x="184.89" y="509.64" class="st7" width="89.52" height="13.5"/>
		<rect x="193.31" y="512.4" class="st5" width="34.43" height="8.11"/>
		<rect x="196.88" y="486.65" class="st6" width="67.99" height="22.94"/>
		<rect x="251.32" y="486.65" class="st7" width="6.34" height="22.94"/>
		<rect x="244.7" y="486.65" class="st7" width="2.45" height="22.94"/>
		<polygon class="st9" points="234.34,547.27 334.78,528.47 378.86,556.38 280.11,581.5 		"/>
		<path class="st5" d="M240.49,547.27l41.89,31.44l92.55-23.47l-42.63-26.77c0,0-27.3,1.6-28.58,1.9
			c-1.29,0.3-13.54,4.39-13.54,4.39s-16.94,1.69-18.1,1.99C270.91,537.04,240.49,547.27,240.49,547.27z"/>
		<path class="st2" d="M290.14,534.76c3.44,2.55,6.85,5.12,10.22,7.73l10.11,7.89l10.02,8c3.31,2.71,6.61,5.42,9.9,8.12
			c-3.42-2.55-6.83-5.14-10.22-7.75l-10.11-7.88l-10.01-8.02C296.72,540.2,293.42,537.5,290.14,534.76z"/>
		<path class="st2" d="M250.18,547.71c3.22-1.26,6.46-2.48,9.71-3.66c3.25-1.18,6.51-2.3,9.79-3.43l2.46-0.8l1.27-0.38
			c0.43-0.09,0.85-0.14,1.35-0.2l5.15-0.72c3.43-0.47,6.86-0.91,10.29-1.29c-3.4,0.63-6.8,1.23-10.2,1.79l-5.12,0.83
			c-0.42,0-0.85,0.12-1.27,0.22c-0.42,0.09-0.8,0.24-1.21,0.37l-2.45,0.83l-9.83,3.29C256.78,545.64,253.49,546.69,250.18,547.71z"
			/>
		<path class="st2" d="M253.11,549.73c3.22-1.25,6.46-2.46,9.72-3.64c3.24-1.18,6.51-2.3,9.78-3.43l2.48-0.8
			c0.42-0.14,0.81-0.27,1.26-0.38c0.45-0.11,0.87-0.14,1.29-0.2l5.15-0.73c3.42-0.46,6.86-0.89,10.3-1.29
			c-3.4,0.64-6.77,1.25-10.21,1.8l-5.1,0.83c-0.43,0-0.87,0.12-1.27,0.2s-0.81,0.26-1.22,0.38l-2.46,0.89l-9.83,3.28
			C259.72,547.66,256.41,548.78,253.11,549.73z"/>
		<path class="st2" d="M256.05,551.76c3.15-1.23,6.31-2.42,9.48-3.56c3.17-1.14,6.36-2.26,9.56-3.36l2.41-0.8
			c0.81-0.29,1.64-0.51,2.49-0.66c1.67-0.27,3.33-0.53,5.01-0.73c3.36-0.46,6.77-0.87,10.07-1.22c-3.33,0.61-6.66,1.19-9.99,1.73
			l-5,0.83c-0.81,0.16-1.61,0.38-2.38,0.68l-2.4,0.81l-9.61,3.2C262.49,549.75,259.27,550.76,256.05,551.76z"/>
		<path class="st2" d="M258.97,553.79c3.11-1.22,6.23-2.39,9.36-3.52c3.13-1.15,6.28-2.22,9.48-3.32c1.6-0.51,3.13-1.07,4.81-1.49
			s3.3-0.51,4.96-0.73c3.29-0.45,6.61-0.84,9.91-1.19c-3.28,0.6-6.55,1.18-9.83,1.72l-4.92,0.81c-1.54,0.39-3.14,1.02-4.71,1.52
			l-9.48,3.17C265.34,551.8,262.15,552.85,258.97,553.79z"/>
		<path class="st2" d="M261.98,555.81c3.09-1.21,6.2-2.37,9.32-3.49c3.11-1.12,6.26-2.22,9.4-3.3c1.58-0.53,3.11-1.07,4.78-1.5
			c1.67-0.43,3.29-0.51,4.94-0.73c3.29-0.45,6.59-0.85,9.88-1.19c-3.26,0.61-6.54,1.18-9.8,1.72l-4.9,0.81
			c-1.53,0.42-3.13,1.02-4.7,1.53l-9.44,3.2C268.25,553.83,265.08,554.84,261.98,555.81z"/>
		<path class="st2" d="M264.83,557.84c3.09-1.2,6.18-2.36,9.29-3.49c3.11-1.14,6.24-2.21,9.37-3.29c1.57-0.53,3.1-1.06,4.77-1.5
			c1.67-0.45,3.28-0.53,4.92-0.74c3.28-0.43,6.57-0.84,9.86-1.18c-3.25,0.61-6.51,1.19-9.78,1.72c-1.62,0.27-3.28,0.51-4.87,0.81
			c-1.6,0.3-3.11,1.02-4.67,1.53l-9.48,3.13C271.14,555.87,268,556.88,264.83,557.84z"/>
		<path class="st2" d="M267.77,559.87c3.05-1.19,6.09-2.34,9.17-3.45c3.07-1.11,6.15-2.18,9.23-3.25c1.56-0.53,3.09-1.04,4.68-1.52
			c1.6-0.47,3.24-0.53,4.86-0.76c3.24-0.43,6.49-0.82,9.74-1.16c-3.22,0.61-6.43,1.16-9.65,1.71c-1.6,0.28-3.25,0.49-4.79,0.83
			c-1.54,0.34-3.07,1.03-4.62,1.53l-9.29,3.11C274,557.92,270.89,558.9,267.77,559.87z"/>
		<path class="st2" d="M270.7,561.89c3.05-1.18,6.11-2.34,9.17-3.44c3.06-1.1,6.16-2.18,9.25-3.25c1.54-0.54,3.07-1.04,4.67-1.52
			c1.6-0.47,3.25-0.53,4.87-0.77c3.23-0.43,6.47-0.82,9.72-1.15c-3.21,0.61-6.43,1.16-9.64,1.71c-1.6,0.28-3.25,0.47-4.79,0.83
			c-1.54,0.35-3.09,1.03-4.63,1.53l-9.28,3.1C276.94,559.95,273.83,560.97,270.7,561.89z"/>
		<path class="st2" d="M273.09,564.15c3.09-1.21,6.19-2.38,9.3-3.51c3.11-1.12,6.24-2.22,9.37-3.32c1.56-0.56,3.13-1.06,4.73-1.56
			s3.3-0.56,4.94-0.8c3.29-0.44,6.59-0.83,9.88-1.18c-3.27,0.61-6.53,1.19-9.79,1.72c-1.62,0.3-3.32,0.47-4.85,0.87l-4.7,1.57
			l-9.48,3.17C279.42,562.16,276.26,563.16,273.09,564.15z"/>
		<path class="st2" d="M276.03,566.25c3.07-1.21,6.16-2.4,9.26-3.53s6.23-2.22,9.34-3.33c1.56-0.56,3.13-1.06,4.71-1.56
			c1.58-0.5,3.29-0.57,4.93-0.83c3.28-0.43,6.57-0.84,9.86-1.16c-3.25,0.61-6.51,1.16-9.78,1.72c-1.6,0.28-3.3,0.46-4.82,0.87
			l-4.68,1.58l-9.4,3.18C282.29,564.25,279.17,565.25,276.03,566.25z"/>
		<path class="st2" d="M278.96,568.5c2.98-1.21,5.97-2.38,8.98-3.51c3.01-1.12,6.04-2.23,9.06-3.33c1.5-0.56,3.03-1.07,4.56-1.57
			c0.38-0.12,0.76-0.26,1.18-0.37c0.42-0.11,0.81-0.15,1.21-0.22l2.38-0.35c3.18-0.43,6.37-0.81,9.59-1.12
			c-3.17,0.61-6.34,1.15-9.48,1.69l-2.38,0.39c-0.78,0.1-1.54,0.3-2.27,0.58l-4.59,1.62c-3.03,1.04-6.05,2.14-9.1,3.15
			C285.04,566.49,282.02,567.5,278.96,568.5z"/>
		<path class="st2" d="M281.9,570.45c3.03-1.08,6.07-2.15,9.13-3.17c3.06-1.02,6.12-1.99,9.18-2.97c1.54-0.49,3.06-0.97,4.67-1.35
			l4.73-0.95c3.17-0.61,6.34-1.19,9.48-1.71c-3.11,0.8-6.24,1.54-9.38,2.26l-4.73,1.03c-1.5,0.39-3.06,0.92-4.59,1.35
			c-3.09,0.92-6.15,1.91-9.23,2.82S285,569.51,281.9,570.45z"/>
		<path class="st2" d="M327.21,558.98c2.82-1.17,5.67-2.23,8.57-3.18c0.73-0.23,1.45-0.49,2.18-0.69c0.74-0.22,1.5-0.39,2.26-0.51
			l4.48-0.84l8.99-1.64c2.99-0.54,6-1.02,8.99-1.53c-2.97,0.64-5.94,1.35-8.92,1.92l-8.95,1.83l-4.47,0.88
			c-0.74,0.12-1.48,0.3-2.19,0.53l-2.18,0.66C333.08,557.31,330.17,558.26,327.21,558.98z"/>
		<path class="st2" d="M324.41,556.43c2.79-0.97,5.59-1.87,8.44-2.71c2.85-0.79,5.74-1.44,8.65-1.94l8.68-1.64
			c2.88-0.56,5.8-1.03,8.71-1.54c-2.88,0.65-5.75,1.35-8.63,1.94l-8.65,1.84l-4.33,0.88c-1.35,0.31-2.83,0.72-4.27,1.07
			C330.17,555.13,327.3,555.82,324.41,556.43z"/>
		<path class="st2" d="M321.7,554.2c2.71-0.95,5.55-1.84,8.38-2.61c1.35-0.38,2.8-0.8,4.27-1.11l4.33-0.73l8.67-1.35
			c2.88-0.47,5.8-0.85,8.68-1.27c-2.87,0.56-5.73,1.15-8.61,1.67l-8.63,1.57l-4.31,0.77l-4.24,1.07
			C327.42,552.85,324.56,553.55,321.7,554.2z"/>
		<path class="st2" d="M319.36,552.44c2.68-1.23,5.42-2.31,8.22-3.25c0.71-0.25,1.44-0.43,2.18-0.54l2.19-0.31l4.36-0.6
			c5.84-0.79,11.68-1.5,17.52-2.15c-5.81,0.96-11.62,1.86-17.44,2.71l-4.36,0.64l-2.18,0.34c-0.71,0.12-1.4,0.3-2.07,0.54
			C324.99,550.71,322.2,551.68,319.36,552.44z"/>
		<path class="st2" d="M284.82,573.16c3.1-1.02,6.2-2,9.32-2.94s6.23-1.84,9.36-2.71c1.57-0.46,3.13-0.88,4.73-1.29l4.77-1.06
			c3.18-0.68,6.36-1.35,9.57-1.92c-3.14,0.87-6.3,1.68-9.48,2.46l-4.75,1.12l-4.68,1.35l-9.4,2.6
			C291.12,571.63,287.98,572.42,284.82,573.16z"/>
		<path class="st2" d="M329.26,561.42c3.13-0.95,6.26-1.87,9.41-2.71c3.15-0.84,6.3-1.71,9.48-2.56c1.58-0.42,3.14-0.81,4.77-1.19
			l4.81-0.95c3.2-0.61,6.42-1.19,9.64-1.72c-3.17,0.8-6.35,1.54-9.48,2.26l-4.79,1.03l-4.73,1.21l-9.48,2.41
			C335.62,559.94,332.45,560.69,329.26,561.42z"/>
		<path class="st2" d="M297.7,535.85l18.21,14.73c0,0,6.09-2.53,8.29-3.06c2.8-0.66,10.83-1.94,10.83-1.94l-18.06-13.27
			c0,0-9.09,0.66-11.16,1C303.06,534.02,300.35,534.86,297.7,535.85z"/>
		<path class="st2" d="M337.09,544.91c2.17-0.51,4.37-0.89,6.58-1.15c2.21-0.28,4.44-0.45,6.68-0.49
			C345.99,544.26,341.55,544.81,337.09,544.91L337.09,544.91z"/>
		<path class="st2" d="M334.42,542.77c2.17-0.5,4.36-0.89,6.57-1.16c2.22-0.28,4.45-0.45,6.69-0.49c-2.17,0.51-4.37,0.9-6.58,1.16
			C338.88,542.57,336.65,542.73,334.42,542.77z"/>
		<path class="st2" d="M331.74,540.66c2.17-0.51,4.37-0.89,6.58-1.15c2.21-0.28,4.44-0.45,6.68-0.49c-2.16,0.51-4.36,0.9-6.57,1.15
			C336.21,540.46,333.97,540.62,331.74,540.66z"/>
		<path class="st2" d="M329.07,538.48c2.17-0.51,4.37-0.9,6.58-1.16c2.21-0.29,4.44-0.45,6.68-0.49c-2.17,0.51-4.37,0.9-6.58,1.16
			C333.53,538.28,331.3,538.44,329.07,538.48z"/>
		<path class="st2" d="M326.01,536.6c2.17-0.52,4.37-0.91,6.58-1.16c2.21-0.29,4.44-0.45,6.68-0.49c-2.17,0.51-4.37,0.9-6.58,1.16
			C330.47,536.39,328.24,536.55,326.01,536.6z"/>
		<path class="st2" d="M323.17,534.43c2.17-0.51,4.37-0.89,6.58-1.15c2.21-0.3,4.44-0.46,6.68-0.49
			C332.07,533.78,327.63,534.33,323.17,534.43L323.17,534.43z"/>
		<path class="st2" d="M320.05,532.32c2.17-0.51,4.36-0.89,6.57-1.15c2.22-0.28,4.45-0.45,6.69-0.49
			C328.96,531.67,324.51,532.22,320.05,532.32z"/>
	</g>
</g>
</svg>
