<?xml version="1.0" encoding="utf-8"?>
<!-- Generator: Adobe Illustrator 24.3.0, SVG Export Plug-In . SVG Version: 6.00 Build 0)  -->
<svg version="1.1" id="Layer_1" xmlns="http://www.w3.org/2000/svg" xmlns:xlink="http://www.w3.org/1999/xlink" x="0px" y="0px"
	 viewBox="0 0 650 790" style="enable-background:new 0 0 650 790;" xml:space="preserve">
<style type="text/css">
	.st0{fill:#EBEBEB;}
	.st1{fill:#263339;}
	.st2{fill:#DBDBDB;}
	.st3{fill:#FDC72A;}
	.st4{opacity:0.2;fill:#020203;enable-background:new    ;}
	.st5{fill:#FFFFFF;}
	.st6{opacity:0.8;fill:#FFFFFF;enable-background:new    ;}
	.st7{opacity:0.5;}
	.st8{fill:#465B65;}
	.st9{fill:#C8C7C7;}
	.st10{fill:#D3766A;}
	.st11{fill:#37474F;}
	.st12{opacity:0.1;fill:#020203;enable-background:new    ;}
</style>
<g>
	<g id="freepik--background-complete--inject-5">
		<path class="st0" d="M77.67,418.23l-19.98,0.41l-10.14,0.18c-3.4,0-6.81,0-10.2,0.08h-0.67v-0.67l-0.09-17.04v-0.78h0.76
			l20.16,0.09c6.73,0,13.45,0.17,20.16,0.24h0.43v0.41c0,2.88-0.14,5.76-0.2,8.6L77.67,418.23z M77.67,418.23l-0.21-8.62
			c0-2.83-0.17-5.63-0.2-8.42l0.41,0.41c-6.72,0.08-13.43,0.24-20.16,0.24l-20.16,0.11l0.76-0.76v17.04l-0.69-0.69
			c3.32,0,6.64,0,9.97,0.08l10.02,0.18L77.67,418.23z"/>
		<path class="st0" d="M55.18,439.72l-19.98,0.41l-10.14,0.18c-3.4,0-6.81,0-10.2,0.08h-0.67v-0.67l-0.09-17.04v-0.73h0.76
			l20.16,0.09c6.72,0,13.45,0.17,20.16,0.24h0.43v0.41c0,2.88-0.12,5.76-0.2,8.6L55.18,439.72z M55.18,439.72l-0.21-8.63
			c-0.08-2.83-0.17-5.63-0.2-8.42l0.41,0.41c-6.72,0.08-13.45,0.24-20.16,0.24l-20.16,0.15l0.76-0.75l-0.08,17.04l-0.69-0.69
			c3.32,0,6.64,0,9.97,0l10.02,0.18L55.18,439.72z"/>
		<path class="st0" d="M290.07,340.41l-19.98,0.43L259.94,341c-3.4,0.08-6.79,0-10.2,0.09h-0.67v-0.69l-0.09-17.04v-0.76h0.76
			l20.16,0.09c6.73,0,13.45,0.18,20.16,0.26h0.43v0.41c0,2.89-0.14,5.77-0.2,8.6L290.07,340.41z M290.07,340.41l-0.21-8.6
			c0-2.85-0.17-5.65-0.2-8.44l0.41,0.41c-6.72,0.09-13.43,0.24-20.16,0.26l-20.16,0.09l0.76-0.76l-0.12,17.04l-0.69-0.67
			c3.34,0,6.64,0,9.97,0l10.02,0.17L290.07,340.41z"/>
		<path class="st0" d="M267.57,361.9l-19.98,0.43l-10.14,0.17c-3.4,0-6.81,0-10.2,0.09h-0.67v-0.69l-0.09-17.04v-0.76h0.76
			l20.16,0.09c6.73,0,13.45,0.18,20.16,0.26H268v0.41c0,2.89-0.14,5.77-0.21,8.6L267.57,361.9z M267.57,361.9l-0.21-8.6
			c0-2.85-0.17-5.65-0.2-8.44l0.41,0.41c-6.72,0-13.43,0.24-20.16,0.26l-20.16,0.09l0.76-0.76l-0.08,17.04l-0.69-0.69
			c3.32,0,6.64,0,9.97,0.09l10.02,0.17L267.57,361.9z"/>
		<path class="st0" d="M312.91,361.9l-19.98,0.43l-10.14,0.17c-3.4,0-6.81,0-10.2,0.09h-0.67v-0.69v-17.04v-0.76h0.76l20.16,0.09
			c6.72,0,13.45,0.18,20.16,0.26h0.43v0.41c0,2.89-0.12,5.77-0.2,8.6L312.91,361.9z M312.91,361.9l-0.21-8.6
			c0-2.85-0.17-5.65-0.2-8.44l0.41,0.41c-6.72,0-13.45,0.24-20.16,0.26l-20.16,0.09l0.76-0.76l-0.12,17.04l-0.69-0.69
			c3.32,0,6.64,0,9.97,0.09l10.02,0.17L312.91,361.9z"/>
		<path class="st0" d="M635.15,439.72l-20,0.41l-10.14,0.18c-3.38,0-6.79,0-10.19,0.08h-0.69v-0.67l-0.08-17.04v-0.73h0.76
			l20.16,0.09c6.72,0,13.45,0.17,20.16,0.24h0.41v0.41c0,2.88-0.12,5.76-0.2,8.6L635.15,439.72z M635.15,439.72l-0.21-8.62
			c0-2.83-0.18-5.63-0.2-8.42l0.41,0.41c-6.72,0.08-13.45,0.24-20.16,0.24l-20.16,0.09l0.76-0.75l-0.09,17.04l-0.67-0.69
			c3.32,0,6.64,0,9.96,0l10.02,0.18L635.15,439.72z"/>
		<path class="st0" d="M612.65,107.02l-20,0.43l-10.14,0.17c-3.38,0-6.79,0-10.19,0.09h-0.62v-0.69V89.98v-0.76h0.78l20.16,0.09
			c6.72,0,13.43,0.18,20.16,0.26h0.41v0.4c0,2.89-0.14,5.77-0.2,8.6L612.65,107.02z M612.65,107.02l-0.21-8.6
			c-0.08-2.85-0.18-5.65-0.21-8.44l0.43,0.41c-6.73,0-13.45,0.24-20.16,0.26l-20.16,0.09l0.76-0.76L573,107.02l-0.67-0.69
			c3.32,0,6.62,0,9.96,0.09l10.02,0.17L612.65,107.02z"/>
		<path class="st0" d="M635.15,128.51l-20,0.43l-10.14,0.17c-3.38,0-6.79,0-10.19,0.09h-0.69v-0.69l-0.08-17.04v-0.76h0.76
			l20.16,0.09c6.72,0,13.45,0.18,20.16,0.26h0.41v0.41c0,2.89-0.12,5.77-0.2,8.6L635.15,128.51z M635.15,128.51l-0.21-8.6
			c0-2.85-0.18-5.65-0.2-8.44l0.41,0.41c-6.72,0-13.45,0.24-20.16,0.26l-20.16,0.09l0.76-0.76l-0.09,17.04l-0.67-0.69
			c3.32,0,6.64,0,9.96,0.09l10.02,0.17L635.15,128.51z"/>
		<path class="st0" d="M77.67,107.02l-19.98,0.43l-10.14,0.17c-3.4,0-6.81,0-10.2,0.09h-0.67v-0.69l-0.09-17.06V89.2h0.76
			l20.16,0.09c6.73,0,13.45,0.18,20.16,0.26h0.43v0.41c0,2.89-0.14,5.77-0.2,8.6L77.67,107.02z M77.67,107.02l-0.21-8.6
			c0-2.85-0.17-5.65-0.2-8.44l0.41,0.41c-6.72,0-13.43,0.24-20.16,0.26l-20.16,0.09l0.76-0.76v17.04l-0.69-0.69
			c3.32,0,6.64,0,9.97,0.09l10.02,0.17L77.67,107.02z"/>
	</g>
	<g id="freepik--Floor--inject-5">
		<polygon class="st1" points="7.41,609.45 86.81,609.07 166.21,608.95 325,608.69 483.79,608.94 563.19,609.07 642.59,609.45 
			563.19,609.82 483.79,609.96 325,610.22 166.21,609.96 86.81,609.82 		"/>
	</g>
	<g id="freepik--Shadow--inject-5">
		<ellipse class="st0" cx="325" cy="682.17" rx="297.98" ry="41.89"/>
	</g>
	<g id="freepik--note-1--inject-5">
		<path class="st0" d="M594.82,106.84v436.77H264.27V106.84h5.59l2.1,9.14l9.03,5.97v6.88h10.66v-10.66h-8.22l0.81-11.24h23.63
			l0.7,11.24h-1.52v10.66h10.66v-10.66h-4.57l1.42-11.24h16.04l2.48,11.24v10.66h10.66v-10.66h-4.04l2.35-11.24h17.98l0.94,11.24
			h-1.9v10.66h10.66v-10.66h-4.45v-11.33h17.28l0.46,3.35l2.36,7.89h-0.29v10.66h10.66v-10.66h-4.07l-0.81-7.25l-0.4-3.99h23.19
			v4.17c0,0.26,1.99,7.07,1.99,7.07h-4.48v10.66h10.66v-10.66h-2.83v-11.24h20.98l-1.14,11.24h-1.63v10.66h10.66v-10.66h-2.59
			l-0.59-11.24h18.03l0.73,11.24h-0.26v10.66h10.66v-10.66h-4.45l-3.17-11.24h22.48l0.5,11.24v10.66h10.66v-10.66h-4.34l-1.28-11.24
			h18.03l3.05,14.94v6.97h10.66v-10.66h-5.88l1.99-11.24h19.26v21.9h10.66v-10.66h-6.64l-1.52-11.24h17l6.56,14.27v7.61h10.66
			v-10.66h-7.29l-0.58-11.24L594.82,106.84z"/>
		<rect x="289.03" y="165.08" class="st2" width="281.03" height="1.14"/>
		<rect x="289.03" y="180.19" class="st2" width="281.03" height="1.14"/>
		<rect x="289.03" y="195.3" class="st2" width="281.03" height="1.14"/>
		<rect x="289.03" y="210.42" class="st2" width="281.03" height="1.14"/>
		<rect x="289.03" y="225.53" class="st2" width="281.03" height="1.14"/>
		<rect x="289.03" y="240.63" class="st2" width="281.03" height="1.14"/>
		<rect x="289.03" y="255.74" class="st2" width="281.03" height="1.14"/>
		<rect x="289.03" y="270.85" class="st2" width="281.03" height="1.14"/>
		<rect x="289.03" y="285.95" class="st2" width="281.03" height="1.14"/>
		<rect x="289.03" y="301.08" class="st2" width="281.03" height="1.14"/>
		<rect x="289.03" y="316.18" class="st2" width="281.03" height="1.14"/>
		<rect x="289.03" y="331.29" class="st2" width="281.03" height="1.14"/>
		<rect x="289.03" y="346.4" class="st2" width="281.03" height="1.14"/>
		<rect x="289.03" y="361.5" class="st2" width="281.03" height="1.14"/>
		<rect x="289.03" y="376.61" class="st2" width="281.03" height="1.14"/>
		<rect x="289.03" y="391.72" class="st2" width="281.03" height="1.14"/>
		<rect x="289.03" y="406.84" class="st2" width="281.03" height="1.14"/>
		<rect x="289.03" y="421.94" class="st2" width="281.03" height="1.14"/>
		<rect x="289.03" y="437.05" class="st2" width="281.03" height="1.14"/>
		<rect x="289.03" y="452.16" class="st2" width="281.03" height="1.14"/>
		<rect x="289.03" y="467.27" class="st2" width="281.03" height="1.14"/>
		<rect x="289.03" y="482.37" class="st2" width="281.03" height="1.14"/>
		<rect x="289.03" y="497.48" class="st2" width="281.03" height="1.14"/>
		<rect x="289.03" y="512.6" class="st2" width="281.03" height="1.14"/>
		<polygon class="st1" points="298.43,176.32 331.2,175.94 363.99,175.73 429.54,175.56 495.1,175.73 527.89,175.94 560.66,176.32 
			527.89,176.69 495.1,176.9 429.54,177.08 363.99,176.9 331.2,176.69 		"/>
		<path class="st1" d="M298.43,191.43c16.14-0.32,32.28-0.46,48.43-0.58l48.43-0.18l48.43,0.17l24.21,0.21l24.21,0.38l-24.21,0.37
			l-24.14,0.2l-48.43,0.18l-48.43-0.18C330.71,191.89,314.57,191.73,298.43,191.43z"/>
		<polygon class="st1" points="298.43,206.54 331.2,206.17 363.99,205.96 429.54,205.78 495.1,205.96 527.89,206.17 560.66,206.54 
			527.89,206.9 495.1,207.12 429.54,207.3 363.99,207.12 331.2,206.9 		"/>
		<path class="st1" d="M298.43,221.64c10.57-0.32,21.12-0.46,31.69-0.58l31.69-0.18l31.68,0.18l15.85,0.21
			c5.27,0.12,10.55,0.2,15.84,0.37c-5.28,0.17-10.57,0.24-15.84,0.38l-15.85,0.21l-31.68,0.17l-31.69-0.18
			C319.55,222.1,308.99,221.96,298.43,221.64z"/>
		<polygon class="st1" points="298.43,251.86 331.2,251.49 363.99,251.28 429.54,251.1 495.1,251.28 527.89,251.49 560.66,251.86 
			527.89,252.24 495.1,252.45 429.54,252.62 363.99,252.45 331.2,252.24 		"/>
		<path class="st1" d="M298.43,266.98c16.11-0.32,32.24-0.47,48.35-0.59l48.35-0.17l48.34,0.17l24.18,0.21l24.17,0.38l-24.17,0.37
			l-24.18,0.21l-48.34,0.17l-48.35-0.17C330.67,267.44,314.54,267.28,298.43,266.98z"/>
		<path class="st1" d="M298.43,282.09c17.92-0.32,35.83-0.47,53.76-0.59l53.74-0.17l53.74,0.17l26.88,0.21l26.88,0.38l-26.88,0.37
			l-26.88,0.21l-53.74,0.18l-53.74-0.18C334.26,282.54,316.35,282.39,298.43,282.09z"/>
		<path class="st1" d="M298.43,312.3c13.36-0.32,26.71-0.46,40.05-0.58l40.07-0.18l40.05,0.17l20.03,0.21l20.03,0.38l-20.03,0.37
			l-20.03,0.21l-40.05,0.18l-40.07-0.18C325.14,312.76,311.78,312.62,298.43,312.3z"/>
		<polygon class="st1" points="298.43,327.41 331.2,327.04 363.99,326.83 429.54,326.64 495.1,326.83 527.89,327.04 560.66,327.41 
			527.89,327.79 495.1,328 429.54,328.17 363.99,327.98 331.2,327.77 		"/>
		<path class="st1" d="M298.43,342.51c17.92-0.3,35.83-0.46,53.76-0.58l53.74-0.18l53.74,0.18l26.88,0.21l26.88,0.37l-26.88,0.38
			l-26.88,0.21l-53.74,0.17l-53.74-0.17C334.26,342.98,316.35,342.83,298.43,342.51z"/>
		<polygon class="st1" points="298.43,357.62 331.2,357.25 363.99,357.04 429.54,356.86 495.1,357.04 527.89,357.25 560.66,357.62 
			527.89,358 495.1,358.21 429.54,358.38 363.99,358.21 331.2,358 		"/>
		<path class="st1" d="M298.43,372.73c13.05-0.3,26.12-0.46,39.17-0.58l39.17-0.17l39.17,0.17l19.58,0.21l19.58,0.37l-19.58,0.38
			l-19.58,0.21l-39.17,0.17l-39.17-0.17C324.54,373.21,311.48,373.05,298.43,372.73z"/>
	</g>
	<g id="freepik--note-2--inject-5">
		<path class="st3" d="M293.48,305.37H186.97c-1.4-8.82-2.17-17.73-2.3-26.67V171.42h134.01v108.67
			C318.62,290.98,293.48,305.37,293.48,305.37z"/>
		<path class="st4" d="M318.6,280.08c0,10.55-23.62,24.37-25.08,25.22c3.91-2.65,3.24-23.62,3.24-23.62S318.21,278.89,318.6,280.08z
			"/>
		<path class="st5" d="M204.39,203.06c15.75-1.28,31.51-1.52,47.21-1.64c15.7-0.12,31.51,0.35,47.21,1.64
			c-15.75,1.31-31.51,1.52-47.21,1.66S220.14,204.36,204.39,203.06z"/>
		<path class="st5" d="M204.39,220.73c12.4-1.29,24.79-1.52,37.17-1.66c12.38-0.14,24.79,0.37,37.19,1.66
			c-12.36,1.2-24.77,1.77-37.19,1.72C229.18,222.33,216.79,222.02,204.39,220.73z"/>
		<path class="st5" d="M204.39,238.39c12.4-1.29,24.79-1.6,37.17-1.66c12.42-0.07,24.83,0.48,37.19,1.66
			c-12.4,1.29-24.79,1.6-37.19,1.66C229.17,240.12,216.79,239.69,204.39,238.39z"/>
	</g>
	<g id="freepik--note-3--inject-5">
		<path class="st3" d="M547.03,604.03H420c0,0-6.29-12.97-6.29-25.28V477h127.04v103.07C540.74,590.37,547.03,604.03,547.03,604.03z
			"/>
		<path class="st6" d="M547.03,604.03H420c0,0-6.29-12.97-6.29-25.28V477h127.04v103.07C540.74,590.37,547.03,604.03,547.03,604.03z
			"/>
		<rect x="413.71" y="485.66" class="st2" width="127.04" height="0.38"/>
		<rect x="413.71" y="494.78" class="st2" width="127.04" height="0.38"/>
		<rect x="413.71" y="503.92" class="st2" width="127.04" height="0.38"/>
		<rect x="413.71" y="513.04" class="st2" width="127.04" height="0.38"/>
		<rect x="413.71" y="522.18" class="st2" width="127.04" height="0.38"/>
		<rect x="413.71" y="531.3" class="st2" width="127.04" height="0.38"/>
		<rect x="413.71" y="540.42" class="st2" width="127.04" height="0.38"/>
		<rect x="413.71" y="549.56" class="st2" width="127.04" height="0.38"/>
		<rect x="413.71" y="558.68" class="st2" width="127.04" height="0.38"/>
		<rect x="413.71" y="567.82" class="st2" width="127.04" height="0.38"/>
		<rect x="413.71" y="576.94" class="st2" width="127.04" height="0.38"/>
		<path class="st2" d="M541.38,586.41H414.42c-0.01-0.13-0.01-0.25,0-0.38h126.96C541.34,586.2,541.37,586.41,541.38,586.41z"/>
		<path class="st2" d="M543.79,595.55H416.72c-0.05-0.12-0.09-0.25-0.12-0.38h127.07C543.7,595.3,543.74,595.43,543.79,595.55z"/>
		<path class="st2" d="M428.22,604.03h-0.4c-1.01-2.74-2.01-5.63-2.89-8.45c0-0.14-0.08-0.26-0.11-0.38
			c-0.92-2.87-1.66-5.78-2.22-8.74c-0.01-0.13-0.01-0.25,0-0.38c-0.24-1.31-0.38-2.64-0.4-3.97V477.03h0.26V582.1
			c0.02,1.33,0.15,2.66,0.4,3.97c0,0.12,0,0.24,0,0.38c0.58,2.95,1.32,5.87,2.24,8.74c0,0.12,0.08,0.26,0.12,0.38
			C426.21,598.41,427.21,601.31,428.22,604.03z"/>
		<path class="st2" d="M437.36,604.03h-0.4c-1.01-2.74-2.01-5.63-2.89-8.45c0-0.14-0.08-0.26-0.11-0.38
			c-0.92-2.87-1.66-5.78-2.22-8.74c-0.01-0.13-0.01-0.25,0-0.38c-0.24-1.31-0.38-2.64-0.4-3.97V477.03h0.26V582.1
			c0.02,1.33,0.15,2.66,0.4,3.97c0,0.12,0,0.24,0,0.38c0.58,2.95,1.32,5.87,2.24,8.74c0,0.12,0.08,0.26,0.12,0.38
			C435.35,598.41,436.35,601.31,437.36,604.03z"/>
		<path class="st2" d="M446.48,604.03h-0.4c-1.01-2.74-2.01-5.63-2.89-8.45c0-0.14-0.08-0.26-0.11-0.38
			c-0.92-2.87-1.66-5.78-2.22-8.74c-0.03-0.13-0.06-0.25-0.08-0.38c-0.24-1.31-0.38-2.64-0.4-3.97V477.03h0.35V582.1
			c0.02,1.33,0.15,2.66,0.4,3.97c0,0.12,0,0.24,0,0.38c0.58,2.95,1.32,5.87,2.24,8.74c0,0.12,0,0.26,0.12,0.38
			C444.47,598.41,445.47,601.31,446.48,604.03z"/>
		<path class="st2" d="M455.62,604.03h-0.4c-1.01-2.74-2.01-5.63-2.89-8.45c0-0.14-0.08-0.26-0.12-0.38
			c-0.91-2.87-1.65-5.79-2.22-8.74c0-0.12,0-0.26,0-0.38c-0.24-1.31-0.38-2.64-0.4-3.97V477.03h0.29V582.1
			c0.02,1.33,0.15,2.66,0.4,3.97c0,0.12,0,0.24,0,0.38c0.58,2.95,1.32,5.87,2.24,8.74c0,0.12,0,0.26,0.12,0.38
			C453.61,598.41,454.61,601.31,455.62,604.03z"/>
		<path class="st2" d="M464.74,604.03h-0.4c-1.01-2.74-2.01-5.63-2.89-8.45c0-0.14-0.08-0.26-0.11-0.38
			c-0.92-2.87-1.66-5.78-2.22-8.74c-0.03-0.13-0.06-0.25-0.08-0.38c-0.24-1.31-0.38-2.64-0.4-3.97V477.03h0.37V582.1
			c0.02,1.33,0.15,2.66,0.4,3.97c0,0.12,0,0.24,0,0.38c0.58,2.95,1.32,5.87,2.24,8.74c0,0.12,0.08,0.26,0.12,0.38
			C462.73,598.41,463.73,601.31,464.74,604.03z"/>
		<path class="st2" d="M473.87,604.03h-0.4c-1.01-2.74-2.01-5.63-2.89-8.45c0-0.14-0.08-0.26-0.11-0.38
			c-0.92-2.87-1.66-5.78-2.22-8.74c-0.03-0.13-0.06-0.25-0.08-0.38c-0.24-1.31-0.38-2.64-0.4-3.97V477.03h0.37V582.1
			c0.02,1.33,0.15,2.66,0.4,3.97c0,0.12,0,0.24,0,0.38c0.58,2.95,1.32,5.87,2.24,8.74c0,0.12,0.08,0.26,0.12,0.38
			C471.86,598.41,472.87,601.31,473.87,604.03z"/>
		<path class="st2" d="M483,604.03h-0.4c-1.01-2.74-2.01-5.63-2.89-8.45c0-0.14,0-0.26-0.12-0.38c-0.91-2.87-1.65-5.79-2.22-8.74
			c0-0.12,0-0.26,0-0.38c-0.24-1.31-0.38-2.64-0.4-3.97V477.03h0.32V582.1c0.02,1.33,0.15,2.66,0.4,3.97c0,0.12,0,0.24,0,0.38
			c0.58,2.95,1.32,5.87,2.24,8.74c0,0.12,0.08,0.26,0.12,0.38C480.99,598.41,481.99,601.31,483,604.03z"/>
		<path class="st2" d="M492.13,604.03h-0.4c-1.01-2.74-2.01-5.63-2.89-8.45c0-0.14,0-0.26-0.12-0.38c-0.91-2.87-1.65-5.79-2.22-8.74
			c0-0.12,0-0.26,0-0.38c-0.24-1.31-0.38-2.64-0.4-3.97V477.03h0.32V582.1c0.02,1.33,0.15,2.66,0.4,3.97c0,0.12,0,0.24,0,0.38
			c0.58,2.95,1.32,5.87,2.24,8.74c0,0.12,0.08,0.26,0.12,0.38C490.12,598.41,491.13,601.31,492.13,604.03z"/>
		<path class="st2" d="M501.26,604.03h-0.4c-1.01-2.74-2.01-5.63-2.89-8.45c0-0.14-0.08-0.26-0.11-0.38
			c-0.92-2.87-1.66-5.78-2.22-8.74c-0.03-0.13-0.06-0.25-0.08-0.38c-0.24-1.31-0.38-2.64-0.4-3.97V477.03h0.4V582.1
			c0.02,1.33,0.15,2.66,0.4,3.97c0,0.12,0,0.24,0,0.38c0.58,2.95,1.32,5.87,2.24,8.74c0,0.12,0.08,0.26,0.12,0.38
			C499.25,598.41,500.25,601.31,501.26,604.03z"/>
		<path class="st2" d="M510.39,604.03H510c-1.01-2.74-2.01-5.63-2.89-8.45c0-0.14-0.08-0.26-0.11-0.38
			c-0.92-2.87-1.66-5.78-2.22-8.74c-0.03-0.13-0.06-0.25-0.08-0.38c-0.24-1.31-0.38-2.64-0.4-3.97V477.03h0.4V582.1
			c0.02,1.33,0.15,2.66,0.4,3.97c0,0.12,0,0.24,0,0.38c0.58,2.95,1.32,5.87,2.24,8.74c0,0.12,0.08,0.26,0.12,0.38
			C508.38,598.41,509.39,601.31,510.39,604.03z"/>
		<path class="st2" d="M519.51,604.03h-0.4c-1.01-2.74-2.01-5.63-2.89-8.45c0-0.14-0.08-0.26-0.12-0.38
			c-0.93-2.88-1.69-5.82-2.27-8.79c0-0.12,0-0.26,0-0.38c-0.24-1.31-0.38-2.64-0.4-3.97V476.98h0.4v105.08
			c0.02,1.33,0.15,2.66,0.4,3.97c0,0.12,0,0.24,0,0.38c0.58,2.95,1.32,5.87,2.24,8.74c0,0.12,0.08,0.26,0.12,0.38
			C517.5,598.41,518.51,601.31,519.51,604.03z"/>
		<path class="st2" d="M528.65,604.03h-0.4c-1.01-2.74-2.01-5.63-2.89-8.45c0-0.14-0.08-0.26-0.12-0.38
			c-0.93-2.88-1.69-5.82-2.27-8.79c0-0.12,0-0.26,0-0.38c-0.24-1.31-0.38-2.64-0.4-3.97V476.98h0.4v105.08
			c0.02,1.33,0.15,2.66,0.4,3.97c0,0.12,0,0.24,0,0.38c0.58,2.95,1.32,5.87,2.24,8.74c0,0.12,0.08,0.26,0.12,0.38
			C526.64,598.41,527.65,601.31,528.65,604.03z"/>
		<path class="st2" d="M537.77,604.03h-0.4c-1.01-2.74-2.01-5.63-2.89-8.45c0-0.14-0.08-0.26-0.11-0.38
			c-0.94-2.88-1.69-5.81-2.27-8.79c-0.01-0.13-0.01-0.25,0-0.38c-0.24-1.31-0.38-2.64-0.4-3.97V476.98h0.4v105.08
			c0.02,1.33,0.15,2.66,0.4,3.97c0,0.12,0,0.24,0,0.38c0.58,2.95,1.32,5.87,2.24,8.74c0,0.12,0.08,0.26,0.12,0.38
			C535.76,598.41,536.77,601.31,537.77,604.03z"/>
		<path class="st1" d="M432.8,502.02c7.51-0.32,15.03-0.46,22.54-0.58c7.51-0.12,15.02-0.12,22.54-0.18
			c7.52-0.06,15.02,0,22.52,0.18l11.27,0.21c3.76,0.12,7.51,0.2,11.27,0.37c-3.76,0.17-7.51,0.24-11.27,0.38l-11.27,0.21
			c-7.51,0.11-15.02,0.11-22.52,0.17s-15.03,0-22.54-0.18C447.83,502.41,440.31,502.34,432.8,502.02z"/>
		<path class="st1" d="M432.8,510.97c7.51-0.3,15.03-0.46,22.54-0.58c7.51-0.12,15.02-0.12,22.54-0.18c7.52-0.06,15.02,0,22.52,0.18
			l11.27,0.21c3.76,0.12,7.51,0.2,11.27,0.37c-3.76,0.18-7.51,0.24-11.27,0.38l-11.27,0.21c-7.51,0.12-15.02,0.11-22.52,0.17
			s-15.03,0-22.54-0.17C447.83,511.4,440.31,511.29,432.8,510.97z"/>
		<path class="st1" d="M432.8,519.93c5.38-0.3,10.66-0.46,16.11-0.58c5.45-0.12,10.74-0.15,16.11-0.18c5.38-0.03,10.74,0,16.11,0.18
			l8.04,0.21c2.7,0.12,5.38,0.2,8.06,0.37c-2.68,0.18-5.36,0.26-8.06,0.38l-8.04,0.21c-5.38,0.14-10.75,0.15-16.11,0.17
			s-10.75,0-16.11-0.17S438.18,520.25,432.8,519.93z"/>
		<path class="st1" d="M432.8,537.85c3.26-0.32,6.52-0.46,9.78-0.58c3.26-0.12,6.52-0.17,9.78-0.18s6.52,0,9.79,0.17l4.89,0.21
			c1.63,0.14,3.26,0.2,4.89,0.38c-1.63,0.17-3.26,0.24-4.89,0.37l-4.89,0.21c-3.27,0.14-6.53,0.17-9.79,0.18
			c-3.26,0.02-6.52,0-9.78-0.18S436.06,538.15,432.8,537.85z"/>
		<path class="st1" d="M432.8,546.82c7.51-0.32,15.03-0.46,22.54-0.58c7.51-0.12,15.02-0.12,22.54-0.18
			c7.52-0.06,15.02,0,22.52,0.17l11.27,0.21c3.76,0.14,7.51,0.21,11.27,0.38c-3.76,0.17-7.51,0.24-11.27,0.37l-11.27,0.21
			c-7.51,0.12-15.02,0.12-22.52,0.18s-15.03,0-22.54-0.18C447.83,547.22,440.31,547.12,432.8,546.82z"/>
		<path class="st1" d="M432.8,555.76c6.38-0.3,12.75-0.46,19.13-0.58c6.38-0.12,12.75-0.12,19.13-0.18s12.75,0,19.13,0.18l9.56,0.21
			c3.18,0.12,6.38,0.2,9.56,0.37c-3.18,0.17-6.38,0.24-9.56,0.38l-9.56,0.21c-6.38,0.12-12.75,0.11-19.13,0.17
			c-6.38,0.06-12.75,0-19.13-0.18C445.55,556.15,439.21,556.08,432.8,555.76z"/>
		<path class="st1" d="M432.8,564.71c5.27-0.3,10.52-0.46,15.79-0.58c5.27-0.12,10.52-0.15,15.79-0.18s10.52,0,15.79,0.18l7.9,0.21
			c2.63,0.12,5.25,0.2,7.89,0.37c-2.63,0.18-5.25,0.26-7.89,0.38l-7.9,0.21c-5.27,0.14-10.52,0.15-15.79,0.17s-10.52,0-15.79-0.17
			S438.07,565.09,432.8,564.71z"/>
		<g class="st7">
			<polygon class="st5" points="449.04,464.07 443.49,467.68 449.75,465.27 452.11,469.21 449.58,471.42 452.81,470.37 
				453.71,471.89 450.27,474.39 454.2,472.7 454.88,473.84 408.45,501.59 406.41,498.18 410.05,495.77 405.88,497.27 405.01,495.82 
				407.74,493.87 404.55,495.04 404.13,494.34 408.47,490.82 403.03,492.51 401.55,490.03 447.99,462.3 			"/>
			<polygon class="st5" points="554.31,498.85 549.18,494.84 553.4,499.92 550.43,503.42 547.57,501.77 549.56,504.44 548.4,505.79 
				544.99,503.4 547.79,506.52 546.94,507.53 506.39,473.1 508.96,470.07 512.34,472.69 509.65,469.28 510.74,467.97 513.42,469.9 
				511.32,467.3 511.85,466.67 516.53,469.61 513.23,465.04 515.08,462.85 555.64,497.28 			"/>
		</g>
	</g>
	<g id="freepik--Bookmarks--inject-5">
		<polygon class="st3" points="624.27,422.78 538.87,422.78 519.76,409.67 538.87,396.57 624.27,396.57 		"/>
		<polygon class="st8" points="642.59,389.78 557.17,389.78 538.08,376.67 557.17,363.56 642.59,363.56 		"/>
	</g>
	<g id="freepik--Puff--inject-5">
		<path class="st2" d="M70.68,677.92l243.28,1.04c59.13-46.43,65.24-115.22,23.06-156.85c-25.54-25.22-57.96-20.13-88.83-24.15
			h-0.09c-10.9-1.13-21.51-4.23-31.31-9.14c-31.78-16.75-49.71-56.35-76.45-89.6c-3.34-4.17-6.81-8.24-10.48-12.18
			c-21.99-23.48-65.76-24.24-88.65,8.76C-16.93,479.6,9.77,604.44,70.68,677.92z"/>
		<path class="st9" d="M65.31,486c6.37,99.81,121.65,137.06,193.63,107.16c62.6-26,42.11-85.28-10.66-95.27h-0.09
			c-10.9-1.13-21.51-4.23-31.31-9.14c-31.78-16.75-49.71-56.35-76.45-89.6C100.53,378.39,60.63,412.9,65.31,486z"/>
	</g>
	<g id="freepik--Character--inject-5">
		<path class="st1" d="M149.7,349.76c17.35,16.45,29.27,59.22,20.48,86.22c-10.48,32.16-39.17,48.58-62.7,40.96
			c-21.32-6.91-30.78-28.51-22.93-44.57c7.61-15.5,22.05-21.18,24.73-35.03c1.28-6.61-0.93-17.57-0.38-27.53
			C109.88,351.74,136.17,336.97,149.7,349.76z"/>
		<path class="st1" d="M81.69,436.09c0.91-3.36,2.34-6.57,4.22-9.5c1.79-2.86,3.92-5.5,6.34-7.86c2.41-2.33,4.77-4.74,7.05-7.25
			c2.35-2.54,4.4-5.36,6.09-8.38c0.88-1.57,1.62-3.21,2.21-4.9c0.53-1.77,0.85-3.59,0.94-5.44c0.11-3.64,0.03-7.28-0.24-10.9
			c-0.23-3.56-0.06-7.14,0.52-10.66c0.82-3.46,2.23-6.76,4.16-9.75c-2.15,2.87-3.76,6.11-4.74,9.56c-0.73,3.57-1.03,7.21-0.9,10.84
			c0,3.62,0.32,7.25,0,10.77c-0.12,1.73-0.43,3.43-0.94,5.09c-0.59,1.58-1.3,3.11-2.15,4.57c-3.26,6.02-8.18,10.66-12.78,15.59
			c-2.35,2.5-4.4,5.28-6.09,8.27C83.62,429.24,82.38,432.6,81.69,436.09z"/>
		<path class="st10" d="M275.19,722.91c-3.58-1.31-84.35-65.86-85.87-70.26c-0.58-1.68,8.13-13.98,19.08-28.55
			c2.36-3.15,4.83-6.4,7.34-9.67c16.33-21.32,34.14-43.45,34.14-43.45l54.15,43.02l-35.62,42.27l-7.81,9.29
			c0,0,19.8,38.54,21.02,43.55C282.83,714.12,278.77,724.22,275.19,722.91z"/>
		<path class="st5" d="M275.19,722.91c-3.58-1.31-84.35-65.86-85.87-70.26c-0.7-2.04,12.3-19.8,26.42-38.22l52.68,41.85l-7.81,9.29
			c0,0,19.8,38.54,21.02,43.55C282.83,714.12,278.77,724.22,275.19,722.91z"/>
		<path class="st3" d="M275.19,722.91c-3.58-1.31-84.35-65.86-85.87-70.26c-0.58-1.68,8.13-13.98,19.08-28.55l52.2,41.51
			c0,0,19.8,38.54,21.02,43.55S278.77,724.22,275.19,722.91z"/>
		<path class="st1" d="M276.62,718.75c-13.28-11.15-67.87-54.82-81.84-64.89c-0.12-0.09-0.18,0-0.08,0
			c12.91,11.35,67.86,54.64,81.73,65.04C276.73,719.19,276.89,718.99,276.62,718.75z"/>
		<path class="st1" d="M278.74,702.06c-2.98-2.52-6.87-3.66-10.74-3.17c-3.45,0.41-6.6,2.13-8.8,4.81c0,0.08,0.09,0.2,0.17,0.12
			c5.35-4.75,13.19-5.4,19.25-1.6c0.05,0.02,0.12,0,0.14-0.06C278.77,702.13,278.76,702.09,278.74,702.06z"/>
		<path class="st1" d="M264.77,671.1c-5.36-4.42-13.17-7.52-20.09-5.77c-0.26,0-0.17,0.44,0,0.49c6.72,1.3,13.29,3.32,19.58,6.02
			c0.2,0.14,0.48,0.09,0.62-0.11C265.02,671.51,264.97,671.24,264.77,671.1L264.77,671.1z"/>
		<path class="st1" d="M267.65,676.06c-5.36-4.4-13.17-7.51-20.09-5.77c-0.26,0.08-0.17,0.46,0,0.5c6.72,1.3,13.29,3.32,19.58,6.02
			c0.21,0.14,0.49,0.08,0.62-0.12C267.91,676.48,267.86,676.2,267.65,676.06L267.65,676.06z"/>
		<path class="st1" d="M270.53,681.04c-5.36-4.4-13.17-7.51-20.09-5.77c-0.26,0-0.17,0.44,0,0.49c6.73,1.32,13.3,3.36,19.58,6.09
			c0.22,0.14,0.52,0.07,0.65-0.15C270.82,681.48,270.75,681.18,270.53,681.04z"/>
		<path class="st1" d="M273.41,686.02c-5.36-4.42-13.17-7.52-20.07-5.79c-0.27,0.08-0.17,0.46,0,0.5c6.72,1.3,13.29,3.32,19.58,6.02
			c0.2,0.13,0.47,0.08,0.61-0.12C273.66,686.43,273.61,686.16,273.41,686.02L273.41,686.02z"/>
		<path class="st5" d="M208.5,643.75c-6.09-4.84-13.63,4.57-7.52,9.47C207.09,658.12,214.61,648.61,208.5,643.75z"/>
		<path class="st1" d="M282.18,661.31c-0.91-4.46-6.09-4.99-9.73-3.99c-6.1,1.85-11.61,5.27-15.97,9.93
			c-0.08,0.06-0.09,0.18-0.03,0.26c0.01,0.01,0.02,0.02,0.03,0.03c-0.2,0.43-0.01,0.95,0.42,1.15c0.06,0.03,0.13,0.05,0.2,0.07
			c6,0.41,12.35,1.6,18.27,0.15C278.87,668.07,283.06,665.6,282.18,661.31z M266.32,667.52c-2.95-0.14-5.88-0.41-8.83-0.44
			c3.12-1.92,6.09-3.97,9.47-5.59c1.59-0.8,3.23-1.49,4.9-2.07c2.6-0.84,11.54-1.13,7.37,5.21
			C276.94,668.11,269.84,667.67,266.32,667.52L266.32,667.52z"/>
		<path class="st1" d="M241.38,658.49c4.14,4.49,10.08,7.04,15.23,10.02c0.42,0.2,0.92,0.02,1.11-0.4c0.04-0.08,0.06-0.17,0.07-0.25
			c0.12,0,0.23-0.08,0.2-0.21c-1.04-6.3-3.72-12.22-7.78-17.15c-2.41-2.83-7.05-5.28-10.31-2.09
			C236.64,651.61,238.96,655.87,241.38,658.49z M240.57,652.79c0-7.61,7.32-2.38,9.02-0.23c1.08,1.41,2.06,2.9,2.92,4.45
			c1.75,3.22,3.34,6.53,4.77,9.91c-2.47-1.63-5.06-3.05-7.61-4.57C246.68,660.55,240.54,656.97,240.57,652.79z"/>
		<path class="st11" d="M358.73,531.27c-3.7,28.13-73.1,109.36-81.06,118.68l-1.83,2.12l-57.35-44.09l0.65-0.85L269.66,541
			L119,540.12l57.2-44.48c0,0,4.64,2.68,14.28,1.26c33.26-4.86,108.21-15.64,125.89-14.92
			C339.18,482.86,362.14,505.44,358.73,531.27z"/>
		<path class="st1" d="M287.8,516.36c-1.87,2.12-3.61,4.36-5.21,6.69c-1.78,2.35-3.59,4.66-5.38,7.01l0,0
			c0.32-0.69,0.62-1.37,0.96-2.06c1.13-2.33,2.03-4.74,3.35-6.96c0.03-0.06,0-0.13-0.06-0.16c-0.05-0.02-0.11-0.01-0.14,0.03
			c-1.37,2.22-2.95,4.32-4.13,6.65c-0.56,1.1-1.08,2.19-1.52,3.32c-0.26,0.62-0.53,1.25-0.78,1.87c-0.12,0.29-0.23,0.59-0.32,0.9
			c-0.81,1.08-1.52,2.18-2.36,3.29c-1.71,2.47-3.2,5.07-4.92,7.51c-0.09,0.14,0.11,0.26,0.21,0.14c1.74-2.3,3.69-4.45,5.47-6.73
			s3.5-4.71,5.19-7.11s3.26-4.71,4.9-7.07c1.81-2.31,3.47-4.73,4.98-7.25C287.99,516.44,287.87,516.36,287.8,516.36z"/>
		<path class="st10" d="M149.51,442.94c8.15,15.64,39.37,65.68,56.85,67.71c11.47,1.32,56.35-7.52,63.15-19.02
			c2.94-5.01-6.02-37.05-11.94-35.16c-5.92,1.89-41.82,10.26-46.42,9.41c-4.6-0.85-41.86-36.11-55.31-44.45
			C132.66,407.05,145.12,434.52,149.51,442.94z"/>
		<path class="st8" d="M243.6,455.45l5.79,48.9c0,0-35.32,10.1-51.26,5.67c-19.39-5.38-50.79-62.44-55.19-71.8
			c-7.22-15.47-6.09-25.17,2.89-23.38c3.5,0.67,8.18,3.05,14.03,7.61c6.09,4.72,41.44,35.62,52.33,41.12
			C218.26,466.79,243.6,455.45,243.6,455.45z"/>
		<path class="st3" d="M243.6,455.45l5.79,48.91c0,0-5.86,1.68-13.89,3.35c-11.67,2.45-27.91,4.92-37.37,2.3
			c-19.37-5.38-50.79-62.44-55.19-71.82c-5.22-11.18-6.09-19.36-2.73-22.34c1.6-1.23,3.7-1.62,5.63-1.04
			c3.47,0.69,8.16,3.05,14.01,7.61c6.09,4.72,41.42,35.63,52.31,41.21C218.26,466.81,243.6,455.45,243.6,455.45z"/>
		<path class="st1" d="M240.39,504.18c-1.08-7.2-4.39-36.82-4.66-43.28c0-0.44,0.26-0.56,0.34-0.11c3.73,21.5,3.91,36.21,4.57,43.33
			C240.68,504.3,240.41,504.36,240.39,504.18z"/>
		<path class="st1" d="M142.94,438.21c4.39,9.43,35.82,66.46,55.17,71.82c4.78,1.32,11.31,1.34,18.11,0.75l-71.57-96.11
			c-1.58-0.26-3.2,0.18-4.43,1.2C136.87,418.9,137.69,427.03,142.94,438.21z"/>
		<path class="st3" d="M89.16,534.15l91.62-23.41l-9.03-33.08c0,0,7.25-10.37,4.16-20.27c-2.74-8.82-23.63-35.03-27.85-38.54
			c-7.23-5.98-20.18-7.99-27.26,0.37C91.58,453.65,89.16,534.15,89.16,534.15z"/>
		<path class="st12" d="M143.02,415.75l-24.37,6.09c0.69-0.9,1.39-1.77,2.1-2.62l0.5-0.56l17.48-4.32
			C140.21,414.66,141.64,415.14,143.02,415.75z M148.76,419.51l-34.39,8.63c-0.15,0.26-0.32,0.52-0.46,0.78l35.38-8.88
			L148.76,419.51z M153.19,424.41l-42.64,10.66c-0.47,0.94-0.94,1.92-1.4,2.89l45.81-11.45
			C154.35,425.77,153.75,425.07,153.19,424.41L153.19,424.41z M158.45,430.84l-51.94,13.04l-0.3,0.73l52.69-13.2L158.45,430.84z
			 M162.33,435.88l-58.39,14.65c-0.34,0.93-0.65,1.86-0.96,2.79l60.91-15.23C163.41,437.3,162.86,436.58,162.33,435.88
			L162.33,435.88z M167.13,442.43l-65.99,16.55c-0.09,0.23-0.16,0.46-0.21,0.7l66.55-16.75
			C167.38,442.81,167.25,442.63,167.13,442.43L167.13,442.43z M170.6,447.56l-71.3,17.89c-0.23,0.9-0.47,1.81-0.72,2.71L172,449.75
			C171.56,449.05,171.1,448.32,170.6,447.56L170.6,447.56z M174.59,454.32l-77.35,19.4c0,0.23-0.11,0.47-0.17,0.7l77.8-19.52
			C174.8,454.7,174.7,454.51,174.59,454.32L174.59,454.32z M176.46,459.85l-80.62,20.22l-0.55,2.68l81.37-20.41
			C176.66,461.51,176.59,460.67,176.46,459.85L176.46,459.85z M94.23,488.22c0,0.23-0.09,0.47-0.12,0.7l81.73-20.5
			c0-0.24,0.12-0.47,0.17-0.72L94.23,488.22z M93.16,494.49c-0.14,0.9-0.27,1.78-0.4,2.65l79.19-19.87c0.6-0.95,1.16-1.94,1.66-2.95
			L93.16,494.49z M172.94,482.23L92,502.55l-0.09,0.69l81.24-20.38L172.94,482.23z M174.47,487.85l-83.21,20.89
			c-0.11,0.9-0.21,1.77-0.3,2.62l84.21-21.14L174.47,487.85z M176.45,495.12l-86.06,21.59c0,0.23,0,0.46,0,0.69l86.35-21.66
			L176.45,495.12z M177.97,500.74l-88.11,22.11c0,0.91-0.14,1.78-0.2,2.59l89.03-22.33L177.97,500.74z M179.95,507.99l-90.61,22.75
			c0,0.23,0,0.46,0,0.67l90.9-22.84L179.95,507.99z"/>
		<path class="st1" d="M160.26,432.42c2.3,2.86,4.8,5.6,7.17,8.42c-1.05-2.07-2.1-4.13-3.24-6.09c0,0,0-0.08,0,0
			c1.72,2.38,3.19,4.93,4.39,7.61c1.79,2.11,3.41,4.35,4.87,6.7c1.81,2.73,3.11,5.77,3.84,8.97c0.57,3.26,0.43,6.6-0.41,9.79
			c-1.01,3.7-2.37,7.3-4.05,10.75c-0.21,0.46-0.9,0.12-0.73-0.34c2.25-6.09,4.8-12.52,3.79-19.05s-4.84-12.08-8.59-17.36
			c-2.22-3.24-4.64-6.34-7.25-9.27C159.94,432.45,160.17,432.3,160.26,432.42z"/>
		<path class="st1" d="M158.22,473.33c-4.19,1.52-8.26,3.36-12.18,5.48c-1.93,1.1-3.79,2.25-5.63,3.47
			c-0.93,0.61-1.86,1.17-2.8,1.74c-0.95,0.63-1.97,1.15-3.05,1.52c-0.04,0-0.08,0.03-0.08,0.08c0,0.04,0.03,0.08,0.08,0.08l0,0
			c1.07-0.22,2.11-0.52,3.14-0.9c0.98-0.4,1.93-0.86,2.85-1.37c1.96-1.08,3.87-2.25,5.83-3.35c3.94-2.22,7.87-4.45,11.97-6.38
			C158.55,473.57,158.41,473.25,158.22,473.33z"/>
		<path class="st1" d="M169.81,474.27c-3.64,0.58-7.24,1.36-10.8,2.35c-1.78,0.49-3.5,1.08-5.22,1.74c-0.82,0.3-1.63,0.62-2.44,0.96
			c-0.81,0.34-1.75,0.85-2.63,1.2c-0.11,0,0,0.18,0,0.15c0.87-0.3,1.77-0.47,2.65-0.73l2.62-0.78c1.77-0.52,3.52-1.02,5.27-1.52
			c3.5-1.07,7.01-2.09,10.55-3.05C170.08,474.51,170,474.24,169.81,474.27z"/>
		<path class="st10" d="M130.07,418.98c0.55,1.64,9.61,11.82,17.27,10.74c2.48-0.35,1.16-14.06,1.16-14.06l0.14-1.02l1.84-14.48
			l-17.65-9.14l-2.53-1.2c0,0-0.24,4.01-0.5,8.97v0.72c0,0.27,0,0.55,0,0.81c0,0.75-0.09,1.52-0.12,2.25c-0.03,0.73,0,1.14,0,1.75
			v1.8C129.52,410.4,129.65,414.7,130.07,418.98z"/>
		<path class="st1" d="M129.82,398.8c3.65,7.79,10.54,13.58,18.84,15.84l1.84-14.48l-17.65-9.14l-2.53-1.2
			C130.32,389.81,130.07,393.83,129.82,398.8z"/>
		<path class="st10" d="M168.6,374.29c6.53,24.76-7.61,31.48-12.9,32.88c-4.84,1.28-21.52,4.99-30.58-18.96
			c-9.06-23.95,0.38-34.8,11.31-38.3C147.37,346.41,162.05,349.55,168.6,374.29z"/>
		<path class="st1" d="M164.19,373.21c-0.59,0.03-1.18,0.03-1.77,0c-0.62,0.07-1.25-0.06-1.8-0.38c-0.31-0.28-0.39-0.72-0.21-1.1
			c0.48-0.67,1.27-1.02,2.09-0.93c0.83-0.04,1.64,0.23,2.27,0.76c0.37,0.39,0.36,1-0.02,1.38
			C164.59,373.09,164.4,373.19,164.19,373.21z"/>
		<path class="st1" d="M146.66,375.67c0.56-0.2,1.1-0.43,1.63-0.69c0.6-0.16,1.14-0.51,1.52-1.01c0.18-0.37,0.09-0.82-0.21-1.1
			c-0.69-0.44-1.56-0.49-2.28-0.11c-0.78,0.26-1.43,0.81-1.83,1.52c-0.26,0.46-0.1,1.05,0.36,1.31
			C146.1,375.74,146.39,375.77,146.66,375.67z"/>
		<path class="st1" d="M151.29,379.79c0,0-0.12,0.12-0.11,0.18c0.43,1.69,0.62,3.7-0.79,4.57c0,0,0,0.12,0,0.09
			C152.25,384,151.96,381.33,151.29,379.79z"/>
		<path class="st1" d="M149.38,378.35c-2.79,0.38-1.83,5.92,0.76,5.57C152.73,383.57,151.71,378.03,149.38,378.35z"/>
		<path class="st1" d="M148.35,378.83c-0.43,0.4-0.81,1.04-1.39,1.19c-0.58,0.15-1.28-0.3-1.81-0.79c0,0-0.09,0-0.09,0.09
			c0.18,1.07,0.78,2.07,1.93,2.04c1.16-0.03,1.66-1.11,1.74-2.22C148.74,378.92,148.52,378.67,148.35,378.83z"/>
		<path class="st1" d="M161.29,377.4c0,0,0.14,0,0.15,0.14c0.23,1.72,0.79,3.67,2.44,3.97v0.11
			C161.95,381.67,161.23,379.08,161.29,377.4z"/>
		<path class="st1" d="M162.53,375.36c2.73-0.67,3.87,4.84,1.34,5.45C161.34,381.42,160.23,375.92,162.53,375.36z"/>
		<path class="st1" d="M163.74,375.48c0.5,0.2,1.04,0.64,1.52,0.56s0.93-0.78,1.2-1.42c0-0.08,0,0,0.09,0
			c0.24,1.04,0.12,2.21-0.84,2.62c-0.96,0.41-1.75-0.38-2.22-1.39C163.46,375.73,163.58,375.39,163.74,375.48z"/>
		<path class="st1" d="M154.44,394.4c0.46,0.37,0.94,0.87,1.52,0.84c0.64-0.1,1.25-0.33,1.8-0.67c0,0,0.12,0,0.09,0
			c-0.41,0.76-1.21,1.22-2.07,1.22c-0.73-0.11-1.33-0.64-1.52-1.36C154.17,394.41,154.29,394.35,154.44,394.4z"/>
		<path class="st1" d="M160.36,386.92c0,0,0.84,2.5,1.07,3.7c0,0.11-0.26,0.23-0.67,0.32l0,0c-2.04,0.78-4.35,0.35-5.97-1.11
			c-0.05-0.05-0.05-0.12,0-0.17c0.04-0.04,0.09-0.05,0.14-0.03c1.74,0.77,3.68,0.95,5.53,0.53c0-0.35-1.52-4.23-1.39-4.28
			c0.95-0.09,1.92-0.06,2.86,0.11c-1.52-5.24-3.99-10.19-5.48-15.44c-0.03-0.09,0.01-0.18,0.1-0.21c0.08-0.03,0.16,0,0.2,0.08
			c2.75,5.23,4.96,10.72,6.61,16.39C163.58,387.44,160.9,387,160.36,386.92z"/>
		<path class="st1" d="M125.38,389.6c3.15-2,5.02-5.5,4.93-9.23c4.25-2.44,7.77-5.97,10.19-10.23c-0.11,0.55-0.93,4.48-1.4,6.47
			c15.85-4.81,19.51-17.76,19.51-17.76c3.41,2.51,6.21,5.75,8.19,9.49c0,0-0.99-9.94-6.82-16.04c-3.89-4.35-9.83-6.25-15.52-4.98
			c-8.36-1.08-16.64,2.5-21.58,9.34C113.63,369.3,125.38,389.6,125.38,389.6z"/>
		<path class="st1" d="M151.12,372.57c-2.45,1.71-5.14,3.05-7.98,3.96l0,0c4.41-1.75,8.25-4.69,11.09-8.5
			c1.2-1.63,2.19-3.4,2.95-5.27c0.93-2.01,1.45-4.19,1.52-6.41c0-0.17,0.24-0.17,0.24,0c0.17,2.19-0.02,4.4-0.58,6.53
			c-0.66,2.09-1.69,4.04-3.05,5.76c-1.21,1.51-2.63,2.85-4.2,3.97"/>
		<path class="st10" d="M129.57,389.08c0,0-6.87-6.91-10.11-4.34s2.89,13.28,7.36,14.12c2.31,0.6,4.67-0.79,5.27-3.1
			c0.02-0.06,0.03-0.12,0.04-0.19L129.57,389.08z"/>
		<path class="st1" d="M121.29,387.77v0.11c3.15,0.69,5.18,3.15,6.75,5.79c-0.86-1.01-2.37-1.13-3.37-0.27
			c-0.1,0.08-0.19,0.17-0.27,0.27c0,0,0,0.17,0.11,0.14c1-0.52,2.22-0.35,3.05,0.41c0.67,0.64,1.27,1.34,1.8,2.1
			c0.18,0.24,0.62,0,0.47-0.27l0,0C129.21,392.19,125.38,387.45,121.29,387.77z"/>
		<path class="st10" d="M110.17,431.92c-13.71,21.47-29.39,55.75-29.82,80c-0.21,11.83,20.25,22.58,27.72,19.01
			c17.51-8.45,41.91-27.85,51.5-40.65c3.4-4.57-32.86-34.89-35.53-29.47s-4.31,8.59-6.97,10.66c-1.31,1.02,6.4-14.92,10.28-37.25
			C132.63,403.75,115.14,424.14,110.17,431.92z"/>
		<path class="st10" d="M178.67,417.18c3.24,4.48-8.47,11.53-8.47,11.53c2.38-0.1,4.71,0.65,6.59,2.1c3.21,2.71,0.37,8.92,0.37,8.92
			c2.49,0.41,4.79,1.57,6.61,3.32c2.8,2.91,0.82,9.58,0.82,9.58c2.08,1.65,3.49,3.99,3.97,6.59c1.04,6.99-7.74,13.43-12.38,18.5
			c-4.98,5.42-14.74,10.58-18.52,14.53l-34.78-28.64c0,0,11.13-28.26,20.89-35.88C149.22,423.47,173.72,410.34,178.67,417.18z"/>
		<path class="st1" d="M170.02,428.65c-7.1,2.5-13.57,6.67-19.8,10.78c-0.14,0.09,0,0.3,0.15,0.21c6.09-4.16,13.51-6.78,19.8-10.66
			c0.09-0.04,0.13-0.15,0.09-0.24C170.22,428.64,170.11,428.6,170.02,428.65z"/>
		<path class="st1" d="M176.67,439.38c-1.56,0.73-3.01,1.65-4.32,2.76c-1.52,1.07-2.91,2.18-4.32,3.3
			c-2.86,2.23-5.66,4.55-8.39,6.96c-0.12,0.11,0,0.3,0.14,0.21c2.85-2.24,5.73-4.43,8.68-6.55c1.52-1.07,2.94-2.1,4.43-3.15
			c1.46-0.86,2.83-1.88,4.07-3.05c0.13-0.08,0.18-0.25,0.11-0.38C176.98,439.35,176.81,439.31,176.67,439.38L176.67,439.38z"/>
		<path class="st1" d="M184.47,452.72c-1.4,0.68-2.67,1.58-3.76,2.68c-1.28,1.05-2.56,2.1-3.85,3.14c-2.57,2.07-5.16,4.14-7.81,6.09
			c-0.14,0.09,0,0.3,0.15,0.21c2.7-2.01,5.44-3.97,8.12-6c1.32-0.99,2.63-1.99,3.94-3.05c1.28-0.81,2.41-1.84,3.34-3.05
			C184.59,452.75,184.55,452.71,184.47,452.72z"/>
		<path class="st1" d="M141.88,429.44c2.68-3.3,6.3-5.7,10.39-6.87c0.17,0,0.17,0,0,0.12c-3.71,1.83-7.18,4.11-10.32,6.81
			L141.88,429.44z"/>
		<path class="st3" d="M161.29,496.66l-37.81-37.23l-5.77,10.46c0,0,8.62-23.28,10.81-35.99c2.19-12.7,1.83-27.59-14.28-8.56
			c-15.78,18.64-36.91,72.41-35.83,86.35s18.81,22.37,27.73,20.77S161.29,496.66,161.29,496.66z"/>
		<path class="st1" d="M151.39,500.68c-5.28-5.01-26.15-26.3-30.35-31.2c-0.29-0.35-0.14-0.61,0.21-0.29
			c16.19,14.62,25.4,26.09,30.32,31.26C151.73,500.59,151.56,500.8,151.39,500.68z"/>
		<path class="st1" d="M90.66,507.61c2.04-3.53,4.42-6.93,6.69-10.34c2.27-3.41,4.57-6.87,6.94-10.22c2.38-3.35,4.96-6.62,7.52-9.9
			c1.26-1.64,3.75-4.84,5.03-6.47c1.28-1.63,1.4-1.25,0.2,0.52c-1.2,1.77-3.52,4.96-4.68,6.67c-2.27,3.35-4.57,6.73-6.84,10.04
			c-2.27,3.3-4.8,6.58-7.22,9.85c-2.42,3.27-4.78,6.75-7.39,9.97C90.81,507.86,90.59,507.76,90.66,507.61z"/>
		<path class="st1" d="M120.85,458.33c1.31-3.85,2.89-7.61,3.91-11.6c0-0.15,0.29-0.09,0.24,0c-0.76,2.6-1.36,5.24-2.04,7.86
			c0.07-0.1,0.14-0.21,0.2-0.32c0.59-1.01,1.17-2.04,1.74-3.05c0.08-0.14,0.29,0,0.21,0.14c-0.52,1.05-1.04,2.12-1.52,3.18
			c-0.35,0.88-0.78,1.72-1.29,2.51c-0.17,0.56-0.32,1.13-0.5,1.69c-1.18,3.87-2.63,7.65-4.34,11.31c-0.07,0.1-0.22,0.13-0.32,0.05
			c-0.07-0.05-0.1-0.13-0.09-0.22C118.17,466.02,119.52,462.15,120.85,458.33z"/>
		<path class="st1" d="M123.19,459.21c0.12-0.2,1.05,0.78,1.52,1.29c0.08,0.08,0,0.12-0.14,0c-0.14-0.12-0.65-0.37-0.94-0.61
			c-0.88,1.77-5.79,10.1-6.09,10.46s-0.3,0-0.23-0.21C117.53,469.28,122.09,461.02,123.19,459.21z"/>
		<path class="st1" d="M118.55,525.97c10.9-7.96,22.02-15.67,33.4-22.96c3.05-2.01,6.09-4.16,9.14-6.24
			c-0.34-0.21-3.41-3.47-3.5-3.59c-0.09-0.12,0-0.15,0-0.09c0.35,0.29,4.28,3.47,4.57,3.84c0.29,0.37-11.41,8.12-16.87,11.98
			c-5.47,3.87-11.21,7.54-16.89,11.19c-3.23,2.07-6.47,4.11-9.76,6.09C118.53,526.26,118.42,526.06,118.55,525.97z"/>
		<polygon class="st0" points="242.6,509.62 185.57,514.55 205.88,439.08 262.91,434.14 		"/>
		<polygon class="st3" points="246.51,509.28 189.47,514.2 209.78,438.73 266.81,433.81 		"/>
		<path class="st8" d="M215.84,438.21c-0.28,1.31-1.07,2.46-2.19,3.2c-0.52,0.34-0.72-0.37-0.21-0.69c0.73-0.47,1.27-1.19,1.52-2.03
			c0.04-0.13,0.08-0.27,0.11-0.41c0.12-0.46,0.12-0.94,0-1.4c-0.06-0.19-0.18-0.36-0.35-0.47l0,0h-0.08c-0.04,0.01-0.07,0.01-0.11,0
			c-0.13-0.04-0.27-0.04-0.4,0c-0.24,0.12-0.45,0.28-0.62,0.49c-0.2,0.25-0.37,0.52-0.5,0.81c0,0.14-0.14,0.29-0.21,0.44v0.09v0.15
			c-0.01,0.04-0.01,0.07,0,0.11l-0.81,0.08c0.15-0.54,0.37-1.05,0.65-1.52c0.43-0.79,1.19-1.35,2.07-1.52
			c0.66-0.07,1.27,0.39,1.37,1.05C216.14,437.13,216.06,437.69,215.84,438.21z"/>
		<path class="st8" d="M220.3,437.83c-0.28,1.31-1.07,2.46-2.19,3.2c-0.52,0.34-0.72-0.37-0.2-0.69c0.72-0.48,1.26-1.2,1.52-2.03
			c0-0.14,0.08-0.29,0.09-0.41c0.12-0.46,0.12-0.94,0-1.4c-0.06-0.19-0.19-0.36-0.37-0.47l0,0l0,0h-0.12c-0.13-0.04-0.27-0.04-0.4,0
			c-0.24,0.11-0.45,0.27-0.61,0.47c-0.29,0.39-0.53,0.82-0.72,1.26v0.09c0,0.05,0,0.1,0,0.15c-0.01,0.04-0.01,0.07,0,0.11h-0.81
			c0.15-0.53,0.37-1.05,0.65-1.52c0.43-0.79,1.19-1.35,2.07-1.52c0.66-0.07,1.27,0.39,1.37,1.05
			C220.66,436.71,220.55,437.3,220.3,437.83z"/>
		<path class="st8" d="M224.77,437.45c-0.28,1.31-1.06,2.45-2.18,3.18c-0.52,0.35-0.73-0.35-0.21-0.69
			c0.72-0.48,1.26-1.19,1.52-2.01c0.04-0.14,0.07-0.28,0.09-0.43c0.12-0.46,0.12-0.94,0-1.4c-0.07-0.19-0.2-0.35-0.37-0.47l0,0l0,0
			h-0.11c-0.14-0.01-0.28,0.02-0.41,0.08c-0.24,0.1-0.45,0.27-0.61,0.47c-0.21,0.24-0.38,0.51-0.5,0.81
			c-0.09,0.14-0.16,0.29-0.21,0.44v0.11c-0.01,0.05-0.01,0.1,0,0.15c0,0,0,0,0,0.09l-0.81,0.08c0.15-0.53,0.37-1.05,0.65-1.52
			c0.44-0.78,1.19-1.33,2.07-1.52c0.67-0.06,1.27,0.4,1.37,1.07C225.1,436.42,225,436.96,224.77,437.45z"/>
		<path class="st8" d="M229.23,437.05c-0.27,1.31-1.05,2.47-2.18,3.2c-0.52,0.34-0.73-0.37-0.21-0.69c0.73-0.48,1.27-1.19,1.52-2.03
			c0.04-0.13,0.07-0.27,0.09-0.41c0.12-0.46,0.12-0.94,0-1.4c-0.07-0.19-0.2-0.36-0.37-0.47l0,0h-0.08h-0.11
			c-0.13-0.04-0.27-0.04-0.4,0c-0.24,0.11-0.46,0.28-0.62,0.49c-0.21,0.24-0.38,0.51-0.5,0.81c-0.08,0.14-0.15,0.29-0.21,0.44v0.09
			v0.15c0,0,0,0,0,0.11l-0.82,0.08c0.15-0.54,0.37-1.05,0.65-1.52c0.44-0.78,1.19-1.33,2.07-1.52c0.67-0.07,1.28,0.39,1.39,1.05
			C229.52,435.98,229.44,436.54,229.23,437.05z"/>
		<path class="st8" d="M233.7,436.67c-0.28,1.31-1.07,2.46-2.19,3.2c-0.52,0.34-0.73-0.37-0.21-0.69c0.73-0.48,1.27-1.19,1.52-2.03
			c0-0.14,0.08-0.29,0.09-0.41c0.12-0.46,0.12-0.94,0-1.4c-0.06-0.2-0.19-0.37-0.37-0.47l0,0l0,0h-0.11c-0.13-0.04-0.27-0.04-0.4,0
			c-0.24,0.11-0.46,0.27-0.62,0.47c-0.2,0.25-0.37,0.53-0.5,0.82c-0.08,0.14-0.14,0.29-0.21,0.44v0.09c-0.01,0.05-0.01,0.1,0,0.15
			c0,0,0,0,0,0.11h-0.81c0.14-0.54,0.36-1.05,0.64-1.52c0.43-0.79,1.19-1.35,2.07-1.52c0.67-0.08,1.28,0.38,1.39,1.05
			C234.05,435.55,233.95,436.14,233.7,436.67z"/>
		<path class="st8" d="M238.2,436.29c-0.28,1.31-1.07,2.45-2.19,3.18c-0.52,0.35-0.73-0.35-0.21-0.69c0.72-0.47,1.26-1.18,1.52-2.01
			c0.04-0.14,0.08-0.28,0.11-0.43c0.12-0.45,0.12-0.93,0-1.39c-0.06-0.2-0.18-0.37-0.35-0.49l0,0h-0.4
			c-0.14-0.01-0.27,0.01-0.4,0.08c-0.25,0.1-0.46,0.26-0.62,0.47c-0.2,0.25-0.37,0.52-0.5,0.81c0,0.14-0.14,0.29-0.21,0.44v0.11
			c-0.01,0.05-0.01,0.1,0,0.15c0,0,0,0,0,0.09h-0.81c0.14-0.53,0.36-1.05,0.64-1.52c0.44-0.78,1.2-1.33,2.07-1.52
			c0.67-0.07,1.28,0.4,1.39,1.07C238.35,435.19,238.34,435.75,238.2,436.29z"/>
		<path class="st8" d="M242.63,435.91c-0.29,1.31-1.07,2.45-2.19,3.18c-0.52,0.34-0.72-0.37-0.21-0.69
			c0.73-0.47,1.27-1.19,1.52-2.03c0.04-0.13,0.08-0.27,0.11-0.41c0.12-0.46,0.12-0.94,0-1.4c-0.06-0.19-0.18-0.36-0.35-0.47l0,0
			h-0.08h-0.18c-0.13-0.04-0.27-0.04-0.4,0c-0.24,0.11-0.46,0.28-0.62,0.49c-0.2,0.25-0.37,0.52-0.5,0.81
			c-0.08,0.14-0.14,0.29-0.21,0.44v0.11c-0.01,0.05-0.01,0.09,0,0.14c0,0.04,0,0.07,0,0.11h-0.81c0.14-0.54,0.36-1.05,0.65-1.52
			c0.43-0.79,1.19-1.35,2.07-1.52c0.66-0.07,1.27,0.39,1.37,1.05C242.89,434.77,242.83,435.36,242.63,435.91z"/>
		<path class="st8" d="M247.09,435.51c-0.28,1.31-1.07,2.46-2.19,3.2c-0.52,0.34-0.72-0.37-0.2-0.69c0.72-0.48,1.26-1.2,1.52-2.03
			c0-0.14,0.08-0.29,0.09-0.41c0.12-0.46,0.12-0.94,0-1.4c-0.06-0.2-0.19-0.36-0.37-0.47l0,0l0,0h-0.12c-0.13-0.04-0.27-0.04-0.4,0
			c-0.24,0.11-0.45,0.27-0.61,0.47c-0.21,0.24-0.38,0.52-0.5,0.82c-0.09,0.14-0.16,0.29-0.21,0.44v0.09v0.15
			c-0.01,0.04-0.01,0.07,0,0.11h-0.81c0.15-0.53,0.37-1.04,0.65-1.52c0.43-0.79,1.19-1.35,2.07-1.52c0.66-0.07,1.27,0.39,1.37,1.05
			C247.44,434.39,247.34,434.98,247.09,435.51z"/>
		<path class="st8" d="M251.55,435.13c-0.28,1.31-1.06,2.45-2.18,3.18c-0.52,0.35-0.73-0.35-0.21-0.67c0.72-0.49,1.25-1.2,1.52-2.03
			c0.04-0.14,0.07-0.28,0.09-0.43c0.12-0.45,0.12-0.93,0-1.39c-0.07-0.2-0.2-0.37-0.37-0.49l0,0h-0.17
			c-0.14-0.01-0.28,0.02-0.41,0.08c-0.24,0.1-0.45,0.27-0.61,0.47c-0.21,0.24-0.38,0.51-0.5,0.81c-0.09,0.14-0.16,0.29-0.21,0.44
			v0.11c-0.01,0.05-0.01,0.1,0,0.15c0,0,0,0,0,0.09l-0.81,0.08c0.15-0.53,0.37-1.05,0.65-1.52c0.44-0.78,1.19-1.33,2.07-1.52
			c0.67-0.06,1.27,0.4,1.37,1.07C251.84,434.1,251.76,434.64,251.55,435.13z"/>
		<path class="st8" d="M256.01,434.75c-0.28,1.31-1.06,2.45-2.18,3.18c-0.52,0.34-0.73-0.37-0.21-0.69c0.72-0.48,1.26-1.2,1.52-2.03
			c0.04-0.13,0.07-0.27,0.09-0.41c0.12-0.46,0.12-0.94,0-1.4c-0.07-0.19-0.2-0.36-0.37-0.47l0,0l0,0h-0.11
			c-0.13-0.04-0.27-0.04-0.4,0c-0.24,0.11-0.46,0.28-0.62,0.49c-0.21,0.24-0.38,0.51-0.5,0.81c-0.08,0.14-0.15,0.29-0.21,0.44v0.11
			c-0.01,0.05-0.01,0.1,0,0.15c0,0,0,0,0,0.09l-0.82,0.08c0.15-0.54,0.37-1.05,0.65-1.52c0.44-0.78,1.19-1.33,2.07-1.52
			c0.66-0.07,1.27,0.39,1.37,1.05C256.35,433.67,256.25,434.24,256.01,434.75z"/>
		<path class="st8" d="M260.49,434.36c-0.28,1.31-1.07,2.46-2.19,3.2c-0.52,0.34-0.73-0.37-0.21-0.69c0.73-0.48,1.27-1.19,1.52-2.03
			c0.04-0.14,0.07-0.27,0.09-0.41c0.12-0.46,0.12-0.94,0-1.4c-0.06-0.2-0.19-0.37-0.37-0.47l0,0l0,0h-0.11
			c-0.13-0.04-0.27-0.04-0.4,0c-0.24,0.11-0.45,0.27-0.62,0.47c-0.2,0.25-0.37,0.53-0.5,0.82c0,0.14-0.14,0.29-0.21,0.44v0.09
			c-0.01,0.05-0.01,0.1,0,0.15c0,0,0,0.08,0,0.11h-0.81c0.14-0.54,0.35-1.05,0.64-1.52c0.43-0.79,1.19-1.35,2.07-1.52
			c0.67-0.08,1.28,0.38,1.39,1.05C260.84,433.23,260.74,433.82,260.49,434.36z"/>
		<path class="st8" d="M264.95,433.98c-0.28,1.31-1.07,2.45-2.19,3.18c-0.52,0.35-0.73-0.35-0.21-0.67c0.72-0.48,1.26-1.2,1.52-2.03
			c0-0.14,0.08-0.29,0.11-0.41c0.12-0.46,0.12-0.94,0-1.4c-0.06-0.2-0.19-0.38-0.37-0.49l0,0h-0.08h-0.11
			c-0.14-0.01-0.27,0.01-0.4,0.08c-0.25,0.1-0.46,0.26-0.62,0.47c-0.2,0.25-0.37,0.52-0.5,0.81c0,0.14-0.14,0.29-0.21,0.44v0.11
			c-0.01,0.05-0.01,0.1,0,0.15c0,0,0,0,0,0.09l-0.81,0.08c0.14-0.53,0.36-1.05,0.64-1.52c0.44-0.78,1.2-1.33,2.07-1.52
			c0.67-0.07,1.28,0.4,1.39,1.07C265.23,432.94,265.15,433.48,264.95,433.98z"/>
		<path class="st10" d="M264.89,451.93c2.92,6.23,10.31,13.98,10.89,19.07c0.39,2.56-0.95,5.08-3.29,6.18c0,0,5.06,2.56,4.83,7.25
			c-0.12,2.42-4.08,4.36-4.08,4.36s3.96,2.22,3.49,6.38c-0.37,3.32-4.28,4.77-4.28,4.77s2.8,3.9,1.34,7.16
			c-2.95,6.61-31.63,6.47-36-4.11c-2.04-4.93,4.96-4.57,4.96-4.57s-9.91-3.05-10.04-8.94c-0.12-5.89,8.94-4.81,8.94-4.81
			s-9.59-3.05-9.14-9.14c0.5-6.4,9.38-3.75,9.38-3.75s-6.35-4.36-4.89-8.97c2.39-7.61,14.42,2.04,20.73,0.58l3.53-10.37
			L264.89,451.93z"/>
		<path class="st10" d="M270.59,460.99c-2.24-6.09,5.39-13.71,4.08-19.8c-1.77-8.36-11.21-0.23-13.36,11.89v9.7L270.59,460.99z"/>
		<path class="st1" d="M271.85,500.25c0.09,0,0.12,0.12,0,0.14c-9.8,2.37-20.1,1.71-29.51-1.9c-0.3-0.12-0.23-0.65,0.12-0.59
			C252.09,500.1,261.99,500.89,271.85,500.25z"/>
		<path class="st1" d="M273.38,488.84c0.11,0,0.12,0.17,0,0.2c-9.75,2.27-22.19,1.45-32.07-4.08c-0.35-0.2-0.46-0.7,0-0.52
			C248.13,487.63,264.09,489.57,273.38,488.84z"/>
		<path class="st1" d="M241.35,471.16c9.69,4.93,19.98,6.27,30.75,6.09c0.15,0,0.14,0.2,0,0.23c-5.24,1.52-12.18,0.88-17.42,0
			c-4.95-0.78-9.6-2.83-13.51-5.97C241.03,471.38,241.15,471.06,241.35,471.16z"/>
		<path class="st10" d="M484.58,631.69c-1.32,3.56-66.14,84.14-70.55,85.65c-1.66,0.58-13.95-8.18-28.49-19.17
			c-3.14-2.38-6.37-4.86-9.64-7.39c-21.21-16.39-43.28-34.31-43.28-34.31l43.2-54.02l42.08,35.74l9.26,7.84
			c0,0,38.6-19.8,43.63-20.88C475.81,624.07,485.91,628.11,484.58,631.69z"/>
		<path class="st5" d="M484.58,631.69c-1.32,3.56-66.14,84.14-70.55,85.65c-2.04,0.7-19.8-12.37-38.07-26.56l41.94-52.58l9.26,7.84
			c0,0,38.6-19.8,43.63-20.88C475.81,624.07,485.91,628.11,484.58,631.69z"/>
		<path class="st3" d="M484.58,631.69c-1.32,3.56-66.14,84.14-70.55,85.65c-1.66,0.58-13.95-8.18-28.49-19.17l41.63-52.07
			c0,0,38.6-19.8,43.63-20.88C475.82,624.13,485.91,628.11,484.58,631.69z"/>
		<path class="st1" d="M480.42,630.24c-11.19,13.25-55.1,67.69-65.16,81.63c0,0.12,0,0.18,0.09,0.08
			c11.38-12.88,54.82-67.69,65.3-81.52C480.86,630.13,480.67,629.97,480.42,630.24z"/>
		<path class="st1" d="M463.73,628.06c-2.5,2.95-3.66,6.82-3.2,10.66c0.4,3.45,2.11,6.6,4.78,8.82c0.08,0,0.2-0.09,0.12-0.17
			c-4.73-5.37-5.35-13.21-1.52-19.25c-0.01-0.06-0.06-0.1-0.12-0.09C463.77,628.03,463.75,628.05,463.73,628.06z"/>
		<path class="st1" d="M432.73,641.94c-4.42,5.35-7.61,13.14-5.83,20.06c0,0.27,0.44,0.18,0.49,0c1.33-6.72,3.37-13.28,6.09-19.57
			c0.13-0.21,0.08-0.48-0.13-0.62C433.14,641.67,432.86,641.73,432.73,641.94L432.73,641.94z"/>
		<path class="st1" d="M437.69,639.07c-4.42,5.35-7.61,13.14-5.83,20.06c0,0.27,0.44,0.17,0.49,0c1.33-6.72,3.37-13.28,6.09-19.57
			c0.13-0.21,0.08-0.48-0.13-0.62C438.1,638.81,437.83,638.87,437.69,639.07L437.69,639.07z"/>
		<path class="st1" d="M442.7,636.21c-4.43,5.35-7.61,13.14-5.85,20.06c0,0.27,0.44,0.17,0.49,0c1.33-6.72,3.37-13.27,6.09-19.55
			c0.14-0.2,0.09-0.48-0.11-0.62C443.12,635.96,442.84,636.01,442.7,636.21z"/>
		<path class="st1" d="M447.68,633.35c-4.43,5.35-7.61,13.14-5.85,20.06c0,0.27,0.46,0.17,0.5,0c1.33-6.72,3.37-13.27,6.09-19.55
			c0.14-0.21,0.08-0.49-0.12-0.62C448.1,633.09,447.82,633.14,447.68,633.35z"/>
		<path class="st5" d="M405.21,698.11c-4.87,6.09,4.57,13.71,9.44,7.61S410.07,692.02,405.21,698.11z"/>
		<path class="st1" d="M423,624.48c-4.46,0.91-5.03,6.09-4.02,9.73c1.83,6.12,5.23,11.65,9.87,16.04c0.06,0.08,0.18,0.09,0.26,0.03
			c0.01-0.01,0.02-0.02,0.03-0.03c0.41,0.21,0.92,0.06,1.13-0.35c0.04-0.08,0.07-0.18,0.09-0.27c0.44-5.98,1.64-12.34,0.23-18.27
			C429.76,627.82,427.23,623.63,423,624.48z M429.09,640.37c-0.15,2.95-0.44,5.88-0.47,8.83c-2.01-3.07-3.87-6.23-5.56-9.49
			c-0.79-1.59-1.48-3.24-2.06-4.92c-0.84-2.6-1.08-11.54,5.22-7.36c3.56,2.31,3.11,9.41,2.94,12.93H429.09z"/>
		<path class="st1" d="M420.04,665.28c4.57-4.11,7.08-10.05,10.08-15.23c0.2-0.42,0.02-0.92-0.4-1.11
			c-0.08-0.04-0.17-0.06-0.25-0.07c0-0.12-0.08-0.23-0.21-0.2c-6.31,1.02-12.23,3.68-17.18,7.72c-2.83,2.41-5.31,7.05-2.12,10.31
			S417.41,667.7,420.04,665.28z M414.35,666.07c-7.61-0.08-2.36-7.32-0.2-9.02c1.42-1.07,2.91-2.04,4.46-2.91
			c3.23-1.75,6.54-3.33,9.93-4.74c-1.63,2.47-3.05,5.04-4.57,7.61C422.13,660,418.52,666.12,414.35,666.07z"/>
		<path class="st11" d="M415.66,630.1l-44.97,60.66L219.01,585.48l-14.63-10.14c0,0-4.14,2.79-10.37,6.23
			c-8.67,4.78-21.32,10.84-32.59,12.5c-18.82,2.79-47.21,2.48-63.09-18.73c-13.37-17.88-9.14-41.19-9.14-41.19l20.68-8.88
			c0,0,48.94-40.77,80.71-42c13.46-0.53,33.06,9.67,51.21,20.33C259.94,514.26,415.66,630.1,415.66,630.1z"/>
		<path class="st1" d="M204.37,575.34c0,0-4.14,2.79-10.37,6.23c-11.03-13.19-34.37-37.16-35.03-38.07L204.37,575.34z"/>
		<path class="st1" d="M127.77,511.63c-2.92,2.03-5.76,4.19-8.65,6.27s-5.76,3.97-8.47,6.21s-5.35,4.71-7.92,7.16
			c-1.25,1.19-2.5,2.38-3.7,3.61c-1.27,1.18-2.45,2.46-3.52,3.82c-0.09,0.12,0.09,0.27,0.21,0.2c1.37-0.98,2.68-2.04,3.91-3.18
			l4.1-3.49c2.63-2.24,5.31-4.4,7.93-6.65s5.03-4.66,7.61-6.91s5.68-4.66,8.56-6.94C127.88,511.67,127.84,511.58,127.77,511.63z"/>
		<path class="st1" d="M405.1,627.93c-2.92,3.15-5.62,6.53-8.35,9.85s-5.44,6.7-8.13,10.07c-5.39,6.73-10.83,13.43-16.13,20.24
			c-2.92,3.75-5.79,7.51-8.5,11.41c-0.12,0.17,0.15,0.37,0.3,0.21c5.79-6.38,11.1-13.19,16.48-19.9
			c5.38-6.72,10.75-13.51,16.05-20.33c2.89-3.73,5.88-7.45,8.53-11.35c0.04-0.08,0-0.18-0.08-0.22
			C405.22,627.88,405.15,627.89,405.1,627.93z"/>
		<path class="st1" d="M289.97,634.54c-7.61-5.94-24.72-17.56-32.54-23.13c-7.83-5.57-15.56-11.12-23.47-16.51
			c-2.26-1.53-4.54-3.06-6.84-4.57c-2.28-1.52-4.66-2.92-6.9-4.49c-0.12-0.09-0.24,0.12-0.12,0.21c2.06,1.52,3.99,3.12,6.09,4.64
			c2.1,1.52,3.84,2.94,5.77,4.37c3.79,2.8,7.61,5.56,11.45,8.33c7.74,5.59,15.55,11.13,23.44,16.54
			c4.48,3.05,18.27,12.18,22.84,15.08C289.87,635.14,290.2,634.75,289.97,634.54z"/>
		<path class="st1" d="M337.53,571.87c-6.97-5.77-22.84-16.89-30.18-22.23c-7.34-5.35-14.74-10.86-22.17-16.23l-22.1-15.96
			c-7.13-5.16-14.24-10.42-21.78-14.98c-4.13-2.5-8.36-4.81-12.72-6.9c-4.21-2.16-8.6-3.96-13.13-5.36
			c-0.07-0.01-0.13,0.04-0.13,0.11c0,0.04,0.01,0.08,0.04,0.1c3.72,2.09,7.61,3.82,11.38,5.83s7.39,4.07,11,6.24
			c7.48,4.57,14.54,9.7,21.64,14.8c14.76,10.66,29.47,21.32,44.32,31.71c8.31,5.86,24.88,17.95,33.5,23.33
			c0.15,0.07,0.32,0,0.38-0.14C337.63,572.08,337.61,571.96,337.53,571.87z"/>
	</g>
	<g id="freepik--Plant--inject-5">
		<path class="st3" d="M634.73,500.46c-14.89,20.18-30.46,43.58-34.2,68.88c-0.03,0.18,0.1,0.35,0.28,0.38
			c0.17,0.03,0.33-0.08,0.37-0.24c1.71-6.9,3.92-13.67,6.59-20.25c9.79-2.7,19.4-4.92,24.55-14.63c5.24-9.99,4.57-23.03,3.58-33.9
			C635.83,500.1,635.04,500.08,634.73,500.46z"/>
		<path class="st1" d="M607.92,549.03c6.7-15.02,15.23-30.09,26.21-42.44c0.08-0.08,0.18,0,0.12,0.12
			c-7.16,8.8-12.58,18.38-17.89,28.11c4.93-4.99,10.34-9.49,15.02-14.8c0.09-0.09,0.23,0,0.15,0.15
			c-4.57,5.57-9.72,11.62-15.76,15.75c-1.61,2.98-3.25,5.98-4.9,8.98c0.4-0.23,0.82-0.43,1.23-0.64c0.08,0,0.14,0.08,0.08,0.11
			c-0.47,0.24-0.93,0.49-1.4,0.69c-0.78,1.42-1.52,2.83-2.36,4.25C608.25,549.62,607.78,549.35,607.92,549.03z"/>
		<path class="st1" d="M612.9,543.77c4-2.24,7.83-4.78,11.44-7.61c0.09-0.08,0.24,0,0.14,0.14c-3.49,3.02-7.32,5.63-11.41,7.78
			C612.82,544.17,612.71,543.9,612.9,543.77z"/>
		<path class="st3" d="M598.81,565.58c0,0.15,0.13,0.27,0.28,0.27c0.15,0,0.27-0.12,0.27-0.27c0-8.33,0-16.75,0.12-25.07
			c2.13-4.31,6.72-6.7,9.9-10.14c2.29-2.53,4.29-5.31,5.95-8.28c3.83-7.11,6.17-14.93,6.88-22.98c0.88-8.91-2.5-38.32-6.26-37.29
			c-1.95,0.53-8.25,15.09-9.91,19.9c-2.71,7.93-4.7,16.08-5.94,24.37C597.06,525.73,597.32,545.86,598.81,565.58z"/>
		<path class="st1" d="M598.75,529.64L598.75,529.64c0.46-10.54,2.83-21.18,5.06-31.4c2.39-11.03,5.19-21.4,10.87-31.22
			c0.09-0.18,0.37,0,0.27,0.17c-3.78,7.64-6.7,15.67-8.73,23.95c0.38-0.59,0.84-1.16,1.23-1.72c0.15-0.21,0.52,0,0.37,0.21
			c-0.5,0.89-1.09,1.74-1.77,2.51h-0.08c-1.95,7.87-3.35,15.93-4.57,23.95l0.27-0.3c0-0.08,0.17,0,0.12,0.09l-0.49,0.79
			c-0.59,4.08-1.16,8.15-1.72,12.18c7.26-6.2,13.46-13.52,16.96-22.54l0,0c-3.43,9.35-8.83,17.65-17.15,23.33
			c-0.13,1.08-0.28,2.16-0.46,3.24c0,0.23-0.38,0.17-0.38,0c0-0.96,0-1.92,0.09-2.89c-0.09-0.09-0.08-0.24,0.01-0.32
			C598.7,529.67,598.72,529.65,598.75,529.64z"/>
		<path class="st1" d="M602.16,514.37c5.67-8.02,10.62-16.53,14.8-25.42c0-0.11,0.21,0,0.17,0c-3.31,9.35-8.29,18.02-14.68,25.6
			C602.31,514.73,602.05,514.53,602.16,514.37z"/>
		<path class="st1" d="M609.55,486.85c2.28-4.07,4.72-8.03,6.88-12.18c0-0.11,0.21,0,0.17,0.11c-1.77,4.33-4.02,8.44-6.7,12.27
			c-0.05,0.1-0.18,0.13-0.27,0.08C609.53,487.07,609.49,486.95,609.55,486.85L609.55,486.85z"/>
		<path class="st1" d="M608.65,488.63L608.65,488.63L608.65,488.63z"/>
		<path class="st3" d="M593.16,541.49c-0.11,5.52-0.76,11.02-1.93,16.42c0.08,0.59,0.17,1.19,0.26,1.8
			c1.7-5.95,2.68-12.09,2.92-18.27c0.11-0.17,0.11-0.39,0-0.56l0,0c0.24-8.3-0.38-16.6-1.84-24.78
			c-2.57-15.32-8.21-30.02-18.9-41.48c-0.31-0.27-0.78-0.25-1.05,0.06c-0.05,0.05-0.09,0.12-0.12,0.18
			c-4.31,10.95-2.8,24.03,0.87,35.03c1.99,5.92,4.85,11.52,8.47,16.61C585.52,531.59,590.19,535.87,593.16,541.49z"/>
		<path class="st1" d="M574.96,479.68c10.13,16.43,17.16,35.91,18.03,55.31c0,0.34-0.56,0.43-0.61,0c-0.24-1.74-0.52-3.47-0.79-5.19
			l0,0c-4.39-3.89-8.26-8.35-11.48-13.25c0-0.09,0.08-0.2,0.14-0.12c3.47,4.28,7.2,8.35,11.16,12.18c-0.73-4.28-1.52-8.51-2.6-12.67
			c-0.27-0.3-0.53-0.62-0.79-0.93c-0.26-0.3,0.11-0.52,0.29-0.3l0.24,0.26c-1.43-5.68-3.19-11.28-5.28-16.75
			c-2.57-3.05-5.45-5.73-7.34-9.43c0-0.09,0.08-0.15,0.14-0.08c1.52,2.12,2.97,4.25,4.68,6.21c0.69,0.78,1.43,1.52,2.15,2.27
			c-2.34-5.95-5.1-11.72-8.28-17.27c-0.04-0.12,0.03-0.25,0.15-0.29C574.82,479.61,574.9,479.63,574.96,479.68z"/>
		<path class="st1" d="M577.02,499.95c3.27,4.4,6.99,8.6,10.04,13.14c0.09,0.14-0.11,0.27-0.21,0.17
			c-3.88-3.97-7.26-8.4-10.05-13.19C576.7,499.93,576.91,499.81,577.02,499.95z"/>
		<path class="st1" d="M587.51,514.11l0.14,0.15c0.11,0.09,0,0.24-0.15,0.14l-0.14-0.14C587.27,514.17,587.42,514.02,587.51,514.11z
			"/>
		<path class="st3" d="M559.11,511.26c1.2,9.17,4.89,17.83,10.66,25.05c2.39,2.83,5.34,5.13,8.67,6.76
			c3.75,1.86,7.61,3.99,11.56,5.51c1.84,4.7,3.21,9.56,4.1,14.53c0.12-0.41,0.24-0.85,0.37-1.28c-2.48-21.4-16.33-39.69-34.04-51.43
			c-0.41-0.25-0.94-0.12-1.19,0.29C559.13,510.87,559.08,511.07,559.11,511.26z"/>
		<path class="st1" d="M565.23,517.58c-0.12-0.12,0-0.34,0.18-0.24c9.73,7.24,17.48,16.8,22.57,27.81c0.12,0.3-0.27,0.55-0.44,0.26
			c-0.82-1.43-1.68-2.85-2.53-4.22l0,0c-4.05-0.76-7.87-3.61-10.87-6.3c-0.09-0.08,0-0.2,0.12-0.12c1.54,1.41,3.26,2.62,5.12,3.59
			c1.64,0.84,3.41,1.37,5.13,2.04c-1.52-2.38-3.05-4.66-4.69-6.87c-4.38-1.66-8.48-3.97-12.18-6.84c-0.11,0,0-0.27,0.12-0.2
			c3.65,2.23,7.42,4.26,11.28,6.09c-2.47-3.26-5.13-6.37-7.96-9.3c-1.39-0.72-2.77-1.45-4.1-2.22c-0.05-0.04-0.06-0.12-0.01-0.17
			c0.02-0.03,0.05-0.04,0.09-0.04c1.11,0.38,2.17,0.89,3.15,1.52C568.66,520.73,567,519.13,565.23,517.58z"/>
		<path class="st1" d="M565.61,524.97c0.24,0.14,0.46,0.3,0.67,0.49c0.08,0,0,0.14-0.08,0.11c-0.25-0.11-0.49-0.24-0.72-0.4
			c-0.04-0.05-0.04-0.13,0.01-0.17C565.53,524.97,565.57,524.96,565.61,524.97z"/>
		<polygon class="st8" points="622.11,609.45 573.59,609.45 577.51,565.26 578.37,555.51 617.33,555.51 618.2,565.26 		"/>
		<polygon class="st1" points="618.2,565.26 577.51,565.26 578.37,555.51 617.33,555.51 		"/>
		<rect x="576.04" y="548.71" class="st8" width="43.61" height="9.64"/>
	</g>
</g>
</svg>
