<?xml version="1.0" encoding="utf-8"?>
<!-- Generator: Adobe Illustrator 24.3.0, SVG Export Plug-In . SVG Version: 6.00 Build 0)  -->
<svg version="1.1" id="Layer_1" xmlns="http://www.w3.org/2000/svg" xmlns:xlink="http://www.w3.org/1999/xlink" x="0px" y="0px"
	 viewBox="0 0 615 530" style="enable-background:new 0 0 615 530;" xml:space="preserve">
<style type="text/css">
	.st0{fill:#F7F4C5;}
	.st1{fill:none;stroke:#EFD619;stroke-width:6.4576;stroke-miterlimit:10;}
	.st2{fill:#191910;}
	.st3{fill:#010202;}
	.st4{fill:#FFFFFF;}
	.st5{fill:#B9AD45;}
	.st6{fill:#F59D18;}
	.st7{fill:#30A47D;}
	.st8{fill:#CB9917;}
	.st9{fill:#F9BC7D;}
	.st10{fill:#F5A04E;}
	.st11{fill:#F7EE80;}
	.st12{fill:#F0E314;}
	.st13{fill:#EDCA27;}
	.st14{fill:none;stroke:#B9AD45;stroke-width:5;stroke-linecap:round;stroke-linejoin:round;stroke-miterlimit:10;}
	.st15{fill:#FDDBB1;}
	.st16{fill:#A7952D;}
	.st17{fill:#009868;}
	.st18{fill:#00895A;}
	.st19{fill:#553F14;}
	.st20{fill:#F1E009;}
	.st21{fill:#725413;}
	.st22{fill:#EDC619;}
	.st23{fill:#F28B2E;}
	.st24{fill:#72220D;}
	.st25{fill:none;stroke:#72220D;stroke-linecap:round;stroke-linejoin:round;stroke-miterlimit:10;}
	.st26{fill:#EF7D82;}
	.st27{fill:#EBF5F3;}
	.st28{fill:#CB950C;}
	.st29{fill:#F0E518;}
	.st30{fill:#ECCB27;}
	.st31{fill:none;stroke:#735814;stroke-width:0.5;stroke-linecap:round;stroke-linejoin:round;stroke-miterlimit:10;}
</style>
<path class="st0" d="M529.92,378.67H141.3c-5.67,0-10.3-4.64-10.3-10.3V125.28c0-5.67,4.64-10.3,10.3-10.3h388.62
	c5.67,0,10.3,4.64,10.3,10.3v243.08C540.22,374.03,535.59,378.67,529.92,378.67z"/>
<path class="st1" d="M516.81,375.93H99.18c-6.09,0-11.07-4.98-11.07-11.07V103.64c0-6.09,4.98-11.07,11.07-11.07h417.63
	c6.09,0,11.07,4.98,11.07,11.07v261.23C527.88,370.95,522.9,375.93,516.81,375.93z"/>
<g>
	<polygon class="st2" points="85.17,212.21 74.97,231.43 119.54,364.54 312.5,326.8 322.96,311.53 	"/>
	<polygon class="st3" points="85.17,212.21 272.79,214.9 322.96,311.53 136.1,344.5 	"/>
	<polygon class="st4" points="92.8,217.53 269.6,220.06 308.96,297.08 133.31,328.07 	"/>
	<polygon class="st4" points="100.19,221.85 271.78,224.31 269.6,220.06 92.8,217.53 133.31,328.07 138.75,327.11 	"/>
	<path class="st5" d="M126.83,234.84l34.31,77.73c0.6,1.36,2.06,2.14,3.52,1.88l102.18-18.18c2.11-0.38,3.28-2.67,2.34-4.6
		l-29.22-60.05c-0.54-1.12-1.68-1.82-2.92-1.82l-107.27,0.5C127.45,230.32,125.89,232.71,126.83,234.84z"/>
</g>
<g>
	<path class="st6" d="M105.49,146.38v24.2c0,2,1.62,3.62,3.62,3.62h37.7c1.09,0,2.13,0.5,2.82,1.35l4.43,5.5
		c1.28,1.6,3.86,0.69,3.86-1.36v-5.49v-27.82c0-2-1.62-3.62-3.62-3.62h-45.2C107.11,142.77,105.49,144.38,105.49,146.38z"/>
	<path class="st4" d="M124.87,157.73c0,1.96-1.59,3.54-3.54,3.54c-1.96,0-3.54-1.59-3.54-3.54c0-1.96,1.59-3.54,3.54-3.54
		C123.28,154.19,124.87,155.77,124.87,157.73z"/>
	<circle class="st4" cx="132.17" cy="157.73" r="3.54"/>
	<circle class="st4" cx="143.01" cy="157.73" r="3.54"/>
</g>
<g>
	<path class="st7" d="M323.38,128.29v24.2c0,2-1.62,3.62-3.62,3.62h-37.7c-1.09,0-2.13,0.5-2.82,1.35l-4.43,5.5
		c-1.28,1.6-3.86,0.69-3.86-1.36v-5.49v-27.82c0-2,1.62-3.62,3.62-3.62h45.2C321.76,124.68,323.38,126.29,323.38,128.29z"/>
	<path class="st4" d="M304.01,139.64c0,1.96,1.59,3.54,3.54,3.54c1.96,0,3.54-1.59,3.54-3.54c0-1.96-1.59-3.54-3.54-3.54
		C305.59,136.1,304.01,137.68,304.01,139.64z"/>
	<circle class="st4" cx="296.71" cy="139.64" r="3.54"/>
	<circle class="st4" cx="285.86" cy="139.64" r="3.54"/>
</g>
<g>
	<path class="st5" d="M587.61,149.08v24.2c0,2-1.62,3.62-3.62,3.62h-37.7c-1.09,0-2.13,0.5-2.82,1.35l-4.43,5.5
		c-1.28,1.6-3.86,0.69-3.86-1.36v-5.49v-27.82c0-2,1.62-3.62,3.62-3.62h45.2C585.99,145.46,587.61,147.08,587.61,149.08z"/>
	<path class="st4" d="M568.23,160.43c0,1.96,1.59,3.54,3.54,3.54s3.54-1.59,3.54-3.54c0-1.96-1.59-3.54-3.54-3.54
		S568.23,158.47,568.23,160.43z"/>
	<circle class="st4" cx="560.93" cy="160.43" r="3.54"/>
	<circle class="st4" cx="550.09" cy="160.43" r="3.54"/>
</g>
<g>
	<path class="st8" d="M434.61,300.08l-7.01,102.89l117.93-0.29c0,0,2.65-117.81-37.8-139.81
		C492.76,254.72,447.24,246.68,434.61,300.08z"/>
	<g>
		<path class="st9" d="M414.87,219.76c-0.16,0.48-2.96,20.73-4.8,27.59c-1.84,6.86,4.24,36.82,24.95,23.6
			c20.71-13.22,9.75-42.31-0.18-47.86C424.9,217.54,414.87,219.76,414.87,219.76z"/>
		<path class="st10" d="M434.83,223.09c-4.8-2.68-9.63-3.55-13.33-3.73c2.32,3.83,3.66,9.64,2.53,18.54
			c-1.54,12.13-6.54,21.39-10.15,28.39c3.84,6.91,10.59,11.38,21.14,4.65C455.72,257.74,444.76,228.64,434.83,223.09z"/>
	</g>
	<g>
		<path class="st11" d="M390.25,318c0.25-0.73,13.57-13.2,9.68-13.71c-3.89-0.51-6.13,0.47-6.37-0.5s13.3-15.94,8.2-15.47
			c-5.1,0.47-11.51,5.99-11.51,5.99s4.68-6.3,0-5.21c-4.68,1.09-8.13,6.35-8.13,6.35s0.91-4-2.43-2.91
			c-3.34,1.09-11.07,17.66-11.58,27.26C367.6,329.41,388.06,324.4,390.25,318z"/>
		<g>
			<path class="st12" d="M452.41,286.87c-4.5-6.03-20.16-9.79-30.06,1.45c-9.9,11.24-31.15,60.54-30.91,59.64
				c0.23-0.9,5.54-28.91,0-33.26c-5.55-4.36-17.1-4.75-22.99,0c-5.88,4.75-23.06,75.83,0,83.54c23.06,7.72,67.02-16.69,79.26-41.16
				C459.94,332.61,462.93,300.97,452.41,286.87z"/>
			<path class="st13" d="M428.74,283.33c10.92-0.11,21.34,7.4,12.83,41.83c-15.3,61.92-61.21,75-74.44,58.32
				c-10.32-13.01-3.34-51.22,0.23-67.39c-6.59,11.07-20.7,74.86,1.08,82.15c23.06,7.72,67.02-16.69,79.26-41.16
				c12.24-24.47,15.23-56.11,4.71-70.21C448.79,282.03,437.99,278.66,428.74,283.33z"/>
		</g>
	</g>
	<path class="st3" d="M476.44,190.41c0,0-8.72-15.41-34.88-12.81c-26.15,2.6-50.86,25.25-48.31,30.62
		c2.55,5.36,11.89,5.49,10.4,8.69c-1.49,3.2-2.39,7.48,9.99,7.57c12.39,0.09,18.01,2.79,16.68,8.78c-1.33,6-4.67,16.72,0,12.54
		c4.67-4.17,3.38,9.02,0.95,18.34c-2.43,9.32,10.67,58.97,51.42,42.74c40.75-16.23,56.03-25.8,37.24-52.68
		c-8.62-12.33-26.63-11.74-27.21-26.42C492.15,213.12,492.71,190,476.44,190.41z"/>
</g>
<g>
	<polygon class="st3" points="512.32,269.54 480.91,402.97 565.09,402.43 594.96,254.94 	"/>
	<polygon class="st2" points="461.03,396.09 488.87,261.66 580.39,249.52 594.96,254.94 512.32,269.54 482.69,395.37 	"/>
	<polygon class="st2" points="459.65,402.76 480.91,402.97 512.32,269.54 488.87,261.66 	"/>
</g>
<path class="st14" d="M146.37,402.43c2.81,1.22,462.75,0,462.75,0"/>
<g>
	<path class="st15" d="M348.6,359.12l5.58,1.09c0,0-0.2,12.48-1.61,14.56c-1.41,2.08-38.3,19.27-42.51,18.89
		c-4.21-0.39-15.06-4.97-11.21-11.46C302.71,375.7,348.6,359.12,348.6,359.12z"/>
	<path class="st16" d="M310.71,374.77l-0.64,5.89c0,0-6.56,6.67,0,13c0,0-85.37-7.66-95.1-12.12c-9.72-4.45-1.86-18.7,3.74-18.76
		C224.31,362.71,310.71,374.77,310.71,374.77z"/>
	<path class="st5" d="M269.58,344.87c0,0,87.85,11.59,84.6,15.34c-3.25,3.75-30.86,19.8-44.12,20.45
		c-13.26,0.64-89.49-11.45-94.73-15.36C210.09,361.38,263.27,345.51,269.58,344.87z"/>
	<path class="st4" d="M245.69,357.99c-0.91,0.33-0.86,1.62,0.07,1.88c5.76,1.59,18.28,4.84,21.86,4.01
		c4.69-1.09,19.1-7.77,17.82-10.06c-1.29-2.28-15.21-3.94-17.82-3.43C265.59,350.79,251.78,355.78,245.69,357.99z"/>
</g>
<g>
	<g>
		<path class="st17" d="M4.98,337.78l38.29-34.13c0,0,11.48,3.91,28.47,0L48.18,360.8L4.98,337.78z"/>
		<polygon class="st7" points="71.74,303.65 21.87,335.76 60.41,416.34 98.73,382.19 		"/>
		<path class="st18" d="M21.87,335.76c-1.22,0.93-4.36,3.09-8.92,3.42c-3.7,0.27-6.57-0.78-7.97-1.41
			c12.92,26.23,25.83,52.46,38.75,78.69c1.3,0.77,4.82,2.62,9.53,2.24c3.38-0.27,5.87-1.57,7.15-2.36
			C47.56,389.48,34.72,362.62,21.87,335.76z"/>
		<path class="st15" d="M45.59,304.25c-9.81,9.09-31.98,29.46-31.98,29.46c-0.04,0.76,0.26,1.08,0.35,1.17
			c0.59,0.58,2.01,0.45,3.28-0.65c15.1-9.7,30.2-19.41,45.3-29.11C54.61,305.84,48.65,304.93,45.59,304.25z"/>
	</g>
	<path class="st4" d="M42.83,337.75l20.99-12.61c1.79-1.07,4.11-0.24,4.81,1.73l5.48,15.58c0.51,1.44-0.04,3.04-1.32,3.86
		l-20.26,13.1c-1.76,1.13-4.11,0.37-4.86-1.58l-6.21-16.06C40.87,340.27,41.45,338.57,42.83,337.75z"/>
</g>
<g>
	
		<ellipse transform="matrix(0.1622 -0.9868 0.9868 0.1622 46.8463 526.434)" class="st19" cx="333.43" cy="235.63" rx="24.46" ry="24.46"/>
	<path class="st20" d="M342.43,228.65l-8.81-5.09c-4.77-2.75-10.73,0.69-10.73,6.2v10.17c0,5.51,5.96,8.95,10.73,6.2l8.81-5.09
		C347.2,238.29,347.2,231.4,342.43,228.65z"/>
</g>
<g>
	<g>
		<polygon class="st19" points="214.61,305.57 246.78,299.84 246.83,267.15 215.74,278.08 		"/>
		<polygon class="st21" points="219.77,304.65 219.77,279.47 179.48,277.12 179.48,311.82 		"/>
	</g>
	<g>
		<path class="st9" d="M293.86,190.05c0,0,7.66-13.78,10.24-12.42c2.58,1.36,0.74,5.72,1.95,5.94c1.21,0.22,22.42-6.27,27.81-1.2
			c5.39,5.07-2.7,13.62-9.73,16.32c-7.03,2.7-19.8,6.44-19.8,6.44L293.86,190.05z"/>
		<path class="st10" d="M324.13,198.68c4.84-1.85,10.17-6.48,11.28-10.84c-2.16,1.77-4.78,3.42-7.98,4.69
			c-17.7,7.05-30.7-2.4-30.7-2.4s-0.1,1.75,0.14,4.23l7.47,10.75C304.33,205.12,317.1,201.37,324.13,198.68z"/>
	</g>
	<g>
		<path class="st20" d="M238.84,188.19c0,0,13.09,24.23,15.15,24.84c2.06,0.61,35.96-29.12,38.93-27.54
			c2.97,1.58,18.59,16.89,16.25,22.52c-2.34,5.62-44.75,34.83-52.21,34.13c-7.47-0.7-17.57-8.98-17.57-8.98
			S235.37,192.42,238.84,188.19z"/>
		<path class="st22" d="M309.17,208.01c1.49-3.57-4.26-11.03-9.41-16.42c-0.08,1.97,0.07,4.18,0.49,6.49
			c2.23,12.15-23.6,28.13-44.98,31.73c-8.22,1.38-13.55-3.48-16.99-9.99c0.53,7.5,1.1,13.35,1.1,13.35s10.1,8.28,17.57,8.98
			C264.42,242.84,306.83,213.64,309.17,208.01z"/>
	</g>
	<g>
		<path class="st20" d="M169.06,193.3c0,0,14.17-4.21,31.87-6.51c17.69-2.3,33.51-4.64,38.45-0.77c4.95,3.87-2.28,34.05,4.68,57.34
			c6.96,23.29,8.68,29.17,2.67,32.6c-6.01,3.43-34.36,14.56-55.71,6.73C169.67,274.86,169.06,193.3,169.06,193.3z"/>
		<path class="st22" d="M234.16,281.04c-19-9.36-50.52-44.4-44.48-73.57c2.3-11.13,9.74-17.74,18.61-21.64
			c-2.4,0.31-4.86,0.63-7.36,0.96c-17.69,2.3-31.87,6.51-31.87,6.51s0.61,81.56,21.96,89.4
			C205.18,287.89,222.4,284.75,234.16,281.04z"/>
	</g>
	<g>
		<path class="st9" d="M190.11,289.31c0,0,13.44,11.24,26.92,10.22c13.48-1.02,16.66-7.75,14.41-8.47
			c-2.25-0.72-15.91-6.75-13.85-8.07s11.76-6.34,7.3-7.95c-4.46-1.61-16.66-0.74-16.66-0.74L190.11,289.31z"/>
		<path class="st10" d="M211.47,294.47c-8.51-2.75-8.91-10.83-8.19-16.07l-13.17,10.91c0,0,13.44,11.24,26.92,10.22
			c11.91-0.9,15.78-6.26,14.96-7.99C228.43,293.84,220.79,297.48,211.47,294.47z"/>
	</g>
	<g>
		<path class="st20" d="M169.06,193.3c0,0-23.99,45.85-21.15,57.47c2.84,11.62,34.09,44.41,43.11,41.45
			c9.02-2.96,22.93-14.75,20.54-20.57c-2.39-5.82-35.4-34.73-35.4-34.73s13.69-19.6,13.51-29.44
			C189.49,197.62,174.88,188.26,169.06,193.3z"/>
		<path class="st22" d="M162.42,258.68c-12-15.3-1.95-41.85,8.1-55.8c4.89-6.79,10.3-6.83,14.55-5.08c-4.84-5-12.25-7.76-16.01-4.51
			c0,0-23.99,45.84-21.15,57.47c2.84,11.62,34.09,44.41,43.11,41.45c4.1-1.34,9.21-4.52,13.34-8.12
			C186.76,283.16,171.9,270.77,162.42,258.68z"/>
	</g>
	<g>
		<g>
			<path class="st9" d="M219.77,207c3.01-1.64,0.1-18.89-1.1-25.17c-1.2-6.27,2.46-11.15,2.46-11.15s-22.53,2.47-22.59,2.68
				c-0.06,0.21-0.42,10.15,0.42,13.33C199.81,189.87,216.76,208.64,219.77,207z"/>
			<path class="st23" d="M219.77,207c1.48-0.81,1.53-5.41,1.05-10.62c-0.87-0.56-1.82-1.1-2.86-1.6
				c-7.48-3.65-9.42-15.54-9.95-22.63c-4.96,0.57-9.44,1.11-9.46,1.2c-0.06,0.21-0.42,10.15,0.42,13.33
				C199.81,189.87,216.76,208.64,219.77,207z"/>
		</g>
		<path class="st3" d="M224.64,149.5c0,0,5.31-0.14,5.71-8s-12.58-15.94-19.04-15.94c-6.46,0-13.7,6.29-17.59,6.21
			c-3.89-0.08-3.66,5.18-6.21,7.01c-2.55,1.83-4.29,4.38-3.61,9.06c0.68,4.68,4.51,20.16,9.1,22.85c4.59,2.69,10.51-2,10.51-2
			L224.64,149.5z"/>
		<g>
			<path class="st9" d="M194.38,155.65c0,0,4.41,8.51,5.97,6.22c1.56-2.29,0.27-10.06,3.59-10.59c3.31-0.54,5.3-0.91,6.75-2.79
				s11.26,4.23,13.95,1.01c0,0,5.23,15.68-0.78,25.03c-6.01,9.35-29.41,4.97-29.73-3.34c-0.32-8.31-0.36-7.48-1.43-8.59
				c-1.08-1.11-5.36-4.62-3.42-8.86C191.21,149.5,193.3,152.99,194.38,155.65z"/>
			<path class="st10" d="M207.76,177.38c-10.6-4.55-7.02-17.85-3.48-26.16c-0.12,0.02-0.22,0.04-0.34,0.06
				c-3.31,0.54-2.02,8.3-3.59,10.59c-1.56,2.29-5.76-5.72-5.76-5.72c-1.08-2.66-3.38-6.65-5.32-2.41c-1.94,4.24,2.35,7.76,3.42,8.86
				c1.08,1.11,1.11,0.28,1.43,8.59c0.28,7.25,18.1,11.5,26.65,6.27C217.41,179.15,213.11,179.67,207.76,177.38z"/>
		</g>
		<circle class="st24" cx="206.32" cy="157.42" r="1.14"/>
		<circle class="st24" cx="219.39" cy="155.1" r="1.14"/>
		<path class="st25" d="M212.88,153.96c0,0-2.35,5.04,0.27,6.28c2.62,1.24,2.01,4.98,0.42,5.1"/>
		<path class="st26" d="M208.11,162.56c0.05,0.45-1.37,0.97-3.17,1.16c-1.8,0.19-3.3-0.02-3.35-0.47c-0.05-0.45,1.37-0.97,3.17-1.16
			C206.56,161.89,208.06,162.11,208.11,162.56z"/>
		<path class="st26" d="M224.23,160.66c0.1,0.44-1.26,1.11-3.03,1.49c-1.77,0.38-3.28,0.33-3.38-0.11c-0.1-0.44,1.26-1.11,3.03-1.49
			C222.63,160.16,224.14,160.21,224.23,160.66z"/>
		<g>
			<path class="st24" d="M206.71,169.7c0.03-0.55,0.42-1.02,0.97-1.11c2.76-0.42,11.18-1.63,11.89-1.08
				c0.86,0.66-0.98,8.05-5.55,8.12C209.76,175.72,206.5,174.02,206.71,169.7z"/>
			<path class="st27" d="M207.68,168.6c-0.55,0.08-0.94,0.55-0.97,1.11c-0.02,0.34,0,0.66,0.02,0.97c0.86,0.33,2.25,0.51,4.53,0.32
				c3.37-0.29,6.37-1.08,8.46-2.02c0.1-0.74,0.06-1.29-0.15-1.45C218.85,166.97,210.43,168.18,207.68,168.6z"/>
			<path class="st26" d="M214.02,175.64c2.99-0.05,4.8-3.21,5.46-5.59c-3.68-1.3-6.66,1.64-6.66,1.64c-2.45-0.61-4.44,0.3-5.53,1.01
				C208.4,174.82,210.95,175.7,214.02,175.64z"/>
		</g>
		<path class="st25" d="M218.78,150.8c0,0,2.33-0.71,3.98,1.24"/>
		<path class="st25" d="M202.28,153.96c0,0,0.76-2.3,4.04-1.93"/>
	</g>
	<g>
		<path class="st28" d="M210.72,196.73c0,0,7.54-1.35,11.14,0c3.6,1.35-0.11,12.04-1.35,14.4S210.72,196.73,210.72,196.73z"/>
		<path class="st22" d="M198.41,181.83c0,0-3.12,2.33-2.99,6.65c0.04,1.33,8.98,12.91,13.75,18.32c1.22,1.38,3.42,1.2,4.4-0.36
			c1.99-3.16,4.71-7.84,4.39-9.41C217.45,194.59,198.27,185.6,198.41,181.83z"/>
		<path class="st22" d="M218.67,181.13c0,0,1.32,8.83-0.71,15.9c1.61,3.47,4.56,6.05,7,7.71c1.7,1.16,4.01-0.05,4-2.11
			c-0.01-5.87-3.66-15.02-4.59-17.19C223.03,182.3,218.67,181.13,218.67,181.13z"/>
	</g>
</g>
<g>
	<path class="st19" d="M359.98,325.16h-10.99c-3.95,0-7.16-3.2-7.16-7.16v-4.11c0-3.95,3.2-7.16,7.16-7.16h10.99
		c3.95,0,7.16,3.2,7.16,7.16v4.11C367.13,321.96,363.93,325.16,359.98,325.16z"/>
	<g>
		<path class="st29" d="M344.4,301.8c0,0-9.37-7.89-5.62-22.87c3.75-14.98,21-18.71,28.01-16.96c7.02,1.75,15.92,9.25,10.77,23.54
			c-5.16,14.3-12.66,17.31-12.66,17.31L344.4,301.8z"/>
		<path class="st30" d="M354.8,304.96c0,0-6.61-23.13-1.71-33.59c4.9-10.46,14.49-10.75,18.07-4.45
			C374.75,273.2,364.14,304.49,354.8,304.96z"/>
		<g>
			<path class="st31" d="M346.32,270.76c0,0-0.04,2.1,0.49,2.29s2.14-2.29,2.14-2.29"/>
			<path class="st31" d="M341.22,278.64c0,0,0.17,2.42,0.45,2.42c0.28,0,1.46-2.76,1.46-2.76"/>
			<path class="st31" d="M348.2,279.09c0,0,0.15,2.08,0.75,1.97c0.6-0.11,1.33-1.97,1.33-1.97"/>
			<path class="st31" d="M344.37,286.4c0,0,0.51,2.36,1.46,1.58c0.96-0.79,1.18-2.25,1.18-2.25"/>
			<path class="st31" d="M340.15,291.01c0,0,0.28,2.31,1.07,1.58c0.79-0.73,0.96-2.31,0.96-2.31"/>
			<path class="st31" d="M348.48,291.01c0,0,1.01,2.25,1.8,1.24c0.79-1.01,1-1.97,1-1.97"/>
			<path class="st31" d="M345.05,295.85c0,0,0.9,2.19,1.69,1.74c0.79-0.45,1.24-2.03,1.24-2.03"/>
			<path class="st31" d="M355.58,264.24c0,0-0.75,1.31,0,1.46c0.75,0.15,1.39-1.65,1.39-1.65"/>
			<path class="st31" d="M363.23,266.07c0,0,0,1.88,0.75,1.88c0.75,0,1.35-2.24,1.35-2.24"/>
			<path class="st31" d="M356.11,270.57c0,0-0.71,3.26,0.26,2.7c0.98-0.56,1.39-2.7,1.39-2.7"/>
			<path class="st31" d="M367.83,271.96c0,0,0.28,3.25,1.41,2.35c1.12-0.9,1.41-2.39,1.41-2.39"/>
			<path class="st31" d="M361.08,276.44c0,0,0.28,2.59,1.29,1.8c1.01-0.79,1.58-2.81,1.58-2.81"/>
			<path class="st31" d="M355.25,282.57c0,0,0.83,1.74,1.56,1.01c0.73-0.73,1.23-2.14,1.23-2.14"/>
			<path class="st31" d="M364.62,283.36c0,0,0.02,3.26,0.71,2.36c0.69-0.9,2.1-3.12,2.1-3.12"/>
			<path class="st31" d="M358.5,289.6c0,0,0.28,1.84,1.29,1.79c1.01-0.05,2.08-1.51,2.08-1.51"/>
			<path class="st31" d="M355.25,295.79c0,0-0.17,2.64,0.61,2.25c0.78-0.39,1.9-2.25,1.9-2.25"/>
			<path class="st31" d="M365.47,296.61c0,0-0.39,1.46,0.28,1.47c0.68,0.02,1.41-1.15,1.41-1.15"/>
			<path class="st31" d="M369.8,290.9c0,0-1.46,2.42-0.56,2.81c0.9,0.39,2.19-2.08,2.19-2.08"/>
			<path class="st31" d="M372.89,283.53c0,0-1.01,2.23,0,2.35c1.01,0.12,1.52-2.12,1.52-2.12"/>
			<path class="st31" d="M374.41,275.77c0,0-0.11,3.05,0.62,2.62c0.73-0.43,1.8-2.62,1.8-2.62"/>
			<path class="st31" d="M371.88,266.15c0,0,0.45,1.97,1.13,1.8c0.68-0.17,0.9-1.8,0.9-1.8"/>
		</g>
	</g>
	<path class="st21" d="M367.87,308.74h-26.5c-1.82,0-3.3-1.48-3.3-3.3v-2.71c0-1.82,1.48-3.3,3.3-3.3h26.5c1.82,0,3.3,1.48,3.3,3.3
		v2.71C371.16,307.26,369.69,308.74,367.87,308.74z"/>
</g>
</svg>
