<?xml version="1.0" encoding="utf-8"?>
<!-- Generator: Adobe Illustrator 24.3.0, SVG Export Plug-In . SVG Version: 6.00 Build 0)  -->
<svg version="1.1" id="Layer_1" xmlns="http://www.w3.org/2000/svg" xmlns:xlink="http://www.w3.org/1999/xlink" x="0px" y="0px"
	 viewBox="0 0 615 715" style="enable-background:new 0 0 615 715;" xml:space="preserve">
<style type="text/css">
	.st0{fill:#EBEBEB;}
	.st1{fill:#FFFFFF;}
	.st2{fill:#C8C7C7;}
	.st3{fill:#DBDBDB;}
	.st4{fill:#263339;}
	.st5{fill:#FDC72A;}
	.st6{fill:#465B65;}
	.st7{fill:#F5A9A0;}
	.st8{opacity:0.1;fill:#020203;enable-background:new    ;}
</style>
<g>
	<g id="freepik--background-complete--inject-12">
		<path class="st0" d="M97.51,282.24l21.04-0.45l10.37-0.15c3.46,0,6.91,0,10.37-0.15l-0.6,0.6l-0.15-17.59l0.75,0.75l-20.89-0.15
			c-6.91,0-13.83-0.15-20.89-0.3l0.45-0.45c0,2.86-0.15,5.86-0.15,8.72L97.51,282.24z M97.51,282.24l-0.15-8.72
			c-0.15-2.86-0.15-5.86-0.15-8.87v-0.45h0.45c6.91-0.15,13.83-0.3,20.89-0.3l20.89-0.15h0.75v0.75v17.59v0.6h-0.6
			c-3.46,0-7.06,0-10.52-0.15l-10.52-0.15L97.51,282.24z"/>
		<path class="st0" d="M121.11,304.34l21.04-0.45l10.37-0.15c3.46-0.15,6.91,0,10.37-0.15l-0.6,0.6l-0.15-17.59l0.75,0.75L142,287.2
			c-6.91,0-13.83-0.15-20.89-0.3l0.45-0.45c0,2.86-0.15,5.86-0.15,8.72L121.11,304.34z M121.11,304.34l-0.15-8.72
			c0-3.01-0.15-5.86-0.15-8.87v-0.45h0.45c6.91-0.15,13.83-0.3,20.89-0.3l20.89-0.15h0.75v0.75l-0.15,17.59v0.6h-0.6
			c-3.46,0-7.06,0-10.52-0.15L142,304.49L121.11,304.34z"/>
		<path class="st0" d="M20.1,514.76l21.04-0.45l10.37-0.15c3.46,0,6.91,0,10.37,0l-0.6,0.6l-0.15-17.59l0.75,0.75L41,497.78
			c-6.91,0-13.83-0.15-20.89-0.3l0.45-0.45c0,2.86-0.15,5.71-0.15,8.72L20.1,514.76z M20.1,514.76l-0.15-8.72
			c0-3.01-0.15-5.86-0.15-8.87v-0.45h0.45c6.91,0,13.83-0.3,20.89-0.3l20.89-0.15h0.75v0.75v17.59v0.75h-0.6
			c-3.46,0-7.06,0-10.52-0.15l-10.52-0.15L20.1,514.76z"/>
		<path class="st0" d="M61.44,97.97l21.04-0.45l10.37-0.15c3.46,0,6.91,0,10.37,0l-0.6,0.6l-0.15-17.59l0.75,0.75l-20.89,0
			c-6.91,0-13.83-0.15-20.89-0.3l0.45-0.45c0,2.86-0.15,5.86-0.15,8.72L61.44,97.97z M61.44,97.97l-0.3-8.72
			c0-3.01-0.15-5.86-0.15-8.87v-0.45h0.45c6.91,0,13.83-0.3,20.89-0.3l20.89-0.15h0.75v0.75v17.59v0.6h-0.6
			c-3.46,0-7.06,0-10.52-0.15l-10.52-0.15L61.44,97.97z"/>
		<path class="st0" d="M38.14,120.21l21.04-0.45l10.37-0.15c3.46,0,6.91,0,10.37-0.15l-0.6,0.6l-0.15-17.59l0.75,0.75l-20.89-0.15
			c-6.91,0-13.83-0.15-20.89-0.3l0.45-0.45c0,2.86-0.15,5.71-0.15,8.72L38.14,120.21z M38.14,120.21l-0.15-8.72
			c0-3.01-0.15-5.86-0.15-8.87v-0.45h0.45c6.91-0.15,13.83-0.3,20.89-0.3l20.89-0.15h0.75v0.75v17.59v0.6h-0.6
			c-3.46,0-7.06,0-10.52,0l-10.52-0.15L38.14,120.21z"/>
		<path class="st0" d="M144.71,282.24l21.04-0.45l10.37-0.15c3.46,0,6.91,0,10.37-0.15l-0.6,0.6V264.5l0.75,0.75l-20.89-0.15
			c-6.91,0-13.83-0.15-20.89-0.3l0.45-0.45c0,2.86-0.15,5.86-0.15,8.72L144.71,282.24z M144.71,282.24l-0.15-8.72
			c0-2.86-0.15-5.86-0.15-8.87v-0.45h0.45c6.91-0.15,13.83-0.3,20.89-0.3l20.89-0.15h0.75v0.75l-0.15,17.59v0.6h-0.6
			c-3.46,0-7.06,0-10.52-0.15l-10.52-0.15L144.71,282.24z"/>
		<g>
			<rect x="462.45" y="57.53" class="st0" width="101.61" height="123.25"/>
			<rect x="474.02" y="68.81" class="st1" width="78.31" height="100.7"/>
			<rect x="474.02" y="68.81" class="st2" width="3.01" height="100.7"/>
			<rect x="564.06" y="57.53" class="st2" width="3.01" height="123.25"/>
			<rect x="514.91" y="92.1" class="st0" width="18.49" height="55.01"/>
			<path class="st0" d="M542.26,110.44h-50.8V81.88h50.8V110.44z M492.96,108.94h47.8V83.39h-47.8V108.94z"/>
		</g>
		<g>
			<path class="st0" d="M518.21,492.52l21.04-0.45l10.37-0.15c3.46,0,6.91,0,10.37-0.15l-0.75,0.75v-17.59l0.75,0.75l-20.89-0.15
				c-6.91,0-13.83-0.15-20.89-0.3l0.45-0.45c0,2.86-0.15,5.86-0.15,8.72L518.21,492.52z M518.21,492.52l-0.15-8.72
				c0-3.01-0.15-5.86-0.15-8.87v-0.45h0.45c6.91-0.15,13.83-0.3,20.89-0.3l20.89-0.15h0.75v0.75l-0.15,17.59v0.75h-0.6
				c-3.46,0-7.06,0-10.52,0l-10.52-0.15L518.21,492.52z"/>
			<path class="st0" d="M541.36,514.76l21.04-0.45l10.37-0.15c3.46,0,6.91,0,10.37,0l-0.75,0.6v-17.59l0.75,0.75l-20.89-0.15
				c-6.91,0-13.83-0.15-20.89-0.3l0.45-0.45c0,2.86-0.15,5.71-0.15,8.72L541.36,514.76z M541.36,514.76l-0.15-8.72
				c0-3.01-0.15-5.86-0.15-8.87v-0.45h0.45c6.91,0,13.83-0.3,20.89-0.3l20.89-0.15h0.75v0.75v17.59v0.75h-0.6
				c-3.46,0-7.06,0-10.52-0.15l-10.52-0.15L541.36,514.76z"/>
			<rect x="462.45" y="409.4" class="st0" width="101.61" height="123.25"/>
			<rect x="474.02" y="420.67" class="st1" width="78.31" height="100.7"/>
			<rect x="474.02" y="420.67" class="st2" width="3.01" height="100.7"/>
			<rect x="564.06" y="409.4" class="st2" width="3.01" height="123.25"/>
			<rect x="500.33" y="443.97" class="st0" width="18.49" height="55.01"/>
			<path class="st0" d="M542.26,462.31h-50.8v-28.56h50.8V462.31z M492.96,460.8h47.8v-25.55h-47.8V460.8z"/>
		</g>
		<g>
			<rect x="462.45" y="233.54" class="st0" width="101.61" height="123.25"/>
			<rect x="474.02" y="244.66" class="st1" width="78.31" height="100.7"/>
			<rect x="474.02" y="244.66" class="st2" width="3.01" height="100.7"/>
			<rect x="564.06" y="233.54" class="st2" width="3.01" height="123.25"/>
			<rect x="505.59" y="270.82" class="st0" width="15.78" height="39.98"/>
			<path class="st3" d="M538.81,323.42h-44.04v-29.16h44.04V323.42z M496.27,321.92h41.03v-26.15h-41.03V321.92z"/>
		</g>
		<path class="st0" d="M159.74,367.76c0,2.56-0.45,4.96-1.35,7.21c-1.2,2.4-3.01,4.36-5.41,5.56c-0.9,0.45-1.8,1.05-3.01,1.65
			c-1.2,0.6-2.4,1.35-3.61,2.25c-1.2,0.9-2.1,1.95-2.86,3.16c-0.75,1.2-1.2,2.71-1.2,4.06c0,1.05,0.15,2.1,0.6,3.01
			c0.45,0.9,1.05,1.65,1.65,2.25c0.75,0.6,1.65,1.05,2.56,1.35c0.9,0.3,1.95,0.45,2.86,0.45c1.2,0,2.25-0.15,3.31-0.6
			c0.9-0.3,1.8-0.9,2.71-1.5c0.75-0.6,1.5-1.35,2.1-2.1s1.05-1.5,1.65-2.25l7.21,4.96c-0.75,1.65-1.65,3.16-2.86,4.51
			c-1.2,1.35-2.56,2.4-4.06,3.31c-1.5,0.9-3.31,1.65-4.96,2.1c-1.8,0.45-3.61,0.75-5.41,0.75c-2.1,0-4.21-0.3-6.16-0.9
			c-1.95-0.6-3.91-1.5-5.56-2.86c-1.65-1.35-3.01-3.16-3.91-5.11c-1.05-2.25-1.65-4.81-1.5-7.36c0-1.5,0.15-3.16,0.6-4.66
			c0.45-1.35,1.05-2.56,1.8-3.76c0.75-1.05,1.65-2.1,2.71-3.01c1.05-0.9,2.25-1.8,3.61-2.56c1.05-0.6,2.25-1.35,3.31-1.95
			c1.05-0.6,2.1-1.2,3.01-2.1c0.9-0.75,1.65-1.65,2.25-2.56c0.6-1.05,0.9-2.25,0.9-3.46L159.74,367.76z M159.59,348.53v11.27h-9.17
			v-11.42L159.59,348.53z"/>
		<path class="st0" d="M447.12,324.48c0-2.56,0.45-4.96,1.35-7.21c1.2-2.4,3.01-4.36,5.41-5.56c0.75-0.45,1.8-1.05,3.01-1.65
			c1.2-0.6,2.4-1.35,3.61-2.25c1.2-0.9,2.1-1.95,3.01-3.16c0.75-1.2,1.2-2.71,1.2-4.06c0-1.05-0.15-2.1-0.6-3.01
			c-0.45-0.9-1.05-1.65-1.65-2.25c-0.75-0.6-1.65-1.05-2.56-1.35c-0.9-0.3-1.95-0.45-3.01-0.45c-1.2,0-2.25,0.15-3.31,0.6
			c-0.9,0.45-1.8,0.9-2.71,1.5c-0.75,0.6-1.5,1.35-2.1,2.1c-0.6,0.75-1.05,1.5-1.65,2.25l-7.21-4.96c0.75-1.65,1.65-3.16,2.86-4.51
			c1.2-1.35,2.56-2.4,4.06-3.31s3.16-1.65,4.96-2.1c3.76-1.05,7.82-0.9,11.72,0.15c1.95,0.6,3.91,1.5,5.41,2.86
			c1.65,1.35,3.01,3.16,3.91,5.11c1.05,2.25,1.5,4.81,1.5,7.36c0,1.65-0.15,3.16-0.6,4.66c-0.45,1.35-1.05,2.56-1.8,3.61
			s-1.65,2.1-2.71,3.01c-1.05,0.9-2.25,1.8-3.61,2.56c-1.05,0.6-2.25,1.35-3.31,1.95c-1.05,0.6-2.1,1.2-3.01,1.95
			c-0.9,0.75-1.65,1.65-2.25,2.56c-0.6,1.05-0.9,2.25-0.9,3.46L447.12,324.48z M447.27,343.72v-11.42h9.17v11.42H447.27z"/>
	</g>
	<g id="freepik--Shadow--inject-12">
		<ellipse class="st0" cx="301.77" cy="656.8" rx="170.45" ry="24.2"/>
	</g>
	<g id="freepik--speech-bubbles--inject-12">
		<path class="st1" d="M165.15,211.3c0,9.02,7.21,16.23,16.23,16.23s16.23-7.21,16.23-16.23c0-9.02-7.21-16.23-16.23-16.23l0,0
			C172.36,195.21,165.15,202.43,165.15,211.3z"/>
		<path class="st4" d="M165.15,211.3c0,4.36,1.8,8.42,4.81,11.42c3.01,3.01,7.21,4.51,11.42,4.51c4.21-0.15,8.12-1.8,10.97-4.81
			c6.01-6.16,6.01-15.93,0-21.94c-6.01-6.31-16.08-6.46-22.4-0.3C166.95,203.03,165.15,207.09,165.15,211.3z M165.15,211.3
			c0-4.36,1.65-8.42,4.66-11.57c6.31-6.61,16.83-6.76,23.45-0.3c6.61,6.46,6.76,16.98,0.3,23.45c-0.15,0.15-0.15,0.15-0.3,0.3
			c-6.46,6.31-16.98,6.31-23.45-0.3c0,0,0,0-0.15-0.15C166.8,219.86,165,215.66,165.15,211.3z"/>
		<path class="st1" d="M42.5,124.12c0,42.69,34.57,77.11,77.11,77.11s77.11-34.57,77.11-77.11s-34.57-77.11-77.11-77.11l0,0
			C76.92,46.86,42.5,81.43,42.5,124.12z"/>
		<path class="st4" d="M42.5,124.12c0,20.44,8.27,39.98,22.7,54.41c30.21,29.76,78.91,29.31,108.52-0.9
			c29.46-29.91,29.46-77.86,0-107.77C143.8,39.8,95.11,39.65,65.04,69.56C50.62,84.14,42.5,103.68,42.5,124.12z M40.33,124.12
			c0-43.88,35.69-79.42,79.58-79.42s79.42,35.69,79.42,79.58s-35.69,79.42-79.58,79.42c-32.14,0-61.19-19.47-73.4-49.14
			C42.34,144.82,40.33,134.47,40.33,124.12z"/>
		<path class="st1" d="M202.57,238.05c0,4.96,4.06,9.02,9.02,9.02s9.02-4.06,9.02-9.02s-4.06-9.02-9.02-9.02
			S202.57,233.09,202.57,238.05z"/>
		<path class="st4" d="M202.57,238.05c0,4.81,3.91,8.72,8.72,8.72c0.15,0,0.3,0,0.3,0c4.81-0.15,8.42-4.21,8.27-9.02
			c-0.15-4.51-3.76-8.12-8.27-8.27c-4.81-0.15-8.87,3.46-9.02,8.27C202.57,237.75,202.57,237.9,202.57,238.05z M202.57,238.05
			c0-2.4,0.9-4.66,2.56-6.46c1.65-1.8,4.06-2.86,6.46-3.01c5.26,0,9.32,4.21,9.32,9.32s-4.21,9.32-9.32,9.32
			c-2.4-0.15-4.81-1.2-6.46-2.86C203.48,242.71,202.57,240.46,202.57,238.05z"/>
		<path class="st5" d="M84.43,107.59l8.12,15.78l8.27-15.78h6.91l-11.87,21.34v11.42h-6.31v-11.57l-11.87-21.19H84.43z"/>
		<path class="st5" d="M133.88,134.79v5.56h-22.7v-32.77h22.25v5.71H117.5v7.82h13.83v5.11H117.5v8.57L133.88,134.79z"/>
		<path class="st5" d="M157.63,116.15c-0.3-0.3-0.75-0.6-1.2-0.9c-0.6-0.45-1.35-0.75-2.1-1.05c-0.9-0.3-1.8-0.75-2.71-0.9
			c-0.9-0.3-1.95-0.3-2.86-0.3c-1.35-0.15-2.71,0.3-3.91,1.05c-0.9,0.6-1.35,1.65-1.35,2.71c0,0.6,0.15,1.2,0.45,1.65
			c0.45,0.45,0.9,0.9,1.35,1.2c0.75,0.45,1.5,0.75,2.4,0.9c0.9,0.3,1.95,0.6,3.31,0.9c1.5,0.45,2.86,0.9,4.36,1.35
			c1.2,0.45,2.25,1.05,3.31,1.8c0.9,0.75,1.65,1.65,2.1,2.71c0.6,1.2,0.75,2.56,0.75,3.76c0,1.5-0.3,3.16-1.05,4.51
			c-0.6,1.2-1.5,2.25-2.71,3.01c-1.2,0.75-2.56,1.35-3.91,1.65c-1.5,0.3-3.01,0.6-4.66,0.6c-2.4,0-4.96-0.45-7.36-1.05
			c-2.25-0.75-4.51-1.8-6.46-3.16l2.86-5.56c0.45,0.45,0.9,0.75,1.5,1.05c0.9,0.45,1.65,0.9,2.56,1.35c1.05,0.45,2.1,0.9,3.31,1.2
			c1.2,0.3,2.4,0.45,3.76,0.45c3.46,0,5.26-1.05,5.26-3.31c0-0.6-0.15-1.35-0.6-1.8c-0.45-0.6-1.05-1.05-1.65-1.35
			c-0.9-0.45-1.8-0.75-2.71-1.05l-3.46-1.05c-1.35-0.3-2.71-0.9-4.06-1.35c-1.05-0.45-1.95-1.05-2.86-1.8
			c-0.75-0.6-1.35-1.5-1.65-2.4c-0.45-1.05-0.6-2.1-0.6-3.31c0-1.5,0.3-3.01,0.9-4.36c0.6-1.2,1.5-2.4,2.56-3.31
			c1.2-0.9,2.4-1.5,3.76-1.95c1.5-0.45,3.01-0.75,4.66-0.6c2.1,0,4.36,0.3,6.31,1.05c1.8,0.6,3.46,1.5,4.96,2.56L157.63,116.15z"/>
		<path class="st1" d="M425.93,211.3c0,9.02-7.21,16.23-16.23,16.23s-16.23-7.21-16.23-16.23c0-9.02,7.21-16.23,16.23-16.23l0,0
			C418.71,195.21,425.93,202.43,425.93,211.3z"/>
		<path class="st4" d="M425.93,211.3c0,4.36-1.65,8.42-4.66,11.57c-6.31,6.61-16.83,6.76-23.45,0.45l0,0
			c-6.61-6.31-6.76-16.83-0.45-23.45c0.15-0.15,0.3-0.3,0.45-0.45c6.61-6.31,16.98-6.16,23.45,0.3l0,0
			C424.27,202.88,425.93,207.09,425.93,211.3z M425.93,211.3c0-4.21-1.8-8.42-4.81-11.42c-6.31-6.01-16.38-5.86-22.4,0.3
			c-5.86,6.16-5.86,15.93,0,21.94c6.01,6.31,16.08,6.46,22.4,0.3C424.12,219.71,425.93,215.66,425.93,211.3z"/>
		<path class="st1" d="M548.58,124.12c0,42.69-34.57,77.11-77.11,77.11s-77.11-34.57-77.11-77.11s34.57-77.11,77.11-77.11l0,0
			C514.01,46.86,548.58,81.43,548.58,124.12z"/>
		<path class="st4" d="M550.99,124.12c0.15,44.17-35.64,79.97-79.81,80.12c-32.39,0-61.68-19.37-74.08-49.28
			c-12.4-29.91-5.58-64.47,17.36-87.41c31.31-31.15,81.83-31.15,112.98,0.15C542.77,82.58,551.14,102.88,550.99,124.12
			L550.99,124.12z M548.58,124.12c0-42.39-34.42-76.81-76.81-76.81s-76.81,34.42-76.81,76.81c0,10.07,1.95,19.84,5.71,29.16
			c16.08,39.23,61.02,57.87,100.1,41.78c18.94-7.82,33.97-22.7,41.78-41.63C546.62,144.26,548.58,134.19,548.58,124.12z"/>
		<path class="st1" d="M388.35,238.05c0,4.96-4.06,9.02-9.02,9.02s-9.02-4.06-9.02-9.02s4.06-9.02,9.02-9.02
			S388.35,233.09,388.35,238.05z"/>
		<path class="st4" d="M388.35,238.05c0,5.11-3.91,9.17-9.02,9.32c-5.26,0.3-9.62-3.61-9.92-8.87c-0.3-5.26,3.61-9.62,8.87-9.92
			c0.3,0,0.75,0,1.05,0C384.44,228.88,388.35,232.94,388.35,238.05z M388.35,238.05c0-4.81-3.91-8.57-8.57-8.72
			c-0.15,0-0.3,0-0.45,0c-4.81,0.15-8.42,4.21-8.27,9.02c0.15,4.51,3.76,8.12,8.27,8.27c4.81,0.15,8.87-3.46,9.02-8.27
			C388.35,238.35,388.35,238.2,388.35,238.05z"/>
		<path class="st4" d="M445.17,119.46v21.04h-6.31v-32.77h4.96l17.13,21.49v-21.49h6.31v32.77h-5.11L445.17,119.46z"/>
		<path class="st4" d="M488,140.65c-2.25,0-4.51-0.45-6.46-1.35s-3.61-2.25-4.96-3.76c-2.86-3.16-4.36-7.21-4.36-11.42
			c0-2.1,0.45-4.21,1.2-6.31c0.75-1.95,1.95-3.76,3.31-5.26c1.5-1.5,3.16-2.86,5.11-3.76c1.95-0.9,4.21-1.35,6.46-1.35
			s4.51,0.45,6.46,1.5c1.95,0.9,3.61,2.25,4.96,3.76c1.35,1.5,2.56,3.31,3.16,5.41c0.75,1.95,1.2,3.91,1.2,6.01s-0.45,4.21-1.2,6.31
			c-0.75,1.95-1.95,3.76-3.31,5.26c-1.5,1.5-3.16,2.86-5.11,3.61C492.36,140.2,490.26,140.65,488,140.65z M478.53,124.12
			c0,1.35,0.15,2.71,0.6,4.06c0.45,1.2,1.05,2.4,1.8,3.46c0.75,1.05,1.8,1.8,3.01,2.4c2.56,1.2,5.56,1.2,8.12,0
			c1.2-0.6,2.25-1.5,3.01-2.56c0.75-1.05,1.5-2.25,1.8-3.46c0.45-1.35,0.6-2.71,0.6-4.06c0-1.35-0.15-2.71-0.6-4.06
			c-0.45-1.2-1.05-2.4-1.95-3.46c-0.75-1.05-1.8-1.8-3.01-2.4s-2.56-0.9-4.06-0.9c-1.35,0-2.86,0.3-4.06,0.9
			c-1.2,0.6-2.25,1.5-3.01,2.56s-1.35,2.25-1.8,3.46C478.68,121.41,478.53,122.77,478.53,124.12L478.53,124.12z"/>
	</g>
	<g id="freepik--Plant--inject-12">
		<path class="st5" d="M130.13,449.98c-21.19,28.56-43.14,61.78-48.55,97.7c0,0.6,0.75,0.75,0.9,0.15
			c2.4-9.77,5.56-19.39,9.32-28.71c13.83-3.76,27.51-6.91,34.87-20.74c7.52-14.13,6.46-32.62,5.11-48.1
			C131.63,449.38,130.58,449.38,130.13,449.98z"/>
		<path class="st4" d="M92.1,518.82c9.47-21.34,21.64-42.69,37.13-60.27c0.15-0.15,0.3,0,0.15,0.15
			c-10.22,12.48-17.89,26-25.4,39.83c7.06-7.06,14.73-13.53,21.34-21.04c0.15-0.15,0.3,0,0.15,0.15
			c-6.61,7.97-13.83,16.53-22.4,22.4c-2.25,4.21-4.66,8.42-6.91,12.78c0.6-0.3,1.2-0.6,1.8-0.9c0.15,0,0.15,0.15,0.15,0.15
			c-0.6,0.3-1.35,0.75-1.95,0.9c-1.05,1.95-2.25,4.06-3.31,6.01C92.4,519.72,91.8,519.27,92.1,518.82z"/>
		<path class="st4" d="M99.16,511.46c5.71-3.16,11.12-6.76,16.23-10.82c0.15-0.15,0.3,0.15,0.15,0.15
			c-4.96,4.36-10.37,7.97-16.23,10.97c-0.15,0-0.3,0-0.3-0.15C99.01,511.61,99.01,511.46,99.16,511.46L99.16,511.46z"/>
		<path class="st5" d="M79.17,542.27c0,0.45,0.75,0.45,0.75,0c0.15-11.87,0-23.75,0.15-35.62c3.01-6.16,9.47-9.47,13.98-14.43
			c3.31-3.61,6.01-7.52,8.42-11.72c5.41-10.07,8.72-21.19,9.77-32.62c1.2-12.63-3.61-54.41-8.87-52.91
			c-2.71,0.75-11.72,21.34-14.13,28.26c-3.91,11.27-6.61,22.85-8.42,34.57C76.62,485.75,76.92,514.31,79.17,542.27z"/>
		<path class="st4" d="M79.02,491.32L79.02,491.32c0.6-15.03,4.06-30.06,7.21-44.64c3.46-15.63,7.36-30.36,15.33-44.34
			c0.15-0.3,0.6,0,0.45,0.3c-5.41,10.82-9.47,22.25-12.33,33.97c0.6-0.9,1.2-1.65,1.8-2.4c0.15-0.3,0.75,0,0.45,0.3
			c-0.75,1.2-1.5,2.4-2.56,3.61c0,0,0,0-0.15,0c-2.71,11.12-4.81,22.55-6.46,33.97c0.15-0.15,0.3-0.3,0.45-0.45s0.3,0,0.15,0.15
			c-0.15,0.45-0.45,0.75-0.6,1.2c-0.9,5.86-1.65,11.57-2.4,17.29c10.22-8.87,19.09-19.24,24.05-32.01h0.15
			c-4.81,13.23-12.48,25.1-24.35,33.07c-0.15,1.5-0.45,3.01-0.6,4.66c0,0.3-0.6,0.3-0.6,0c0-1.35,0-2.71,0.15-4.06
			C78.87,491.77,78.72,491.47,79.02,491.32z"/>
		<path class="st4" d="M83.83,469.67c7.82-11.72,15.18-23.15,21.04-36.07c0-0.15,0.3,0,0.3,0.15c-4.81,12.93-11.72,26-20.89,36.37
			C84.13,470.12,83.68,469.82,83.83,469.67z"/>
		<path class="st4" d="M94.35,430.59c3.31-5.71,6.76-11.42,9.77-17.29c0-0.15,0.3,0,0.3,0.15c-2.56,6.16-5.71,12.02-9.47,17.44
			C94.65,431.19,94.2,430.89,94.35,430.59z"/>
		<path class="st4" d="M93,433.15L93,433.15C93,433.3,93,433.15,93,433.15z"/>
		<path class="st5" d="M71.06,508.15c-0.15,7.82-1.05,15.63-2.71,23.3c0.15,0.9,0.3,1.65,0.3,2.56c2.4-8.42,3.76-17.13,4.21-26
			c0.15-0.3,0.15-0.6,0-0.75l0,0c0.3-11.72-0.6-23.6-2.56-35.17c-3.61-21.79-11.72-42.54-26.75-58.92c-0.45-0.45-1.2-0.3-1.5,0.15
			l-0.15,0.15c-6.16,15.48-4.06,34.12,1.2,49.6c2.86,8.42,6.91,16.38,12.02,23.6C60.23,494.02,66.85,500.18,71.06,508.15z"/>
		<path class="st4" d="M45.2,420.37c14.43,23.3,24.35,50.95,25.55,78.46c0,0.45-0.75,0.6-0.9,0.15c-0.3-2.4-0.75-4.96-1.05-7.36l0,0
			c-5.86-5.71-12.02-11.72-16.23-18.79c0,0,0-0.15,0.15-0.15h0.15c5.11,5.86,10.07,12.02,15.78,17.29
			c-1.05-6.01-2.25-12.02-3.76-18.04l-1.2-1.35c-0.3-0.3,0.15-0.75,0.45-0.45l0.3,0.45c-1.95-8.12-4.51-16.08-7.52-23.9
			c-3.61-4.36-7.82-8.12-10.37-13.38c0,0,0-0.15,0.15-0.15h0.15c2.1,3.01,4.21,6.01,6.61,8.87c0.9,1.05,1.95,2.1,3.01,3.16
			c-3.31-8.42-7.21-16.68-11.72-24.5c-0.15-0.15,0-0.3,0.15-0.45S45.2,420.22,45.2,420.37L45.2,420.37z"/>
		<path class="st4" d="M48.21,449.23c4.66,6.31,9.92,12.17,14.28,18.64c0.15,0.15-0.15,0.3-0.3,0.15
			c-5.56-5.26-10.22-12.33-14.28-18.64C47.76,449.23,48.06,448.93,48.21,449.23z"/>
		<path class="st4" d="M63.09,469.22l0.15,0.15c0,0.15,0,0.15,0,0.15h-0.15h-0.3v-0.15C62.79,469.37,62.94,469.22,63.09,469.22z"/>
		<path class="st5" d="M22.81,465.16c1.2,12.02,7.52,26.3,15.18,35.62c3.46,4.06,7.52,7.21,12.33,9.62
			c5.26,2.71,10.82,5.71,16.38,7.82c2.56,6.61,4.51,13.53,5.86,20.59c0.15-0.6,0.3-1.2,0.45-1.8c-3.61-30.36-23.15-56.36-48.25-72.9
			c-0.6-0.45-1.35-0.3-1.65,0.3C22.81,464.56,22.81,464.86,22.81,465.16z"/>
		<path class="st4" d="M31.53,474.18c-0.15-0.15,0-0.45,0.3-0.3c13.83,10.22,24.8,23.9,32.01,39.53c0.15,0.45-0.45,0.75-0.6,0.3
			c-1.2-2.1-2.4-4.06-3.61-6.01l0,0c-5.71-1.05-11.12-5.11-15.48-9.02c-0.15-0.15,0-0.3,0.15-0.15c2.25,1.95,4.66,3.76,7.21,5.11
			c2.4,1.2,4.81,1.95,7.21,2.86c-2.1-3.31-4.36-6.61-6.61-9.77c-6.16-2.4-12.02-5.56-17.29-9.77c-0.15-0.15,0-0.3,0.15-0.3
			c5.26,3.16,10.52,6.01,16.08,8.57c-3.46-4.66-7.21-9.02-11.27-13.23c-1.95-1.05-3.91-2.1-5.86-3.16c-0.15-0.15,0-0.3,0.15-0.3
			c1.65,0.6,3.16,1.35,4.51,2.25C36.34,478.69,33.93,476.43,31.53,474.18z"/>
		<path class="st4" d="M31.98,484.7c0.3,0.15,0.6,0.45,0.9,0.75c0.15,0.15,0,0.15-0.15,0.15c-0.3-0.15-0.75-0.3-1.05-0.6
			c-0.15,0-0.15-0.15,0-0.3C31.83,484.7,31.98,484.7,31.98,484.7z"/>
		<polygon class="st6" points="112.24,604.49 43.25,604.49 48.81,541.82 50.16,527.99 105.33,527.99 106.68,541.82 		"/>
		<polygon class="st4" points="106.68,541.82 48.81,541.82 50.16,527.99 105.33,527.99 		"/>
		<rect x="46.86" y="518.37" class="st6" width="61.93" height="13.68"/>
	</g>
	<g id="freepik--Table--inject-12">
		<polygon class="st4" points="27.02,604.65 95.71,604.19 164.4,604.04 301.77,603.89 439.15,604.04 507.84,604.19 576.53,604.65 
			507.84,604.95 439.15,605.1 301.77,605.4 164.4,605.1 95.71,604.95 		"/>
	</g>
	<g id="freepik--Character--inject-12">
		<path class="st4" d="M378.58,473.73l-13.38-1.35c-0.15-3.61-0.9-7.06-1.95-10.52c-4.66-13.23-14.88-24.05-22.7-34.87
			c0,0-0.15,0,0,0c7.82,11.12,13.68,23.45,17.44,36.52c0.75,2.71,1.05,5.41,1.2,8.12l-8.27-0.9c0-7.97-1.8-15.93-5.41-23
			c-0.15-0.15-0.45,0-0.3,0.3c3.01,7.21,3.31,14.73,2.86,22.55l-72.3-7.67c-0.75-6.61-1.05-13.38-0.75-19.99
			c0-0.3-0.15-0.6-0.45-0.6s-0.6,0.15-0.6,0.45v0.15c-0.45,6.61-0.45,13.23,0,19.84l-6.01-0.6c-0.3-11.42,0.75-22.85,3.46-33.97
			c0-0.15,0-0.3-0.15-0.45c-0.15,0-0.3,0-0.45,0.15c0,0,0,0,0,0.15c-3.16,10.97-5.26,22.4-6.01,33.82l-50.05-5.26
			c3.46-7.06,6.31-14.28,8.42-21.79c0.15-0.6-0.75-0.9-0.9-0.3c-2.71,7.67-6.16,14.88-10.52,21.79l-7.36-0.75
			c6.61-12.33,11.72-25.25,13.53-38.93c0-0.6-0.75-0.6-0.9-0.15c-2.86,14.73-10.82,26.6-18.94,38.33l-18.79-1.95
			c7.36-10.97,19.39-20.74,21.79-34.12c2.71-15.03-10.67-23.15-14.13-36.22c-5.71-21.79,6.16-36.98,20.74-50.8
			c13.38-12.78,13.08-28.26,17.13-45.24c3.01-12.48,7.52-26.3,14.88-36.98c22.7-32.77,59.22-25.55,59.22-25.1
			c8.57,0.75,16.68,3.76,23.6,8.72c0,0,0,0,0.15,0c0.45,0.3,0.9,0.75,1.35,1.05c7.82,6.46,13.98,14.73,17.74,24.2v0.15
			c1.35,3.01,2.4,6.16,3.46,9.32c1.8,5.71,1.65,13.53,3.01,22.55c0,0.15,0,0.3,0,0.6c1.95,16.23,9.92,31.26,22.55,41.78
			c19.09,16.83,12.02,41.63-5.71,65.68c-7.52,10.22-8.12,17.13-5.86,23.15c0,0,0,0,0,0.15c0.3,0.75,0.75,1.5,1.05,2.25
			c3.61,6.76,10.37,12.78,14.58,21.94C379.03,454.49,379.48,464.26,378.58,473.73z"/>
		<path class="st4" d="M266.75,227.08c-15.63,7.06-27.81,20.14-33.82,36.22c-4.96,12.93-6.16,27.05-12.48,39.38
			c-5.86,11.72-15.63,20.14-23.6,30.06c-10.52,13.08-17.74,29.46-10.52,45.54c4.51,9.92,15.03,20.29,13.68,32.62
			c-1.5,14.28-14.73,27.51-22.25,39.08c-0.3,0.6,0.45,1.2,0.9,0.75c9.92-12.93,26.9-29.61,22.55-47.65
			c-1.95-8.27-7.06-14.73-10.82-21.79c-7.52-13.83-4.96-28.11,3.91-41.33c12.17-17.89,27.36-29.01,33.52-51.1
			c3.46-12.63,5.41-25.7,12.63-36.82c6.46-10.37,15.78-18.64,26.75-23.9C267.51,227.83,267.2,226.93,266.75,227.08z"/>
		<path class="st4" d="M369.26,442.17c-5.11-7.97-11.57-13.83-7.97-25.25c2.4-7.82,8.42-14.28,12.48-21.19
			c10.37-17.13,16.98-38.93,8.57-57.57c-4.66-10.52-13.53-13.53-20.74-21.49c-8.72-9.62-11.42-23.75-13.68-36.82
			c-3.46-19.54-7.97-41.94-27.81-47.5c-0.15,0-0.3,0.3,0,0.3c25.1,8.87,23.3,41.48,29.46,64.48c2.1,7.82,5.26,15.33,10.52,21.19
			c8.27,9.17,18.79,12.63,22.55,26.45c3.61,12.78,1.05,26.6-4.36,38.93c-4.66,10.67-12.63,19.39-17.13,30.06
			c-2.71,6.31-3.61,13.08-0.6,19.24c2.25,4.81,6.46,8.12,9.02,12.78c3.31,6.46,4.51,13.53,3.76,20.74c0,0.75,0.9,0.75,1.05,0
			C375.72,457.95,373.77,449.38,369.26,442.17z"/>
		<path class="st7" d="M306.43,424.58c36.52,64.48,130.77,155.27,158.72,140.84c34.27-17.74,40.73-106.42,38.18-126.41
			c-1.5-12.02-95.44-9.77-93.19,3.01c1.35,7.52,4.21,15.48,2.56,14.43c-5.56-3.01-19.69-16.53-72-55.46
			C311.7,379.34,282.24,381.89,306.43,424.58z"/>
		<path class="st4" d="M419.01,511.01c-3.31-8.72-10.82-32.92-5.71-55.46c0-0.3,0.3-0.15,0.3,0c-1.95,18.79,3.01,46.59,5.71,55.31
			C419.31,511.16,419.01,511.31,419.01,511.01z"/>
		<path class="st7" d="M491.61,377.83c9.02,17.13,13.83,59.22,10.97,69.89s-74.25,21.04-82.37,13.38s-33.97-67.79-30.21-87.18
			C393.76,354.54,482.29,360.1,491.61,377.83z"/>
		<path class="st7" d="M397.67,329.89c-4.66-7.67-24.35-28.26-30.96-24.05c-6.61,4.21,3.46,21.49,7.82,28.41
			c9.02,14.28,13.38,37.13,15.33,48.25c1.95,11.12,25.55-4.96,25.55-4.96S409.84,349.73,397.67,329.89z"/>
		<path class="st7" d="M400.22,396.77c0,0,2.86,19.69,14.13,21.64c10.67,1.8,11.57-14.28,11.72-15.48
			c0.15,1.05,3.31,19.09,14.73,19.84c11.87,0.75,9.92-15.63,9.77-16.68c0.45,0.9,6.76,13.23,15.63,11.87
			c15.18-2.4-0.15-33.97,4.36-45.54c0,0,20.44,5.56,21.04,5.56c0,0-13.98-30.51-29.76-35.77c-4.81-1.65-10.07,0.15-12.63,4.51
			c0,0-3.46-10.37-12.33-11.27c-4.66-0.45-9.47,6.46-9.47,6.46s-3.01-8.12-11.12-8.42c-6.46-0.3-11.12,6.76-12.02,9.77
			C396.62,365.36,400.22,396.77,400.22,396.77z"/>
		<path class="st4" d="M405.18,341.01c0-0.15-0.15-0.3-0.3-0.15c-6.91,17.29-9.32,38.33-4.81,56.36c0.15,0.6,1.2,0.6,1.2,0
			C400.22,377.68,400.83,360.25,405.18,341.01z"/>
		<path class="st4" d="M427.28,341.46c0-0.15-0.3-0.3-0.3,0c-7.06,17.89-9.17,41.63-1.5,61.93c0.3,0.75,1.2,1.05,0.9,0.3
			C422.32,389.71,423.22,358.75,427.28,341.46z"/>
		<path class="st4" d="M451.48,407.14c-6.61-19.69-6.16-39.68-2.71-59.97c0-0.3-0.3-0.3-0.45-0.15c-4.36,9.47-5.11,22.7-4.96,33.07
			c0,9.62,2.56,18.94,7.36,27.36C451.03,407.75,451.78,407.6,451.48,407.14z"/>
		<path class="st4" d="M400.22,396.77c0.9,3.76,2.1,7.36,3.76,10.82c1.35,3.46,3.61,6.46,6.61,8.72c1.35,0.9,3.16,1.35,4.81,1.2
			c1.65-0.3,3.31-0.9,4.66-1.95c2.56-2.25,4.06-5.56,4.06-9.17l0.3-8.42l2.56,7.97c1.2,3.61,2.86,6.91,4.96,9.92
			c2.25,2.86,5.11,5.26,8.42,5.41c3.31,0.45,6.46-1.35,7.52-4.51c1.2-3.46,1.5-7.06,0.9-10.67l-1.35-9.77l4.51,8.87
			c1.2,2.4,2.86,4.81,4.66,6.76c1.65,1.95,3.91,3.46,6.31,4.21c2.25,0.6,4.81-0.15,6.31-1.95c1.5-2.25,2.25-4.81,2.25-7.52
			c0.15-5.71-0.3-11.57-1.05-17.29c-0.3-2.86-0.6-5.86-0.75-8.72c-0.3-2.86,0-5.86,0.75-8.72c-0.6,2.86-0.6,5.71,0,8.57
			c0.45,2.86,0.9,5.71,1.5,8.57c1.2,5.71,1.95,11.57,2.1,17.59c0.15,3.16-0.75,6.31-2.4,9.02c-2.1,2.86-5.86,4.06-9.32,3.31
			c-3.16-0.9-6.01-2.56-8.12-5.11c-2.1-2.25-3.91-4.81-5.26-7.52l3.16-1.05c0.75,4.21,0.45,8.57-0.9,12.63
			c-0.9,2.25-2.4,4.06-4.51,5.26c-2.1,1.05-4.36,1.5-6.61,1.35c-4.66-0.45-8.27-3.61-10.67-6.91c-2.4-3.31-4.21-7.06-5.26-10.97
			l3.01-0.3c-0.15,4.36-2.25,8.27-5.56,10.97c-1.8,1.2-3.76,1.95-5.86,2.1c-2.1,0.15-4.36-0.45-6.01-1.8
			c-3.31-2.56-5.11-6.31-6.46-9.92C401.73,404.29,400.83,400.53,400.22,396.77z"/>
		<path class="st7" d="M414.05,451.48c0,0-63.73-51.55-31.41-66.59c9.62-4.51,54.41-11.27,56.06-2.25
			c1.95,11.57-16.23,17.89-28.26,20.14c0,0,24.2,14.58,19.09,34.42C426.38,449.38,414.05,451.48,414.05,451.48z"/>
		<path class="st4" d="M380.08,386.25c3.61-2.25,7.36-3.91,11.42-4.96c4.06-1.2,8.12-2.1,12.17-2.71c8.27-1.35,16.68-2.1,25.1-1.95
			c2.25,0,4.51,0.3,6.61,1.05c1.2,0.45,2.4,1.05,3.31,1.95c0.6,0.45,0.9,1.05,1.35,1.65c0.3,0.6,0.6,1.35,0.6,1.95
			c0.3,2.56-0.15,5.11-1.5,7.21c-1.2,1.95-2.86,3.61-4.66,5.11c-3.46,2.56-7.36,4.51-11.57,5.71c-4.06,1.35-8.12,2.25-12.33,3.01
			l0.45-2.71c2.71,1.8,5.26,3.76,7.52,6.01s4.36,4.66,6.16,7.21c1.8,2.71,3.16,5.56,4.21,8.57c0.9,3.01,1.35,6.16,1.05,9.32
			c-0.15-3.16-0.9-6.16-2.1-9.02c-1.2-2.86-2.71-5.41-4.66-7.82c-1.95-2.4-4.06-4.66-6.31-6.61s-4.81-3.76-7.36-5.26l-3.31-1.8
			l3.76-0.9c4.06-0.75,7.97-1.95,11.72-3.16c3.76-1.2,7.36-3.01,10.52-5.41c3.01-2.25,5.41-5.71,4.81-8.87
			c-0.3-2.86-4.81-3.61-8.72-3.91c-4.06-0.15-8.12-0.15-12.17,0c-4.21,0.15-8.27,0.45-12.33,0.75
			C396.02,381.74,387.6,382.79,380.08,386.25z"/>
		<path class="st5" d="M352.43,508.9l41.63-73.05c0,0-48.4-39.08-77.71-53.66c-16.38-8.27-23.15,4.36-18.34,20.29
			C314.1,458.25,352.43,508.9,352.43,508.9z"/>
		<path class="st5" d="M352.43,508.9l41.63-73.05c0,0-48.4-39.08-77.71-53.66c-16.38-8.27-23.15,4.36-18.34,20.29
			C314.1,458.25,352.43,508.9,352.43,508.9z"/>
		<path class="st1" d="M296.51,390.61c0,0.45-0.15,0.9-0.15,1.35c0.15,0.45,0.3,1.05,0.3,1.5s-0.15,0.9-0.3,1.35
			c0,0.45,0,0.9,0.15,1.5c0.6-0.75,0.9-1.8,0.9-2.71C297.42,392.41,297.12,391.36,296.51,390.61z M328.23,408.2
			c-2.56,0-4.66,2.1-4.66,4.66s2.1,4.66,4.66,4.66s4.66-2.1,4.66-4.66l0,0C332.74,410.15,330.78,408.2,328.23,408.2z M328.23,416.61
			c-2.1,0-3.91-1.65-3.91-3.76c0-2.1,1.65-3.91,3.76-3.91c2.1,0,3.91,1.65,3.91,3.76l0,0C331.99,414.81,330.33,416.61,328.23,416.61
			z M352.58,474.78c-2.56,0-4.66,2.1-4.66,4.66c0,2.56,2.1,4.66,4.66,4.66s4.66-2.1,4.66-4.66l0,0
			C357.24,476.89,355.13,474.78,352.58,474.78z M352.58,483.2c-2.1,0-3.76-1.65-3.76-3.76l0,0c0-2.1,1.65-3.76,3.76-3.76
			c2.1,0,3.76,1.65,3.76,3.76l0,0C356.34,481.55,354.68,483.2,352.58,483.2L352.58,483.2L352.58,483.2z M324.92,444.87
			c-2.56,0-4.66,2.1-4.66,4.66s2.1,4.66,4.66,4.66c2.56,0,4.66-2.1,4.66-4.66l0,0C329.43,446.98,327.48,444.87,324.92,444.87
			L324.92,444.87z M324.92,453.29c-2.1,0-3.76-1.65-3.76-3.76c0-2.1,1.65-3.76,3.76-3.76l0,0c2.1,0,3.76,1.65,3.76,3.76
			C328.68,451.63,327.03,453.29,324.92,453.29L324.92,453.29z M367.31,430.74c-2.56,0-4.66,2.1-4.66,4.66s2.1,4.66,4.66,4.66
			s4.66-2.1,4.66-4.66S369.86,430.74,367.31,430.74z M367.31,439.16c-2.1,0-3.76-1.65-3.91-3.76c0-2.1,1.65-3.76,3.76-3.91
			c2.1,0,3.76,1.65,3.91,3.76l0,0C371.07,437.51,369.41,439.16,367.31,439.16L367.31,439.16z"/>
		<path class="st8" d="M384.59,452.24l-32.17,56.51c0,0-38.33-50.65-54.56-106.42c-1.8-6.01-1.95-11.42-0.6-15.63L384.59,452.24z"/>
		<path class="st4" d="M380.99,431.79c-7.36,10.67-26.45,40.43-36.22,61.32c0,0.15,0.45,0.45,0.45,0.3
			c10.82-16.08,30.06-49.75,36.52-61.17C381.89,431.94,381.14,431.49,380.99,431.79z"/>
		<path class="st5" d="M140.65,603.74l226.36-0.45l-12.63-77.86c0,0,17.89-21.79,14.58-45.24c-3.76-25.85-50.35-91.24-54.11-94.99
			c-15.78-14.73-32.47-17.44-48.4-12.02l0,0C192.2,419.62,140.65,603.74,140.65,603.74z"/>
		<path class="st1" d="M362.2,573.53c-0.75,0.9-1.8,1.35-2.86,1.35c-2.1,0.15-3.91-1.5-4.06-3.61c-0.15-2.1,1.5-3.91,3.61-4.06
			c0.15,0,0.3,0,0.45,0c0.75,0,1.35,0.15,1.95,0.6l-0.15-0.9c-0.6-0.3-1.2-0.45-1.8-0.45c-2.56,0-4.66,2.1-4.66,4.66
			c0,2.56,2.1,4.66,4.66,4.66c1.2,0,2.25-0.45,3.16-1.2L362.2,573.53z M316.5,549.78c-2.56,0-4.66,2.1-4.66,4.66
			c0,2.56,2.1,4.66,4.66,4.66s4.66-2.1,4.66-4.66l0,0C321.01,551.89,319.06,549.78,316.5,549.78z M316.5,558.2
			c-2.1,0-3.76-1.65-3.76-3.76c0-2.1,1.65-3.76,3.76-3.76c2.1,0,3.76,1.65,3.76,3.76C320.26,556.55,318.61,558.2,316.5,558.2
			L316.5,558.2L316.5,558.2z M352.58,474.78c-2.56,0-4.66,2.1-4.66,4.66c0,2.56,2.1,4.66,4.66,4.66s4.66-2.1,4.66-4.66l0,0
			C357.09,476.89,355.13,474.93,352.58,474.78L352.58,474.78z M352.58,483.35c-2.1,0-3.91-1.65-3.91-3.76s1.65-3.91,3.76-3.91
			c2.1,0,3.91,1.65,3.91,3.76l0,0C356.34,481.55,354.68,483.2,352.58,483.35L352.58,483.35z M186.64,591.42
			c-2.56,0-4.66,2.1-4.66,4.66c0,2.56,2.1,4.66,4.66,4.66s4.66-2.1,4.66-4.66C191.3,593.52,189.2,591.42,186.64,591.42z
			 M186.64,599.84c-2.1,0-3.76-1.65-3.91-3.76c0-2.1,1.65-3.76,3.76-3.91c2.1,0,3.76,1.65,3.91,3.76l0,0
			C190.4,598.18,188.75,599.84,186.64,599.84L186.64,599.84z M233.54,576.24c-2.56,0-4.66,1.95-4.66,4.51s1.95,4.66,4.51,4.66
			c2.56,0,4.66-1.95,4.66-4.51c0,0,0,0,0-0.15C238.05,578.34,236.09,576.24,233.54,576.24z M233.54,584.65
			c-2.1,0-3.76-1.65-3.91-3.76c0-2.1,1.65-3.76,3.76-3.91c2.1,0,3.76,1.65,3.91,3.76l0,0C237.29,583,235.64,584.65,233.54,584.65
			L233.54,584.65z M198.06,459.75c-0.15,0-0.45,0-0.6,0c-0.15,0.3-0.3,0.6-0.45,0.9c0.3-0.15,0.75-0.15,1.2-0.15
			c2.1,0,3.76,1.65,3.76,3.76c0,2.1-1.65,3.76-3.76,3.76c-1.65,0-3.16-1.05-3.61-2.71c-0.15,0.3-0.3,0.6-0.45,0.9
			c1.2,2.25,3.91,3.16,6.16,1.95c2.25-1.2,3.16-3.91,1.95-6.16C201.37,460.65,199.87,459.75,198.06,459.75z M210.99,494.92
			c-2.56,0-4.66,2.1-4.66,4.66s2.1,4.66,4.66,4.66s4.66-2.1,4.66-4.51l0,0C215.65,497.03,213.55,495.07,210.99,494.92L210.99,494.92
			z M210.99,503.34c-2.1,0-3.76-1.65-3.76-3.76c0-2.1,1.65-3.76,3.76-3.76s3.76,1.65,3.76,3.76l0,0
			C214.75,501.69,213.09,503.34,210.99,503.34L210.99,503.34z M248.87,399.18c-2.56,0-4.66,2.1-4.66,4.66s2.1,4.66,4.66,4.66
			s4.66-2.1,4.66-4.66S251.42,399.18,248.87,399.18L248.87,399.18z M248.87,407.6c-2.1,0-3.76-1.8-3.76-3.91
			c0-2.1,1.8-3.76,3.91-3.76c2.1,0,3.76,1.65,3.76,3.76C252.78,405.79,251.12,407.6,248.87,407.6
			C249.02,407.6,249.02,407.6,248.87,407.6L248.87,407.6z M253.53,478.99c-2.56,0-4.66,2.1-4.66,4.66s2.1,4.66,4.66,4.66
			c2.56,0,4.66-2.1,4.66-4.66l0,0C258.19,481.09,256.08,479.14,253.53,478.99L253.53,478.99z M253.53,487.56
			c-2.1,0-3.76-1.65-3.76-3.76c0-2.1,1.65-3.76,3.76-3.76s3.76,1.65,3.76,3.76C257.43,485.75,255.78,487.56,253.53,487.56
			C253.68,487.56,253.53,487.56,253.53,487.56L253.53,487.56z M292.91,388.81c-2.56,0-4.66,1.95-4.66,4.51
			c0,2.56,1.95,4.66,4.51,4.66s4.66-1.95,4.66-4.51c0,0,0,0,0-0.15C297.42,390.91,295.31,388.96,292.91,388.81L292.91,388.81z
			 M292.91,397.22c-2.1,0-3.76-1.65-3.91-3.76c0-2.1,1.65-3.76,3.76-3.91c2.1,0,3.76,1.65,3.91,3.76l0,0
			C296.66,395.57,295.01,397.22,292.91,397.22L292.91,397.22z M328.23,408.2c-2.56,0-4.66,2.1-4.66,4.66s2.1,4.66,4.66,4.66
			s4.66-2.1,4.66-4.66l0,0C332.74,410.15,330.78,408.2,328.23,408.2L328.23,408.2z M328.23,416.61c-2.1,0-3.91-1.65-3.91-3.76
			c0-2.1,1.65-3.91,3.76-3.91c2.1,0,3.91,1.65,3.91,3.76l0,0C331.99,414.81,330.33,416.61,328.23,416.61L328.23,416.61z
			 M312.75,586.76c-2.56,0-4.66,2.1-4.66,4.66c0,2.56,2.1,4.66,4.66,4.66s4.66-2.1,4.66-4.66l0,0
			C317.26,588.86,315.3,586.76,312.75,586.76z M312.75,595.18c-2.1,0-3.76-1.65-3.91-3.76c0-2.1,1.65-3.76,3.76-3.91
			c2.1-0.15,3.76,1.65,3.91,3.76l0,0C316.5,593.52,314.85,595.18,312.75,595.18L312.75,595.18L312.75,595.18z M270.66,556.7
			c-2.56,0-4.66,2.1-4.66,4.66s2.1,4.66,4.66,4.66s4.66-2.1,4.66-4.66c0,0,0,0,0-0.15C275.17,558.65,273.07,556.7,270.66,556.7
			L270.66,556.7z M270.66,565.11c-2.1,0-3.76-1.65-3.76-3.76s1.65-3.76,3.76-3.76l0,0c2.1,0,3.76,1.65,3.76,3.76
			S272.77,565.11,270.66,565.11z M320.26,501.39c-2.56,0-4.66,2.1-4.66,4.51c0,2.4,2.1,4.66,4.51,4.66c2.56,0,4.66-2.1,4.66-4.51
			l0,0C324.92,503.34,322.82,501.39,320.26,501.39L320.26,501.39z M320.26,509.65c-2.1,0-3.76-1.65-3.91-3.76
			c0-2.1,1.65-3.76,3.76-3.91c2.1,0,3.76,1.65,3.91,3.76l0,0C324.17,508,322.37,509.8,320.26,509.65
			C320.26,509.8,320.26,509.8,320.26,509.65L320.26,509.65z M324.92,444.87c-2.56,0-4.66,2.1-4.66,4.66s2.1,4.66,4.66,4.66
			c2.56,0,4.66-2.1,4.66-4.66l0,0C329.43,446.98,327.48,444.87,324.92,444.87L324.92,444.87z M324.92,453.29
			c-2.1,0-3.76-1.65-3.76-3.76c0-2.1,1.65-3.76,3.76-3.76l0,0c2.1,0,3.76,1.65,3.76,3.76C328.68,451.63,327.03,453.29,324.92,453.29
			L324.92,453.29z M356.79,519.87c-2.56,0-4.66,2.1-4.51,4.66c0,1.8,1.05,3.46,2.71,4.21l-0.15-1.05c-1.8-1.05-2.4-3.46-1.35-5.26
			c0.75-1.2,1.95-1.8,3.31-1.8c0.3,0,0.6,0,0.9,0.15c0.15-0.15,0.3-0.45,0.45-0.75C357.69,520.02,357.24,519.87,356.79,519.87
			L356.79,519.87z M296.66,470.57c-2.56,0-4.66,2.1-4.66,4.66s2.1,4.66,4.66,4.66s4.66-2.1,4.66-4.66l0,0
			C301.32,472.68,299.22,470.72,296.66,470.57L296.66,470.57z M296.66,478.99c-2.1,0-3.76-1.65-3.76-3.76c0-2.1,1.65-3.76,3.76-3.76
			c2.1,0,3.76,1.65,3.76,3.76l0,0C300.57,477.34,298.77,478.99,296.66,478.99C296.66,478.99,296.66,479.14,296.66,478.99
			L296.66,478.99z M178.52,519.87c-2.56,0-4.66,2.1-4.66,4.66c0,2.56,2.1,4.66,4.66,4.66s4.66-2.1,4.66-4.66l0,0
			C183.03,521.98,181.08,519.87,178.52,519.87z M178.52,528.29c-2.1,0-3.76-1.65-3.76-3.76c0-2.1,1.65-3.76,3.76-3.76
			s3.76,1.65,3.76,3.76l0,0C182.28,526.64,180.63,528.29,178.52,528.29z M270.66,599.08c-2.4,0-4.51,1.95-4.66,4.36h0.75
			c0.15-1.95,1.8-3.61,3.76-3.61s3.61,1.65,3.76,3.61h0.75C275.17,600.89,273.07,599.08,270.66,599.08L270.66,599.08z
			 M235.04,527.09c-2.56,0-4.66,2.1-4.66,4.66c0,2.56,2.1,4.66,4.66,4.66s4.66-2.1,4.66-4.66c0,0,0,0,0-0.15
			C239.7,529.04,237.59,527.09,235.04,527.09L235.04,527.09z M235.04,535.5c-2.1,0-3.76-1.65-3.76-3.76s1.65-3.76,3.76-3.76
			s3.76,1.65,3.76,3.76l0,0C238.95,533.7,237.14,535.5,235.04,535.5L235.04,535.5L235.04,535.5z M237.44,442.62
			c-2.56,0-4.66,2.1-4.51,4.66c0,2.56,2.1,4.66,4.66,4.51c2.56,0,4.51-2.1,4.51-4.51C241.95,444.72,240,442.62,237.44,442.62
			C237.44,442.62,237.29,442.62,237.44,442.62L237.44,442.62z M237.44,451.03c-2.1,0-3.76-1.65-3.76-3.76c0-2.1,1.65-3.76,3.76-3.76
			l0,0c2.1,0,3.76,1.65,3.76,3.76C241.2,449.23,239.55,451.03,237.44,451.03L237.44,451.03z M155.68,559.7c-0.3,0-0.6,0-0.9,0
			c-0.15,0.3-0.15,0.6-0.3,0.9c2.1-0.45,4.06,0.75,4.66,2.86c0.45,2.1-0.75,4.06-2.86,4.66c-0.15,0-0.45,0.15-0.6,0.15
			c-1.35,0-2.56-0.6-3.16-1.8l-0.3,0.9c0.9,1.05,2.1,1.65,3.46,1.65c2.56,0.15,4.66-1.8,4.81-4.36c0.15-2.56-1.8-4.66-4.36-4.81
			C155.98,559.7,155.83,559.7,155.68,559.7L155.68,559.7z M205.73,552.19c-2.56,0-4.66,2.1-4.66,4.66c0,2.56,2.1,4.66,4.66,4.66
			c2.56,0,4.66-2.1,4.66-4.66l0,0C210.39,554.29,208.29,552.19,205.73,552.19L205.73,552.19z M205.73,560.61
			c-2.1,0-3.76-1.65-3.76-3.76s1.65-3.76,3.76-3.76s3.76,1.65,3.76,3.76C209.49,558.8,207.83,560.46,205.73,560.61L205.73,560.61z
			 M278.93,516.12c-2.56,0-4.66,1.95-4.66,4.51c0,2.56,1.95,4.66,4.51,4.66c2.56,0,4.66-1.95,4.66-4.51c0,0,0,0,0-0.15
			C283.44,518.22,281.48,516.12,278.93,516.12z M278.93,524.53c-2.1,0-3.76-1.65-3.76-3.76c0-2.1,1.65-3.76,3.76-3.76
			c2.1,0,3.76,1.65,3.76,3.76l0,0C282.84,522.88,281.03,524.53,278.93,524.53L278.93,524.53z M267.05,372.72
			c-0.6,0.9-1.65,1.5-2.71,1.5l0,0l-1.05,0.75c0.3,0,0.45,0,0.75,0c1.8,0,3.46-1.05,4.21-2.71L267.05,372.72z M281.33,423.98
			c-2.56,0-4.66,2.1-4.51,4.66c0,2.56,2.1,4.66,4.66,4.51c2.56,0,4.66-2.1,4.51-4.66C285.84,425.93,283.89,423.98,281.33,423.98
			L281.33,423.98z M281.33,432.4c-2.1,0-3.76-1.8-3.76-3.91s1.8-3.76,3.91-3.76s3.76,1.65,3.76,3.76
			C285.09,430.59,283.44,432.4,281.33,432.4L281.33,432.4L281.33,432.4z"/>
		<path class="st4" d="M318.61,519.42c-9.32,0.75-18.49,2.25-27.51,4.51c-4.51,1.2-8.87,2.56-13.23,3.91
			c-2.25,0.75-4.36,1.35-6.61,1.95c-2.25,0.75-4.66,1.2-7.06,1.35c-0.15,0-0.15,0-0.15,0.15c0,0.15,0,0.15,0.15,0.15
			c2.25,0.15,4.51,0,6.76-0.15c2.25-0.3,4.36-0.75,6.46-1.2c4.51-1.2,9.02-2.4,13.53-3.61c9.17-2.4,18.34-4.66,27.66-6.31
			C319.21,520.17,319.06,519.42,318.61,519.42z"/>
		<path class="st4" d="M341.46,527.69c-7.67-0.75-15.33-1.2-23-1.05c-3.76,0-7.67,0.3-11.42,0.75c-1.8,0.15-3.61,0.45-5.41,0.6
			s-3.91,0.75-6.01,1.05c-0.15,0-0.15,0.3,0,0.3c1.95-0.15,3.91,0,5.71,0l5.71-0.15c3.76-0.15,7.67-0.15,11.42-0.3
			c7.67-0.3,15.33-0.45,23-0.45C341.91,528.29,341.91,527.69,341.46,527.69z"/>
		<path class="st7" d="M239.1,393.47c-57.72,60.42-129.41,186.68-115.13,211.93c15.78,27.96,98.3-57.57,95.59-61.63
			c-2.25-3.61,27.21-80.26,47.95-135.88S253.38,378.44,239.1,393.47z"/>
		<path class="st5" d="M168.45,465.91l82.82,14.88c0,0,20.74-58.62,24.8-91.24c2.25-18.19-8.42-18.94-21.94-9.32
			C206.93,414.21,168.45,465.91,168.45,465.91z"/>
		<path class="st1" d="M198.06,459.75c-2.56,0-4.66,2.1-4.51,4.66c0,2.56,2.1,4.66,4.66,4.51c2.56,0,4.66-2.1,4.51-4.66l0,0
			C202.57,461.7,200.62,459.75,198.06,459.75z M198.06,468.17c-2.1,0-3.76-1.65-3.76-3.76c0-2.1,1.65-3.76,3.76-3.76
			c2.1,0,3.76,1.65,3.76,3.76C201.82,466.36,200.17,468.17,198.06,468.17L198.06,468.17z M248.87,399.18c-2.56,0-4.66,2.1-4.66,4.66
			s2.1,4.66,4.66,4.66s4.66-2.1,4.66-4.66S251.42,399.18,248.87,399.18L248.87,399.18z M248.87,407.6c-2.1,0-3.76-1.8-3.76-3.91
			c0-2.1,1.8-3.76,3.91-3.76c2.1,0,3.76,1.65,3.76,3.76C252.78,405.79,251.12,407.6,248.87,407.6
			C249.02,407.6,249.02,407.6,248.87,407.6L248.87,407.6z M212.79,417.21c-0.75,0-1.35,0.15-1.95,0.45l0,0l-2.25,2.25l0,0
			c-0.3,0.6-0.45,1.35-0.45,1.95c0,2.56,2.1,4.66,4.66,4.66c2.56,0,4.66-2.1,4.66-4.66C217.3,419.32,215.35,417.36,212.79,417.21
			L212.79,417.21L212.79,417.21z M212.79,425.63c-2.1,0-3.76-1.65-3.76-3.76c0-2.1,1.65-3.76,3.91-3.76c2.1,0,3.76,1.65,3.76,3.76
			C216.55,423.98,214.9,425.63,212.79,425.63L212.79,425.63L212.79,425.63z M250.07,480.64l0.9,0.15l0.15-0.15
			c0-0.15,0.15-0.6,0.45-1.2C251.12,479.74,250.52,480.04,250.07,480.64L250.07,480.64z M237.29,442.62c-2.56,0-4.66,2.1-4.51,4.66
			c0,2.56,2.1,4.66,4.66,4.51c2.56,0,4.51-2.1,4.51-4.51C241.95,444.72,239.85,442.62,237.29,442.62L237.29,442.62z M237.29,451.03
			c-2.1,0-3.76-1.65-3.76-3.76c0-2.1,1.65-3.76,3.76-3.76l0,0c2.1,0,3.76,1.65,3.76,3.76C241.05,449.23,239.4,451.03,237.29,451.03
			L237.29,451.03z M263.45,374.98c0.15,0,0.3,0,0.6,0c0.9,0,1.95-0.3,2.71-0.9C265.55,374.38,264.5,374.68,263.45,374.98
			L263.45,374.98z"/>
		<path class="st4" d="M250.67,467.27c-12.48-3.31-46.9-11.42-69.74-13.83c-0.15,0-0.3,0.45-0.15,0.6
			c18.79,4.81,56.97,11.72,69.74,13.98C250.82,468.02,250.97,467.27,250.67,467.27z"/>
		<path class="st4" d="M241.2,478.99c3.46,0.3,6.76,0.75,10.22,1.2l-0.75,0.45c2.4-9.02,5.26-17.89,8.12-26.75
			c2.86-8.87,6.01-17.74,9.62-26.3c-2.1,9.17-4.81,18.04-7.52,27.05c-2.71,9.02-5.71,17.74-9.02,26.6l-0.15,0.6l-0.45-0.15
			C247.82,480.64,244.51,479.89,241.2,478.99z"/>
		<path class="st4" d="M263,445.32c0.75-1.8,1.65-3.61,2.86-5.26c1.05-1.65,2.4-3.16,3.76-4.66c-0.15,1.05-0.45,1.95-0.9,2.86
			c-0.45,0.9-0.9,1.8-1.5,2.56C265.85,442.47,264.5,443.97,263,445.32z"/>
		<path class="st7" d="M125.77,607.8c15.63,16.98,51.7,15.63,142.94,20.89c12.63,0.75,41.78-87.03,28.26-88.38
			c-16.98-1.8-82.97-5.41-87.93-4.96C168.15,538.21,115.25,596.38,125.77,607.8z"/>
		<path class="st7" d="M278.63,538.66c0,0,38.48,0.6,58.47,7.06c26.9,8.72,46.59,27.36,54.26,35.62
			c16.23,17.29,43.29,70.49,29.46,80.86c-12.63,9.47-37.58-46.14-37.58-46.14s34.87,52.61,17.59,61.17
			c-17.29,8.57-42.69-57.72-42.69-57.72s34.57,54.86,15.33,60.87c-14.58,4.66-40.88-54.11-40.88-54.11s29.46,47.35,14.73,52.61
			c-16.23,6.01-44.04-46.74-44.04-46.74c-39.83,7.36-61.78-5.41-76.2-16.38C223.62,613.36,278.63,538.66,278.63,538.66z"/>
		<path class="st4" d="M372.42,597.13c4.36,6.01,8.72,12.02,12.48,18.49c3.76,6.46,7.36,12.93,10.52,19.54
			c7.67,16.53,10.07,27.96,9.77,27.21c-5.11-16.53-18.34-39.53-22.09-45.99s-7.21-12.93-10.97-19.39
			C371.97,597.13,372.27,596.98,372.42,597.13z"/>
		<path class="st4" d="M349.12,610.36c5.26,7.97,10.67,15.63,15.48,23.75c4.81,8.12,8.72,16.23,12.93,24.65c0.3,0.6-0.15,0.6-0.45,0
			c-4.51-8.27-9.47-15.48-14.13-23.75s-9.02-16.53-13.98-24.65v-0.15C348.97,610.21,348.97,610.36,349.12,610.36L349.12,610.36z"/>
		<path class="st4" d="M327.03,618.17c8.57,11.72,14.88,24.95,20.89,38.18c0.3,0.6-0.3,0.6-0.6-0.15
			c-6.76-12.78-11.87-22.85-20.59-37.73C326.42,618.17,326.88,617.87,327.03,618.17z"/>
		<path class="st4" d="M172.66,549.18c7.21-4.51,27.66-15.48,48.25-13.83c0.15,0,0.15,0,0.15,0.15s0,0.15-0.15,0.15
			c-16.98,0.75-40.73,9.77-48.1,13.68C172.66,549.48,172.51,549.33,172.66,549.18z"/>
		<path class="st7" d="M276.82,386.1c1.05,3.76,21.04,28.11,38.63,26.3c5.71-0.6,3.91-32.17,3.91-32.17l0.45-2.4l5.56-33.07
			l-39.68-22.55l-5.71-3.01c0,0-0.9,9.17-1.95,20.59c0,0.6-0.15,1.05-0.15,1.65s-0.15,1.2-0.15,1.8c-0.15,1.65-0.3,3.46-0.45,5.11
			c-0.15,1.35-0.15,2.56-0.3,4.06c-0.15,1.5-0.15,2.71-0.3,4.21C275.92,370.32,276.37,384.45,276.82,386.1z"/>
		<path class="st4" d="M278.03,339.66c7.67,18.19,23,32.17,41.78,38.18l5.56-33.07l-39.68-22.55l-5.71-3.01
			C280.13,319.22,279.08,328.23,278.03,339.66z"/>
		<path class="st7" d="M363.4,280.74c16.83,56.36-15.03,72.9-27.21,76.51c-10.97,3.31-49,13.08-71.7-41.18s-1.8-79.96,23.15-88.83
			S346.57,224.37,363.4,280.74z"/>
		<path class="st4" d="M348.52,269.16c-1.2,0.45-2.56,0.9-3.91,1.35c-1.35,0.6-2.71,0.9-4.21,0.6c-0.9-0.3-1.35-1.2-1.35-2.25
			c0.45-1.8,1.95-3.16,3.76-3.61c1.8-0.75,3.76-0.75,5.56,0c1.05,0.6,1.5,1.8,1.05,3.01C349.42,268.56,348.97,268.86,348.52,269.16z
			"/>
		<path class="st4" d="M314.4,293.51c1.2-0.75,2.25-1.5,3.31-2.25c1.2-0.9,2.4-1.5,3.01-3.01c0.3-0.9-0.15-1.95-1.05-2.4
			c-1.8-0.75-3.76-0.3-5.26,0.9c-1.65,1.05-2.86,2.56-3.31,4.36c-0.3,1.2,0.6,2.4,1.8,2.71
			C313.35,293.81,313.95,293.81,314.4,293.51z"/>
		<path class="st4" d="M323.72,295.62c0-0.15-0.3,0.3-0.15,0.45c1.35,3.76,2.4,8.27-0.6,10.67c-0.15,0.15,0,0.3,0.15,0.15
			C327.03,304.94,325.67,298.92,323.72,295.62z"/>
		<path class="st4" d="M319.06,292.91c-6.31,1.65-2.56,13.98,3.16,12.48C327.93,303.88,324.17,291.56,319.06,292.91z"/>
		<path class="st4" d="M316.81,294.27c-0.9,1.05-1.5,2.56-2.86,3.16c-1.35,0.6-3.01-0.3-4.36-1.35c-0.15-0.15-0.15,0-0.15,0.15
			c0.6,2.4,2.25,4.51,4.96,4.21s3.46-3.01,3.31-5.56C317.71,294.42,317.11,293.81,316.81,294.27z"/>
		<path class="st4" d="M344.91,287.5c0-0.15,0.3,0.15,0.45,0.3c1.05,3.91,2.86,8.12,6.61,8.42c0.15,0,0.15,0.15,0,0.15
			C347.62,297.12,345.36,291.41,344.91,287.5z"/>
		<path class="st4" d="M347.32,282.54c6.01-2.25,10.07,10.07,4.51,12.17C346.27,296.82,342.21,284.5,347.32,282.54z"/>
		<path class="st4" d="M350.02,282.54c1.2,0.3,2.56,1.2,3.76,0.9s1.95-1.95,2.4-3.61c0-0.15,0.15-0.15,0.3,0
			c0.9,2.4,0.9,5.11-1.2,6.16c-2.1,1.05-4.06-0.45-5.41-2.56C349.57,283.14,349.57,282.39,350.02,282.54z"/>
		<path class="st4" d="M334.39,328.38c1.2,0.75,2.4,1.65,3.91,1.5c1.5-0.45,2.86-1.05,3.91-1.95h0.15v0.15
			c-0.75,1.8-2.4,3.16-4.36,3.31c-1.65,0-3.31-1.05-3.91-2.71C333.94,328.38,334.24,328.23,334.39,328.38z"/>
		<path class="st4" d="M346.11,309.6c0,0,2.56,5.41,3.46,8.12c0,0.3-0.6,0.6-1.5,0.9c0,0,0,0-0.15,0c-4.51,2.25-9.77,1.95-13.98-0.9
			c-0.15-0.15-0.15-0.3,0-0.45c0.15-0.15,0.15-0.15,0.3-0.15c4.21,1.35,8.72,1.2,12.78-0.3c0-0.75-4.66-9.17-4.36-9.32
			c2.1-0.45,4.36-0.6,6.61-0.45c-4.96-11.57-11.87-22.25-16.68-33.82c0-0.15,0-0.45,0.3-0.45c0.15,0,0.3,0,0.45,0.15
			c7.97,10.67,13.98,23.9,19.39,35.62C353.48,310.05,347.32,309.75,346.11,309.6z"/>
		<path class="st4" d="M270.51,228.58c-0.6,4.96-24.95,15.93-41.33,2.25s-8.12-38.78,15.03-35.02
			C258.94,198.07,271.56,218.06,270.51,228.58z"/>
		<path class="st4" d="M221.51,207.84c2.86-6.01,7.67-10.97,13.68-13.83c5.71-2.86,12.48-2.56,17.74,0.9
			c5.41,3.31,9.47,8.72,12.48,14.58c1.5,3.01,2.71,6.01,3.61,9.32c1.05,3.16,1.5,6.61,1.35,9.92c0.9-3.31,1.05-6.91,0.45-10.37
			c-0.6-3.46-1.5-6.91-2.86-10.07c-2.56-6.76-7.06-12.48-13.08-16.53c-3.16-1.95-6.76-3.16-10.52-3.16s-7.36,1.05-10.52,2.86
			C227.67,194.91,223.32,200.93,221.51,207.84z"/>
		<path class="st4" d="M272.16,320.57c11.72-4.21,3.01-31.26,3.01-31.26s18.64-10.52,22.09-26.75c0,0-1.5,13.53-7.67,21.04
			c-1.05,1.2,37.88-16.53,31.11-48.7c0,0,16.38,28.41,36.82,28.41c0.9,0-12.17-26.75-20.29-31.26c-4.66-2.71-9.77-4.66-14.88-6.01
			c-15.18-4.81-31.71-3.61-45.99,3.61c-23.45,12.02-30.81,43.59-29.01,54.86C250.97,306.59,266.6,322.52,272.16,320.57z"/>
		<path class="st4" d="M291.25,283.74c21.64-8.42,34.27-28.56,28.41-51.55c0-0.3,0.15-0.6,0.45-0.6c0.15,0,0.45,0,0.6,0.3
			c10.82,21.79-8.12,46.9-29.46,52.31C290.65,284.34,290.65,284.04,291.25,283.74z"/>
		<path class="st4" d="M271.86,319.22c9.77-10.22,7.67-22.85,4.36-35.17c-0.15-0.3,0.45-0.6,0.6-0.15
			c4.21,11.87,7.06,27.21-4.21,36.22c-0.3,0.15-0.6,0.15-0.75-0.15C271.56,319.67,271.71,319.37,271.86,319.22z"/>
		<path class="st4" d="M319.36,230.08C319.36,230.08,319.36,229.93,319.36,230.08c0.15-0.15,0.15-0.15,0.15-0.15
			c6.91,11.72,14.88,32.62,32.01,30.36c0.15,0,0.45,0.15,0.45,0.3s-0.15,0.45-0.3,0.45C335.44,264.81,322.22,243.76,319.36,230.08z"
			/>
		<path class="st5" d="M249.47,282.99l-2.71,5.71l18.79,13.23l5.71-12.78L249.47,282.99z M264.2,296.07l-12.93-8.12l0.6-1.35
			l14.58,4.96L264.2,296.07z"/>
		<path class="st5" d="M250.07,273.07l-0.3,6.31l22.4,5.11l0.45-13.98L250.07,273.07z M268.71,279.69l-15.03-2.56v-1.5l15.33-0.9
			L268.71,279.69z"/>
		<path class="st7" d="M274.87,317.71c0,0-16.38-15.33-23.6-9.17c-7.21,6.16,7.67,30.36,17.89,31.86c5.41,1.2,10.67-2.1,11.87-7.52
			c0-0.15,0-0.3,0.15-0.45L274.87,317.71z"/>
		<path class="st4" d="M255.63,315.31L255.63,315.31c-0.15,0.15,0,0.3,0,0.3c7.21,1.35,12.17,6.76,15.93,12.78
			c-2.56-2.1-5.56-2.86-8.42,0.15c-0.15,0.15,0.15,0.45,0.3,0.3c2.25-1.2,5.11-0.9,7.06,0.75c1.65,1.35,3.01,3.01,4.21,4.66
			c0.45,0.6,1.5,0,1.05-0.6l-0.15-0.15C274.27,324.93,265.1,314.26,255.63,315.31z"/>
		<path class="st4" d="M368.21,305.54c0.6,2.56,0.75,5.26,0.6,7.82c-0.15,2.71-0.6,5.26-1.5,7.67c0-2.71,0.15-5.11,0.3-7.82
			C367.76,310.5,367.91,308.09,368.21,305.54z"/>
	</g>
	<g id="freepik--question-marks--inject-12">
		<path class="st5" d="M339.35,213.55c0-3.31,0.6-6.61,1.8-9.77c1.5-3.31,4.21-5.86,7.36-7.52c1.05-0.6,2.4-1.35,4.06-2.25
			c1.65-0.9,3.31-1.8,4.81-3.01c1.5-1.2,2.86-2.56,3.91-4.21s1.65-3.61,1.65-5.56c0-1.35-0.3-2.86-0.9-4.06
			c-0.6-1.2-1.35-2.1-2.25-3.01c-1.05-0.9-2.1-1.5-3.46-1.8c-1.35-0.45-2.56-0.6-3.91-0.6c-1.5,0-3.01,0.3-4.51,0.9
			c-1.35,0.6-2.56,1.2-3.61,2.1c-1.05,0.9-2.1,1.8-2.86,2.86c-0.75,0.9-1.5,1.95-2.1,3.01l-9.77-6.61c0.9-2.25,2.25-4.36,3.91-6.16
			c1.65-1.8,3.46-3.31,5.41-4.51c2.1-1.2,4.36-2.1,6.61-2.71c2.4-0.6,4.81-0.9,7.36-0.9c2.86,0,5.56,0.45,8.27,1.2
			s5.26,2.1,7.36,3.91c2.25,1.8,4.06,4.21,5.26,6.91c1.5,3.16,2.1,6.46,2.1,9.92c0,2.1-0.3,4.21-0.75,6.31
			c-0.6,1.8-1.35,3.46-2.4,4.96s-2.25,2.86-3.76,4.06c-1.5,1.2-3.16,2.4-4.81,3.46c-1.5,0.9-3.01,1.8-4.51,2.56
			c-1.5,0.75-2.86,1.65-4.06,2.71c-1.2,0.9-2.25,2.1-3.01,3.46c-0.75,1.5-1.2,3.01-1.2,4.66L339.35,213.55z M339.65,239.55v-15.33
			h12.33v15.33H339.65z"/>
		<path class="st6" d="M314.55,165.6c0,2.56-0.45,4.96-1.35,7.21c-1.2,2.4-3.01,4.36-5.41,5.56c-0.9,0.45-1.8,1.05-3.01,1.65
			c-1.2,0.6-2.4,1.35-3.61,2.25s-2.1,1.95-3.01,3.16c-0.75,1.2-1.2,2.71-1.2,4.06c0,2.1,0.9,3.91,2.4,5.26
			c0.75,0.6,1.65,1.05,2.56,1.35c0.9,0.3,1.95,0.45,2.86,0.45c1.05,0,2.25-0.15,3.31-0.6c0.9-0.45,1.8-0.9,2.71-1.5
			c0.75-0.6,1.5-1.35,2.1-2.1c0.6-0.75,1.05-1.5,1.65-2.25l7.21,4.96c-0.75,1.65-1.65,3.16-2.86,4.51c-1.2,1.35-2.56,2.4-4.06,3.31
			c-1.5,0.9-3.16,1.65-4.96,2.1c-3.76,1.05-7.82,0.9-11.57-0.15c-1.95-0.6-3.91-1.65-5.56-3.01s-3.01-3.16-3.91-5.11
			c-1.05-2.25-1.5-4.81-1.5-7.36c0-1.65,0.15-3.16,0.6-4.66c0.45-1.35,1.05-2.56,1.8-3.61s1.65-2.1,2.71-3.01s2.25-1.8,3.61-2.56
			c1.05-0.6,2.25-1.35,3.31-1.95c1.05-0.6,2.1-1.2,3.01-1.95c0.9-0.75,1.65-1.65,2.25-2.56c0.6-1.05,0.9-2.25,0.9-3.46L314.55,165.6
			z M314.25,146.36v11.42h-9.17v-11.42H314.25z"/>
		<path class="st6" d="M428.78,286.75c0,2.56-0.45,4.96-1.35,7.21c-1.2,2.4-3.16,4.36-5.56,5.56c-0.75,0.45-1.8,1.05-3.01,1.65
			s-2.4,1.35-3.61,2.25c-1.2,0.9-2.1,1.95-3.01,3.16c-0.75,1.2-1.2,2.56-1.2,4.06c0,1.05,0.15,2.1,0.75,3.01
			c0.45,0.9,1.05,1.65,1.65,2.25c0.75,0.6,1.65,1.05,2.56,1.35c0.9,0.3,1.95,0.45,3.01,0.45c1.2,0,2.25-0.15,3.31-0.6
			c0.9-0.45,1.8-0.9,2.71-1.65c0.75-0.6,1.5-1.35,2.1-2.1s1.05-1.5,1.65-2.25l7.21,4.96c-0.75,1.65-1.65,3.16-2.86,4.51
			c-1.2,1.35-2.56,2.4-4.06,3.31c-1.5,0.9-3.16,1.65-4.96,2.1c-1.8,0.45-3.61,0.75-5.41,0.75c-2.1,0-4.21-0.3-6.16-0.9
			c-1.95-0.6-3.91-1.5-5.41-2.86c-1.65-1.35-3.01-3.16-3.91-5.11c-1.05-2.25-1.5-4.81-1.5-7.36c0-1.65,0.15-3.16,0.6-4.66
			c0.45-1.35,1.05-2.56,1.8-3.61s1.65-2.1,2.71-3.01c1.05-0.9,2.25-1.8,3.61-2.56c1.05-0.6,2.25-1.35,3.31-1.95
			c1.05-0.6,2.1-1.2,3.01-1.95c0.9-0.75,1.65-1.65,2.25-2.56c0.6-1.05,0.9-2.25,0.9-3.46L428.78,286.75z M428.63,267.51v11.42h-9.17
			v-11.42H428.63z"/>
		<path class="st5" d="M174.77,331.09c0-2.56,0.45-4.96,1.35-7.21c1.2-2.4,3.01-4.36,5.41-5.56c0.9-0.45,1.8-1.05,3.01-1.65
			c1.2-0.6,2.4-1.35,3.61-2.25c1.2-0.9,2.1-1.95,2.86-3.16c0.75-1.2,1.2-2.71,1.2-4.06c0-1.05-0.15-2.1-0.6-3.01
			c-0.45-0.9-1.05-1.65-1.65-2.25c-0.75-0.6-1.65-1.05-2.56-1.35c-0.9-0.3-1.95-0.45-3.01-0.45c-1.2,0-2.25,0.15-3.31,0.6
			c-0.9,0.3-1.8,0.9-2.71,1.5c-0.75,0.6-1.5,1.35-2.1,2.1s-1.05,1.5-1.65,2.25l-7.21-4.96c0.75-1.65,1.65-3.16,2.86-4.51
			c1.2-1.35,2.56-2.4,4.06-3.31s3.16-1.65,4.96-2.1c1.8-0.45,3.61-0.75,5.41-0.75c2.1,0,4.21,0.3,6.16,0.9
			c1.95,0.6,3.91,1.5,5.41,2.86c1.65,1.35,3.01,3.16,3.91,5.11c1.05,2.25,1.5,4.81,1.5,7.36c0,1.5-0.15,3.16-0.6,4.66
			c-0.45,1.35-1.05,2.56-1.8,3.61c-0.75,1.05-1.65,2.1-2.71,3.01c-1.05,0.9-2.25,1.8-3.61,2.56c-1.05,0.6-2.25,1.35-3.31,1.95
			s-2.1,1.2-3.01,2.1c-0.9,0.75-1.65,1.65-2.25,2.56c-0.6,1.05-0.9,2.25-0.9,3.46L174.77,331.09z M174.92,350.33v-11.42h9.17v11.42
			H174.92z"/>
	</g>
</g>
</svg>
